M48
;DRILL file {KiCad no-vcs-found} date Sat Aug 11 17:43:13 2018
;FORMAT={-:-/ absolute / inch / decimal}
FMAT,2
INCH,TZ
T1C0.010
T2C0.012
T3C0.013
T4C0.015
T5C0.025
T6C0.038
T7C0.039
T8C0.125
%
G90
G05
M72
T1
X7.345Y-3.175
X7.41Y-2.955
X8.145Y-5.785
X8.2Y-5.64
X8.2725Y-5.5375
X8.275Y-5.605
X8.275Y-5.735
X8.3Y-5.605
X8.3Y-5.735
X8.325Y-5.605
X8.325Y-5.735
X8.475Y-2.935
X8.5375Y-3.2675
X8.545Y-3.3025
X8.575Y-3.2675
X8.645Y-5.41
X8.645Y-5.54
X8.67Y-5.41
X8.67Y-5.54
X8.695Y-5.41
X8.695Y-5.54
X8.725Y-2.935
X8.74Y-5.5875
X8.775Y-5.5
X8.78Y-3.2875
X8.8025Y-3.155
X8.9275Y-5.4125
X8.94Y-5.58
X9.12Y-3.235
X9.1475Y-3.43
X9.25Y-3.2375
X9.255Y-3.275
X9.3025Y-3.34
T2
X6.Y-3.8025
X6.Y-3.9425
X6.025Y-5.315
X6.035Y-5.02
X6.0475Y-3.8325
X6.0475Y-3.8825
X6.08Y-3.1
X6.08Y-3.1475
X6.08Y-3.25
X6.08Y-5.315
X6.085Y-4.55
X6.085Y-4.775
X6.1Y-3.05
X6.1025Y-3.7825
X6.1025Y-3.96
X6.1075Y-3.2
X6.135Y-4.55
X6.135Y-4.77
X6.1375Y-3.87
X6.14Y-5.17
X6.155Y-4.335
X6.18Y-4.505
X6.1825Y-4.095
X6.1825Y-4.155
X6.185Y-5.02
X6.2275Y-3.8325
X6.24Y-3.176
X6.245Y-4.235
X6.265Y-4.215
X6.285Y-4.885
X6.2975Y-3.4825
X6.2975Y-4.57
X6.3175Y-4.02
X6.3275Y-4.1275
X6.3325Y-3.4525
X6.3325Y-3.7825
X6.372Y-3.1
X6.372Y-3.15
X6.374Y-3.05
X6.375Y-4.7525
X6.3875Y-4.6
X6.41Y-5.265
X6.41Y-5.315
X6.415Y-4.6
X6.425Y-4.435
X6.426Y-3.086
X6.426Y-3.126
X6.43Y-4.86
X6.43Y-5.11
X6.435Y-2.5375
X6.435Y-3.8025
X6.435Y-4.0975
X6.435Y-4.25
X6.438Y-4.
X6.44Y-3.0125
X6.445Y-3.7625
X6.445Y-4.0575
X6.445Y-4.6
X6.45Y-3.9025
X6.4525Y-3.1975
X6.455Y-3.585
X6.455Y-3.8625
X6.4575Y-4.215
X6.4575Y-4.265
X6.4625Y-3.625
X6.465Y-3.685
X6.465Y-5.625
X6.465Y-5.675
X6.465Y-5.725
X6.4675Y-3.9525
X6.4675Y-4.1575
X6.48Y-2.6725
X6.48Y-3.4125
X6.49Y-2.5375
X6.49Y-4.0575
X6.49Y-5.11
X6.4925Y-2.3975
X6.5Y-4.545
X6.5Y-4.6
X6.5025Y-4.2225
X6.5025Y-4.2525
X6.5075Y-3.6425
X6.514Y-3.438
X6.515Y-4.485
X6.5175Y-3.9175
X6.5275Y-3.605
X6.5375Y-2.7075
X6.54Y-2.605
X6.54Y-2.64
X6.54Y-2.74
X6.5575Y-2.5375
X6.5575Y-2.6225
X6.5575Y-2.935
X6.5575Y-2.9625
X6.57Y-3.9175
X6.575Y-2.605
X6.575Y-2.64
X6.585Y-2.5375
X6.585Y-2.935
X6.585Y-2.9625
X6.585Y-4.2
X6.5875Y-3.8075
X6.59Y-3.476
X6.5925Y-3.265
X6.6Y-4.0575
X6.6025Y-2.875
X6.61Y-3.83
X6.615Y-4.275
X6.6225Y-3.9425
X6.625Y-4.72
X6.6325Y-3.5975
X6.6325Y-4.22
X6.64Y-4.425
X6.6475Y-2.435
X6.65Y-3.3525
X6.6525Y-3.4775
X6.655Y-3.1775
X6.658Y-3.422
X6.66Y-4.145
X6.67Y-4.12
X6.675Y-4.78
X6.68Y-3.3225
X6.68Y-3.3525
X6.68Y-4.2675
X6.685Y-4.445
X6.6875Y-3.6175
X6.6875Y-3.6725
X6.6875Y-3.8175
X6.6875Y-4.1725
X6.6925Y-3.7325
X6.695Y-2.66
X6.7025Y-3.9925
X6.705Y-3.965
X6.7125Y-3.0375
X6.7125Y-3.6325
X6.72Y-4.865
X6.7225Y-3.395
X6.7275Y-3.4275
X6.7275Y-3.92
X6.7325Y-3.7325
X6.7325Y-3.7725
X6.735Y-4.22
X6.745Y-4.45
X6.745Y-4.58
X6.755Y-2.66
X6.755Y-2.87
X6.755Y-3.4
X6.755Y-4.2875
X6.7575Y-3.24
X6.775Y-3.94
X6.776Y-3.0085
X6.7825Y-2.945
X6.7825Y-4.2875
X6.795Y-4.3125
X6.795Y-5.675
X6.795Y-5.725
X6.8025Y-4.12
X6.81Y-4.2375
X6.8125Y-4.55
X6.8125Y-4.9125
X6.825Y-4.97
X6.825Y-5.095
X6.83Y-3.3525
X6.83Y-4.8925
X6.835Y-4.
X6.835Y-5.8
X6.85Y-2.415
X6.85Y-4.8725
X6.86Y-3.3525
X6.8625Y-4.
X6.87Y-3.6175
X6.8775Y-2.57
X6.8875Y-3.3525
X6.89Y-4.2825
X6.89Y-5.8
X6.8925Y-3.16
X6.8925Y-4.
X6.9Y-3.48
X6.9Y-4.9525
X6.9Y-5.115
X6.91Y-3.635
X6.9125Y-2.505
X6.915Y-3.3525
X6.92Y-3.685
X6.92Y-4.9725
X6.9225Y-2.5775
X6.9225Y-2.645
X6.9225Y-5.135
X6.925Y-4.72
X6.9275Y-2.935
X6.928Y-3.478
X6.938Y-4.754
X6.94Y-4.66
X6.94Y-4.688
X6.94Y-4.9925
X6.95Y-5.155
X6.96Y-4.805
X6.962Y-4.62
X6.9675Y-3.0025
X6.97Y-3.3525
X6.975Y-4.58
X6.98Y-4.78
X6.9875Y-3.5975
X7.0035Y-3.0835
X7.0035Y-3.1635
X7.0125Y-4.465
X7.03Y-3.3525
X7.04Y-5.48
X7.0415Y-3.1215
X7.045Y-3.62
X7.045Y-4.43
X7.0475Y-4.0375
X7.06Y-4.5675
X7.075Y-3.705
X7.076Y-3.466
X7.0835Y-3.0835
X7.0835Y-3.1635
X7.085Y-4.5575
X7.086Y-3.592
X7.0875Y-3.8025
X7.095Y-5.26
X7.0975Y-2.985
X7.1075Y-3.61
X7.1075Y-4.575
X7.11Y-3.7825
X7.12Y-3.462
X7.1225Y-3.7175
X7.1275Y-4.07
X7.13Y-4.315
X7.13Y-4.5025
X7.1375Y-3.7625
X7.1375Y-4.005
X7.148Y-3.464
X7.15Y-4.09
X7.155Y-3.8975
X7.1575Y-4.4575
X7.16Y-3.94
X7.1625Y-3.4175
X7.165Y-3.585
X7.18Y-2.935
X7.19Y-2.6475
X7.1925Y-2.5525
X7.1925Y-5.3025
X7.205Y-4.5575
X7.21Y-5.5925
X7.225Y-4.72
X7.23Y-3.345
X7.25Y-2.9625
X7.2525Y-3.1575
X7.27Y-3.714
X7.27Y-3.96
X7.2725Y-3.2875
X7.2725Y-3.8625
X7.2725Y-3.9975
X7.275Y-3.345
X7.28Y-4.5125
X7.286Y-3.588
X7.29Y-4.4575
X7.29Y-4.675
X7.315Y-3.895
X7.3175Y-4.845
X7.325Y-3.3925
X7.3275Y-3.445
X7.3375Y-3.645
X7.3575Y-2.55
X7.3575Y-4.395
X7.3625Y-3.62
X7.3625Y-5.43
X7.3625Y-5.48
X7.365Y-3.895
X7.37Y-3.49
X7.39Y-4.04
X7.39Y-4.6025
X7.405Y-3.745
X7.405Y-4.26
X7.4055Y-3.269
X7.415Y-3.895
X7.44Y-3.685
X7.45Y-4.49
X7.45Y-5.3575
X7.46Y-3.61
X7.465Y-4.185
X7.465Y-4.26
X7.4725Y-5.
X7.5125Y-5.63
X7.5475Y-4.345
X7.555Y-4.625
X7.6Y-3.525
X7.67Y-5.12
X7.67Y-5.16
X7.67Y-5.2
X7.67Y-5.24
X7.67Y-5.28
X7.67Y-5.32
X7.67Y-5.36
X7.67Y-5.4
X7.67Y-5.44
X7.67Y-5.48
X7.67Y-5.52
X7.67Y-5.56
X7.67Y-5.6
X7.67Y-5.64
X7.672Y-5.08
X7.688Y-5.058
X7.688Y-5.14
X7.688Y-5.18
X7.688Y-5.22
X7.688Y-5.26
X7.688Y-5.3
X7.688Y-5.34
X7.688Y-5.38
X7.688Y-5.42
X7.688Y-5.46
X7.688Y-5.5
X7.688Y-5.54
X7.688Y-5.58
X7.69Y-5.1
X7.71Y-5.36
X7.718Y-5.598
X7.72Y-5.11
X7.744Y-5.362
X7.745Y-3.515
X7.745Y-3.92
X7.746Y-5.087
X7.746Y-5.125
X7.746Y-5.278
X7.746Y-5.318
X7.746Y-5.4
X7.746Y-5.44
X7.746Y-5.48
X7.746Y-5.52
X7.746Y-5.56
X7.747Y-5.163
X7.747Y-5.201
X7.747Y-5.239
X7.75Y-5.608
X7.762Y-5.34
X7.762Y-5.64
X7.764Y-5.068
X7.764Y-5.106
X7.764Y-5.259
X7.764Y-5.298
X7.764Y-5.38
X7.764Y-5.42
X7.764Y-5.46
X7.764Y-5.5
X7.764Y-5.54
X7.764Y-5.58
X7.765Y-5.144
X7.765Y-5.182
X7.765Y-5.22
X7.775Y-4.025
X7.775Y-4.075
X7.775Y-4.125
X7.78Y-3.615
X7.78Y-3.665
X7.78Y-3.715
X7.79Y-3.64
X7.79Y-3.74
X7.79Y-4.05
X7.79Y-4.1
X7.87Y-3.285
X7.8725Y-4.655
X7.89Y-3.515
X7.89Y-3.92
X7.89Y-5.0475
X7.915Y-5.63
X7.94Y-3.525
X7.945Y-5.
X7.9575Y-3.12
X7.96Y-4.575
X7.964Y-5.187
X7.968Y-3.764
X7.97Y-5.01
X7.9725Y-3.605
X7.9875Y-3.67
X7.9875Y-3.73
X7.99Y-2.5425
X7.99Y-4.1
X7.99Y-4.16
X7.995Y-3.0125
X7.995Y-5.065
X8.02Y-5.056
X8.025Y-4.86
X8.027Y-5.207
X8.03Y-3.54
X8.04Y-4.33
X8.0425Y-2.68
X8.045Y-2.54
X8.045Y-5.065
X8.0475Y-2.395
X8.07Y-5.05
X8.0725Y-3.4725
X8.08Y-3.775
X8.08Y-3.82
X8.082Y-5.226
X8.085Y-4.255
X8.0875Y-3.6175
X8.0925Y-2.7125
X8.095Y-2.605
X8.095Y-2.6375
X8.095Y-2.74
X8.095Y-5.0675
X8.105Y-4.275
X8.1125Y-2.6225
X8.115Y-2.5275
X8.1225Y-5.0675
X8.125Y-3.62
X8.125Y-3.7225
X8.13Y-2.605
X8.13Y-2.64
X8.135Y-3.78
X8.135Y-4.1225
X8.14Y-2.535
X8.14Y-3.205
X8.14Y-3.2425
X8.14Y-3.3575
X8.14Y-3.42
X8.14Y-4.31
X8.14Y-4.35
X8.142Y-5.246
X8.15Y-5.0675
X8.1575Y-2.87
X8.165Y-2.95
X8.165Y-4.63
X8.165Y-5.81
X8.1725Y-3.4475
X8.18Y-5.065
X8.1825Y-5.685
X8.19Y-5.325
X8.2025Y-2.435
X8.2075Y-4.8175
X8.21Y-5.125
X8.215Y-4.9
X8.215Y-4.93
X8.215Y-4.96
X8.215Y-4.99
X8.215Y-5.02
X8.23Y-5.105
X8.24Y-3.135
X8.247Y-4.127
X8.247Y-4.255
X8.25Y-2.6625
X8.25Y-3.8225
X8.25Y-4.06
X8.25Y-4.645
X8.25Y-5.085
X8.254Y-4.
X8.255Y-3.9425
X8.26Y-4.43
X8.26Y-4.88
X8.265Y-4.305
X8.2675Y-3.0375
X8.2675Y-3.6025
X8.279Y-5.266
X8.28Y-4.165
X8.28Y-4.645
X8.285Y-4.4225
X8.29Y-3.92
X8.295Y-4.61
X8.295Y-5.125
X8.3Y-4.86
X8.31Y-2.6625
X8.31Y-2.87
X8.31Y-2.95
X8.31Y-3.665
X8.31Y-5.26
X8.315Y-3.355
X8.315Y-3.4225
X8.315Y-3.615
X8.32Y-4.43
X8.32Y-4.51
X8.32Y-4.625
X8.32Y-5.02
X8.33Y-5.235
X8.34Y-2.385
X8.34Y-2.945
X8.34Y-4.605
X8.34Y-4.99
X8.34Y-5.105
X8.35Y-3.0075
X8.35Y-5.21
X8.36Y-4.96
X8.36Y-5.085
X8.365Y-5.185
X8.37Y-3.3475
X8.3725Y-3.5975
X8.38Y-5.0425
X8.385Y-4.495
X8.39Y-4.4625
X8.395Y-4.42
X8.395Y-5.625
X8.3975Y-3.165
X8.4Y-3.3775
X8.4Y-4.93
X8.405Y-5.695
X8.41Y-3.615
X8.41Y-4.27
X8.4225Y-3.4825
X8.43Y-3.1825
X8.4325Y-2.5675
X8.4375Y-3.3475
X8.442Y-3.588
X8.455Y-4.31
X8.4575Y-3.185
X8.46Y-4.9
X8.4625Y-3.4825
X8.4675Y-2.505
X8.47Y-4.7
X8.47Y-4.74
X8.4725Y-2.585
X8.48Y-5.065
X8.48Y-5.1
X8.48Y-5.13
X8.48Y-5.16
X8.482Y-3.586
X8.482Y-3.704
X8.49Y-4.28
X8.49Y-5.185
X8.505Y-2.6875
X8.505Y-4.8025
X8.505Y-4.99
X8.505Y-5.21
X8.5075Y-5.5875
X8.51Y-4.675
X8.52Y-3.4725
X8.5225Y-4.4225
X8.53Y-5.235
X8.54Y-4.3
X8.5425Y-4.605
X8.545Y-2.9975
X8.5475Y-5.49
X8.55Y-5.26
X8.555Y-3.0875
X8.555Y-3.1675
X8.56Y-4.91
X8.5625Y-3.43
X8.5675Y-5.445
X8.57Y-5.775
X8.58Y-4.61
X8.58Y-4.64
X8.5825Y-4.2975
X8.595Y-3.125
X8.6025Y-4.255
X8.605Y-4.4725
X8.6125Y-4.53
X8.62Y-3.38
X8.62Y-3.42
X8.62Y-5.67
X8.635Y-3.0875
X8.635Y-3.1675
X8.64Y-4.565
X8.6425Y-4.425
X8.645Y-3.435
X8.66Y-2.9775
X8.68Y-4.565
X8.695Y-4.28
X8.7Y-3.62
X8.71Y-3.488
X8.72Y-4.31
X8.735Y-2.6475
X8.745Y-4.005
X8.745Y-4.425
X8.75Y-3.475
X8.755Y-4.72
X8.755Y-4.78
X8.77Y-4.035
X8.77Y-4.445
X8.77Y-4.505
X8.775Y-2.9
X8.7775Y-2.5825
X8.782Y-4.716
X8.79Y-4.055
X8.79Y-4.525
X8.795Y-4.82
X8.795Y-4.985
X8.8Y-4.445
X8.81Y-4.08
X8.81Y-4.545
X8.81Y-4.605
X8.8375Y-3.4775
X8.84Y-3.62
X8.8425Y-4.4175
X8.845Y-4.46
X8.85Y-5.29
X8.86Y-4.905
X8.865Y-3.475
X8.865Y-4.29
X8.8725Y-3.45
X8.8875Y-3.6125
X8.89Y-4.4175
X8.9Y-3.1725
X8.9125Y-3.4075
X8.9125Y-3.6025
X8.915Y-3.77
X8.925Y-3.725
X8.935Y-3.5875
X8.935Y-3.79
X8.935Y-4.455
X8.935Y-4.495
X8.935Y-4.525
X8.9375Y-4.1675
X8.94Y-4.02
X8.9425Y-2.5825
X8.9475Y-3.9775
X8.9525Y-3.2325
X8.9525Y-4.21
X8.955Y-3.81
X8.96Y-5.42
X8.9675Y-2.95
X8.97Y-3.665
X8.97Y-3.715
X8.99Y-4.375
X9.045Y-3.4075
X9.055Y-4.72
X9.085Y-4.295
X9.0925Y-3.88
X9.1025Y-3.985
X9.105Y-3.505
X9.105Y-3.685
X9.1425Y-3.8075
X9.145Y-4.0275
X9.145Y-4.235
X9.1525Y-4.315
X9.1725Y-4.295
X9.175Y-3.49
X9.175Y-3.54
X9.175Y-3.59
X9.175Y-3.64
X9.2125Y-4.51
X9.275Y-3.8225
X9.275Y-4.77
X9.32Y-3.515
X9.325Y-3.7525
X9.325Y-4.31
X9.325Y-4.6575
X9.35Y-3.99
X9.375Y-3.8425
X9.375Y-4.1375
X9.375Y-4.31
X9.375Y-4.66
X9.385Y-3.7625
X9.425Y-3.82
X9.425Y-4.1375
X9.425Y-4.77
X9.4625Y-3.7275
X9.47Y-3.49
X9.47Y-3.59
X9.47Y-3.64
T3
X9.175Y-2.695
X9.11Y-2.645
X9.175Y-2.645
X9.075Y-2.615
X9.13Y-2.565
X9.095Y-2.53
X7.845Y-2.71
X7.78Y-2.71
X7.78Y-2.76
X7.85Y-2.76
X9.04Y-2.58
X7.88Y-2.795
X7.915Y-2.825
X7.795Y-2.81
X7.83Y-2.845
X9.06Y-2.495
X7.865Y-2.88
X9.025Y-2.46
X7.915Y-2.895
X9.005Y-2.545
X7.505Y-2.48
X8.73Y-2.45
X8.68Y-2.45
X7.505Y-2.415
X8.68Y-2.515
X7.455Y-2.415
X8.73Y-2.515
X7.405Y-2.415
X7.78Y-2.56
X7.455Y-2.48
X7.845Y-2.56
X7.405Y-2.48
X7.78Y-2.61
X7.13Y-2.435
X7.845Y-2.61
X7.145Y-2.51
X7.845Y-2.66
X7.78Y-2.66
X6.97Y-2.87
X6.97Y-2.82
X6.97Y-2.77
X6.97Y-2.72
X7.96Y-2.655
X6.935Y-2.69
X7.96Y-2.605
X7.14Y-2.87
X8.03Y-2.755
X7.14Y-2.82
X6.4075Y-2.76
X7.14Y-2.77
X6.475Y-2.71
X7.14Y-2.72
X6.405Y-2.71
X7.18Y-2.695
X6.405Y-2.66
X7.145Y-2.56
X6.405Y-2.61
X7.18Y-2.595
X8.98Y-2.44
X8.94Y-2.415
X7.08Y-2.435
X8.91Y-2.375
X7.03Y-2.435
X8.86Y-2.375
X6.98Y-2.435
X8.81Y-2.375
X7.165Y-2.4
X8.78Y-2.415
X7.2Y-2.365
X8.885Y-2.54
X7.365Y-2.39
X8.835Y-2.54
X8.635Y-2.43
X8.585Y-2.43
X7.3Y-2.51
X8.535Y-2.43
X7.25Y-2.51
X8.53Y-2.48
X6.98Y-2.485
X8.53Y-2.53
X6.95Y-2.525
X8.68Y-2.565
X7.96Y-2.755
X6.475Y-2.76
X8.715Y-2.6
X7.96Y-2.705
X8.685Y-2.7
X6.4925Y-2.8
X8.685Y-2.75
X6.4925Y-2.85
X8.685Y-2.8
X8.685Y-2.85
X8.72Y-2.885
X8.515Y-2.73
X8.515Y-2.78
X8.515Y-2.83
X8.515Y-2.88
X9.17Y-2.745
X9.115Y-2.745
X9.11Y-2.695
T4
X6.555Y-4.595
X6.575Y-4.305
X6.62Y-4.595
X6.65Y-4.305
X6.71Y-4.305
X6.83Y-4.305
X7.62Y-4.05
X7.62Y-4.175
X7.625Y-3.765
T5
X9.11Y-5.85
X9.11Y-5.365
X7.995Y-5.85
X7.995Y-5.365
X8.9925Y-3.325
X8.9925Y-2.3475
X7.9925Y-3.325
X7.9925Y-2.3475
X7.4375Y-3.325
X7.4375Y-2.3475
X6.4375Y-3.325
X6.4375Y-2.3475
T6
X6.2375Y-2.81
X6.2375Y-2.91
X6.2875Y-2.86
X6.3375Y-2.81
X6.3375Y-2.91
X7.565Y-2.3975
X7.565Y-2.4975
X7.615Y-2.4475
X7.665Y-2.3975
X7.665Y-2.4975
X7.7625Y-2.3975
X7.7625Y-2.4975
X7.8125Y-2.4475
X7.8625Y-2.3975
X7.8625Y-2.4975
X9.0925Y-2.81
X9.0925Y-2.91
X9.1425Y-2.86
X9.1925Y-2.81
X9.1925Y-2.91
T7
X7.33Y-5.74
X7.1Y-5.74
X6.02Y-3.33
X6.02Y-3.43
X6.02Y-3.53
X6.02Y-3.63
X9.37Y-4.9
X9.37Y-5.
X9.37Y-5.1
X9.37Y-5.2
T8
X9.2717Y-5.6496
X6.1614Y-5.6496
X6.1614Y-2.5394
X9.2717Y-2.5394
T0
M30
