%TF.GenerationSoftware,KiCad,Pcbnew,7.0.9-7.0.9~ubuntu22.04.1*%
%TF.CreationDate,2023-12-17T15:48:06-06:00*%
%TF.ProjectId,PacSat_JTAG_Interface,50616353-6174-45f4-9a54-41475f496e74,rev?*%
%TF.SameCoordinates,Original*%
%TF.FileFunction,Soldermask,Bot*%
%TF.FilePolarity,Negative*%
%FSLAX46Y46*%
G04 Gerber Fmt 4.6, Leading zero omitted, Abs format (unit mm)*
G04 Created by KiCad (PCBNEW 7.0.9-7.0.9~ubuntu22.04.1) date 2023-12-17 15:48:06*
%MOMM*%
%LPD*%
G01*
G04 APERTURE LIST*
%ADD10R,1.000000X1.000000*%
%ADD11O,1.000000X1.000000*%
%ADD12C,3.600000*%
%ADD13C,6.400000*%
G04 APERTURE END LIST*
D10*
%TO.C,J1*%
X92602050Y-86690231D03*
D11*
X91332050Y-86690231D03*
X92602050Y-85420231D03*
X91332050Y-85420231D03*
X92602050Y-84150231D03*
X91332050Y-84150231D03*
X92602050Y-82880231D03*
X91332050Y-82880231D03*
X92602050Y-81610231D03*
X91332050Y-81610231D03*
%TD*%
D12*
%TO.C,H4*%
X87522050Y-94945231D03*
D13*
X87522050Y-94945231D03*
%TD*%
D12*
%TO.C,H1*%
X107842050Y-72085231D03*
D13*
X107842050Y-72085231D03*
%TD*%
D10*
%TO.C,J3*%
X95777050Y-86700231D03*
D11*
X95777050Y-85430231D03*
X95777050Y-84160231D03*
X95777050Y-82890231D03*
X95777050Y-81620231D03*
%TD*%
D10*
%TO.C,J5*%
X99587050Y-77800231D03*
D11*
X99587050Y-79070231D03*
X99587050Y-80340231D03*
X99587050Y-81610231D03*
X99587050Y-82880231D03*
X99587050Y-84150231D03*
X99587050Y-85420231D03*
X99587050Y-86690231D03*
X99587050Y-87960231D03*
X99587050Y-89230231D03*
%TD*%
D10*
%TO.C,J2*%
X103397050Y-77800231D03*
D11*
X104667050Y-77800231D03*
X103397050Y-79070231D03*
X104667050Y-79070231D03*
X103397050Y-80340231D03*
X104667050Y-80340231D03*
X103397050Y-81610231D03*
X104667050Y-81610231D03*
X103397050Y-82880231D03*
X104667050Y-82880231D03*
X103397050Y-84150231D03*
X104667050Y-84150231D03*
X103397050Y-85420231D03*
X104667050Y-85420231D03*
X103397050Y-86690231D03*
X104667050Y-86690231D03*
X103397050Y-87960231D03*
X104667050Y-87960231D03*
X103397050Y-89230231D03*
X104667050Y-89230231D03*
%TD*%
D10*
%TO.C,J4*%
X88157050Y-86699520D03*
D11*
X88157050Y-85429520D03*
X88157050Y-84159520D03*
X88157050Y-82889520D03*
X88157050Y-81619520D03*
%TD*%
D10*
%TO.C,J6*%
X108477050Y-77800231D03*
D11*
X108477050Y-79070231D03*
X108477050Y-80340231D03*
X108477050Y-81610231D03*
X108477050Y-82880231D03*
X108477050Y-84150231D03*
X108477050Y-85420231D03*
X108477050Y-86690231D03*
X108477050Y-87960231D03*
X108477050Y-89230231D03*
%TD*%
D12*
%TO.C,H3*%
X87522050Y-72085231D03*
D13*
X87522050Y-72085231D03*
%TD*%
D12*
%TO.C,H2*%
X107842050Y-94945231D03*
D13*
X107842050Y-94945231D03*
%TD*%
M02*
