M48
; DRILL file {KiCad 7.0.7-7.0.7~ubuntu22.04.1} date Thu 26 Oct 2023 04:09:04 PM CDT
; FORMAT={-:-/ absolute / inch / decimal}
; #@! TF.CreationDate,2023-10-26T16:09:04-05:00
; #@! TF.GenerationSoftware,Kicad,Pcbnew,7.0.7-7.0.7~ubuntu22.04.1
; #@! TF.FileFunction,Plated,1,6,PTH
FMAT,2
INCH
; #@! TA.AperFunction,Plated,PTH,ViaDrill
T1C0.0120
; #@! TA.AperFunction,Plated,PTH,ComponentDrill
T2C0.0197
; #@! TA.AperFunction,Plated,PTH,ComponentDrill
T3C0.0200
; #@! TA.AperFunction,Plated,PTH,ComponentDrill
T4C0.0250
; #@! TA.AperFunction,Plated,PTH,ComponentDrill
T5C0.0300
; #@! TA.AperFunction,Plated,PTH,ComponentDrill
T6C0.0350
; #@! TA.AperFunction,Plated,PTH,ComponentDrill
T7C0.0380
; #@! TA.AperFunction,Plated,PTH,ComponentDrill
T8C0.0394
; #@! TA.AperFunction,Plated,PTH,ComponentDrill
T9C0.1250
%
G90
G05
T1
X5.944Y-3.726
X5.944Y-4.404
X6.027Y-4.404
X6.0419Y-3.723
X6.0419Y-4.122
X6.0433Y-4.1457
X6.0704Y-3.9385
X6.0704Y-4.0615
X6.14Y-4.35
X6.15Y-4.14
X6.15Y-4.17
X6.1578Y-3.1001
X6.1578Y-3.1372
X6.16Y-3.8
X6.17Y-2.9
X6.2Y-3.33
X6.2Y-3.38
X6.2Y-4.35
X6.21Y-4.14
X6.21Y-4.17
X6.22Y-3.8
X6.2244Y-3.6102
X6.24Y-4.26
X6.2589Y-3.0035
X6.26Y-3.427
X6.261Y-3.28
X6.263Y-4.247
X6.27Y-3.33
X6.27Y-3.38
X6.28Y-3.8
X6.28Y-4.14
X6.2835Y-3.6481
X6.29Y-3.92
X6.32Y-2.9
X6.332Y-4.724
X6.339Y-3.393
X6.339Y-4.011
X6.36Y-3.18
X6.363Y-3.348
X6.364Y-3.232
X6.364Y-3.465
X6.3672Y-3.0398
X6.373Y-2.94
X6.4Y-2.85
X6.4Y-4.025
X6.4094Y-4.5197
X6.412Y-4.725
X6.419Y-3.13
X6.419Y-3.444
X6.419Y-3.004
X6.425Y-3.495
X6.426Y-3.278
X6.428Y-4.538
X6.43Y-3.92
X6.4319Y-3.8263
X6.436Y-3.574
X6.44Y-4.14
X6.456Y-3.039
X6.456Y-3.069
X6.477Y-2.98
X6.477Y-3.399
X6.477Y-3.438
X6.478Y-2.943
X6.479Y-3.224
X6.48Y-3.187
X6.48Y-4.03
X6.486Y-3.039
X6.486Y-3.069
X6.509Y-5.7324
X6.516Y-3.039
X6.516Y-3.069
X6.517Y-4.042
X6.518Y-2.98
X6.52Y-2.942
X6.52Y-3.221
X6.521Y-3.439
X6.522Y-3.186
X6.522Y-3.399
X6.546Y-3.039
X6.546Y-3.069
X6.546Y-3.629
X6.56Y-3.356
X6.573Y-3.159
X6.575Y-3.014
X6.576Y-3.909
X6.585Y-3.6878
X6.588Y-4.446
X6.59Y-4.3352
X6.59Y-4.6202
X6.605Y-3.555
X6.62Y-4.97
X6.62Y-5.08
X6.62Y-5.239
X6.62Y-5.3161
X6.62Y-5.46
X6.62Y-5.59
X6.628Y-3.279
X6.63Y-3.042
X6.63Y-5.7
X6.642Y-3.009
X6.644Y-3.499
X6.6459Y-4.0899
X6.646Y-4.454
X6.649Y-3.234
X6.649Y-3.389
X6.665Y-4.1202
X6.668Y-4.827
X6.67Y-4.3752
X6.67Y-4.4052
X6.6719Y-4.1611
X6.676Y-3.759
X6.676Y-3.799
X6.678Y-4.004
X6.705Y-2.9648
X6.713Y-4.517
X6.716Y-3.209
X6.716Y-3.352
X6.717Y-3.15
X6.718Y-3.419
X6.73Y-3.016
X6.73Y-4.6
X6.735Y-3.089
X6.745Y-3.051
X6.75Y-4.97
X6.77Y-3.79
X6.779Y-4.294
X6.779Y-5.764
X6.781Y-3.186
X6.79Y-4.735
X6.796Y-3.934
X6.802Y-5.038
X6.806Y-2.939
X6.808Y-4.23
X6.826Y-4.102
X6.828Y-3.016
X6.828Y-3.603
X6.833Y-4.606
X6.845Y-3.942
X6.856Y-3.031
X6.856Y-3.499
X6.858Y-3.301
X6.858Y-4.556
X6.86Y-2.96
X6.865Y-4.4452
X6.876Y-5.089
X6.876Y-5.469
X6.8772Y-4.1933
X6.88Y-3.089
X6.88Y-3.129
X6.88Y-3.69
X6.88Y-4.01
X6.8846Y-4.0976
X6.888Y-4.556
X6.89Y-3.2
X6.891Y-4.404
X6.9Y-2.96
X6.9Y-4.35
X6.9Y-5.7
X6.91Y-3.33
X6.9101Y-4.313
X6.915Y-3.229
X6.917Y-3.64
X6.917Y-3.76
X6.918Y-3.7
X6.919Y-3.39
X6.93Y-2.756
X6.9396Y-3.8826
X6.946Y-5.529
X6.9481Y-5.4611
X6.959Y-2.99
X6.96Y-3.09
X6.96Y-3.17
X6.9615Y-4.5414
X6.963Y-3.543
X6.976Y-2.849
X6.98Y-3.46
X6.98Y-4.97
X6.9889Y-3.4291
X6.99Y-3.09
X6.993Y-3.195
X6.994Y-3.358
X6.994Y-3.946
X6.9981Y-5.0811
X7.005Y-4.835
X7.006Y-3.796
X7.01Y-3.45
X7.011Y-3.036
X7.016Y-5.299
X7.016Y-5.329
X7.016Y-5.369
X7.02Y-4.46
X7.029Y-3.796
X7.029Y-3.262
X7.03Y-3.29
X7.031Y-3.505
X7.0346Y-3.9526
X7.036Y-4.573
X7.0369Y-5.2385
X7.04Y-3.06
X7.0447Y-3.4554
X7.046Y-3.015
X7.05Y-3.43
X7.052Y-2.722
X7.052Y-4.125
X7.054Y-4.192
X7.055Y-3.191
X7.056Y-5.299
X7.056Y-5.329
X7.056Y-5.369
X7.061Y-3.603
X7.07Y-5.7
X7.074Y-4.245
X7.081Y-2.953
X7.104Y-2.882
X7.116Y-5.419
X7.118Y-3.094
X7.12Y-4.475
X7.12Y-4.6
X7.122Y-3.8701
X7.1226Y-4.575
X7.123Y-3.011
X7.13Y-4.69
X7.144Y-4.394
X7.145Y-3.359
X7.146Y-2.729
X7.146Y-3.1691
X7.147Y-3.211
X7.149Y-3.291
X7.15Y-4.35
X7.15Y-4.44
X7.156Y-3.139
X7.156Y-3.549
X7.1575Y-3.6114
X7.1575Y-3.6614
X7.1575Y-3.689
X7.17Y-4.56
X7.175Y-2.965
X7.1755Y-3.0145
X7.178Y-3.729
X7.1798Y-2.8291
X7.18Y-4.11
X7.188Y-3.308
X7.19Y-4.97
X7.191Y-3.495
X7.194Y-3.23
X7.2Y-3.256
X7.2006Y-3.008
X7.2047Y-2.815
X7.206Y-2.769
X7.208Y-4.472
X7.21Y-4.645
X7.21Y-4.754
X7.212Y-4.2985
X7.215Y-3.103
X7.216Y-5.109
X7.217Y-3.449
X7.2299Y-2.953
X7.231Y-3.947
X7.2315Y-3.0093
X7.238Y-4.257
X7.24Y-4.35
X7.26Y-5.7
X7.261Y-4.675
X7.266Y-4.432
X7.266Y-5.319
X7.2677Y-3.811
X7.275Y-3.94
X7.28Y-4.066
X7.28Y-4.297
X7.2874Y-3.7087
X7.2953Y-3.7598
X7.296Y-5.429
X7.296Y-5.509
X7.298Y-4.126
X7.3Y-3.11
X7.3Y-5.076
X7.312Y-4.062
X7.315Y-4.21
X7.32Y-2.87
X7.33Y-4.97
X7.3307Y-3.5168
X7.3331Y-4.9012
X7.3338Y-4.848
X7.343Y-3.138
X7.356Y-2.769
X7.3705Y-5.4365
X7.375Y-4.4635
X7.378Y-3.136
X7.38Y-5.7
X7.3898Y-3.7992
X7.405Y-4.65
X7.413Y-4.553
X7.42Y-4.426
X7.433Y-4.064
X7.434Y-3.9526
X7.4409Y-5.0394
X7.448Y-3.845
X7.46Y-4.97
X7.471Y-3.138
X7.471Y-3.813
X7.472Y-4.38
X7.4744Y-2.8851
X7.484Y-4.34
X7.49Y-5.28
X7.4905Y-5.5065
X7.497Y-4.063
X7.5Y-4.44
X7.5Y-4.59
X7.502Y-4.116
X7.502Y-4.264
X7.5102Y-3.1378
X7.514Y-4.756
X7.5157Y-2.819
X7.541Y-3.946
X7.55Y-2.953
X7.55Y-3.11
X7.55Y-5.7
X7.5512Y-3.7913
X7.554Y-2.853
X7.556Y-2.989
X7.5605Y-5.2965
X7.566Y-3.839
X7.572Y-4.034
X7.59Y-4.97
X7.593Y-4.711
X7.6Y-3.95
X7.604Y-4.297
X7.61Y-4.005
X7.61Y-4.35
X7.6181Y-3.1102
X7.626Y-2.889
X7.629Y-3.013
X7.6417Y-2.8346
X7.668Y-3.138
X7.682Y-3.01
X7.686Y-2.839
X7.71Y-4.57
X7.71Y-4.97
X7.71Y-5.11
X7.71Y-5.3
X7.71Y-5.38
X7.71Y-5.48
X7.71Y-5.59
X7.71Y-5.7
X7.7244Y-3.8472
X7.756Y-2.709
X7.756Y-2.906
X7.756Y-3.839
X7.76Y-2.9538
X7.76Y-4.47
X7.76Y-4.59
X7.766Y-4.032
X7.7661Y-2.991
X7.7756Y-4.0787
X7.786Y-3.109
X7.798Y-3.843
X7.8Y-3.95
X7.804Y-2.9492
X7.804Y-4.116
X7.804Y-4.808
X7.81Y-4.757
X7.816Y-3.109
X7.8256Y-3.8205
X7.842Y-3.138
X7.8449Y-3.9357
X7.845Y-2.9614
X7.8469Y-3.0038
X7.848Y-3.244
X7.856Y-3.702
X7.857Y-3.574
X7.873Y-4.161
X7.874Y-4.9213
X7.876Y-2.999
X7.88Y-4.468
X7.88Y-4.613
X7.881Y-4.329
X7.882Y-4.844
X7.883Y-3.976
X7.886Y-3.459
X7.886Y-3.499
X7.888Y-3.291
X7.889Y-3.846
X7.89Y-3.153
X7.89Y-3.539
X7.89Y-3.727
X7.8915Y-3.3855
X7.9Y-5.81
X7.926Y-2.769
X7.933Y-3.072
X7.937Y-4.7205
X7.94Y-5.66
X7.95Y-3.919
X7.957Y-2.757
X7.96Y-3.1
X7.9626Y-5.4374
X7.978Y-3.3281
X7.98Y-3.288
X7.986Y-3.239
X7.986Y-3.379
X7.99Y-2.787
X7.9921Y-3.5354
X7.9921Y-4.8819
X7.9925Y-2.898
X7.994Y-3.485
X7.995Y-3.065
X8.0055Y-3.8195
X8.006Y-2.999
X8.006Y-3.316
X8.006Y-3.5827
X8.007Y-3.183
X8.016Y-3.368
X8.0162Y-3.9277
X8.0243Y-4.7248
X8.0246Y-3.2344
X8.0284Y-4.9086
X8.03Y-3.34
X8.0315Y-4.5984
X8.035Y-3.85
X8.04Y-4.168
X8.0425Y-3.7804
X8.044Y-3.969
X8.045Y-3.723
X8.0512Y-3.3071
X8.06Y-3.695
X8.061Y-3.637
X8.065Y-3.222
X8.066Y-3.099
X8.066Y-3.189
X8.07Y-4.392
X8.0709Y-3.5827
X8.0787Y-3.5472
X8.086Y-3.069
X8.086Y-5.65
X8.1024Y-4.6063
X8.108Y-4.396
X8.116Y-4.912
X8.118Y-3.846
X8.119Y-3.756
X8.123Y-3.302
X8.125Y-3.332
X8.15Y-5.63
X8.1656Y-3.8536
X8.17Y-4.21
X8.176Y-2.773
X8.181Y-3.3
X8.182Y-3.331
X8.183Y-3.178
X8.1834Y-4.8574
X8.185Y-4.9
X8.185Y-5.07
X8.1884Y-2.84
X8.19Y-5.32
X8.192Y-5.24
X8.194Y-5.176
X8.2047Y-2.9646
X8.2135Y-5.595
X8.2157Y-3.1644
X8.216Y-3.756
X8.22Y-3.11
X8.2298Y-4.8046
X8.232Y-4.663
X8.236Y-3.3426
X8.2559Y-3.4094
X8.261Y-3.301
X8.2611Y-4.9607
X8.264Y-3.201
X8.2677Y-4.5276
X8.276Y-4.911
X8.285Y-3.5827
X8.3035Y-5.64
X8.3077Y-3.038
X8.3103Y-2.9537
X8.321Y-3.069
X8.336Y-2.729
X8.3392Y-2.9105
X8.34Y-3.16
X8.34Y-3.618
X8.3405Y-2.979
X8.341Y-3.4092
X8.346Y-3.086
X8.35Y-3.692
X8.35Y-4.07
X8.35Y-4.27
X8.35Y-4.37
X8.352Y-4.75
X8.3557Y-4.5557
X8.356Y-3.859
X8.36Y-4.854
X8.384Y-3.411
X8.385Y-5.11
X8.396Y-3.019
X8.4016Y-2.967
X8.405Y-5.42
X8.4053Y-5.4517
X8.4055Y-5.3661
X8.4055Y-5.3932
X8.413Y-5.717
X8.415Y-5.814
X8.416Y-3.086
X8.416Y-3.3
X8.417Y-3.199
X8.418Y-4.918
X8.424Y-4.459
X8.429Y-3.972
X8.43Y-3.41
X8.438Y-5.129
X8.44Y-5.37
X8.44Y-5.405
X8.44Y-5.44
X8.449Y-4.712
X8.4535Y-5.65
X8.457Y-4.222
X8.46Y-4.874
X8.462Y-4.54
X8.4651Y-2.9749
X8.466Y-3.885
X8.47Y-4.05
X8.47Y-4.39
X8.47Y-4.96
X8.476Y-3.139
X8.477Y-5.143
X8.4797Y-5.392
X8.48Y-5.3666
X8.48Y-5.42
X8.4802Y-5.4514
X8.504Y-5.522
X8.5156Y-3.5086
X8.5156Y-3.5914
X8.5156Y-3.6404
X8.52Y-4.05
X8.52Y-4.39
X8.534Y-4.541
X8.539Y-4.221
X8.542Y-3.878
X8.543Y-4.874
X8.5433Y-3.0154
X8.544Y-4.713
X8.544Y-4.775
X8.5465Y-5.2304
X8.548Y-5.162
X8.552Y-5.519
X8.558Y-5.43
X8.559Y-3.716
X8.559Y-3.848
X8.56Y-5.29
X8.562Y-2.948
X8.562Y-5.39
X8.5671Y-5.4932
X8.58Y-5.558
X8.586Y-3.801
X8.59Y-5.51
X8.596Y-2.859
X8.6Y-5.37
X8.606Y-3.209
X8.61Y-5.243
X8.619Y-3.781
X8.62Y-3.517
X8.62Y-3.667
X8.621Y-3.566
X8.623Y-3.971
X8.624Y-3.616
X8.63Y-5.37
X8.64Y-2.818
X8.642Y-3.821
X8.65Y-4.96
X8.66Y-5.37
X8.676Y-2.929
X8.676Y-5.251
X8.703Y-5.394
X8.708Y-5.265
X8.709Y-2.91
X8.7205Y-3.0315
X8.7428Y-3.1369
X8.749Y-3.564
X8.749Y-3.75
X8.7598Y-5.0197
X8.774Y-5.492
X8.786Y-5.361
X8.79Y-3.29
X8.7945Y-2.94
X8.7951Y-3.1278
X8.834Y-5.492
X8.842Y-3.714
X8.844Y-3.672
X8.848Y-3.54
X8.848Y-3.592
X8.849Y-3.035
X8.85Y-2.86
X8.85Y-3.63
X8.8583Y-2.7047
X8.866Y-2.899
X8.87Y-3.29
X8.874Y-3.698
X8.875Y-5.065
X8.878Y-5.572
X8.88Y-5.31
X8.88Y-5.39
X8.88Y-5.49
X8.89Y-5.11
X8.918Y-3.732
X8.9561Y-3.4299
X8.958Y-4.072
X8.958Y-5.35
X8.97Y-2.7047
X8.97Y-5.39
X8.97Y-5.86
X8.977Y-2.8582
X8.978Y-3.33
X8.978Y-4.044
X8.978Y-5.456
X8.998Y-4.164
X9.018Y-3.3248
X9.038Y-3.1305
X9.0442Y-5.6511
X9.058Y-5.328
X9.065Y-4.617
X9.08Y-2.7047
X9.086Y-2.846
X9.0929Y-4.126
X9.098Y-4.924
X9.099Y-5.73
X9.1Y-2.908
X9.1Y-3.41
X9.1Y-5.63
X9.104Y-5.452
X9.104Y-5.572
X9.11Y-5.5
X9.1145Y-4.5635
X9.116Y-4.59
X9.1161Y-4.8009
X9.1267Y-3.4037
X9.1325Y-3.2535
X9.1329Y-2.9807
X9.138Y-3.335
X9.138Y-5.37
X9.14Y-3.05
X9.146Y-5.792
X9.154Y-5.536
X9.158Y-3.859
X9.158Y-3.662
X9.1593Y-3.9053
X9.16Y-4.08
X9.16Y-4.189
X9.16Y-5.449
X9.17Y-3.29
X9.18Y-3.4
X9.18Y-3.45
X9.1856Y-2.7047
X9.192Y-4.892
X9.1965Y-3.6171
X9.1968Y-3.5422
X9.2011Y-4.2544
X9.2011Y-4.3293
X9.2032Y-2.82
X9.205Y-3.5764
X9.21Y-4.289
X9.21Y-4.8
X9.2203Y-3.459
X9.223Y-4.179
X9.223Y-4.893
X9.225Y-3.5414
X9.225Y-3.6164
X9.23Y-4.254
X9.23Y-4.329
X9.232Y-3.876
X9.24Y-3.5764
X9.245Y-4.289
X9.2478Y-3.4415
X9.252Y-4.1748
X9.255Y-3.5414
X9.255Y-3.6164
X9.26Y-3.29
X9.26Y-4.254
X9.26Y-4.329
X9.273Y-2.7047
X9.275Y-3.5764
X9.2794Y-3.434
X9.28Y-4.289
X9.2814Y-3.5415
X9.2814Y-3.6174
X9.2818Y-3.0119
X9.2821Y-2.956
X9.2821Y-2.986
X9.2827Y-2.9271
X9.283Y-5.444
X9.285Y-4.3286
X9.2857Y-4.2533
X9.294Y-4.1246
X9.2973Y-4.942
X9.2994Y-5.1765
X9.2994Y-5.2065
X9.2994Y-5.1503
X9.2994Y-5.2351
X9.3Y-4.8
X9.302Y-3.406
X9.3043Y-4.1645
X9.32Y-4.08
X9.3221Y-2.936
X9.3221Y-2.971
X9.3221Y-3.006
X9.328Y-4.57
X9.33Y-5.5
X9.334Y-4.914
X9.338Y-4.178
X9.3394Y-5.1565
X9.3394Y-5.1915
X9.3394Y-5.2265
X9.3415Y-3.9045
X9.344Y-3.41
X9.348Y-4.145
X9.35Y-3.29
X9.35Y-3.37
X9.3559Y-2.9277
X9.357Y-3.0125
X9.3571Y-2.956
X9.3571Y-2.986
X9.3589Y-2.7047
X9.3611Y-3.0888
X9.3741Y-5.2363
X9.3744Y-5.1765
X9.3744Y-5.2065
X9.3744Y-5.1517
X9.39Y-5.31
X9.4105Y-4.473
X9.4105Y-4.619
X9.42Y-5.37
X9.42Y-4.8
X9.421Y-5.0853
X9.428Y-4.901
X9.438Y-3.8
X9.4388Y-2.9448
X9.4425Y-2.9735
X9.444Y-3.736
X9.45Y-3.04
X9.45Y-3.08
X9.45Y-5.33
X9.45Y-5.39
X9.455Y-3.005
X9.457Y-2.868
X9.46Y-5.06
X9.4616Y-5.3532
X9.465Y-4.2839
X9.465Y-4.4588
X9.4674Y-4.1794
X9.4688Y-3.3754
X9.47Y-3.48
X9.47Y-3.63
X9.47Y-3.77
X9.47Y-4.54
X9.5Y-4.81
X9.5Y-4.95
X9.5Y-5.1
X9.5Y-5.24
X9.5Y-5.37
X9.5Y-5.5
X9.5074Y-2.8196
X9.5089Y-2.9426
X9.5089Y-3.0552
X9.51Y-3.18
T2
X8.145Y-2.825
X8.145Y-2.925
T3
X5.9835Y-4.889
X5.9835Y-4.949
X5.9835Y-5.089
X5.9835Y-5.149
X5.9835Y-5.289
X5.9835Y-5.349
X6.2085Y-4.719
X6.2085Y-4.819
X6.2085Y-4.919
X6.2085Y-5.019
X6.2085Y-5.119
X6.2085Y-5.219
X6.2085Y-5.319
X6.2585Y-4.719
X6.2585Y-4.819
X6.2585Y-4.919
X6.2585Y-5.019
X6.2585Y-5.119
X6.2585Y-5.219
X6.2585Y-5.319
X6.4835Y-4.689
X6.4835Y-4.749
X6.4835Y-4.889
X6.4835Y-4.949
X6.4835Y-5.089
X6.4835Y-5.149
T4
X5.9845Y-4.489
X6.0675Y-4.489
X6.708Y-5.651
X6.9579Y-4.6426
X6.9579Y-4.7257
X7.279Y-5.8265
X7.362Y-5.8265
X7.7365Y-5.7971
X7.8195Y-5.7971
X7.8645Y-5.139
X7.9475Y-5.139
X8.1585Y-5.77
X8.2415Y-5.77
X8.6072Y-5.0849
X8.6799Y-3.1745
X8.6799Y-3.2575
X8.6903Y-5.0849
X8.789Y-5.0879
X8.789Y-5.171
X8.789Y-5.2365
X8.789Y-5.3195
X8.833Y-4.2805
X8.833Y-4.3635
X8.833Y-4.8825
X8.833Y-4.9655
X8.834Y-4.5855
X8.834Y-4.6685
X8.834Y-4.7335
X8.834Y-4.8165
X8.836Y-3.7995
X8.836Y-3.8825
X8.836Y-4.4335
X8.836Y-4.5165
X8.84Y-3.9495
X8.84Y-4.0325
X8.84Y-4.1068
X8.84Y-4.1899
X9.1201Y-4.009
X9.1205Y-4.7181
X9.2032Y-4.009
X9.2035Y-4.7181
X9.2695Y-4.719
X9.2715Y-4.009
X9.3525Y-4.719
X9.3545Y-4.009
T5
X6.026Y-4.549
X7.018Y-4.6842
X7.3205Y-5.7665
X7.778Y-5.7371
X7.906Y-5.079
X8.2Y-5.71
X8.6487Y-5.0248
X8.7399Y-3.216
X8.773Y-4.322
X8.773Y-4.924
X8.774Y-4.627
X8.774Y-4.775
X8.776Y-3.841
X8.776Y-4.475
X8.78Y-3.991
X8.78Y-4.1484
X8.849Y-5.1295
X8.849Y-5.278
X9.1616Y-3.949
X9.162Y-4.6581
X9.311Y-4.659
X9.313Y-3.949
T6
X6.5Y-2.45
X6.5Y-2.55
X6.992Y-5.763
X7.127Y-5.763
X7.988Y-5.855
X8.088Y-5.855
X8.327Y-5.751
X8.327Y-5.851
X8.8706Y-2.4921
X8.8706Y-2.5921
X8.9533Y-2.4921
X8.9533Y-2.5921
T7
X6.7317Y-2.4209
X6.7317Y-2.4996
X6.7317Y-2.5784
X6.7317Y-2.6571
X6.8105Y-2.4209
X6.8105Y-2.4996
X6.8105Y-2.5784
X6.8105Y-2.6571
X6.8892Y-2.4209
X6.8892Y-2.4996
X6.8892Y-2.5784
X6.8892Y-2.6571
X6.9679Y-2.4209
X6.9679Y-2.4996
X6.9679Y-2.5784
X6.9679Y-2.6571
X7.0467Y-2.4209
X7.0467Y-2.4996
X7.0467Y-2.5784
X7.0467Y-2.6571
X7.1254Y-2.4209
X7.1254Y-2.4996
X7.1254Y-2.5784
X7.1254Y-2.6571
X7.2042Y-2.4209
X7.2042Y-2.4996
X7.2042Y-2.5784
X7.2042Y-2.6571
X7.2829Y-2.4209
X7.2829Y-2.4996
X7.2829Y-2.5784
X7.2829Y-2.6571
X7.3616Y-2.4209
X7.3616Y-2.4996
X7.3616Y-2.5784
X7.3616Y-2.6571
X7.4404Y-2.4209
X7.4404Y-2.4996
X7.4404Y-2.5784
X7.4404Y-2.6571
X7.5191Y-2.4209
X7.5191Y-2.4996
X7.5191Y-2.5784
X7.5191Y-2.6571
X7.5979Y-2.4209
X7.5979Y-2.4996
X7.5979Y-2.5784
X7.5979Y-2.6571
X7.6766Y-2.4209
X7.6766Y-2.4996
X7.6766Y-2.5784
X7.6766Y-2.6571
X7.7553Y-2.4209
X7.7553Y-2.4996
X7.7553Y-2.5784
X7.7553Y-2.6571
X7.8341Y-2.4209
X7.8341Y-2.4996
X7.8341Y-2.5784
X7.8341Y-2.6571
X7.9128Y-2.4209
X7.9128Y-2.4996
X7.9128Y-2.5784
X7.9128Y-2.6571
X7.9916Y-2.4209
X7.9916Y-2.4996
X7.9916Y-2.5784
X7.9916Y-2.6571
X8.0703Y-2.4209
X8.0703Y-2.4996
X8.0703Y-2.5784
X8.0703Y-2.6571
X8.149Y-2.4209
X8.149Y-2.4996
X8.149Y-2.5784
X8.149Y-2.6571
X8.2278Y-2.4209
X8.2278Y-2.4996
X8.2278Y-2.5784
X8.2278Y-2.6571
X8.3065Y-2.4209
X8.3065Y-2.4996
X8.3065Y-2.5784
X8.3065Y-2.6571
X8.3853Y-2.4209
X8.3853Y-2.4996
X8.3853Y-2.5784
X8.3853Y-2.6571
X8.464Y-2.4209
X8.464Y-2.4996
X8.464Y-2.5784
X8.464Y-2.6571
X8.5427Y-2.4209
X8.5427Y-2.4996
X8.5427Y-2.5784
X8.5427Y-2.6571
X8.6215Y-2.4209
X8.6215Y-2.4996
X8.6215Y-2.5784
X8.6215Y-2.6571
X8.7002Y-2.4209
X8.7002Y-2.4996
X8.7002Y-2.5784
X8.7002Y-2.6571
T8
X8.62Y-5.715
X8.62Y-5.815
X8.72Y-5.715
X8.72Y-5.815
X8.82Y-5.715
X8.82Y-5.815
X8.92Y-5.715
X8.92Y-5.815
X9.02Y-5.715
X9.02Y-5.815
T9
X6.162Y-2.539
X6.162Y-5.65
X9.272Y-2.539
X9.272Y-5.65
T0
M30
