%TF.GenerationSoftware,KiCad,Pcbnew,7.0.9-7.0.9~ubuntu22.04.1*%
%TF.CreationDate,2023-12-17T15:48:06-06:00*%
%TF.ProjectId,PacSat_JTAG_Interface,50616353-6174-45f4-9a54-41475f496e74,rev?*%
%TF.SameCoordinates,Original*%
%TF.FileFunction,Copper,L1,Top*%
%TF.FilePolarity,Positive*%
%FSLAX46Y46*%
G04 Gerber Fmt 4.6, Leading zero omitted, Abs format (unit mm)*
G04 Created by KiCad (PCBNEW 7.0.9-7.0.9~ubuntu22.04.1) date 2023-12-17 15:48:06*
%MOMM*%
%LPD*%
G01*
G04 APERTURE LIST*
%TA.AperFunction,ComponentPad*%
%ADD10R,1.000000X1.000000*%
%TD*%
%TA.AperFunction,ComponentPad*%
%ADD11O,1.000000X1.000000*%
%TD*%
%TA.AperFunction,ComponentPad*%
%ADD12C,3.600000*%
%TD*%
%TA.AperFunction,ConnectorPad*%
%ADD13C,6.400000*%
%TD*%
%TA.AperFunction,ViaPad*%
%ADD14C,0.800000*%
%TD*%
%TA.AperFunction,Conductor*%
%ADD15C,0.508000*%
%TD*%
G04 APERTURE END LIST*
D10*
%TO.P,J1,1,Pin_1*%
%TO.N,+3.3V*%
X92602050Y-86690231D03*
D11*
%TO.P,J1,2,Pin_2*%
%TO.N,Net-(J1-Pin_2)*%
X91332050Y-86690231D03*
%TO.P,J1,3,Pin_3*%
%TO.N,GND*%
X92602050Y-85420231D03*
%TO.P,J1,4,Pin_4*%
%TO.N,Net-(J1-Pin_4)*%
X91332050Y-85420231D03*
%TO.P,J1,5,Pin_5*%
%TO.N,GND*%
X92602050Y-84150231D03*
%TO.P,J1,6,Pin_6*%
%TO.N,Net-(J1-Pin_6)*%
X91332050Y-84150231D03*
%TO.P,J1,7,Pin_7*%
%TO.N,Net-(J1-Pin_7)*%
X92602050Y-82880231D03*
%TO.P,J1,8,Pin_8*%
%TO.N,Net-(J1-Pin_8)*%
X91332050Y-82880231D03*
%TO.P,J1,9,Pin_9*%
%TO.N,GND*%
X92602050Y-81610231D03*
%TO.P,J1,10,Pin_10*%
%TO.N,Net-(J1-Pin_10)*%
X91332050Y-81610231D03*
%TD*%
D12*
%TO.P,H4,1,1*%
%TO.N,GND*%
X87522050Y-94945231D03*
D13*
X87522050Y-94945231D03*
%TD*%
D12*
%TO.P,H1,1,1*%
%TO.N,GND*%
X107842050Y-72085231D03*
D13*
X107842050Y-72085231D03*
%TD*%
D10*
%TO.P,J3,1,Pin_1*%
%TO.N,+3.3V*%
X95777050Y-86700231D03*
D11*
%TO.P,J3,2,Pin_2*%
%TO.N,GND*%
X95777050Y-85430231D03*
%TO.P,J3,3,Pin_3*%
X95777050Y-84160231D03*
%TO.P,J3,4,Pin_4*%
%TO.N,Net-(J1-Pin_7)*%
X95777050Y-82890231D03*
%TO.P,J3,5,Pin_5*%
%TO.N,GND*%
X95777050Y-81620231D03*
%TD*%
D10*
%TO.P,J5,1,Pin_1*%
%TO.N,Net-(J1-Pin_2)*%
X99587050Y-77800231D03*
D11*
%TO.P,J5,2,Pin_2*%
%TO.N,Net-(J2-Pin_3)*%
X99587050Y-79070231D03*
%TO.P,J5,3,Pin_3*%
%TO.N,Net-(J1-Pin_8)*%
X99587050Y-80340231D03*
%TO.P,J5,4,Pin_4*%
%TO.N,Net-(J2-Pin_7)*%
X99587050Y-81610231D03*
%TO.P,J5,5,Pin_5*%
%TO.N,Net-(J2-Pin_9)*%
X99587050Y-82880231D03*
%TO.P,J5,6,Pin_6*%
%TO.N,Net-(J2-Pin_11)*%
X99587050Y-84150231D03*
%TO.P,J5,7,Pin_7*%
%TO.N,Net-(J1-Pin_6)*%
X99587050Y-85420231D03*
%TO.P,J5,8,Pin_8*%
%TO.N,GND*%
X99587050Y-86690231D03*
%TO.P,J5,9,Pin_9*%
%TO.N,Net-(J1-Pin_7)*%
X99587050Y-87960231D03*
%TO.P,J5,10,Pin_10*%
%TO.N,Net-(J2-Pin_19)*%
X99587050Y-89230231D03*
%TD*%
D10*
%TO.P,J2,1,Pin_1*%
%TO.N,Net-(J1-Pin_2)*%
X103397050Y-77800231D03*
D11*
%TO.P,J2,2,Pin_2*%
%TO.N,Net-(J2-Pin_2)*%
X104667050Y-77800231D03*
%TO.P,J2,3,Pin_3*%
%TO.N,Net-(J2-Pin_3)*%
X103397050Y-79070231D03*
%TO.P,J2,4,Pin_4*%
%TO.N,Net-(J2-Pin_4)*%
X104667050Y-79070231D03*
%TO.P,J2,5,Pin_5*%
%TO.N,Net-(J1-Pin_8)*%
X103397050Y-80340231D03*
%TO.P,J2,6,Pin_6*%
%TO.N,Net-(J2-Pin_6)*%
X104667050Y-80340231D03*
%TO.P,J2,7,Pin_7*%
%TO.N,Net-(J2-Pin_7)*%
X103397050Y-81610231D03*
%TO.P,J2,8,Pin_8*%
%TO.N,Net-(J2-Pin_8)*%
X104667050Y-81610231D03*
%TO.P,J2,9,Pin_9*%
%TO.N,Net-(J2-Pin_9)*%
X103397050Y-82880231D03*
%TO.P,J2,10,Pin_10*%
%TO.N,GND*%
X104667050Y-82880231D03*
%TO.P,J2,11,Pin_11*%
%TO.N,Net-(J2-Pin_11)*%
X103397050Y-84150231D03*
%TO.P,J2,12,Pin_12*%
%TO.N,Net-(J1-Pin_10)*%
X104667050Y-84150231D03*
%TO.P,J2,13,Pin_13*%
%TO.N,Net-(J1-Pin_6)*%
X103397050Y-85420231D03*
%TO.P,J2,14,Pin_14*%
%TO.N,Net-(J2-Pin_14)*%
X104667050Y-85420231D03*
%TO.P,J2,15,Pin_15*%
%TO.N,GND*%
X103397050Y-86690231D03*
%TO.P,J2,16,Pin_16*%
%TO.N,Net-(J2-Pin_16)*%
X104667050Y-86690231D03*
%TO.P,J2,17,Pin_17*%
%TO.N,Net-(J1-Pin_7)*%
X103397050Y-87960231D03*
%TO.P,J2,18,Pin_18*%
%TO.N,GND*%
X104667050Y-87960231D03*
%TO.P,J2,19,Pin_19*%
%TO.N,Net-(J2-Pin_19)*%
X103397050Y-89230231D03*
%TO.P,J2,20,Pin_20*%
%TO.N,Net-(J1-Pin_4)*%
X104667050Y-89230231D03*
%TD*%
D10*
%TO.P,J4,1,Pin_1*%
%TO.N,Net-(J1-Pin_2)*%
X88157050Y-86699520D03*
D11*
%TO.P,J4,2,Pin_2*%
%TO.N,Net-(J1-Pin_4)*%
X88157050Y-85429520D03*
%TO.P,J4,3,Pin_3*%
%TO.N,Net-(J1-Pin_6)*%
X88157050Y-84159520D03*
%TO.P,J4,4,Pin_4*%
%TO.N,Net-(J1-Pin_8)*%
X88157050Y-82889520D03*
%TO.P,J4,5,Pin_5*%
%TO.N,Net-(J1-Pin_10)*%
X88157050Y-81619520D03*
%TD*%
D10*
%TO.P,J6,1,Pin_1*%
%TO.N,Net-(J2-Pin_2)*%
X108477050Y-77800231D03*
D11*
%TO.P,J6,2,Pin_2*%
%TO.N,Net-(J2-Pin_4)*%
X108477050Y-79070231D03*
%TO.P,J6,3,Pin_3*%
%TO.N,Net-(J2-Pin_6)*%
X108477050Y-80340231D03*
%TO.P,J6,4,Pin_4*%
%TO.N,Net-(J2-Pin_8)*%
X108477050Y-81610231D03*
%TO.P,J6,5,Pin_5*%
%TO.N,GND*%
X108477050Y-82880231D03*
%TO.P,J6,6,Pin_6*%
%TO.N,Net-(J1-Pin_10)*%
X108477050Y-84150231D03*
%TO.P,J6,7,Pin_7*%
%TO.N,Net-(J2-Pin_14)*%
X108477050Y-85420231D03*
%TO.P,J6,8,Pin_8*%
%TO.N,Net-(J2-Pin_16)*%
X108477050Y-86690231D03*
%TO.P,J6,9,Pin_9*%
%TO.N,GND*%
X108477050Y-87960231D03*
%TO.P,J6,10,Pin_10*%
%TO.N,Net-(J1-Pin_4)*%
X108477050Y-89230231D03*
%TD*%
D12*
%TO.P,H3,1,1*%
%TO.N,GND*%
X87522050Y-72085231D03*
D13*
X87522050Y-72085231D03*
%TD*%
D12*
%TO.P,H2,1,1*%
%TO.N,GND*%
X107842050Y-94945231D03*
D13*
X107842050Y-94945231D03*
%TD*%
D14*
%TO.N,Net-(J1-Pin_6)*%
X86252050Y-84150231D03*
%TO.N,Net-(J1-Pin_10)*%
X97047050Y-75895231D03*
X97463550Y-80340231D03*
%TD*%
D15*
%TO.N,+3.3V*%
X95767050Y-86690231D02*
X95777050Y-86700231D01*
%TO.N,Net-(J1-Pin_2)*%
X84982050Y-77800231D02*
X99587050Y-77800231D01*
X84982050Y-86690231D02*
X84982050Y-77800231D01*
X88157050Y-86699520D02*
X88147761Y-86690231D01*
X88147761Y-86690231D02*
X84982050Y-86690231D01*
X91322761Y-86699520D02*
X91332050Y-86690231D01*
%TO.N,GND*%
X95767050Y-84150231D02*
X95777050Y-84160231D01*
X95767050Y-81610231D02*
X95777050Y-81620231D01*
X95767050Y-85420231D02*
X95777050Y-85430231D01*
%TO.N,Net-(J1-Pin_4)*%
X88166339Y-85420231D02*
X88157050Y-85429520D01*
%TO.N,Net-(J1-Pin_6)*%
X88147761Y-84150231D02*
X86252050Y-84150231D01*
X88157050Y-84159520D02*
X88147761Y-84150231D01*
X88166339Y-84150231D02*
X88157050Y-84159520D01*
%TO.N,Net-(J1-Pin_7)*%
X95767050Y-82880231D02*
X95777050Y-82890231D01*
X97672050Y-82890231D02*
X95777050Y-82890231D01*
X97682050Y-86762337D02*
X97682050Y-82880231D01*
X99587050Y-87960231D02*
X98879944Y-87960231D01*
X97682050Y-82880231D02*
X97672050Y-82890231D01*
X98879944Y-87960231D02*
X97682050Y-86762337D01*
%TO.N,Net-(J1-Pin_8)*%
X86887050Y-79705231D02*
X86887050Y-82245231D01*
X88166339Y-82880231D02*
X88157050Y-82889520D01*
X97609944Y-79070231D02*
X87522050Y-79070231D01*
X99587050Y-80340231D02*
X98879944Y-80340231D01*
X87531339Y-82889520D02*
X88157050Y-82889520D01*
X87522050Y-79070231D02*
X86887050Y-79705231D01*
X98879944Y-80340231D02*
X97609944Y-79070231D01*
X86887050Y-82245231D02*
X87531339Y-82889520D01*
%TO.N,Net-(J1-Pin_10)*%
X91332050Y-81610231D02*
X91332050Y-80340231D01*
X88166339Y-81610231D02*
X88157050Y-81619520D01*
X110382050Y-84150231D02*
X108477050Y-84150231D01*
X97047050Y-75895231D02*
X108480050Y-75895231D01*
X108480050Y-75895231D02*
X110382050Y-77797231D01*
X110382050Y-77797231D02*
X110382050Y-84150231D01*
X91332050Y-80340231D02*
X97682050Y-80340231D01*
%TD*%
%TA.AperFunction,Conductor*%
%TO.N,GND*%
G36*
X86387180Y-96080101D02*
G01*
X86577869Y-96242964D01*
X85086698Y-97734134D01*
X85086699Y-97734135D01*
X85291359Y-97899865D01*
X85331071Y-97957352D01*
X85333399Y-98027183D01*
X85297604Y-98087187D01*
X85235050Y-98118313D01*
X85213324Y-98120231D01*
X84471050Y-98120231D01*
X84404011Y-98100546D01*
X84358256Y-98047742D01*
X84347050Y-97996231D01*
X84347050Y-97253956D01*
X84366735Y-97186917D01*
X84419539Y-97141162D01*
X84488697Y-97131218D01*
X84552253Y-97160243D01*
X84567416Y-97175921D01*
X84733145Y-97380581D01*
X84733146Y-97380581D01*
X86224316Y-95889411D01*
X86387180Y-96080101D01*
G37*
%TD.AperFunction*%
%TA.AperFunction,Conductor*%
G36*
X102625322Y-76669416D02*
G01*
X102671077Y-76722220D01*
X102681021Y-76791378D01*
X102651996Y-76854934D01*
X102632594Y-76872997D01*
X102539505Y-76942683D01*
X102539502Y-76942686D01*
X102453256Y-77057895D01*
X102453252Y-77057902D01*
X102402958Y-77192748D01*
X102396551Y-77252347D01*
X102396551Y-77252354D01*
X102396550Y-77252366D01*
X102396550Y-78348101D01*
X102396551Y-78348107D01*
X102402958Y-78407714D01*
X102453252Y-78542559D01*
X102453254Y-78542562D01*
X102459281Y-78550613D01*
X102483698Y-78616077D01*
X102470155Y-78679701D01*
X102470568Y-78679872D01*
X102469645Y-78682100D01*
X102469374Y-78683374D01*
X102468238Y-78685498D01*
X102468236Y-78685503D01*
X102468236Y-78685504D01*
X102450281Y-78744693D01*
X102411025Y-78874101D01*
X102391709Y-79070231D01*
X102411025Y-79266360D01*
X102411026Y-79266363D01*
X102467402Y-79452210D01*
X102468238Y-79454964D01*
X102561136Y-79628763D01*
X102564523Y-79633832D01*
X102562886Y-79634925D01*
X102586646Y-79690894D01*
X102574845Y-79759760D01*
X102564159Y-79776387D01*
X102564523Y-79776630D01*
X102561136Y-79781698D01*
X102468238Y-79955497D01*
X102411025Y-80144101D01*
X102391709Y-80340231D01*
X102411025Y-80536360D01*
X102411026Y-80536363D01*
X102462279Y-80705322D01*
X102468238Y-80724964D01*
X102561136Y-80898763D01*
X102564523Y-80903832D01*
X102562886Y-80904925D01*
X102586646Y-80960894D01*
X102574845Y-81029760D01*
X102564159Y-81046387D01*
X102564523Y-81046630D01*
X102561136Y-81051698D01*
X102468238Y-81225497D01*
X102411025Y-81414101D01*
X102391709Y-81610231D01*
X102411025Y-81806360D01*
X102411026Y-81806363D01*
X102462279Y-81975322D01*
X102468238Y-81994964D01*
X102561136Y-82168763D01*
X102564523Y-82173832D01*
X102562886Y-82174925D01*
X102586646Y-82230894D01*
X102574845Y-82299760D01*
X102564159Y-82316387D01*
X102564523Y-82316630D01*
X102561136Y-82321698D01*
X102468238Y-82495497D01*
X102411025Y-82684101D01*
X102391709Y-82880231D01*
X102411025Y-83076360D01*
X102414059Y-83086363D01*
X102455359Y-83222510D01*
X102468238Y-83264964D01*
X102561136Y-83438763D01*
X102564523Y-83443832D01*
X102562886Y-83444925D01*
X102586646Y-83500894D01*
X102574845Y-83569760D01*
X102564159Y-83586387D01*
X102564523Y-83586630D01*
X102561136Y-83591698D01*
X102468238Y-83765497D01*
X102411025Y-83954101D01*
X102391709Y-84150231D01*
X102411025Y-84346360D01*
X102411026Y-84346363D01*
X102464991Y-84524262D01*
X102468238Y-84534964D01*
X102561136Y-84708763D01*
X102564523Y-84713832D01*
X102562886Y-84714925D01*
X102586646Y-84770894D01*
X102574845Y-84839760D01*
X102564159Y-84856387D01*
X102564523Y-84856630D01*
X102561136Y-84861698D01*
X102468238Y-85035497D01*
X102411025Y-85224101D01*
X102391709Y-85420231D01*
X102411025Y-85616360D01*
X102411026Y-85616363D01*
X102455359Y-85762510D01*
X102468238Y-85804964D01*
X102561136Y-85978763D01*
X102564523Y-85983832D01*
X102563005Y-85984846D01*
X102586968Y-86041273D01*
X102575174Y-86110140D01*
X102564565Y-86126651D01*
X102564943Y-86126904D01*
X102561555Y-86131973D01*
X102468702Y-86305689D01*
X102427889Y-86440230D01*
X102427890Y-86440231D01*
X103182567Y-86440231D01*
X103111249Y-86525224D01*
X103072050Y-86632925D01*
X103072050Y-86747537D01*
X103111249Y-86855238D01*
X103182567Y-86940231D01*
X102427890Y-86940231D01*
X102468702Y-87074772D01*
X102561553Y-87248484D01*
X102564940Y-87253553D01*
X102563265Y-87254671D01*
X102586968Y-87310490D01*
X102575173Y-87379356D01*
X102564208Y-87396419D01*
X102564523Y-87396630D01*
X102561136Y-87401698D01*
X102468238Y-87575497D01*
X102411025Y-87764101D01*
X102391709Y-87960231D01*
X102411025Y-88156360D01*
X102411026Y-88156363D01*
X102449276Y-88282457D01*
X102468238Y-88344964D01*
X102561136Y-88518763D01*
X102564523Y-88523832D01*
X102562886Y-88524925D01*
X102586646Y-88580894D01*
X102574845Y-88649760D01*
X102564159Y-88666387D01*
X102564523Y-88666630D01*
X102561136Y-88671698D01*
X102468238Y-88845497D01*
X102411025Y-89034101D01*
X102391709Y-89230231D01*
X102411025Y-89426360D01*
X102468238Y-89614964D01*
X102561136Y-89788763D01*
X102561140Y-89788770D01*
X102686166Y-89941114D01*
X102838510Y-90066140D01*
X102838517Y-90066144D01*
X103012316Y-90159042D01*
X103012319Y-90159042D01*
X103012323Y-90159045D01*
X103200918Y-90216255D01*
X103397050Y-90235572D01*
X103593182Y-90216255D01*
X103781777Y-90159045D01*
X103955588Y-90066141D01*
X103955594Y-90066135D01*
X103960657Y-90062754D01*
X103961753Y-90064395D01*
X104017689Y-90040636D01*
X104086557Y-90052425D01*
X104103198Y-90063119D01*
X104103443Y-90062754D01*
X104108508Y-90066138D01*
X104108512Y-90066141D01*
X104282323Y-90159045D01*
X104470918Y-90216255D01*
X104667050Y-90235572D01*
X104863182Y-90216255D01*
X105051777Y-90159045D01*
X105225588Y-90066141D01*
X105377933Y-89941114D01*
X105502960Y-89788769D01*
X105595864Y-89614958D01*
X105653074Y-89426363D01*
X105672391Y-89230231D01*
X105653074Y-89034099D01*
X105595864Y-88845504D01*
X105502960Y-88671693D01*
X105502956Y-88671688D01*
X105499576Y-88666630D01*
X105501094Y-88665615D01*
X105477131Y-88609193D01*
X105488922Y-88540325D01*
X105499542Y-88523805D01*
X105499161Y-88523551D01*
X105502547Y-88518483D01*
X105595397Y-88344772D01*
X105636210Y-88210231D01*
X104881533Y-88210231D01*
X104952851Y-88125238D01*
X104992050Y-88017537D01*
X104992050Y-87902925D01*
X104952851Y-87795224D01*
X104881533Y-87710231D01*
X105636210Y-87710231D01*
X105636210Y-87710230D01*
X105595397Y-87575689D01*
X105502546Y-87401977D01*
X105499160Y-87396909D01*
X105500834Y-87395790D01*
X105477131Y-87339977D01*
X105488924Y-87271110D01*
X105499889Y-87254049D01*
X105499573Y-87253838D01*
X105502954Y-87248775D01*
X105502960Y-87248769D01*
X105595864Y-87074958D01*
X105653074Y-86886363D01*
X105672391Y-86690231D01*
X105653074Y-86494099D01*
X105595864Y-86305504D01*
X105502960Y-86131693D01*
X105502957Y-86131689D01*
X105499573Y-86126624D01*
X105501214Y-86125527D01*
X105477455Y-86069592D01*
X105489244Y-86000724D01*
X105499938Y-85984082D01*
X105499573Y-85983838D01*
X105502954Y-85978775D01*
X105502960Y-85978769D01*
X105595864Y-85804958D01*
X105653074Y-85616363D01*
X105672391Y-85420231D01*
X105653074Y-85224099D01*
X105595864Y-85035504D01*
X105590102Y-85024725D01*
X105568387Y-84984099D01*
X105502960Y-84861693D01*
X105502957Y-84861689D01*
X105499573Y-84856624D01*
X105501214Y-84855527D01*
X105477455Y-84799592D01*
X105489244Y-84730724D01*
X105499938Y-84714082D01*
X105499573Y-84713838D01*
X105502954Y-84708775D01*
X105502960Y-84708769D01*
X105595864Y-84534958D01*
X105653074Y-84346363D01*
X105672391Y-84150231D01*
X105653074Y-83954099D01*
X105595864Y-83765504D01*
X105502960Y-83591693D01*
X105502956Y-83591688D01*
X105499576Y-83586630D01*
X105501094Y-83585615D01*
X105477131Y-83529193D01*
X105488922Y-83460325D01*
X105499542Y-83443805D01*
X105499161Y-83443551D01*
X105502547Y-83438483D01*
X105595397Y-83264772D01*
X105636210Y-83130231D01*
X104881533Y-83130231D01*
X104952851Y-83045238D01*
X104992050Y-82937537D01*
X104992050Y-82822925D01*
X104952851Y-82715224D01*
X104881533Y-82630231D01*
X105636210Y-82630231D01*
X105636210Y-82630230D01*
X105595397Y-82495689D01*
X105502546Y-82321977D01*
X105499160Y-82316909D01*
X105500834Y-82315790D01*
X105477131Y-82259977D01*
X105488924Y-82191110D01*
X105499889Y-82174049D01*
X105499573Y-82173838D01*
X105502954Y-82168775D01*
X105502960Y-82168769D01*
X105595864Y-81994958D01*
X105653074Y-81806363D01*
X105672391Y-81610231D01*
X105653074Y-81414099D01*
X105595864Y-81225504D01*
X105502960Y-81051693D01*
X105502957Y-81051689D01*
X105499573Y-81046624D01*
X105501214Y-81045527D01*
X105477455Y-80989592D01*
X105489244Y-80920724D01*
X105499938Y-80904082D01*
X105499573Y-80903838D01*
X105502954Y-80898775D01*
X105502960Y-80898769D01*
X105595864Y-80724958D01*
X105653074Y-80536363D01*
X105672391Y-80340231D01*
X105653074Y-80144099D01*
X105595864Y-79955504D01*
X105502960Y-79781693D01*
X105502957Y-79781689D01*
X105499573Y-79776624D01*
X105501214Y-79775527D01*
X105477455Y-79719592D01*
X105489244Y-79650724D01*
X105499938Y-79634082D01*
X105499573Y-79633838D01*
X105502954Y-79628775D01*
X105502960Y-79628769D01*
X105595864Y-79454958D01*
X105653074Y-79266363D01*
X105672391Y-79070231D01*
X105653074Y-78874099D01*
X105595864Y-78685504D01*
X105594725Y-78683374D01*
X105583036Y-78661506D01*
X105502960Y-78511693D01*
X105502957Y-78511689D01*
X105499573Y-78506624D01*
X105501214Y-78505527D01*
X105477455Y-78449592D01*
X105489244Y-78380724D01*
X105499938Y-78364082D01*
X105499573Y-78363838D01*
X105502954Y-78358775D01*
X105502960Y-78358769D01*
X105595864Y-78184958D01*
X105653074Y-77996363D01*
X105672391Y-77800231D01*
X105653074Y-77604099D01*
X105595864Y-77415504D01*
X105595861Y-77415500D01*
X105595861Y-77415497D01*
X105502963Y-77241698D01*
X105502959Y-77241691D01*
X105377933Y-77089347D01*
X105225589Y-76964321D01*
X105225582Y-76964317D01*
X105073615Y-76883089D01*
X105023771Y-76834127D01*
X105008310Y-76765989D01*
X105032142Y-76700310D01*
X105087699Y-76657941D01*
X105132068Y-76649731D01*
X107638283Y-76649731D01*
X107705322Y-76669416D01*
X107751077Y-76722220D01*
X107761021Y-76791378D01*
X107731996Y-76854934D01*
X107712594Y-76872997D01*
X107619505Y-76942683D01*
X107619502Y-76942686D01*
X107533256Y-77057895D01*
X107533252Y-77057902D01*
X107482958Y-77192748D01*
X107476551Y-77252347D01*
X107476551Y-77252354D01*
X107476550Y-77252366D01*
X107476550Y-78348101D01*
X107476551Y-78348107D01*
X107482958Y-78407714D01*
X107533252Y-78542559D01*
X107533254Y-78542562D01*
X107539281Y-78550613D01*
X107563698Y-78616077D01*
X107550155Y-78679701D01*
X107550568Y-78679872D01*
X107549645Y-78682100D01*
X107549374Y-78683374D01*
X107548238Y-78685498D01*
X107548236Y-78685503D01*
X107548236Y-78685504D01*
X107530281Y-78744693D01*
X107491025Y-78874101D01*
X107471709Y-79070231D01*
X107491025Y-79266360D01*
X107491026Y-79266363D01*
X107547402Y-79452210D01*
X107548238Y-79454964D01*
X107641136Y-79628763D01*
X107644523Y-79633832D01*
X107642886Y-79634925D01*
X107666646Y-79690894D01*
X107654845Y-79759760D01*
X107644159Y-79776387D01*
X107644523Y-79776630D01*
X107641136Y-79781698D01*
X107548238Y-79955497D01*
X107491025Y-80144101D01*
X107471709Y-80340231D01*
X107491025Y-80536360D01*
X107491026Y-80536363D01*
X107542279Y-80705322D01*
X107548238Y-80724964D01*
X107641136Y-80898763D01*
X107644523Y-80903832D01*
X107642886Y-80904925D01*
X107666646Y-80960894D01*
X107654845Y-81029760D01*
X107644159Y-81046387D01*
X107644523Y-81046630D01*
X107641136Y-81051698D01*
X107548238Y-81225497D01*
X107491025Y-81414101D01*
X107471709Y-81610231D01*
X107491025Y-81806360D01*
X107491026Y-81806363D01*
X107542279Y-81975322D01*
X107548238Y-81994964D01*
X107641136Y-82168763D01*
X107644523Y-82173832D01*
X107643005Y-82174846D01*
X107666968Y-82231273D01*
X107655174Y-82300140D01*
X107644565Y-82316651D01*
X107644943Y-82316904D01*
X107641555Y-82321973D01*
X107548702Y-82495689D01*
X107507889Y-82630230D01*
X107507890Y-82630231D01*
X108262567Y-82630231D01*
X108191249Y-82715224D01*
X108152050Y-82822925D01*
X108152050Y-82937537D01*
X108191249Y-83045238D01*
X108262567Y-83130231D01*
X107507890Y-83130231D01*
X107548702Y-83264772D01*
X107641553Y-83438484D01*
X107644940Y-83443553D01*
X107643265Y-83444671D01*
X107666968Y-83500490D01*
X107655173Y-83569356D01*
X107644208Y-83586419D01*
X107644523Y-83586630D01*
X107641136Y-83591698D01*
X107548238Y-83765497D01*
X107491025Y-83954101D01*
X107471709Y-84150231D01*
X107491025Y-84346360D01*
X107491026Y-84346363D01*
X107544991Y-84524262D01*
X107548238Y-84534964D01*
X107641136Y-84708763D01*
X107644523Y-84713832D01*
X107642886Y-84714925D01*
X107666646Y-84770894D01*
X107654845Y-84839760D01*
X107644159Y-84856387D01*
X107644523Y-84856630D01*
X107641136Y-84861698D01*
X107548238Y-85035497D01*
X107491025Y-85224101D01*
X107471709Y-85420231D01*
X107491025Y-85616360D01*
X107491026Y-85616363D01*
X107535359Y-85762510D01*
X107548238Y-85804964D01*
X107641136Y-85978763D01*
X107644523Y-85983832D01*
X107642886Y-85984925D01*
X107666646Y-86040894D01*
X107654845Y-86109760D01*
X107644159Y-86126387D01*
X107644523Y-86126630D01*
X107641136Y-86131698D01*
X107548238Y-86305497D01*
X107491025Y-86494101D01*
X107471709Y-86690231D01*
X107491025Y-86886360D01*
X107491026Y-86886363D01*
X107534948Y-87031155D01*
X107548238Y-87074964D01*
X107641136Y-87248763D01*
X107644523Y-87253832D01*
X107643005Y-87254846D01*
X107666968Y-87311273D01*
X107655174Y-87380140D01*
X107644565Y-87396651D01*
X107644943Y-87396904D01*
X107641555Y-87401973D01*
X107548702Y-87575689D01*
X107507889Y-87710230D01*
X107507890Y-87710231D01*
X108262567Y-87710231D01*
X108191249Y-87795224D01*
X108152050Y-87902925D01*
X108152050Y-88017537D01*
X108191249Y-88125238D01*
X108262567Y-88210231D01*
X107507890Y-88210231D01*
X107548702Y-88344772D01*
X107641553Y-88518484D01*
X107644940Y-88523553D01*
X107643265Y-88524671D01*
X107666968Y-88580490D01*
X107655173Y-88649356D01*
X107644208Y-88666419D01*
X107644523Y-88666630D01*
X107641136Y-88671698D01*
X107548238Y-88845497D01*
X107491025Y-89034101D01*
X107471709Y-89230231D01*
X107491025Y-89426360D01*
X107548238Y-89614964D01*
X107641136Y-89788763D01*
X107641140Y-89788770D01*
X107766166Y-89941114D01*
X107918510Y-90066140D01*
X107918517Y-90066144D01*
X108092316Y-90159042D01*
X108092319Y-90159042D01*
X108092323Y-90159045D01*
X108280918Y-90216255D01*
X108477050Y-90235572D01*
X108673182Y-90216255D01*
X108861777Y-90159045D01*
X109035588Y-90066141D01*
X109187933Y-89941114D01*
X109312960Y-89788769D01*
X109405864Y-89614958D01*
X109463074Y-89426363D01*
X109482391Y-89230231D01*
X109463074Y-89034099D01*
X109405864Y-88845504D01*
X109312960Y-88671693D01*
X109312956Y-88671688D01*
X109309576Y-88666630D01*
X109311094Y-88665615D01*
X109287131Y-88609193D01*
X109298922Y-88540325D01*
X109309542Y-88523805D01*
X109309161Y-88523551D01*
X109312547Y-88518483D01*
X109405397Y-88344772D01*
X109446210Y-88210231D01*
X108691533Y-88210231D01*
X108762851Y-88125238D01*
X108802050Y-88017537D01*
X108802050Y-87902925D01*
X108762851Y-87795224D01*
X108691533Y-87710231D01*
X109446210Y-87710231D01*
X109446210Y-87710230D01*
X109405397Y-87575689D01*
X109312546Y-87401977D01*
X109309160Y-87396909D01*
X109310834Y-87395790D01*
X109287131Y-87339977D01*
X109298924Y-87271110D01*
X109309889Y-87254049D01*
X109309573Y-87253838D01*
X109312954Y-87248775D01*
X109312960Y-87248769D01*
X109405864Y-87074958D01*
X109463074Y-86886363D01*
X109482391Y-86690231D01*
X109463074Y-86494099D01*
X109405864Y-86305504D01*
X109312960Y-86131693D01*
X109312957Y-86131689D01*
X109309573Y-86126624D01*
X109311214Y-86125527D01*
X109287455Y-86069592D01*
X109299244Y-86000724D01*
X109309938Y-85984082D01*
X109309573Y-85983838D01*
X109312954Y-85978775D01*
X109312960Y-85978769D01*
X109405864Y-85804958D01*
X109463074Y-85616363D01*
X109482391Y-85420231D01*
X109463074Y-85224099D01*
X109427016Y-85105231D01*
X109414729Y-85064727D01*
X109414105Y-84994860D01*
X109451353Y-84935747D01*
X109514647Y-84906156D01*
X109533389Y-84904731D01*
X110358303Y-84904731D01*
X110361904Y-84904835D01*
X110426219Y-84908582D01*
X110489671Y-84897392D01*
X110493235Y-84896871D01*
X110499970Y-84896083D01*
X110557234Y-84889391D01*
X110567874Y-84885517D01*
X110588760Y-84879920D01*
X110599916Y-84877954D01*
X110659102Y-84852422D01*
X110662375Y-84851122D01*
X110722974Y-84829067D01*
X110732444Y-84822837D01*
X110751462Y-84812583D01*
X110761868Y-84808095D01*
X110813554Y-84769615D01*
X110816496Y-84767556D01*
X110824915Y-84762019D01*
X110891744Y-84741629D01*
X110958987Y-84760606D01*
X111005296Y-84812925D01*
X111017050Y-84865622D01*
X111017050Y-92636505D01*
X110997365Y-92703544D01*
X110944561Y-92749299D01*
X110875403Y-92759243D01*
X110811847Y-92730218D01*
X110796684Y-92714540D01*
X110630954Y-92509880D01*
X110630953Y-92509879D01*
X109139782Y-94001049D01*
X108976920Y-93810361D01*
X108786230Y-93647497D01*
X110277400Y-92156327D01*
X110277400Y-92156326D01*
X110019843Y-91947762D01*
X109694593Y-91736541D01*
X109349044Y-91560475D01*
X108986986Y-91421493D01*
X108612380Y-91321118D01*
X108612373Y-91321117D01*
X108229337Y-91260450D01*
X107842051Y-91240153D01*
X107842049Y-91240153D01*
X107454762Y-91260450D01*
X107071726Y-91321117D01*
X107071719Y-91321118D01*
X106697113Y-91421493D01*
X106335055Y-91560475D01*
X105989506Y-91736541D01*
X105664256Y-91947762D01*
X105406698Y-92156326D01*
X105406698Y-92156327D01*
X106897869Y-93647497D01*
X106707180Y-93810361D01*
X106544316Y-94001049D01*
X105053146Y-92509879D01*
X105053145Y-92509879D01*
X104844581Y-92767437D01*
X104633360Y-93092687D01*
X104457294Y-93438236D01*
X104318312Y-93800294D01*
X104217937Y-94174900D01*
X104217936Y-94174907D01*
X104157269Y-94557943D01*
X104136972Y-94945230D01*
X104136972Y-94945231D01*
X104157269Y-95332518D01*
X104217936Y-95715554D01*
X104217937Y-95715561D01*
X104318312Y-96090167D01*
X104457294Y-96452225D01*
X104633360Y-96797774D01*
X104844581Y-97123024D01*
X105053145Y-97380581D01*
X105053146Y-97380581D01*
X106544316Y-95889411D01*
X106707180Y-96080101D01*
X106897869Y-96242964D01*
X105406698Y-97734134D01*
X105406699Y-97734135D01*
X105611359Y-97899865D01*
X105651071Y-97957352D01*
X105653399Y-98027183D01*
X105617604Y-98087187D01*
X105555050Y-98118313D01*
X105533324Y-98120231D01*
X89830775Y-98120231D01*
X89763736Y-98100546D01*
X89717981Y-98047742D01*
X89708037Y-97978584D01*
X89737062Y-97915028D01*
X89752739Y-97899865D01*
X89957399Y-97734133D01*
X88466230Y-96242964D01*
X88656920Y-96080101D01*
X88819783Y-95889411D01*
X90310952Y-97380580D01*
X90519525Y-97123016D01*
X90519526Y-97123014D01*
X90730739Y-96797774D01*
X90906805Y-96452225D01*
X91045787Y-96090167D01*
X91146162Y-95715561D01*
X91146163Y-95715554D01*
X91206830Y-95332518D01*
X91227128Y-94945231D01*
X91227128Y-94945230D01*
X91206830Y-94557943D01*
X91146163Y-94174907D01*
X91146162Y-94174900D01*
X91045787Y-93800294D01*
X90906805Y-93438236D01*
X90730739Y-93092687D01*
X90519518Y-92767437D01*
X90310954Y-92509880D01*
X90310953Y-92509879D01*
X88819782Y-94001049D01*
X88656920Y-93810361D01*
X88466230Y-93647497D01*
X89957400Y-92156327D01*
X89957400Y-92156326D01*
X89699843Y-91947762D01*
X89374593Y-91736541D01*
X89029044Y-91560475D01*
X88666986Y-91421493D01*
X88292380Y-91321118D01*
X88292373Y-91321117D01*
X87909337Y-91260450D01*
X87522051Y-91240153D01*
X87522049Y-91240153D01*
X87134762Y-91260450D01*
X86751726Y-91321117D01*
X86751719Y-91321118D01*
X86377113Y-91421493D01*
X86015055Y-91560475D01*
X85669506Y-91736541D01*
X85344256Y-91947762D01*
X85086698Y-92156326D01*
X85086698Y-92156327D01*
X86577869Y-93647497D01*
X86387180Y-93810361D01*
X86224316Y-94001049D01*
X84733146Y-92509879D01*
X84733145Y-92509879D01*
X84567416Y-92714540D01*
X84509930Y-92754252D01*
X84440099Y-92756580D01*
X84380095Y-92720785D01*
X84348968Y-92658232D01*
X84347050Y-92636505D01*
X84347050Y-87409608D01*
X84366735Y-87342569D01*
X84419539Y-87296814D01*
X84488697Y-87286870D01*
X84533060Y-87302228D01*
X84536619Y-87304282D01*
X84538249Y-87305224D01*
X84555943Y-87317614D01*
X84564623Y-87324898D01*
X84622216Y-87353821D01*
X84625366Y-87355520D01*
X84681174Y-87387741D01*
X84692029Y-87390990D01*
X84712112Y-87398969D01*
X84722239Y-87404055D01*
X84784959Y-87418920D01*
X84788405Y-87419843D01*
X84850141Y-87438326D01*
X84861444Y-87438984D01*
X84882831Y-87442116D01*
X84893862Y-87444731D01*
X84958303Y-87444731D01*
X84961904Y-87444835D01*
X85026219Y-87448582D01*
X85037375Y-87446614D01*
X85058906Y-87444731D01*
X87153340Y-87444731D01*
X87220379Y-87464416D01*
X87252606Y-87494419D01*
X87299505Y-87557067D01*
X87414714Y-87643313D01*
X87414721Y-87643317D01*
X87549567Y-87693611D01*
X87549566Y-87693611D01*
X87556180Y-87694322D01*
X87609177Y-87700020D01*
X88704922Y-87700019D01*
X88764533Y-87693611D01*
X88899381Y-87643316D01*
X89014596Y-87557066D01*
X89100846Y-87441851D01*
X89151141Y-87307003D01*
X89157550Y-87247393D01*
X89157549Y-86151648D01*
X89152349Y-86103277D01*
X89151141Y-86092036D01*
X89100847Y-85957192D01*
X89100846Y-85957189D01*
X89094817Y-85949135D01*
X89070401Y-85883674D01*
X89083945Y-85820045D01*
X89083533Y-85819875D01*
X89084456Y-85817644D01*
X89084727Y-85816373D01*
X89085864Y-85814247D01*
X89143074Y-85625652D01*
X89162391Y-85429520D01*
X89143074Y-85233388D01*
X89085864Y-85044793D01*
X88992960Y-84870982D01*
X88992957Y-84870978D01*
X88989573Y-84865913D01*
X88991214Y-84864816D01*
X88967455Y-84808881D01*
X88979244Y-84740013D01*
X88989938Y-84723371D01*
X88989573Y-84723127D01*
X88992954Y-84718064D01*
X88992960Y-84718058D01*
X89085864Y-84544247D01*
X89143074Y-84355652D01*
X89162391Y-84159520D01*
X89143074Y-83963388D01*
X89085864Y-83774793D01*
X88992960Y-83600982D01*
X88992957Y-83600978D01*
X88989573Y-83595913D01*
X88991214Y-83594816D01*
X88967455Y-83538881D01*
X88979244Y-83470013D01*
X88989938Y-83453371D01*
X88989573Y-83453127D01*
X88992954Y-83448064D01*
X88992960Y-83448058D01*
X89085864Y-83274247D01*
X89143074Y-83085652D01*
X89162391Y-82889520D01*
X89143074Y-82693388D01*
X89085864Y-82504793D01*
X89080845Y-82495404D01*
X89040763Y-82420415D01*
X88992960Y-82330982D01*
X88992957Y-82330978D01*
X88989573Y-82325913D01*
X88991214Y-82324816D01*
X88967455Y-82268881D01*
X88979244Y-82200013D01*
X88989938Y-82183371D01*
X88989573Y-82183127D01*
X88992954Y-82178064D01*
X88992960Y-82178058D01*
X89085864Y-82004247D01*
X89143074Y-81815652D01*
X89162391Y-81619520D01*
X89143074Y-81423388D01*
X89085864Y-81234793D01*
X89085861Y-81234789D01*
X89085861Y-81234786D01*
X88992963Y-81060987D01*
X88992959Y-81060980D01*
X88867933Y-80908636D01*
X88715589Y-80783610D01*
X88715582Y-80783606D01*
X88541783Y-80690708D01*
X88541777Y-80690706D01*
X88416047Y-80652566D01*
X88353179Y-80633495D01*
X88157050Y-80614179D01*
X87960919Y-80633495D01*
X87801545Y-80681841D01*
X87731678Y-80682464D01*
X87672565Y-80645216D01*
X87642974Y-80581921D01*
X87641550Y-80563180D01*
X87641550Y-80069117D01*
X87661235Y-80002078D01*
X87677869Y-79981436D01*
X87798255Y-79861050D01*
X87859578Y-79827565D01*
X87885936Y-79824731D01*
X90543679Y-79824731D01*
X90610718Y-79844416D01*
X90656473Y-79897220D01*
X90666417Y-79966378D01*
X90651068Y-80010727D01*
X90634540Y-80039355D01*
X90634540Y-80039356D01*
X90631289Y-80050213D01*
X90623314Y-80070287D01*
X90618226Y-80080419D01*
X90618225Y-80080420D01*
X90603364Y-80143120D01*
X90602431Y-80146601D01*
X90583955Y-80208323D01*
X90583954Y-80208325D01*
X90583295Y-80219638D01*
X90580164Y-80241010D01*
X90577550Y-80252041D01*
X90577550Y-80316483D01*
X90577445Y-80320089D01*
X90573699Y-80384398D01*
X90575666Y-80395553D01*
X90577550Y-80417087D01*
X90577550Y-80908126D01*
X90557865Y-80975165D01*
X90549403Y-80986791D01*
X90496141Y-81051691D01*
X90496136Y-81051698D01*
X90403238Y-81225497D01*
X90346025Y-81414101D01*
X90326709Y-81610231D01*
X90346025Y-81806360D01*
X90346026Y-81806363D01*
X90397279Y-81975322D01*
X90403238Y-81994964D01*
X90496136Y-82168763D01*
X90499523Y-82173832D01*
X90497886Y-82174925D01*
X90521646Y-82230894D01*
X90509845Y-82299760D01*
X90499159Y-82316387D01*
X90499523Y-82316630D01*
X90496136Y-82321698D01*
X90403238Y-82495497D01*
X90346025Y-82684101D01*
X90326709Y-82880231D01*
X90346025Y-83076360D01*
X90349059Y-83086363D01*
X90390359Y-83222510D01*
X90403238Y-83264964D01*
X90496136Y-83438763D01*
X90499523Y-83443832D01*
X90497886Y-83444925D01*
X90521646Y-83500894D01*
X90509845Y-83569760D01*
X90499159Y-83586387D01*
X90499523Y-83586630D01*
X90496136Y-83591698D01*
X90403238Y-83765497D01*
X90346025Y-83954101D01*
X90326709Y-84150231D01*
X90346025Y-84346360D01*
X90346026Y-84346363D01*
X90399991Y-84524262D01*
X90403238Y-84534964D01*
X90496136Y-84708763D01*
X90499523Y-84713832D01*
X90497886Y-84714925D01*
X90521646Y-84770894D01*
X90509845Y-84839760D01*
X90499159Y-84856387D01*
X90499523Y-84856630D01*
X90496136Y-84861698D01*
X90403238Y-85035497D01*
X90346025Y-85224101D01*
X90326709Y-85420231D01*
X90346025Y-85616360D01*
X90346026Y-85616363D01*
X90390359Y-85762510D01*
X90403238Y-85804964D01*
X90496136Y-85978763D01*
X90499523Y-85983832D01*
X90497886Y-85984925D01*
X90521646Y-86040894D01*
X90509845Y-86109760D01*
X90499159Y-86126387D01*
X90499523Y-86126630D01*
X90496136Y-86131698D01*
X90403238Y-86305497D01*
X90346025Y-86494101D01*
X90326709Y-86690231D01*
X90346025Y-86886360D01*
X90346026Y-86886363D01*
X90389948Y-87031155D01*
X90403238Y-87074964D01*
X90496136Y-87248763D01*
X90496140Y-87248770D01*
X90621166Y-87401114D01*
X90773510Y-87526140D01*
X90773517Y-87526144D01*
X90947316Y-87619042D01*
X90947319Y-87619042D01*
X90947323Y-87619045D01*
X91135918Y-87676255D01*
X91332050Y-87695572D01*
X91528182Y-87676255D01*
X91716777Y-87619045D01*
X91718903Y-87617908D01*
X91720145Y-87617649D01*
X91722405Y-87616714D01*
X91722582Y-87617142D01*
X91787304Y-87603666D01*
X91851665Y-87627998D01*
X91859719Y-87634027D01*
X91886533Y-87644028D01*
X91994567Y-87684322D01*
X91994566Y-87684322D01*
X92001494Y-87685066D01*
X92054177Y-87690731D01*
X93149922Y-87690730D01*
X93209533Y-87684322D01*
X93344381Y-87634027D01*
X93459596Y-87547777D01*
X93545846Y-87432562D01*
X93596141Y-87297714D01*
X93602550Y-87238104D01*
X93602549Y-86142359D01*
X93596141Y-86082748D01*
X93580530Y-86040894D01*
X93545847Y-85947902D01*
X93545843Y-85947895D01*
X93539489Y-85939407D01*
X93515071Y-85873943D01*
X93528555Y-85810600D01*
X93528068Y-85810398D01*
X93529160Y-85807761D01*
X93529399Y-85806639D01*
X93530397Y-85804770D01*
X93571210Y-85670231D01*
X92816533Y-85670231D01*
X92887851Y-85585238D01*
X92927050Y-85477537D01*
X92927050Y-85362925D01*
X92887851Y-85255224D01*
X92824923Y-85180230D01*
X94807889Y-85180230D01*
X94807890Y-85180231D01*
X95527050Y-85180231D01*
X95527050Y-84410231D01*
X94807890Y-84410231D01*
X94848702Y-84544772D01*
X94941553Y-84718484D01*
X94944940Y-84723553D01*
X94943388Y-84724589D01*
X94967292Y-84780892D01*
X94955492Y-84849758D01*
X94944610Y-84866689D01*
X94944940Y-84866909D01*
X94941553Y-84871977D01*
X94848702Y-85045689D01*
X94807889Y-85180230D01*
X92824923Y-85180230D01*
X92814179Y-85167426D01*
X92714921Y-85110119D01*
X92630486Y-85095231D01*
X92573614Y-85095231D01*
X92489179Y-85110119D01*
X92389921Y-85167426D01*
X92352050Y-85212558D01*
X92352050Y-84357903D01*
X92389921Y-84403036D01*
X92489179Y-84460343D01*
X92573614Y-84475231D01*
X92630486Y-84475231D01*
X92714921Y-84460343D01*
X92814179Y-84403036D01*
X92816533Y-84400231D01*
X92852050Y-84400231D01*
X92852050Y-85170231D01*
X93571210Y-85170231D01*
X93571210Y-85170230D01*
X93530397Y-85035689D01*
X93437547Y-84861978D01*
X93434161Y-84856911D01*
X93435715Y-84855872D01*
X93411809Y-84799592D01*
X93423597Y-84730724D01*
X93434491Y-84713771D01*
X93434161Y-84713551D01*
X93437547Y-84708483D01*
X93530397Y-84534772D01*
X93571210Y-84400231D01*
X92852050Y-84400231D01*
X92816533Y-84400231D01*
X92887851Y-84315238D01*
X92927050Y-84207537D01*
X92927050Y-84092925D01*
X92887851Y-83985224D01*
X92816533Y-83900231D01*
X93571210Y-83900231D01*
X93571210Y-83900230D01*
X93530397Y-83765689D01*
X93437546Y-83591977D01*
X93434160Y-83586909D01*
X93435834Y-83585790D01*
X93412131Y-83529977D01*
X93423924Y-83461110D01*
X93434889Y-83444049D01*
X93434573Y-83443838D01*
X93437954Y-83438775D01*
X93437960Y-83438769D01*
X93530864Y-83264958D01*
X93588074Y-83076363D01*
X93607391Y-82880231D01*
X93588074Y-82684099D01*
X93530864Y-82495504D01*
X93529600Y-82493140D01*
X93504479Y-82446141D01*
X93437960Y-82321693D01*
X93437956Y-82321688D01*
X93434576Y-82316630D01*
X93436094Y-82315615D01*
X93412131Y-82259193D01*
X93423922Y-82190325D01*
X93434542Y-82173805D01*
X93434161Y-82173551D01*
X93437547Y-82168483D01*
X93530397Y-81994772D01*
X93571210Y-81860231D01*
X92816533Y-81860231D01*
X92887851Y-81775238D01*
X92927050Y-81667537D01*
X92927050Y-81552925D01*
X92887851Y-81445224D01*
X92816533Y-81360231D01*
X93571210Y-81360231D01*
X93571210Y-81360230D01*
X93539206Y-81254726D01*
X93538583Y-81184859D01*
X93575831Y-81125747D01*
X93639125Y-81096156D01*
X93657867Y-81094731D01*
X94724267Y-81094731D01*
X94791306Y-81114416D01*
X94837061Y-81167220D01*
X94847005Y-81236378D01*
X94842927Y-81254727D01*
X94807889Y-81370229D01*
X94807890Y-81370231D01*
X95562567Y-81370231D01*
X95491249Y-81455224D01*
X95452050Y-81562925D01*
X95452050Y-81677537D01*
X95491249Y-81785238D01*
X95562567Y-81870231D01*
X94807890Y-81870231D01*
X94848702Y-82004772D01*
X94941553Y-82178484D01*
X94944940Y-82183553D01*
X94943265Y-82184671D01*
X94966968Y-82240490D01*
X94955173Y-82309356D01*
X94944208Y-82326419D01*
X94944523Y-82326630D01*
X94941136Y-82331698D01*
X94848238Y-82505497D01*
X94791025Y-82694101D01*
X94771709Y-82890231D01*
X94791025Y-83086360D01*
X94791026Y-83086363D01*
X94845204Y-83264964D01*
X94848238Y-83274964D01*
X94941136Y-83448763D01*
X94944523Y-83453832D01*
X94943005Y-83454846D01*
X94966968Y-83511273D01*
X94955174Y-83580140D01*
X94944565Y-83596651D01*
X94944943Y-83596904D01*
X94941555Y-83601973D01*
X94848702Y-83775689D01*
X94807889Y-83910230D01*
X94807890Y-83910231D01*
X95562567Y-83910231D01*
X95491249Y-83995224D01*
X95452050Y-84102925D01*
X95452050Y-84217537D01*
X95491249Y-84325238D01*
X95564921Y-84413036D01*
X95664179Y-84470343D01*
X95748614Y-84485231D01*
X95805486Y-84485231D01*
X95889921Y-84470343D01*
X95989179Y-84413036D01*
X96027050Y-84367903D01*
X96027050Y-85222558D01*
X95989179Y-85177426D01*
X95889921Y-85120119D01*
X95805486Y-85105231D01*
X95748614Y-85105231D01*
X95664179Y-85120119D01*
X95564921Y-85177426D01*
X95491249Y-85265224D01*
X95452050Y-85372925D01*
X95452050Y-85487537D01*
X95491249Y-85595238D01*
X95562567Y-85680231D01*
X94807890Y-85680231D01*
X94848701Y-85814768D01*
X94849701Y-85816638D01*
X94849928Y-85817732D01*
X94851031Y-85820393D01*
X94850526Y-85820601D01*
X94863946Y-85885040D01*
X94839614Y-85949403D01*
X94833255Y-85957897D01*
X94833252Y-85957902D01*
X94782958Y-86092748D01*
X94776551Y-86152347D01*
X94776550Y-86152366D01*
X94776550Y-87248101D01*
X94776551Y-87248107D01*
X94782958Y-87307714D01*
X94833252Y-87442559D01*
X94833256Y-87442566D01*
X94919502Y-87557775D01*
X94919505Y-87557778D01*
X95034714Y-87644024D01*
X95034721Y-87644028D01*
X95169567Y-87694322D01*
X95169566Y-87694322D01*
X95176494Y-87695066D01*
X95229177Y-87700731D01*
X96324922Y-87700730D01*
X96384533Y-87694322D01*
X96519381Y-87644027D01*
X96634596Y-87557777D01*
X96720846Y-87442562D01*
X96771141Y-87307714D01*
X96777550Y-87248104D01*
X96777549Y-87174342D01*
X96797233Y-87107306D01*
X96850036Y-87061550D01*
X96919194Y-87051606D01*
X96982751Y-87080630D01*
X97005149Y-87106205D01*
X97045648Y-87167780D01*
X97086181Y-87233493D01*
X97090661Y-87239159D01*
X97090619Y-87239192D01*
X97095451Y-87245123D01*
X97095493Y-87245089D01*
X97100131Y-87250617D01*
X97100135Y-87250622D01*
X97121019Y-87270325D01*
X97156297Y-87303609D01*
X98301178Y-88448489D01*
X98312959Y-88462121D01*
X98327405Y-88481525D01*
X98367659Y-88515302D01*
X98371631Y-88518942D01*
X98377503Y-88524814D01*
X98397120Y-88540325D01*
X98403359Y-88545258D01*
X98462516Y-88594898D01*
X98468553Y-88598868D01*
X98468523Y-88598913D01*
X98474982Y-88603027D01*
X98475011Y-88602981D01*
X98481150Y-88606768D01*
X98481153Y-88606770D01*
X98551135Y-88639403D01*
X98608752Y-88668339D01*
X98659825Y-88716016D01*
X98677015Y-88783738D01*
X98662462Y-88837595D01*
X98658238Y-88845497D01*
X98601025Y-89034101D01*
X98581709Y-89230231D01*
X98601025Y-89426360D01*
X98658238Y-89614964D01*
X98751136Y-89788763D01*
X98751140Y-89788770D01*
X98876166Y-89941114D01*
X99028510Y-90066140D01*
X99028517Y-90066144D01*
X99202316Y-90159042D01*
X99202319Y-90159042D01*
X99202323Y-90159045D01*
X99390918Y-90216255D01*
X99587050Y-90235572D01*
X99783182Y-90216255D01*
X99971777Y-90159045D01*
X100145588Y-90066141D01*
X100297933Y-89941114D01*
X100422960Y-89788769D01*
X100515864Y-89614958D01*
X100573074Y-89426363D01*
X100592391Y-89230231D01*
X100573074Y-89034099D01*
X100515864Y-88845504D01*
X100422960Y-88671693D01*
X100422957Y-88671689D01*
X100419573Y-88666624D01*
X100421214Y-88665527D01*
X100397455Y-88609592D01*
X100409244Y-88540724D01*
X100419938Y-88524082D01*
X100419573Y-88523838D01*
X100422954Y-88518775D01*
X100422960Y-88518769D01*
X100515864Y-88344958D01*
X100573074Y-88156363D01*
X100592391Y-87960231D01*
X100573074Y-87764099D01*
X100515864Y-87575504D01*
X100422960Y-87401693D01*
X100422956Y-87401688D01*
X100419576Y-87396630D01*
X100421094Y-87395615D01*
X100397131Y-87339193D01*
X100408922Y-87270325D01*
X100419542Y-87253805D01*
X100419161Y-87253551D01*
X100422547Y-87248483D01*
X100515397Y-87074772D01*
X100556210Y-86940231D01*
X99801533Y-86940231D01*
X99872851Y-86855238D01*
X99912050Y-86747537D01*
X99912050Y-86632925D01*
X99872851Y-86525224D01*
X99801533Y-86440231D01*
X100556210Y-86440231D01*
X100556210Y-86440230D01*
X100515397Y-86305689D01*
X100422546Y-86131977D01*
X100419160Y-86126909D01*
X100420834Y-86125790D01*
X100397131Y-86069977D01*
X100408924Y-86001110D01*
X100419889Y-85984049D01*
X100419573Y-85983838D01*
X100422954Y-85978775D01*
X100422960Y-85978769D01*
X100515864Y-85804958D01*
X100573074Y-85616363D01*
X100592391Y-85420231D01*
X100573074Y-85224099D01*
X100515864Y-85035504D01*
X100510102Y-85024725D01*
X100488387Y-84984099D01*
X100422960Y-84861693D01*
X100422957Y-84861689D01*
X100419573Y-84856624D01*
X100421214Y-84855527D01*
X100397455Y-84799592D01*
X100409244Y-84730724D01*
X100419938Y-84714082D01*
X100419573Y-84713838D01*
X100422954Y-84708775D01*
X100422960Y-84708769D01*
X100515864Y-84534958D01*
X100573074Y-84346363D01*
X100592391Y-84150231D01*
X100573074Y-83954099D01*
X100515864Y-83765504D01*
X100422960Y-83591693D01*
X100422957Y-83591689D01*
X100419573Y-83586624D01*
X100421214Y-83585527D01*
X100397455Y-83529592D01*
X100409244Y-83460724D01*
X100419938Y-83444082D01*
X100419573Y-83443838D01*
X100422954Y-83438775D01*
X100422960Y-83438769D01*
X100515864Y-83264958D01*
X100573074Y-83076363D01*
X100592391Y-82880231D01*
X100573074Y-82684099D01*
X100515864Y-82495504D01*
X100514600Y-82493140D01*
X100489479Y-82446141D01*
X100422960Y-82321693D01*
X100422957Y-82321689D01*
X100419573Y-82316624D01*
X100421214Y-82315527D01*
X100397455Y-82259592D01*
X100409244Y-82190724D01*
X100419938Y-82174082D01*
X100419573Y-82173838D01*
X100422954Y-82168775D01*
X100422960Y-82168769D01*
X100515864Y-81994958D01*
X100573074Y-81806363D01*
X100592391Y-81610231D01*
X100573074Y-81414099D01*
X100515864Y-81225504D01*
X100422960Y-81051693D01*
X100422957Y-81051689D01*
X100419573Y-81046624D01*
X100421214Y-81045527D01*
X100397455Y-80989592D01*
X100409244Y-80920724D01*
X100419938Y-80904082D01*
X100419573Y-80903838D01*
X100422954Y-80898775D01*
X100422960Y-80898769D01*
X100515864Y-80724958D01*
X100573074Y-80536363D01*
X100592391Y-80340231D01*
X100573074Y-80144099D01*
X100515864Y-79955504D01*
X100422960Y-79781693D01*
X100422957Y-79781689D01*
X100419573Y-79776624D01*
X100421214Y-79775527D01*
X100397455Y-79719592D01*
X100409244Y-79650724D01*
X100419938Y-79634082D01*
X100419573Y-79633838D01*
X100422954Y-79628775D01*
X100422960Y-79628769D01*
X100515864Y-79454958D01*
X100573074Y-79266363D01*
X100592391Y-79070231D01*
X100573074Y-78874099D01*
X100515864Y-78685504D01*
X100514727Y-78683377D01*
X100514468Y-78682135D01*
X100513533Y-78679876D01*
X100513961Y-78679698D01*
X100500485Y-78614977D01*
X100524821Y-78550610D01*
X100530846Y-78542562D01*
X100581141Y-78407714D01*
X100587550Y-78348104D01*
X100587549Y-77252359D01*
X100581141Y-77192748D01*
X100579587Y-77188582D01*
X100530847Y-77057902D01*
X100530843Y-77057895D01*
X100444597Y-76942686D01*
X100444594Y-76942683D01*
X100351506Y-76872997D01*
X100309635Y-76817063D01*
X100304651Y-76747372D01*
X100338137Y-76686049D01*
X100399460Y-76652565D01*
X100425817Y-76649731D01*
X102558283Y-76649731D01*
X102625322Y-76669416D01*
G37*
%TD.AperFunction*%
%TA.AperFunction,Conductor*%
G36*
X110630952Y-97380580D02*
G01*
X110796684Y-97175920D01*
X110854171Y-97136209D01*
X110924002Y-97133881D01*
X110984006Y-97169676D01*
X111015132Y-97232230D01*
X111017050Y-97253956D01*
X111017050Y-97996231D01*
X110997365Y-98063270D01*
X110944561Y-98109025D01*
X110893050Y-98120231D01*
X110150775Y-98120231D01*
X110083736Y-98100546D01*
X110037981Y-98047742D01*
X110028037Y-97978584D01*
X110057062Y-97915028D01*
X110072739Y-97899865D01*
X110277399Y-97734133D01*
X108786230Y-96242964D01*
X108976920Y-96080101D01*
X109139783Y-95889411D01*
X110630952Y-97380580D01*
G37*
%TD.AperFunction*%
%TA.AperFunction,Conductor*%
G36*
X98321506Y-80867543D02*
G01*
X98361270Y-80889941D01*
X98367647Y-80895292D01*
X98371642Y-80898953D01*
X98377503Y-80904814D01*
X98397625Y-80920724D01*
X98403359Y-80925258D01*
X98462516Y-80974898D01*
X98468553Y-80978868D01*
X98468523Y-80978913D01*
X98474982Y-80983027D01*
X98475011Y-80982981D01*
X98481150Y-80986768D01*
X98481153Y-80986770D01*
X98551135Y-81019403D01*
X98608752Y-81048339D01*
X98659825Y-81096016D01*
X98677015Y-81163738D01*
X98662462Y-81217595D01*
X98658238Y-81225497D01*
X98601025Y-81414101D01*
X98581709Y-81610231D01*
X98601025Y-81806360D01*
X98601026Y-81806363D01*
X98652279Y-81975322D01*
X98658238Y-81994964D01*
X98751136Y-82168763D01*
X98754523Y-82173832D01*
X98752886Y-82174925D01*
X98776646Y-82230894D01*
X98764845Y-82299760D01*
X98754159Y-82316387D01*
X98754523Y-82316630D01*
X98751136Y-82321698D01*
X98658236Y-82495502D01*
X98625968Y-82601873D01*
X98587670Y-82660312D01*
X98523858Y-82688768D01*
X98454791Y-82678207D01*
X98402398Y-82631982D01*
X98391169Y-82606286D01*
X98390682Y-82606480D01*
X98388015Y-82599767D01*
X98376538Y-82578483D01*
X98369164Y-82562052D01*
X98360886Y-82539307D01*
X98332009Y-82495402D01*
X98329236Y-82490756D01*
X98304307Y-82444522D01*
X98288230Y-82426457D01*
X98277258Y-82412158D01*
X98273154Y-82405918D01*
X98263965Y-82391946D01*
X98263964Y-82391945D01*
X98225743Y-82355884D01*
X98221975Y-82352004D01*
X98187053Y-82312764D01*
X98169024Y-82300140D01*
X98167236Y-82298888D01*
X98153269Y-82287510D01*
X98143372Y-82278173D01*
X98135673Y-82270909D01*
X98115380Y-82259193D01*
X98090162Y-82244633D01*
X98085599Y-82241726D01*
X98042575Y-82211600D01*
X98042573Y-82211599D01*
X98020093Y-82202668D01*
X98003878Y-82194817D01*
X97982930Y-82182722D01*
X97932590Y-82167650D01*
X97927481Y-82165874D01*
X97878657Y-82146478D01*
X97863422Y-82144247D01*
X97854715Y-82142971D01*
X97837131Y-82139073D01*
X97813959Y-82132136D01*
X97761513Y-82129080D01*
X97756134Y-82128530D01*
X97710725Y-82121880D01*
X97704143Y-82120916D01*
X97704142Y-82120916D01*
X97680039Y-82123024D01*
X97662031Y-82123286D01*
X97637881Y-82121880D01*
X97586148Y-82131001D01*
X97580785Y-82131707D01*
X97544614Y-82134872D01*
X97537500Y-82135495D01*
X97532096Y-82135731D01*
X96832867Y-82135731D01*
X96765828Y-82116046D01*
X96720073Y-82063242D01*
X96710129Y-81994084D01*
X96714206Y-81975736D01*
X96746210Y-81870231D01*
X95991533Y-81870231D01*
X96062851Y-81785238D01*
X96102050Y-81677537D01*
X96102050Y-81562925D01*
X96062851Y-81455224D01*
X95991533Y-81370231D01*
X96746210Y-81370231D01*
X96746210Y-81370229D01*
X96711173Y-81254727D01*
X96710549Y-81184860D01*
X96747797Y-81125747D01*
X96811091Y-81096156D01*
X96829833Y-81094731D01*
X96929719Y-81094731D01*
X96996758Y-81114416D01*
X97002606Y-81118414D01*
X97010819Y-81124381D01*
X97010820Y-81124382D01*
X97183742Y-81201373D01*
X97183747Y-81201375D01*
X97368904Y-81240731D01*
X97368905Y-81240731D01*
X97558194Y-81240731D01*
X97558196Y-81240731D01*
X97743353Y-81201375D01*
X97916280Y-81124382D01*
X98069421Y-81013119D01*
X98113064Y-80964647D01*
X98137065Y-80944026D01*
X98170335Y-80922146D01*
X98191377Y-80899842D01*
X98251698Y-80864588D01*
X98321506Y-80867543D01*
G37*
%TD.AperFunction*%
%TA.AperFunction,Conductor*%
G36*
X105600363Y-68929916D02*
G01*
X105646118Y-68982720D01*
X105656062Y-69051878D01*
X105627037Y-69115434D01*
X105611359Y-69130597D01*
X105406698Y-69296326D01*
X105406698Y-69296327D01*
X106897869Y-70787497D01*
X106707180Y-70950361D01*
X106544316Y-71141049D01*
X105053146Y-69649879D01*
X105053145Y-69649879D01*
X104844581Y-69907437D01*
X104633360Y-70232687D01*
X104457294Y-70578236D01*
X104318312Y-70940294D01*
X104217937Y-71314900D01*
X104217936Y-71314907D01*
X104157269Y-71697943D01*
X104136972Y-72085230D01*
X104136972Y-72085231D01*
X104157269Y-72472518D01*
X104217936Y-72855554D01*
X104217937Y-72855561D01*
X104318312Y-73230167D01*
X104457294Y-73592225D01*
X104633360Y-73937774D01*
X104844581Y-74263024D01*
X105053145Y-74520581D01*
X105053146Y-74520581D01*
X106544316Y-73029411D01*
X106707180Y-73220101D01*
X106897869Y-73382964D01*
X105406698Y-74874134D01*
X105463789Y-74920365D01*
X105503500Y-74977852D01*
X105505828Y-75047683D01*
X105470033Y-75107687D01*
X105407479Y-75138813D01*
X105385753Y-75140731D01*
X97580881Y-75140731D01*
X97513842Y-75121046D01*
X97507994Y-75117048D01*
X97499780Y-75111080D01*
X97499779Y-75111079D01*
X97326857Y-75034088D01*
X97326852Y-75034086D01*
X97181051Y-75003096D01*
X97141696Y-74994731D01*
X96952404Y-74994731D01*
X96919947Y-75001629D01*
X96767247Y-75034086D01*
X96767242Y-75034088D01*
X96594320Y-75111079D01*
X96594315Y-75111082D01*
X96441179Y-75222342D01*
X96314516Y-75363016D01*
X96219871Y-75526946D01*
X96219868Y-75526953D01*
X96161377Y-75706971D01*
X96161376Y-75706975D01*
X96141590Y-75895231D01*
X96161376Y-76083487D01*
X96161377Y-76083490D01*
X96219868Y-76263508D01*
X96219871Y-76263515D01*
X96314517Y-76427447D01*
X96441179Y-76568119D01*
X96594315Y-76679379D01*
X96594320Y-76679382D01*
X96767242Y-76756373D01*
X96767247Y-76756375D01*
X96952404Y-76795731D01*
X96952405Y-76795731D01*
X97141694Y-76795731D01*
X97141696Y-76795731D01*
X97326853Y-76756375D01*
X97499780Y-76679382D01*
X97507994Y-76673413D01*
X97573800Y-76649933D01*
X97580881Y-76649731D01*
X98748283Y-76649731D01*
X98815322Y-76669416D01*
X98861077Y-76722220D01*
X98871021Y-76791378D01*
X98841996Y-76854934D01*
X98822594Y-76872997D01*
X98729505Y-76942683D01*
X98689560Y-76996043D01*
X98633626Y-77037913D01*
X98590294Y-77045731D01*
X85005797Y-77045731D01*
X85002195Y-77045626D01*
X84967573Y-77043609D01*
X84937883Y-77041880D01*
X84937882Y-77041880D01*
X84937881Y-77041880D01*
X84907532Y-77047231D01*
X84874426Y-77053068D01*
X84870859Y-77053590D01*
X84806869Y-77061070D01*
X84796214Y-77064948D01*
X84775345Y-77070539D01*
X84764186Y-77072507D01*
X84764177Y-77072509D01*
X84705036Y-77098020D01*
X84701686Y-77099351D01*
X84641128Y-77121394D01*
X84641124Y-77121395D01*
X84631647Y-77127628D01*
X84612646Y-77137873D01*
X84602236Y-77142364D01*
X84602230Y-77142368D01*
X84550557Y-77180836D01*
X84547604Y-77182904D01*
X84539191Y-77188437D01*
X84472364Y-77208831D01*
X84405120Y-77189858D01*
X84358808Y-77137542D01*
X84347050Y-77084838D01*
X84347050Y-74393956D01*
X84366735Y-74326917D01*
X84419539Y-74281162D01*
X84488697Y-74271218D01*
X84552253Y-74300243D01*
X84567416Y-74315921D01*
X84733145Y-74520581D01*
X84733146Y-74520581D01*
X86224316Y-73029411D01*
X86387180Y-73220101D01*
X86577869Y-73382964D01*
X85086698Y-74874134D01*
X85086699Y-74874135D01*
X85344256Y-75082699D01*
X85669506Y-75293920D01*
X86015055Y-75469986D01*
X86377113Y-75608968D01*
X86751719Y-75709343D01*
X86751726Y-75709344D01*
X87134762Y-75770011D01*
X87522049Y-75790309D01*
X87522051Y-75790309D01*
X87909337Y-75770011D01*
X88292373Y-75709344D01*
X88292380Y-75709343D01*
X88666986Y-75608968D01*
X89029044Y-75469986D01*
X89374593Y-75293920D01*
X89699833Y-75082707D01*
X89699835Y-75082706D01*
X89957399Y-74874133D01*
X88466230Y-73382964D01*
X88656920Y-73220101D01*
X88819783Y-73029411D01*
X90310952Y-74520580D01*
X90519525Y-74263016D01*
X90519526Y-74263014D01*
X90730739Y-73937774D01*
X90906805Y-73592225D01*
X91045787Y-73230167D01*
X91146162Y-72855561D01*
X91146163Y-72855554D01*
X91206830Y-72472518D01*
X91227128Y-72085231D01*
X91227128Y-72085230D01*
X91206830Y-71697943D01*
X91146163Y-71314907D01*
X91146162Y-71314900D01*
X91045787Y-70940294D01*
X90906805Y-70578236D01*
X90730739Y-70232687D01*
X90519518Y-69907437D01*
X90310954Y-69649880D01*
X90310953Y-69649879D01*
X88819782Y-71141049D01*
X88656920Y-70950361D01*
X88466230Y-70787497D01*
X89957400Y-69296327D01*
X89957400Y-69296325D01*
X89752741Y-69130597D01*
X89713029Y-69073110D01*
X89710701Y-69003279D01*
X89746496Y-68943275D01*
X89809050Y-68912149D01*
X89830776Y-68910231D01*
X105533324Y-68910231D01*
X105600363Y-68929916D01*
G37*
%TD.AperFunction*%
%TA.AperFunction,Conductor*%
G36*
X110630952Y-74520580D02*
G01*
X110796684Y-74315920D01*
X110854171Y-74276209D01*
X110924002Y-74273881D01*
X110984006Y-74309676D01*
X111015132Y-74372230D01*
X111017050Y-74393956D01*
X111017050Y-77065844D01*
X110997365Y-77132883D01*
X110944561Y-77178638D01*
X110875403Y-77188582D01*
X110811847Y-77159557D01*
X110805369Y-77153525D01*
X109319206Y-75667363D01*
X109285721Y-75606040D01*
X109290705Y-75536348D01*
X109332577Y-75480415D01*
X109350593Y-75469197D01*
X109694588Y-75293923D01*
X109694591Y-75293922D01*
X110019833Y-75082707D01*
X110019835Y-75082706D01*
X110277399Y-74874133D01*
X108786230Y-73382964D01*
X108976920Y-73220101D01*
X109139783Y-73029411D01*
X110630952Y-74520580D01*
G37*
%TD.AperFunction*%
%TA.AperFunction,Conductor*%
G36*
X85280363Y-68929916D02*
G01*
X85326118Y-68982720D01*
X85336062Y-69051878D01*
X85307037Y-69115434D01*
X85291359Y-69130597D01*
X85086698Y-69296326D01*
X85086698Y-69296327D01*
X86577869Y-70787497D01*
X86387180Y-70950361D01*
X86224316Y-71141049D01*
X84733146Y-69649879D01*
X84733145Y-69649879D01*
X84567416Y-69854540D01*
X84509930Y-69894252D01*
X84440099Y-69896580D01*
X84380095Y-69860785D01*
X84348968Y-69798232D01*
X84347050Y-69776505D01*
X84347050Y-69034231D01*
X84366735Y-68967192D01*
X84419539Y-68921437D01*
X84471050Y-68910231D01*
X85213324Y-68910231D01*
X85280363Y-68929916D01*
G37*
%TD.AperFunction*%
%TA.AperFunction,Conductor*%
G36*
X110960089Y-68929916D02*
G01*
X111005844Y-68982720D01*
X111017050Y-69034231D01*
X111017050Y-69776505D01*
X110997365Y-69843544D01*
X110944561Y-69889299D01*
X110875403Y-69899243D01*
X110811847Y-69870218D01*
X110796684Y-69854540D01*
X110630954Y-69649880D01*
X110630953Y-69649879D01*
X109139782Y-71141049D01*
X108976920Y-70950361D01*
X108786230Y-70787497D01*
X110277400Y-69296327D01*
X110277400Y-69296325D01*
X110072741Y-69130597D01*
X110033029Y-69073110D01*
X110030701Y-69003279D01*
X110066496Y-68943275D01*
X110129050Y-68912149D01*
X110150776Y-68910231D01*
X110893050Y-68910231D01*
X110960089Y-68929916D01*
G37*
%TD.AperFunction*%
%TD*%
M02*
