M48
; DRILL file {KiCad 7.0.9-7.0.9~ubuntu22.04.1} date Sun 17 Dec 2023 03:48:13 PM CST
; FORMAT={-:-/ absolute / inch / decimal}
; #@! TF.CreationDate,2023-12-17T15:48:13-06:00
; #@! TF.GenerationSoftware,Kicad,Pcbnew,7.0.9-7.0.9~ubuntu22.04.1
; #@! TF.FileFunction,Plated,1,2,PTH
FMAT,2
INCH
; #@! TA.AperFunction,Plated,PTH,ViaDrill
T1C0.0157
; #@! TA.AperFunction,Plated,PTH,ComponentDrill
T2C0.0256
; #@! TA.AperFunction,Plated,PTH,ComponentDrill
T3C0.1260
%
G90
G05
T1
X3.3958Y-3.313
X3.8207Y-2.988
X3.8371Y-3.163
T2
X3.4707Y-3.2134
X3.4707Y-3.2634
X3.4707Y-3.3134
X3.4707Y-3.3634
X3.4707Y-3.4134
X3.5957Y-3.213
X3.5957Y-3.263
X3.5957Y-3.313
X3.5957Y-3.363
X3.5957Y-3.413
X3.6458Y-3.213
X3.6458Y-3.263
X3.6458Y-3.313
X3.6458Y-3.363
X3.6458Y-3.413
X3.7708Y-3.2134
X3.7708Y-3.2634
X3.7708Y-3.3134
X3.7708Y-3.3634
X3.7708Y-3.4134
X3.9207Y-3.063
X3.9207Y-3.113
X3.9207Y-3.163
X3.9207Y-3.213
X3.9207Y-3.263
X3.9207Y-3.313
X3.9207Y-3.363
X3.9207Y-3.413
X3.9207Y-3.463
X3.9207Y-3.513
X4.0708Y-3.063
X4.0708Y-3.113
X4.0708Y-3.163
X4.0708Y-3.213
X4.0708Y-3.263
X4.0708Y-3.313
X4.0708Y-3.363
X4.0708Y-3.413
X4.0708Y-3.463
X4.0708Y-3.513
X4.1208Y-3.063
X4.1208Y-3.113
X4.1208Y-3.163
X4.1208Y-3.213
X4.1208Y-3.263
X4.1208Y-3.313
X4.1208Y-3.363
X4.1208Y-3.413
X4.1208Y-3.463
X4.1208Y-3.513
X4.2707Y-3.063
X4.2707Y-3.113
X4.2707Y-3.163
X4.2707Y-3.213
X4.2707Y-3.263
X4.2707Y-3.313
X4.2707Y-3.363
X4.2707Y-3.413
X4.2707Y-3.463
X4.2707Y-3.513
T3
X3.4457Y-2.838
X3.4457Y-3.738
X4.2458Y-2.838
X4.2458Y-3.738
T0
M30
