%TF.GenerationSoftware,KiCad,Pcbnew,7.0.9-7.0.9~ubuntu22.04.1*%
%TF.CreationDate,2023-12-17T15:48:06-06:00*%
%TF.ProjectId,PacSat_JTAG_Interface,50616353-6174-45f4-9a54-41475f496e74,rev?*%
%TF.SameCoordinates,Original*%
%TF.FileFunction,Legend,Top*%
%TF.FilePolarity,Positive*%
%FSLAX46Y46*%
G04 Gerber Fmt 4.6, Leading zero omitted, Abs format (unit mm)*
G04 Created by KiCad (PCBNEW 7.0.9-7.0.9~ubuntu22.04.1) date 2023-12-17 15:48:06*
%MOMM*%
%LPD*%
G01*
G04 APERTURE LIST*
%ADD10C,0.150000*%
%ADD11C,0.120000*%
G04 APERTURE END LIST*
D10*
X105769447Y-90275831D02*
X105817066Y-90228212D01*
X105817066Y-90228212D02*
X105912304Y-90180593D01*
X105912304Y-90180593D02*
X106150399Y-90180593D01*
X106150399Y-90180593D02*
X106245637Y-90228212D01*
X106245637Y-90228212D02*
X106293256Y-90275831D01*
X106293256Y-90275831D02*
X106340875Y-90371069D01*
X106340875Y-90371069D02*
X106340875Y-90466307D01*
X106340875Y-90466307D02*
X106293256Y-90609164D01*
X106293256Y-90609164D02*
X105721828Y-91180593D01*
X105721828Y-91180593D02*
X106340875Y-91180593D01*
X106959923Y-90180593D02*
X107055161Y-90180593D01*
X107055161Y-90180593D02*
X107150399Y-90228212D01*
X107150399Y-90228212D02*
X107198018Y-90275831D01*
X107198018Y-90275831D02*
X107245637Y-90371069D01*
X107245637Y-90371069D02*
X107293256Y-90561545D01*
X107293256Y-90561545D02*
X107293256Y-90799640D01*
X107293256Y-90799640D02*
X107245637Y-90990116D01*
X107245637Y-90990116D02*
X107198018Y-91085354D01*
X107198018Y-91085354D02*
X107150399Y-91132974D01*
X107150399Y-91132974D02*
X107055161Y-91180593D01*
X107055161Y-91180593D02*
X106959923Y-91180593D01*
X106959923Y-91180593D02*
X106864685Y-91132974D01*
X106864685Y-91132974D02*
X106817066Y-91085354D01*
X106817066Y-91085354D02*
X106769447Y-90990116D01*
X106769447Y-90990116D02*
X106721828Y-90799640D01*
X106721828Y-90799640D02*
X106721828Y-90561545D01*
X106721828Y-90561545D02*
X106769447Y-90371069D01*
X106769447Y-90371069D02*
X106817066Y-90275831D01*
X106817066Y-90275831D02*
X106864685Y-90228212D01*
X106864685Y-90228212D02*
X106959923Y-90180593D01*
X101665548Y-91244841D02*
X101094120Y-91244841D01*
X101379834Y-91244841D02*
X101379834Y-90244841D01*
X101379834Y-90244841D02*
X101284596Y-90387698D01*
X101284596Y-90387698D02*
X101189358Y-90482936D01*
X101189358Y-90482936D02*
X101094120Y-90530555D01*
X102141739Y-91244841D02*
X102332215Y-91244841D01*
X102332215Y-91244841D02*
X102427453Y-91197222D01*
X102427453Y-91197222D02*
X102475072Y-91149602D01*
X102475072Y-91149602D02*
X102570310Y-91006745D01*
X102570310Y-91006745D02*
X102617929Y-90816269D01*
X102617929Y-90816269D02*
X102617929Y-90435317D01*
X102617929Y-90435317D02*
X102570310Y-90340079D01*
X102570310Y-90340079D02*
X102522691Y-90292460D01*
X102522691Y-90292460D02*
X102427453Y-90244841D01*
X102427453Y-90244841D02*
X102236977Y-90244841D01*
X102236977Y-90244841D02*
X102141739Y-90292460D01*
X102141739Y-90292460D02*
X102094120Y-90340079D01*
X102094120Y-90340079D02*
X102046501Y-90435317D01*
X102046501Y-90435317D02*
X102046501Y-90673412D01*
X102046501Y-90673412D02*
X102094120Y-90768650D01*
X102094120Y-90768650D02*
X102141739Y-90816269D01*
X102141739Y-90816269D02*
X102236977Y-90863888D01*
X102236977Y-90863888D02*
X102427453Y-90863888D01*
X102427453Y-90863888D02*
X102522691Y-90816269D01*
X102522691Y-90816269D02*
X102570310Y-90768650D01*
X102570310Y-90768650D02*
X102617929Y-90673412D01*
X90351210Y-88195288D02*
X90398829Y-88147669D01*
X90398829Y-88147669D02*
X90494067Y-88100050D01*
X90494067Y-88100050D02*
X90732162Y-88100050D01*
X90732162Y-88100050D02*
X90827400Y-88147669D01*
X90827400Y-88147669D02*
X90875019Y-88195288D01*
X90875019Y-88195288D02*
X90922638Y-88290526D01*
X90922638Y-88290526D02*
X90922638Y-88385764D01*
X90922638Y-88385764D02*
X90875019Y-88528621D01*
X90875019Y-88528621D02*
X90303591Y-89100050D01*
X90303591Y-89100050D02*
X90922638Y-89100050D01*
X94097638Y-89100050D02*
X93526210Y-89100050D01*
X93811924Y-89100050D02*
X93811924Y-88100050D01*
X93811924Y-88100050D02*
X93716686Y-88242907D01*
X93716686Y-88242907D02*
X93621448Y-88338145D01*
X93621448Y-88338145D02*
X93526210Y-88385764D01*
X106226210Y-76765288D02*
X106273829Y-76717669D01*
X106273829Y-76717669D02*
X106369067Y-76670050D01*
X106369067Y-76670050D02*
X106607162Y-76670050D01*
X106607162Y-76670050D02*
X106702400Y-76717669D01*
X106702400Y-76717669D02*
X106750019Y-76765288D01*
X106750019Y-76765288D02*
X106797638Y-76860526D01*
X106797638Y-76860526D02*
X106797638Y-76955764D01*
X106797638Y-76955764D02*
X106750019Y-77098621D01*
X106750019Y-77098621D02*
X106178591Y-77670050D01*
X106178591Y-77670050D02*
X106797638Y-77670050D01*
X101943500Y-77670049D02*
X101372072Y-77670049D01*
X101657786Y-77670049D02*
X101657786Y-76670049D01*
X101657786Y-76670049D02*
X101562548Y-76812906D01*
X101562548Y-76812906D02*
X101467310Y-76908144D01*
X101467310Y-76908144D02*
X101372072Y-76955763D01*
X91621210Y-93214335D02*
X92097400Y-93214335D01*
X91525972Y-93500050D02*
X91859305Y-92500050D01*
X91859305Y-92500050D02*
X92192638Y-93500050D01*
X92525972Y-93500050D02*
X92525972Y-92500050D01*
X92525972Y-92500050D02*
X92859305Y-93214335D01*
X92859305Y-93214335D02*
X93192638Y-92500050D01*
X93192638Y-92500050D02*
X93192638Y-93500050D01*
X93621210Y-93452431D02*
X93764067Y-93500050D01*
X93764067Y-93500050D02*
X94002162Y-93500050D01*
X94002162Y-93500050D02*
X94097400Y-93452431D01*
X94097400Y-93452431D02*
X94145019Y-93404811D01*
X94145019Y-93404811D02*
X94192638Y-93309573D01*
X94192638Y-93309573D02*
X94192638Y-93214335D01*
X94192638Y-93214335D02*
X94145019Y-93119097D01*
X94145019Y-93119097D02*
X94097400Y-93071478D01*
X94097400Y-93071478D02*
X94002162Y-93023859D01*
X94002162Y-93023859D02*
X93811686Y-92976240D01*
X93811686Y-92976240D02*
X93716448Y-92928621D01*
X93716448Y-92928621D02*
X93668829Y-92881002D01*
X93668829Y-92881002D02*
X93621210Y-92785764D01*
X93621210Y-92785764D02*
X93621210Y-92690526D01*
X93621210Y-92690526D02*
X93668829Y-92595288D01*
X93668829Y-92595288D02*
X93716448Y-92547669D01*
X93716448Y-92547669D02*
X93811686Y-92500050D01*
X93811686Y-92500050D02*
X94049781Y-92500050D01*
X94049781Y-92500050D02*
X94192638Y-92547669D01*
X94573591Y-93214335D02*
X95049781Y-93214335D01*
X94478353Y-93500050D02*
X94811686Y-92500050D01*
X94811686Y-92500050D02*
X95145019Y-93500050D01*
X95335496Y-92500050D02*
X95906924Y-92500050D01*
X95621210Y-93500050D02*
X95621210Y-92500050D01*
X91668829Y-95110050D02*
X91668829Y-94110050D01*
X91668829Y-94110050D02*
X92049781Y-94110050D01*
X92049781Y-94110050D02*
X92145019Y-94157669D01*
X92145019Y-94157669D02*
X92192638Y-94205288D01*
X92192638Y-94205288D02*
X92240257Y-94300526D01*
X92240257Y-94300526D02*
X92240257Y-94443383D01*
X92240257Y-94443383D02*
X92192638Y-94538621D01*
X92192638Y-94538621D02*
X92145019Y-94586240D01*
X92145019Y-94586240D02*
X92049781Y-94633859D01*
X92049781Y-94633859D02*
X91668829Y-94633859D01*
X93097400Y-95110050D02*
X93097400Y-94586240D01*
X93097400Y-94586240D02*
X93049781Y-94491002D01*
X93049781Y-94491002D02*
X92954543Y-94443383D01*
X92954543Y-94443383D02*
X92764067Y-94443383D01*
X92764067Y-94443383D02*
X92668829Y-94491002D01*
X93097400Y-95062431D02*
X93002162Y-95110050D01*
X93002162Y-95110050D02*
X92764067Y-95110050D01*
X92764067Y-95110050D02*
X92668829Y-95062431D01*
X92668829Y-95062431D02*
X92621210Y-94967192D01*
X92621210Y-94967192D02*
X92621210Y-94871954D01*
X92621210Y-94871954D02*
X92668829Y-94776716D01*
X92668829Y-94776716D02*
X92764067Y-94729097D01*
X92764067Y-94729097D02*
X93002162Y-94729097D01*
X93002162Y-94729097D02*
X93097400Y-94681478D01*
X94002162Y-95062431D02*
X93906924Y-95110050D01*
X93906924Y-95110050D02*
X93716448Y-95110050D01*
X93716448Y-95110050D02*
X93621210Y-95062431D01*
X93621210Y-95062431D02*
X93573591Y-95014811D01*
X93573591Y-95014811D02*
X93525972Y-94919573D01*
X93525972Y-94919573D02*
X93525972Y-94633859D01*
X93525972Y-94633859D02*
X93573591Y-94538621D01*
X93573591Y-94538621D02*
X93621210Y-94491002D01*
X93621210Y-94491002D02*
X93716448Y-94443383D01*
X93716448Y-94443383D02*
X93906924Y-94443383D01*
X93906924Y-94443383D02*
X94002162Y-94491002D01*
X94383115Y-95062431D02*
X94525972Y-95110050D01*
X94525972Y-95110050D02*
X94764067Y-95110050D01*
X94764067Y-95110050D02*
X94859305Y-95062431D01*
X94859305Y-95062431D02*
X94906924Y-95014811D01*
X94906924Y-95014811D02*
X94954543Y-94919573D01*
X94954543Y-94919573D02*
X94954543Y-94824335D01*
X94954543Y-94824335D02*
X94906924Y-94729097D01*
X94906924Y-94729097D02*
X94859305Y-94681478D01*
X94859305Y-94681478D02*
X94764067Y-94633859D01*
X94764067Y-94633859D02*
X94573591Y-94586240D01*
X94573591Y-94586240D02*
X94478353Y-94538621D01*
X94478353Y-94538621D02*
X94430734Y-94491002D01*
X94430734Y-94491002D02*
X94383115Y-94395764D01*
X94383115Y-94395764D02*
X94383115Y-94300526D01*
X94383115Y-94300526D02*
X94430734Y-94205288D01*
X94430734Y-94205288D02*
X94478353Y-94157669D01*
X94478353Y-94157669D02*
X94573591Y-94110050D01*
X94573591Y-94110050D02*
X94811686Y-94110050D01*
X94811686Y-94110050D02*
X94954543Y-94157669D01*
X95811686Y-95110050D02*
X95811686Y-94586240D01*
X95811686Y-94586240D02*
X95764067Y-94491002D01*
X95764067Y-94491002D02*
X95668829Y-94443383D01*
X95668829Y-94443383D02*
X95478353Y-94443383D01*
X95478353Y-94443383D02*
X95383115Y-94491002D01*
X95811686Y-95062431D02*
X95716448Y-95110050D01*
X95716448Y-95110050D02*
X95478353Y-95110050D01*
X95478353Y-95110050D02*
X95383115Y-95062431D01*
X95383115Y-95062431D02*
X95335496Y-94967192D01*
X95335496Y-94967192D02*
X95335496Y-94871954D01*
X95335496Y-94871954D02*
X95383115Y-94776716D01*
X95383115Y-94776716D02*
X95478353Y-94729097D01*
X95478353Y-94729097D02*
X95716448Y-94729097D01*
X95716448Y-94729097D02*
X95811686Y-94681478D01*
X96145020Y-94443383D02*
X96525972Y-94443383D01*
X96287877Y-94110050D02*
X96287877Y-94967192D01*
X96287877Y-94967192D02*
X96335496Y-95062431D01*
X96335496Y-95062431D02*
X96430734Y-95110050D01*
X96430734Y-95110050D02*
X96525972Y-95110050D01*
X91954543Y-95720050D02*
X91954543Y-96434335D01*
X91954543Y-96434335D02*
X91906924Y-96577192D01*
X91906924Y-96577192D02*
X91811686Y-96672431D01*
X91811686Y-96672431D02*
X91668829Y-96720050D01*
X91668829Y-96720050D02*
X91573591Y-96720050D01*
X92287877Y-95720050D02*
X92859305Y-95720050D01*
X92573591Y-96720050D02*
X92573591Y-95720050D01*
X93145020Y-96434335D02*
X93621210Y-96434335D01*
X93049782Y-96720050D02*
X93383115Y-95720050D01*
X93383115Y-95720050D02*
X93716448Y-96720050D01*
X94573591Y-95767669D02*
X94478353Y-95720050D01*
X94478353Y-95720050D02*
X94335496Y-95720050D01*
X94335496Y-95720050D02*
X94192639Y-95767669D01*
X94192639Y-95767669D02*
X94097401Y-95862907D01*
X94097401Y-95862907D02*
X94049782Y-95958145D01*
X94049782Y-95958145D02*
X94002163Y-96148621D01*
X94002163Y-96148621D02*
X94002163Y-96291478D01*
X94002163Y-96291478D02*
X94049782Y-96481954D01*
X94049782Y-96481954D02*
X94097401Y-96577192D01*
X94097401Y-96577192D02*
X94192639Y-96672431D01*
X94192639Y-96672431D02*
X94335496Y-96720050D01*
X94335496Y-96720050D02*
X94430734Y-96720050D01*
X94430734Y-96720050D02*
X94573591Y-96672431D01*
X94573591Y-96672431D02*
X94621210Y-96624811D01*
X94621210Y-96624811D02*
X94621210Y-96291478D01*
X94621210Y-96291478D02*
X94430734Y-96291478D01*
X95811687Y-96339097D02*
X96573592Y-96339097D01*
X97811687Y-96720050D02*
X97811687Y-95720050D01*
X97811687Y-95720050D02*
X98049782Y-95720050D01*
X98049782Y-95720050D02*
X98192639Y-95767669D01*
X98192639Y-95767669D02*
X98287877Y-95862907D01*
X98287877Y-95862907D02*
X98335496Y-95958145D01*
X98335496Y-95958145D02*
X98383115Y-96148621D01*
X98383115Y-96148621D02*
X98383115Y-96291478D01*
X98383115Y-96291478D02*
X98335496Y-96481954D01*
X98335496Y-96481954D02*
X98287877Y-96577192D01*
X98287877Y-96577192D02*
X98192639Y-96672431D01*
X98192639Y-96672431D02*
X98049782Y-96720050D01*
X98049782Y-96720050D02*
X97811687Y-96720050D01*
X98764068Y-96672431D02*
X98906925Y-96720050D01*
X98906925Y-96720050D02*
X99145020Y-96720050D01*
X99145020Y-96720050D02*
X99240258Y-96672431D01*
X99240258Y-96672431D02*
X99287877Y-96624811D01*
X99287877Y-96624811D02*
X99335496Y-96529573D01*
X99335496Y-96529573D02*
X99335496Y-96434335D01*
X99335496Y-96434335D02*
X99287877Y-96339097D01*
X99287877Y-96339097D02*
X99240258Y-96291478D01*
X99240258Y-96291478D02*
X99145020Y-96243859D01*
X99145020Y-96243859D02*
X98954544Y-96196240D01*
X98954544Y-96196240D02*
X98859306Y-96148621D01*
X98859306Y-96148621D02*
X98811687Y-96101002D01*
X98811687Y-96101002D02*
X98764068Y-96005764D01*
X98764068Y-96005764D02*
X98764068Y-95910526D01*
X98764068Y-95910526D02*
X98811687Y-95815288D01*
X98811687Y-95815288D02*
X98859306Y-95767669D01*
X98859306Y-95767669D02*
X98954544Y-95720050D01*
X98954544Y-95720050D02*
X99192639Y-95720050D01*
X99192639Y-95720050D02*
X99335496Y-95767669D01*
X100335496Y-96624811D02*
X100287877Y-96672431D01*
X100287877Y-96672431D02*
X100145020Y-96720050D01*
X100145020Y-96720050D02*
X100049782Y-96720050D01*
X100049782Y-96720050D02*
X99906925Y-96672431D01*
X99906925Y-96672431D02*
X99811687Y-96577192D01*
X99811687Y-96577192D02*
X99764068Y-96481954D01*
X99764068Y-96481954D02*
X99716449Y-96291478D01*
X99716449Y-96291478D02*
X99716449Y-96148621D01*
X99716449Y-96148621D02*
X99764068Y-95958145D01*
X99764068Y-95958145D02*
X99811687Y-95862907D01*
X99811687Y-95862907D02*
X99906925Y-95767669D01*
X99906925Y-95767669D02*
X100049782Y-95720050D01*
X100049782Y-95720050D02*
X100145020Y-95720050D01*
X100145020Y-95720050D02*
X100287877Y-95767669D01*
X100287877Y-95767669D02*
X100335496Y-95815288D01*
X101287877Y-96720050D02*
X100716449Y-96720050D01*
X101002163Y-96720050D02*
X101002163Y-95720050D01*
X101002163Y-95720050D02*
X100906925Y-95862907D01*
X100906925Y-95862907D02*
X100811687Y-95958145D01*
X100811687Y-95958145D02*
X100716449Y-96005764D01*
X101906925Y-95720050D02*
X102002163Y-95720050D01*
X102002163Y-95720050D02*
X102097401Y-95767669D01*
X102097401Y-95767669D02*
X102145020Y-95815288D01*
X102145020Y-95815288D02*
X102192639Y-95910526D01*
X102192639Y-95910526D02*
X102240258Y-96101002D01*
X102240258Y-96101002D02*
X102240258Y-96339097D01*
X102240258Y-96339097D02*
X102192639Y-96529573D01*
X102192639Y-96529573D02*
X102145020Y-96624811D01*
X102145020Y-96624811D02*
X102097401Y-96672431D01*
X102097401Y-96672431D02*
X102002163Y-96720050D01*
X102002163Y-96720050D02*
X101906925Y-96720050D01*
X101906925Y-96720050D02*
X101811687Y-96672431D01*
X101811687Y-96672431D02*
X101764068Y-96624811D01*
X101764068Y-96624811D02*
X101716449Y-96529573D01*
X101716449Y-96529573D02*
X101668830Y-96339097D01*
X101668830Y-96339097D02*
X101668830Y-96101002D01*
X101668830Y-96101002D02*
X101716449Y-95910526D01*
X101716449Y-95910526D02*
X101764068Y-95815288D01*
X101764068Y-95815288D02*
X101811687Y-95767669D01*
X101811687Y-95767669D02*
X101906925Y-95720050D01*
X102859306Y-95720050D02*
X102954544Y-95720050D01*
X102954544Y-95720050D02*
X103049782Y-95767669D01*
X103049782Y-95767669D02*
X103097401Y-95815288D01*
X103097401Y-95815288D02*
X103145020Y-95910526D01*
X103145020Y-95910526D02*
X103192639Y-96101002D01*
X103192639Y-96101002D02*
X103192639Y-96339097D01*
X103192639Y-96339097D02*
X103145020Y-96529573D01*
X103145020Y-96529573D02*
X103097401Y-96624811D01*
X103097401Y-96624811D02*
X103049782Y-96672431D01*
X103049782Y-96672431D02*
X102954544Y-96720050D01*
X102954544Y-96720050D02*
X102859306Y-96720050D01*
X102859306Y-96720050D02*
X102764068Y-96672431D01*
X102764068Y-96672431D02*
X102716449Y-96624811D01*
X102716449Y-96624811D02*
X102668830Y-96529573D01*
X102668830Y-96529573D02*
X102621211Y-96339097D01*
X102621211Y-96339097D02*
X102621211Y-96101002D01*
X102621211Y-96101002D02*
X102668830Y-95910526D01*
X102668830Y-95910526D02*
X102716449Y-95815288D01*
X102716449Y-95815288D02*
X102764068Y-95767669D01*
X102764068Y-95767669D02*
X102859306Y-95720050D01*
X94796210Y-70415288D02*
X94843829Y-70367669D01*
X94843829Y-70367669D02*
X94939067Y-70320050D01*
X94939067Y-70320050D02*
X95177162Y-70320050D01*
X95177162Y-70320050D02*
X95272400Y-70367669D01*
X95272400Y-70367669D02*
X95320019Y-70415288D01*
X95320019Y-70415288D02*
X95367638Y-70510526D01*
X95367638Y-70510526D02*
X95367638Y-70605764D01*
X95367638Y-70605764D02*
X95320019Y-70748621D01*
X95320019Y-70748621D02*
X94748591Y-71320050D01*
X94748591Y-71320050D02*
X95367638Y-71320050D01*
X95700972Y-70320050D02*
X96320019Y-70320050D01*
X96320019Y-70320050D02*
X95986686Y-70701002D01*
X95986686Y-70701002D02*
X96129543Y-70701002D01*
X96129543Y-70701002D02*
X96224781Y-70748621D01*
X96224781Y-70748621D02*
X96272400Y-70796240D01*
X96272400Y-70796240D02*
X96320019Y-70891478D01*
X96320019Y-70891478D02*
X96320019Y-71129573D01*
X96320019Y-71129573D02*
X96272400Y-71224811D01*
X96272400Y-71224811D02*
X96224781Y-71272431D01*
X96224781Y-71272431D02*
X96129543Y-71320050D01*
X96129543Y-71320050D02*
X95843829Y-71320050D01*
X95843829Y-71320050D02*
X95748591Y-71272431D01*
X95748591Y-71272431D02*
X95700972Y-71224811D01*
X97272400Y-71320050D02*
X96700972Y-71320050D01*
X96986686Y-71320050D02*
X96986686Y-70320050D01*
X96986686Y-70320050D02*
X96891448Y-70462907D01*
X96891448Y-70462907D02*
X96796210Y-70558145D01*
X96796210Y-70558145D02*
X96700972Y-70605764D01*
X97653353Y-70415288D02*
X97700972Y-70367669D01*
X97700972Y-70367669D02*
X97796210Y-70320050D01*
X97796210Y-70320050D02*
X98034305Y-70320050D01*
X98034305Y-70320050D02*
X98129543Y-70367669D01*
X98129543Y-70367669D02*
X98177162Y-70415288D01*
X98177162Y-70415288D02*
X98224781Y-70510526D01*
X98224781Y-70510526D02*
X98224781Y-70605764D01*
X98224781Y-70605764D02*
X98177162Y-70748621D01*
X98177162Y-70748621D02*
X97605734Y-71320050D01*
X97605734Y-71320050D02*
X98224781Y-71320050D01*
X99177162Y-71320050D02*
X98605734Y-71320050D01*
X98891448Y-71320050D02*
X98891448Y-70320050D01*
X98891448Y-70320050D02*
X98796210Y-70462907D01*
X98796210Y-70462907D02*
X98700972Y-70558145D01*
X98700972Y-70558145D02*
X98605734Y-70605764D01*
X100034305Y-70320050D02*
X99843829Y-70320050D01*
X99843829Y-70320050D02*
X99748591Y-70367669D01*
X99748591Y-70367669D02*
X99700972Y-70415288D01*
X99700972Y-70415288D02*
X99605734Y-70558145D01*
X99605734Y-70558145D02*
X99558115Y-70748621D01*
X99558115Y-70748621D02*
X99558115Y-71129573D01*
X99558115Y-71129573D02*
X99605734Y-71224811D01*
X99605734Y-71224811D02*
X99653353Y-71272431D01*
X99653353Y-71272431D02*
X99748591Y-71320050D01*
X99748591Y-71320050D02*
X99939067Y-71320050D01*
X99939067Y-71320050D02*
X100034305Y-71272431D01*
X100034305Y-71272431D02*
X100081924Y-71224811D01*
X100081924Y-71224811D02*
X100129543Y-71129573D01*
X100129543Y-71129573D02*
X100129543Y-70891478D01*
X100129543Y-70891478D02*
X100081924Y-70796240D01*
X100081924Y-70796240D02*
X100034305Y-70748621D01*
X100034305Y-70748621D02*
X99939067Y-70701002D01*
X99939067Y-70701002D02*
X99748591Y-70701002D01*
X99748591Y-70701002D02*
X99653353Y-70748621D01*
X99653353Y-70748621D02*
X99605734Y-70796240D01*
X99605734Y-70796240D02*
X99558115Y-70891478D01*
X91633716Y-79160050D02*
X91633716Y-79874335D01*
X91633716Y-79874335D02*
X91586097Y-80017192D01*
X91586097Y-80017192D02*
X91490859Y-80112431D01*
X91490859Y-80112431D02*
X91348002Y-80160050D01*
X91348002Y-80160050D02*
X91252764Y-80160050D01*
X92633716Y-80160050D02*
X92062288Y-80160050D01*
X92348002Y-80160050D02*
X92348002Y-79160050D01*
X92348002Y-79160050D02*
X92252764Y-79302907D01*
X92252764Y-79302907D02*
X92157526Y-79398145D01*
X92157526Y-79398145D02*
X92062288Y-79445764D01*
X103698716Y-75560050D02*
X103698716Y-76274335D01*
X103698716Y-76274335D02*
X103651097Y-76417192D01*
X103651097Y-76417192D02*
X103555859Y-76512431D01*
X103555859Y-76512431D02*
X103413002Y-76560050D01*
X103413002Y-76560050D02*
X103317764Y-76560050D01*
X104127288Y-75655288D02*
X104174907Y-75607669D01*
X104174907Y-75607669D02*
X104270145Y-75560050D01*
X104270145Y-75560050D02*
X104508240Y-75560050D01*
X104508240Y-75560050D02*
X104603478Y-75607669D01*
X104603478Y-75607669D02*
X104651097Y-75655288D01*
X104651097Y-75655288D02*
X104698716Y-75750526D01*
X104698716Y-75750526D02*
X104698716Y-75845764D01*
X104698716Y-75845764D02*
X104651097Y-75988621D01*
X104651097Y-75988621D02*
X104079669Y-76560050D01*
X104079669Y-76560050D02*
X104698716Y-76560050D01*
D11*
%TO.C,J1*%
X93732050Y-87450231D02*
X92602050Y-87450231D01*
X93732050Y-86690231D02*
X93732050Y-87450231D01*
X93732050Y-85930231D02*
X93732050Y-80915231D01*
X93732050Y-85930231D02*
X93165521Y-85930231D01*
X93732050Y-80915231D02*
X92909580Y-80915231D01*
X92294520Y-80915231D02*
X91639580Y-80915231D01*
X92038579Y-85930231D02*
X91895521Y-85930231D01*
X91842050Y-87385231D02*
X91639580Y-87385231D01*
X91842050Y-87253702D02*
X91842050Y-87385231D01*
X91842050Y-85983702D02*
X91842050Y-86126760D01*
X91024520Y-87385231D02*
X90202050Y-87385231D01*
X91024520Y-80915231D02*
X90202050Y-80915231D01*
X90202050Y-87385231D02*
X90202050Y-80915231D01*
%TO.C,J2*%
X102267050Y-77040231D02*
X103397050Y-77040231D01*
X102267050Y-77800231D02*
X102267050Y-77040231D01*
X102267050Y-78560231D02*
X102267050Y-89925231D01*
X102267050Y-78560231D02*
X102833579Y-78560231D01*
X102267050Y-89925231D02*
X103089520Y-89925231D01*
X103704580Y-89925231D02*
X104359520Y-89925231D01*
X103960521Y-78560231D02*
X104103579Y-78560231D01*
X104157050Y-77105231D02*
X104359520Y-77105231D01*
X104157050Y-77236760D02*
X104157050Y-77105231D01*
X104157050Y-78506760D02*
X104157050Y-78363702D01*
X104974580Y-77105231D02*
X105797050Y-77105231D01*
X104974580Y-89925231D02*
X105797050Y-89925231D01*
X105797050Y-77105231D02*
X105797050Y-89925231D01*
%TD*%
M02*
