%TF.GenerationSoftware,KiCad,Pcbnew,7.0.7-7.0.7~ubuntu22.04.1*%
%TF.CreationDate,2023-10-26T15:58:48-05:00*%
%TF.ProjectId,PacSat_Dev_RevC_231018,50616353-6174-45f4-9465-765f52657643,0*%
%TF.SameCoordinates,Original*%
%TF.FileFunction,Profile,NP*%
%FSLAX46Y46*%
G04 Gerber Fmt 4.6, Leading zero omitted, Abs format (unit mm)*
G04 Created by KiCad (PCBNEW 7.0.7-7.0.7~ubuntu22.04.1) date 2023-10-26 15:58:48*
%MOMM*%
%LPD*%
G01*
G04 APERTURE LIST*
%ADD10C,0.100000*%
%ADD11C,0.150000*%
%ADD12C,0.300000*%
%ADD13C,0.400000*%
%TA.AperFunction,Profile*%
%ADD14C,0.150000*%
%TD*%
G04 APERTURE END LIST*
D10*
D11*
X311800000Y-235400000D02*
X419800000Y-235400000D01*
X419800000Y-267400000D01*
X311800000Y-267400000D01*
X311800000Y-235400000D01*
D10*
D11*
X10000000Y-10000000D02*
X421800000Y-10000000D01*
X421800000Y-269400000D01*
X10000000Y-269400000D01*
X10000000Y-10000000D01*
D10*
D11*
X12000000Y-12000000D02*
X419800000Y-12000000D01*
X419800000Y-267400000D01*
X12000000Y-267400000D01*
X12000000Y-12000000D01*
D10*
D11*
X60000000Y-12000000D02*
X60000000Y-10000000D01*
D10*
D11*
X110000000Y-12000000D02*
X110000000Y-10000000D01*
D10*
D11*
X160000000Y-12000000D02*
X160000000Y-10000000D01*
D10*
D11*
X210000000Y-12000000D02*
X210000000Y-10000000D01*
D10*
D11*
X260000000Y-12000000D02*
X260000000Y-10000000D01*
D10*
D11*
X310000000Y-12000000D02*
X310000000Y-10000000D01*
D10*
D11*
X360000000Y-12000000D02*
X360000000Y-10000000D01*
D10*
D11*
X410000000Y-12000000D02*
X410000000Y-10000000D01*
D10*
D11*
X36089160Y-11593604D02*
X35346303Y-11593604D01*
X35717731Y-11593604D02*
X35717731Y-10293604D01*
X35717731Y-10293604D02*
X35593922Y-10479319D01*
X35593922Y-10479319D02*
X35470112Y-10603128D01*
X35470112Y-10603128D02*
X35346303Y-10665033D01*
D10*
D11*
X85346303Y-10417414D02*
X85408207Y-10355509D01*
X85408207Y-10355509D02*
X85532017Y-10293604D01*
X85532017Y-10293604D02*
X85841541Y-10293604D01*
X85841541Y-10293604D02*
X85965350Y-10355509D01*
X85965350Y-10355509D02*
X86027255Y-10417414D01*
X86027255Y-10417414D02*
X86089160Y-10541223D01*
X86089160Y-10541223D02*
X86089160Y-10665033D01*
X86089160Y-10665033D02*
X86027255Y-10850747D01*
X86027255Y-10850747D02*
X85284398Y-11593604D01*
X85284398Y-11593604D02*
X86089160Y-11593604D01*
D10*
D11*
X135284398Y-10293604D02*
X136089160Y-10293604D01*
X136089160Y-10293604D02*
X135655826Y-10788842D01*
X135655826Y-10788842D02*
X135841541Y-10788842D01*
X135841541Y-10788842D02*
X135965350Y-10850747D01*
X135965350Y-10850747D02*
X136027255Y-10912652D01*
X136027255Y-10912652D02*
X136089160Y-11036461D01*
X136089160Y-11036461D02*
X136089160Y-11345985D01*
X136089160Y-11345985D02*
X136027255Y-11469795D01*
X136027255Y-11469795D02*
X135965350Y-11531700D01*
X135965350Y-11531700D02*
X135841541Y-11593604D01*
X135841541Y-11593604D02*
X135470112Y-11593604D01*
X135470112Y-11593604D02*
X135346303Y-11531700D01*
X135346303Y-11531700D02*
X135284398Y-11469795D01*
D10*
D11*
X185965350Y-10726938D02*
X185965350Y-11593604D01*
X185655826Y-10231700D02*
X185346303Y-11160271D01*
X185346303Y-11160271D02*
X186151064Y-11160271D01*
D10*
D11*
X236027255Y-10293604D02*
X235408207Y-10293604D01*
X235408207Y-10293604D02*
X235346303Y-10912652D01*
X235346303Y-10912652D02*
X235408207Y-10850747D01*
X235408207Y-10850747D02*
X235532017Y-10788842D01*
X235532017Y-10788842D02*
X235841541Y-10788842D01*
X235841541Y-10788842D02*
X235965350Y-10850747D01*
X235965350Y-10850747D02*
X236027255Y-10912652D01*
X236027255Y-10912652D02*
X236089160Y-11036461D01*
X236089160Y-11036461D02*
X236089160Y-11345985D01*
X236089160Y-11345985D02*
X236027255Y-11469795D01*
X236027255Y-11469795D02*
X235965350Y-11531700D01*
X235965350Y-11531700D02*
X235841541Y-11593604D01*
X235841541Y-11593604D02*
X235532017Y-11593604D01*
X235532017Y-11593604D02*
X235408207Y-11531700D01*
X235408207Y-11531700D02*
X235346303Y-11469795D01*
D10*
D11*
X285965350Y-10293604D02*
X285717731Y-10293604D01*
X285717731Y-10293604D02*
X285593922Y-10355509D01*
X285593922Y-10355509D02*
X285532017Y-10417414D01*
X285532017Y-10417414D02*
X285408207Y-10603128D01*
X285408207Y-10603128D02*
X285346303Y-10850747D01*
X285346303Y-10850747D02*
X285346303Y-11345985D01*
X285346303Y-11345985D02*
X285408207Y-11469795D01*
X285408207Y-11469795D02*
X285470112Y-11531700D01*
X285470112Y-11531700D02*
X285593922Y-11593604D01*
X285593922Y-11593604D02*
X285841541Y-11593604D01*
X285841541Y-11593604D02*
X285965350Y-11531700D01*
X285965350Y-11531700D02*
X286027255Y-11469795D01*
X286027255Y-11469795D02*
X286089160Y-11345985D01*
X286089160Y-11345985D02*
X286089160Y-11036461D01*
X286089160Y-11036461D02*
X286027255Y-10912652D01*
X286027255Y-10912652D02*
X285965350Y-10850747D01*
X285965350Y-10850747D02*
X285841541Y-10788842D01*
X285841541Y-10788842D02*
X285593922Y-10788842D01*
X285593922Y-10788842D02*
X285470112Y-10850747D01*
X285470112Y-10850747D02*
X285408207Y-10912652D01*
X285408207Y-10912652D02*
X285346303Y-11036461D01*
D10*
D11*
X335284398Y-10293604D02*
X336151064Y-10293604D01*
X336151064Y-10293604D02*
X335593922Y-11593604D01*
D10*
D11*
X385593922Y-10850747D02*
X385470112Y-10788842D01*
X385470112Y-10788842D02*
X385408207Y-10726938D01*
X385408207Y-10726938D02*
X385346303Y-10603128D01*
X385346303Y-10603128D02*
X385346303Y-10541223D01*
X385346303Y-10541223D02*
X385408207Y-10417414D01*
X385408207Y-10417414D02*
X385470112Y-10355509D01*
X385470112Y-10355509D02*
X385593922Y-10293604D01*
X385593922Y-10293604D02*
X385841541Y-10293604D01*
X385841541Y-10293604D02*
X385965350Y-10355509D01*
X385965350Y-10355509D02*
X386027255Y-10417414D01*
X386027255Y-10417414D02*
X386089160Y-10541223D01*
X386089160Y-10541223D02*
X386089160Y-10603128D01*
X386089160Y-10603128D02*
X386027255Y-10726938D01*
X386027255Y-10726938D02*
X385965350Y-10788842D01*
X385965350Y-10788842D02*
X385841541Y-10850747D01*
X385841541Y-10850747D02*
X385593922Y-10850747D01*
X385593922Y-10850747D02*
X385470112Y-10912652D01*
X385470112Y-10912652D02*
X385408207Y-10974557D01*
X385408207Y-10974557D02*
X385346303Y-11098366D01*
X385346303Y-11098366D02*
X385346303Y-11345985D01*
X385346303Y-11345985D02*
X385408207Y-11469795D01*
X385408207Y-11469795D02*
X385470112Y-11531700D01*
X385470112Y-11531700D02*
X385593922Y-11593604D01*
X385593922Y-11593604D02*
X385841541Y-11593604D01*
X385841541Y-11593604D02*
X385965350Y-11531700D01*
X385965350Y-11531700D02*
X386027255Y-11469795D01*
X386027255Y-11469795D02*
X386089160Y-11345985D01*
X386089160Y-11345985D02*
X386089160Y-11098366D01*
X386089160Y-11098366D02*
X386027255Y-10974557D01*
X386027255Y-10974557D02*
X385965350Y-10912652D01*
X385965350Y-10912652D02*
X385841541Y-10850747D01*
D10*
D11*
X60000000Y-267400000D02*
X60000000Y-269400000D01*
D10*
D11*
X110000000Y-267400000D02*
X110000000Y-269400000D01*
D10*
D11*
X160000000Y-267400000D02*
X160000000Y-269400000D01*
D10*
D11*
X210000000Y-267400000D02*
X210000000Y-269400000D01*
D10*
D11*
X260000000Y-267400000D02*
X260000000Y-269400000D01*
D10*
D11*
X310000000Y-267400000D02*
X310000000Y-269400000D01*
D10*
D11*
X360000000Y-267400000D02*
X360000000Y-269400000D01*
D10*
D11*
X410000000Y-267400000D02*
X410000000Y-269400000D01*
D10*
D11*
X36089160Y-268993604D02*
X35346303Y-268993604D01*
X35717731Y-268993604D02*
X35717731Y-267693604D01*
X35717731Y-267693604D02*
X35593922Y-267879319D01*
X35593922Y-267879319D02*
X35470112Y-268003128D01*
X35470112Y-268003128D02*
X35346303Y-268065033D01*
D10*
D11*
X85346303Y-267817414D02*
X85408207Y-267755509D01*
X85408207Y-267755509D02*
X85532017Y-267693604D01*
X85532017Y-267693604D02*
X85841541Y-267693604D01*
X85841541Y-267693604D02*
X85965350Y-267755509D01*
X85965350Y-267755509D02*
X86027255Y-267817414D01*
X86027255Y-267817414D02*
X86089160Y-267941223D01*
X86089160Y-267941223D02*
X86089160Y-268065033D01*
X86089160Y-268065033D02*
X86027255Y-268250747D01*
X86027255Y-268250747D02*
X85284398Y-268993604D01*
X85284398Y-268993604D02*
X86089160Y-268993604D01*
D10*
D11*
X135284398Y-267693604D02*
X136089160Y-267693604D01*
X136089160Y-267693604D02*
X135655826Y-268188842D01*
X135655826Y-268188842D02*
X135841541Y-268188842D01*
X135841541Y-268188842D02*
X135965350Y-268250747D01*
X135965350Y-268250747D02*
X136027255Y-268312652D01*
X136027255Y-268312652D02*
X136089160Y-268436461D01*
X136089160Y-268436461D02*
X136089160Y-268745985D01*
X136089160Y-268745985D02*
X136027255Y-268869795D01*
X136027255Y-268869795D02*
X135965350Y-268931700D01*
X135965350Y-268931700D02*
X135841541Y-268993604D01*
X135841541Y-268993604D02*
X135470112Y-268993604D01*
X135470112Y-268993604D02*
X135346303Y-268931700D01*
X135346303Y-268931700D02*
X135284398Y-268869795D01*
D10*
D11*
X185965350Y-268126938D02*
X185965350Y-268993604D01*
X185655826Y-267631700D02*
X185346303Y-268560271D01*
X185346303Y-268560271D02*
X186151064Y-268560271D01*
D10*
D11*
X236027255Y-267693604D02*
X235408207Y-267693604D01*
X235408207Y-267693604D02*
X235346303Y-268312652D01*
X235346303Y-268312652D02*
X235408207Y-268250747D01*
X235408207Y-268250747D02*
X235532017Y-268188842D01*
X235532017Y-268188842D02*
X235841541Y-268188842D01*
X235841541Y-268188842D02*
X235965350Y-268250747D01*
X235965350Y-268250747D02*
X236027255Y-268312652D01*
X236027255Y-268312652D02*
X236089160Y-268436461D01*
X236089160Y-268436461D02*
X236089160Y-268745985D01*
X236089160Y-268745985D02*
X236027255Y-268869795D01*
X236027255Y-268869795D02*
X235965350Y-268931700D01*
X235965350Y-268931700D02*
X235841541Y-268993604D01*
X235841541Y-268993604D02*
X235532017Y-268993604D01*
X235532017Y-268993604D02*
X235408207Y-268931700D01*
X235408207Y-268931700D02*
X235346303Y-268869795D01*
D10*
D11*
X285965350Y-267693604D02*
X285717731Y-267693604D01*
X285717731Y-267693604D02*
X285593922Y-267755509D01*
X285593922Y-267755509D02*
X285532017Y-267817414D01*
X285532017Y-267817414D02*
X285408207Y-268003128D01*
X285408207Y-268003128D02*
X285346303Y-268250747D01*
X285346303Y-268250747D02*
X285346303Y-268745985D01*
X285346303Y-268745985D02*
X285408207Y-268869795D01*
X285408207Y-268869795D02*
X285470112Y-268931700D01*
X285470112Y-268931700D02*
X285593922Y-268993604D01*
X285593922Y-268993604D02*
X285841541Y-268993604D01*
X285841541Y-268993604D02*
X285965350Y-268931700D01*
X285965350Y-268931700D02*
X286027255Y-268869795D01*
X286027255Y-268869795D02*
X286089160Y-268745985D01*
X286089160Y-268745985D02*
X286089160Y-268436461D01*
X286089160Y-268436461D02*
X286027255Y-268312652D01*
X286027255Y-268312652D02*
X285965350Y-268250747D01*
X285965350Y-268250747D02*
X285841541Y-268188842D01*
X285841541Y-268188842D02*
X285593922Y-268188842D01*
X285593922Y-268188842D02*
X285470112Y-268250747D01*
X285470112Y-268250747D02*
X285408207Y-268312652D01*
X285408207Y-268312652D02*
X285346303Y-268436461D01*
D10*
D11*
X335284398Y-267693604D02*
X336151064Y-267693604D01*
X336151064Y-267693604D02*
X335593922Y-268993604D01*
D10*
D11*
X385593922Y-268250747D02*
X385470112Y-268188842D01*
X385470112Y-268188842D02*
X385408207Y-268126938D01*
X385408207Y-268126938D02*
X385346303Y-268003128D01*
X385346303Y-268003128D02*
X385346303Y-267941223D01*
X385346303Y-267941223D02*
X385408207Y-267817414D01*
X385408207Y-267817414D02*
X385470112Y-267755509D01*
X385470112Y-267755509D02*
X385593922Y-267693604D01*
X385593922Y-267693604D02*
X385841541Y-267693604D01*
X385841541Y-267693604D02*
X385965350Y-267755509D01*
X385965350Y-267755509D02*
X386027255Y-267817414D01*
X386027255Y-267817414D02*
X386089160Y-267941223D01*
X386089160Y-267941223D02*
X386089160Y-268003128D01*
X386089160Y-268003128D02*
X386027255Y-268126938D01*
X386027255Y-268126938D02*
X385965350Y-268188842D01*
X385965350Y-268188842D02*
X385841541Y-268250747D01*
X385841541Y-268250747D02*
X385593922Y-268250747D01*
X385593922Y-268250747D02*
X385470112Y-268312652D01*
X385470112Y-268312652D02*
X385408207Y-268374557D01*
X385408207Y-268374557D02*
X385346303Y-268498366D01*
X385346303Y-268498366D02*
X385346303Y-268745985D01*
X385346303Y-268745985D02*
X385408207Y-268869795D01*
X385408207Y-268869795D02*
X385470112Y-268931700D01*
X385470112Y-268931700D02*
X385593922Y-268993604D01*
X385593922Y-268993604D02*
X385841541Y-268993604D01*
X385841541Y-268993604D02*
X385965350Y-268931700D01*
X385965350Y-268931700D02*
X386027255Y-268869795D01*
X386027255Y-268869795D02*
X386089160Y-268745985D01*
X386089160Y-268745985D02*
X386089160Y-268498366D01*
X386089160Y-268498366D02*
X386027255Y-268374557D01*
X386027255Y-268374557D02*
X385965350Y-268312652D01*
X385965350Y-268312652D02*
X385841541Y-268250747D01*
D10*
D11*
X10000000Y-60000000D02*
X12000000Y-60000000D01*
D10*
D11*
X10000000Y-110000000D02*
X12000000Y-110000000D01*
D10*
D11*
X10000000Y-160000000D02*
X12000000Y-160000000D01*
D10*
D11*
X10000000Y-210000000D02*
X12000000Y-210000000D01*
D10*
D11*
X10000000Y-260000000D02*
X12000000Y-260000000D01*
D10*
D11*
X10690476Y-35222176D02*
X11309523Y-35222176D01*
X10566666Y-35593604D02*
X10999999Y-34293604D01*
X10999999Y-34293604D02*
X11433333Y-35593604D01*
D10*
D11*
X11092857Y-84912652D02*
X11278571Y-84974557D01*
X11278571Y-84974557D02*
X11340476Y-85036461D01*
X11340476Y-85036461D02*
X11402380Y-85160271D01*
X11402380Y-85160271D02*
X11402380Y-85345985D01*
X11402380Y-85345985D02*
X11340476Y-85469795D01*
X11340476Y-85469795D02*
X11278571Y-85531700D01*
X11278571Y-85531700D02*
X11154761Y-85593604D01*
X11154761Y-85593604D02*
X10659523Y-85593604D01*
X10659523Y-85593604D02*
X10659523Y-84293604D01*
X10659523Y-84293604D02*
X11092857Y-84293604D01*
X11092857Y-84293604D02*
X11216666Y-84355509D01*
X11216666Y-84355509D02*
X11278571Y-84417414D01*
X11278571Y-84417414D02*
X11340476Y-84541223D01*
X11340476Y-84541223D02*
X11340476Y-84665033D01*
X11340476Y-84665033D02*
X11278571Y-84788842D01*
X11278571Y-84788842D02*
X11216666Y-84850747D01*
X11216666Y-84850747D02*
X11092857Y-84912652D01*
X11092857Y-84912652D02*
X10659523Y-84912652D01*
D10*
D11*
X11402380Y-135469795D02*
X11340476Y-135531700D01*
X11340476Y-135531700D02*
X11154761Y-135593604D01*
X11154761Y-135593604D02*
X11030952Y-135593604D01*
X11030952Y-135593604D02*
X10845238Y-135531700D01*
X10845238Y-135531700D02*
X10721428Y-135407890D01*
X10721428Y-135407890D02*
X10659523Y-135284080D01*
X10659523Y-135284080D02*
X10597619Y-135036461D01*
X10597619Y-135036461D02*
X10597619Y-134850747D01*
X10597619Y-134850747D02*
X10659523Y-134603128D01*
X10659523Y-134603128D02*
X10721428Y-134479319D01*
X10721428Y-134479319D02*
X10845238Y-134355509D01*
X10845238Y-134355509D02*
X11030952Y-134293604D01*
X11030952Y-134293604D02*
X11154761Y-134293604D01*
X11154761Y-134293604D02*
X11340476Y-134355509D01*
X11340476Y-134355509D02*
X11402380Y-134417414D01*
D10*
D11*
X10659523Y-185593604D02*
X10659523Y-184293604D01*
X10659523Y-184293604D02*
X10969047Y-184293604D01*
X10969047Y-184293604D02*
X11154761Y-184355509D01*
X11154761Y-184355509D02*
X11278571Y-184479319D01*
X11278571Y-184479319D02*
X11340476Y-184603128D01*
X11340476Y-184603128D02*
X11402380Y-184850747D01*
X11402380Y-184850747D02*
X11402380Y-185036461D01*
X11402380Y-185036461D02*
X11340476Y-185284080D01*
X11340476Y-185284080D02*
X11278571Y-185407890D01*
X11278571Y-185407890D02*
X11154761Y-185531700D01*
X11154761Y-185531700D02*
X10969047Y-185593604D01*
X10969047Y-185593604D02*
X10659523Y-185593604D01*
D10*
D11*
X10721428Y-234912652D02*
X11154762Y-234912652D01*
X11340476Y-235593604D02*
X10721428Y-235593604D01*
X10721428Y-235593604D02*
X10721428Y-234293604D01*
X10721428Y-234293604D02*
X11340476Y-234293604D01*
D10*
D11*
X421800000Y-60000000D02*
X419800000Y-60000000D01*
D10*
D11*
X421800000Y-110000000D02*
X419800000Y-110000000D01*
D10*
D11*
X421800000Y-160000000D02*
X419800000Y-160000000D01*
D10*
D11*
X421800000Y-210000000D02*
X419800000Y-210000000D01*
D10*
D11*
X421800000Y-260000000D02*
X419800000Y-260000000D01*
D10*
D11*
X420490476Y-35222176D02*
X421109523Y-35222176D01*
X420366666Y-35593604D02*
X420799999Y-34293604D01*
X420799999Y-34293604D02*
X421233333Y-35593604D01*
D10*
D11*
X420892857Y-84912652D02*
X421078571Y-84974557D01*
X421078571Y-84974557D02*
X421140476Y-85036461D01*
X421140476Y-85036461D02*
X421202380Y-85160271D01*
X421202380Y-85160271D02*
X421202380Y-85345985D01*
X421202380Y-85345985D02*
X421140476Y-85469795D01*
X421140476Y-85469795D02*
X421078571Y-85531700D01*
X421078571Y-85531700D02*
X420954761Y-85593604D01*
X420954761Y-85593604D02*
X420459523Y-85593604D01*
X420459523Y-85593604D02*
X420459523Y-84293604D01*
X420459523Y-84293604D02*
X420892857Y-84293604D01*
X420892857Y-84293604D02*
X421016666Y-84355509D01*
X421016666Y-84355509D02*
X421078571Y-84417414D01*
X421078571Y-84417414D02*
X421140476Y-84541223D01*
X421140476Y-84541223D02*
X421140476Y-84665033D01*
X421140476Y-84665033D02*
X421078571Y-84788842D01*
X421078571Y-84788842D02*
X421016666Y-84850747D01*
X421016666Y-84850747D02*
X420892857Y-84912652D01*
X420892857Y-84912652D02*
X420459523Y-84912652D01*
D10*
D11*
X421202380Y-135469795D02*
X421140476Y-135531700D01*
X421140476Y-135531700D02*
X420954761Y-135593604D01*
X420954761Y-135593604D02*
X420830952Y-135593604D01*
X420830952Y-135593604D02*
X420645238Y-135531700D01*
X420645238Y-135531700D02*
X420521428Y-135407890D01*
X420521428Y-135407890D02*
X420459523Y-135284080D01*
X420459523Y-135284080D02*
X420397619Y-135036461D01*
X420397619Y-135036461D02*
X420397619Y-134850747D01*
X420397619Y-134850747D02*
X420459523Y-134603128D01*
X420459523Y-134603128D02*
X420521428Y-134479319D01*
X420521428Y-134479319D02*
X420645238Y-134355509D01*
X420645238Y-134355509D02*
X420830952Y-134293604D01*
X420830952Y-134293604D02*
X420954761Y-134293604D01*
X420954761Y-134293604D02*
X421140476Y-134355509D01*
X421140476Y-134355509D02*
X421202380Y-134417414D01*
D10*
D11*
X420459523Y-185593604D02*
X420459523Y-184293604D01*
X420459523Y-184293604D02*
X420769047Y-184293604D01*
X420769047Y-184293604D02*
X420954761Y-184355509D01*
X420954761Y-184355509D02*
X421078571Y-184479319D01*
X421078571Y-184479319D02*
X421140476Y-184603128D01*
X421140476Y-184603128D02*
X421202380Y-184850747D01*
X421202380Y-184850747D02*
X421202380Y-185036461D01*
X421202380Y-185036461D02*
X421140476Y-185284080D01*
X421140476Y-185284080D02*
X421078571Y-185407890D01*
X421078571Y-185407890D02*
X420954761Y-185531700D01*
X420954761Y-185531700D02*
X420769047Y-185593604D01*
X420769047Y-185593604D02*
X420459523Y-185593604D01*
D10*
D11*
X420521428Y-234912652D02*
X420954762Y-234912652D01*
X421140476Y-235593604D02*
X420521428Y-235593604D01*
X420521428Y-235593604D02*
X420521428Y-234293604D01*
X420521428Y-234293604D02*
X421140476Y-234293604D01*
D10*
D11*
X335255826Y-263186128D02*
X335255826Y-261686128D01*
X335255826Y-261686128D02*
X335612969Y-261686128D01*
X335612969Y-261686128D02*
X335827255Y-261757557D01*
X335827255Y-261757557D02*
X335970112Y-261900414D01*
X335970112Y-261900414D02*
X336041541Y-262043271D01*
X336041541Y-262043271D02*
X336112969Y-262328985D01*
X336112969Y-262328985D02*
X336112969Y-262543271D01*
X336112969Y-262543271D02*
X336041541Y-262828985D01*
X336041541Y-262828985D02*
X335970112Y-262971842D01*
X335970112Y-262971842D02*
X335827255Y-263114700D01*
X335827255Y-263114700D02*
X335612969Y-263186128D01*
X335612969Y-263186128D02*
X335255826Y-263186128D01*
X337398684Y-263186128D02*
X337398684Y-262400414D01*
X337398684Y-262400414D02*
X337327255Y-262257557D01*
X337327255Y-262257557D02*
X337184398Y-262186128D01*
X337184398Y-262186128D02*
X336898684Y-262186128D01*
X336898684Y-262186128D02*
X336755826Y-262257557D01*
X337398684Y-263114700D02*
X337255826Y-263186128D01*
X337255826Y-263186128D02*
X336898684Y-263186128D01*
X336898684Y-263186128D02*
X336755826Y-263114700D01*
X336755826Y-263114700D02*
X336684398Y-262971842D01*
X336684398Y-262971842D02*
X336684398Y-262828985D01*
X336684398Y-262828985D02*
X336755826Y-262686128D01*
X336755826Y-262686128D02*
X336898684Y-262614700D01*
X336898684Y-262614700D02*
X337255826Y-262614700D01*
X337255826Y-262614700D02*
X337398684Y-262543271D01*
X337898684Y-262186128D02*
X338470112Y-262186128D01*
X338112969Y-261686128D02*
X338112969Y-262971842D01*
X338112969Y-262971842D02*
X338184398Y-263114700D01*
X338184398Y-263114700D02*
X338327255Y-263186128D01*
X338327255Y-263186128D02*
X338470112Y-263186128D01*
X339541541Y-263114700D02*
X339398684Y-263186128D01*
X339398684Y-263186128D02*
X339112970Y-263186128D01*
X339112970Y-263186128D02*
X338970112Y-263114700D01*
X338970112Y-263114700D02*
X338898684Y-262971842D01*
X338898684Y-262971842D02*
X338898684Y-262400414D01*
X338898684Y-262400414D02*
X338970112Y-262257557D01*
X338970112Y-262257557D02*
X339112970Y-262186128D01*
X339112970Y-262186128D02*
X339398684Y-262186128D01*
X339398684Y-262186128D02*
X339541541Y-262257557D01*
X339541541Y-262257557D02*
X339612970Y-262400414D01*
X339612970Y-262400414D02*
X339612970Y-262543271D01*
X339612970Y-262543271D02*
X338898684Y-262686128D01*
X340255826Y-263043271D02*
X340327255Y-263114700D01*
X340327255Y-263114700D02*
X340255826Y-263186128D01*
X340255826Y-263186128D02*
X340184398Y-263114700D01*
X340184398Y-263114700D02*
X340255826Y-263043271D01*
X340255826Y-263043271D02*
X340255826Y-263186128D01*
X340255826Y-262257557D02*
X340327255Y-262328985D01*
X340327255Y-262328985D02*
X340255826Y-262400414D01*
X340255826Y-262400414D02*
X340184398Y-262328985D01*
X340184398Y-262328985D02*
X340255826Y-262257557D01*
X340255826Y-262257557D02*
X340255826Y-262400414D01*
D10*
D11*
X311800000Y-263900000D02*
X419800000Y-263900000D01*
D10*
D11*
X313255826Y-265986128D02*
X313255826Y-264486128D01*
X314112969Y-265986128D02*
X313470112Y-265128985D01*
X314112969Y-264486128D02*
X313255826Y-265343271D01*
X314755826Y-265986128D02*
X314755826Y-264986128D01*
X314755826Y-264486128D02*
X314684398Y-264557557D01*
X314684398Y-264557557D02*
X314755826Y-264628985D01*
X314755826Y-264628985D02*
X314827255Y-264557557D01*
X314827255Y-264557557D02*
X314755826Y-264486128D01*
X314755826Y-264486128D02*
X314755826Y-264628985D01*
X316327255Y-265843271D02*
X316255827Y-265914700D01*
X316255827Y-265914700D02*
X316041541Y-265986128D01*
X316041541Y-265986128D02*
X315898684Y-265986128D01*
X315898684Y-265986128D02*
X315684398Y-265914700D01*
X315684398Y-265914700D02*
X315541541Y-265771842D01*
X315541541Y-265771842D02*
X315470112Y-265628985D01*
X315470112Y-265628985D02*
X315398684Y-265343271D01*
X315398684Y-265343271D02*
X315398684Y-265128985D01*
X315398684Y-265128985D02*
X315470112Y-264843271D01*
X315470112Y-264843271D02*
X315541541Y-264700414D01*
X315541541Y-264700414D02*
X315684398Y-264557557D01*
X315684398Y-264557557D02*
X315898684Y-264486128D01*
X315898684Y-264486128D02*
X316041541Y-264486128D01*
X316041541Y-264486128D02*
X316255827Y-264557557D01*
X316255827Y-264557557D02*
X316327255Y-264628985D01*
X317612970Y-265986128D02*
X317612970Y-265200414D01*
X317612970Y-265200414D02*
X317541541Y-265057557D01*
X317541541Y-265057557D02*
X317398684Y-264986128D01*
X317398684Y-264986128D02*
X317112970Y-264986128D01*
X317112970Y-264986128D02*
X316970112Y-265057557D01*
X317612970Y-265914700D02*
X317470112Y-265986128D01*
X317470112Y-265986128D02*
X317112970Y-265986128D01*
X317112970Y-265986128D02*
X316970112Y-265914700D01*
X316970112Y-265914700D02*
X316898684Y-265771842D01*
X316898684Y-265771842D02*
X316898684Y-265628985D01*
X316898684Y-265628985D02*
X316970112Y-265486128D01*
X316970112Y-265486128D02*
X317112970Y-265414700D01*
X317112970Y-265414700D02*
X317470112Y-265414700D01*
X317470112Y-265414700D02*
X317612970Y-265343271D01*
X318970113Y-265986128D02*
X318970113Y-264486128D01*
X318970113Y-265914700D02*
X318827255Y-265986128D01*
X318827255Y-265986128D02*
X318541541Y-265986128D01*
X318541541Y-265986128D02*
X318398684Y-265914700D01*
X318398684Y-265914700D02*
X318327255Y-265843271D01*
X318327255Y-265843271D02*
X318255827Y-265700414D01*
X318255827Y-265700414D02*
X318255827Y-265271842D01*
X318255827Y-265271842D02*
X318327255Y-265128985D01*
X318327255Y-265128985D02*
X318398684Y-265057557D01*
X318398684Y-265057557D02*
X318541541Y-264986128D01*
X318541541Y-264986128D02*
X318827255Y-264986128D01*
X318827255Y-264986128D02*
X318970113Y-265057557D01*
X320827255Y-265200414D02*
X321327255Y-265200414D01*
X321541541Y-265986128D02*
X320827255Y-265986128D01*
X320827255Y-265986128D02*
X320827255Y-264486128D01*
X320827255Y-264486128D02*
X321541541Y-264486128D01*
X322184398Y-265843271D02*
X322255827Y-265914700D01*
X322255827Y-265914700D02*
X322184398Y-265986128D01*
X322184398Y-265986128D02*
X322112970Y-265914700D01*
X322112970Y-265914700D02*
X322184398Y-265843271D01*
X322184398Y-265843271D02*
X322184398Y-265986128D01*
X322898684Y-265986128D02*
X322898684Y-264486128D01*
X322898684Y-264486128D02*
X323255827Y-264486128D01*
X323255827Y-264486128D02*
X323470113Y-264557557D01*
X323470113Y-264557557D02*
X323612970Y-264700414D01*
X323612970Y-264700414D02*
X323684399Y-264843271D01*
X323684399Y-264843271D02*
X323755827Y-265128985D01*
X323755827Y-265128985D02*
X323755827Y-265343271D01*
X323755827Y-265343271D02*
X323684399Y-265628985D01*
X323684399Y-265628985D02*
X323612970Y-265771842D01*
X323612970Y-265771842D02*
X323470113Y-265914700D01*
X323470113Y-265914700D02*
X323255827Y-265986128D01*
X323255827Y-265986128D02*
X322898684Y-265986128D01*
X324398684Y-265843271D02*
X324470113Y-265914700D01*
X324470113Y-265914700D02*
X324398684Y-265986128D01*
X324398684Y-265986128D02*
X324327256Y-265914700D01*
X324327256Y-265914700D02*
X324398684Y-265843271D01*
X324398684Y-265843271D02*
X324398684Y-265986128D01*
X325041542Y-265557557D02*
X325755828Y-265557557D01*
X324898685Y-265986128D02*
X325398685Y-264486128D01*
X325398685Y-264486128D02*
X325898685Y-265986128D01*
X326398684Y-265843271D02*
X326470113Y-265914700D01*
X326470113Y-265914700D02*
X326398684Y-265986128D01*
X326398684Y-265986128D02*
X326327256Y-265914700D01*
X326327256Y-265914700D02*
X326398684Y-265843271D01*
X326398684Y-265843271D02*
X326398684Y-265986128D01*
X329398684Y-265986128D02*
X329398684Y-264486128D01*
X329541542Y-265414700D02*
X329970113Y-265986128D01*
X329970113Y-264986128D02*
X329398684Y-265557557D01*
X330612970Y-265986128D02*
X330612970Y-264986128D01*
X330612970Y-264486128D02*
X330541542Y-264557557D01*
X330541542Y-264557557D02*
X330612970Y-264628985D01*
X330612970Y-264628985D02*
X330684399Y-264557557D01*
X330684399Y-264557557D02*
X330612970Y-264486128D01*
X330612970Y-264486128D02*
X330612970Y-264628985D01*
X331970114Y-265914700D02*
X331827256Y-265986128D01*
X331827256Y-265986128D02*
X331541542Y-265986128D01*
X331541542Y-265986128D02*
X331398685Y-265914700D01*
X331398685Y-265914700D02*
X331327256Y-265843271D01*
X331327256Y-265843271D02*
X331255828Y-265700414D01*
X331255828Y-265700414D02*
X331255828Y-265271842D01*
X331255828Y-265271842D02*
X331327256Y-265128985D01*
X331327256Y-265128985D02*
X331398685Y-265057557D01*
X331398685Y-265057557D02*
X331541542Y-264986128D01*
X331541542Y-264986128D02*
X331827256Y-264986128D01*
X331827256Y-264986128D02*
X331970114Y-265057557D01*
X333255828Y-265986128D02*
X333255828Y-265200414D01*
X333255828Y-265200414D02*
X333184399Y-265057557D01*
X333184399Y-265057557D02*
X333041542Y-264986128D01*
X333041542Y-264986128D02*
X332755828Y-264986128D01*
X332755828Y-264986128D02*
X332612970Y-265057557D01*
X333255828Y-265914700D02*
X333112970Y-265986128D01*
X333112970Y-265986128D02*
X332755828Y-265986128D01*
X332755828Y-265986128D02*
X332612970Y-265914700D01*
X332612970Y-265914700D02*
X332541542Y-265771842D01*
X332541542Y-265771842D02*
X332541542Y-265628985D01*
X332541542Y-265628985D02*
X332612970Y-265486128D01*
X332612970Y-265486128D02*
X332755828Y-265414700D01*
X332755828Y-265414700D02*
X333112970Y-265414700D01*
X333112970Y-265414700D02*
X333255828Y-265343271D01*
X334612971Y-265986128D02*
X334612971Y-264486128D01*
X334612971Y-265914700D02*
X334470113Y-265986128D01*
X334470113Y-265986128D02*
X334184399Y-265986128D01*
X334184399Y-265986128D02*
X334041542Y-265914700D01*
X334041542Y-265914700D02*
X333970113Y-265843271D01*
X333970113Y-265843271D02*
X333898685Y-265700414D01*
X333898685Y-265700414D02*
X333898685Y-265271842D01*
X333898685Y-265271842D02*
X333970113Y-265128985D01*
X333970113Y-265128985D02*
X334041542Y-265057557D01*
X334041542Y-265057557D02*
X334184399Y-264986128D01*
X334184399Y-264986128D02*
X334470113Y-264986128D01*
X334470113Y-264986128D02*
X334612971Y-265057557D01*
X336327256Y-264486128D02*
X337327256Y-264486128D01*
X337327256Y-264486128D02*
X336684399Y-265986128D01*
X337898684Y-265843271D02*
X337970113Y-265914700D01*
X337970113Y-265914700D02*
X337898684Y-265986128D01*
X337898684Y-265986128D02*
X337827256Y-265914700D01*
X337827256Y-265914700D02*
X337898684Y-265843271D01*
X337898684Y-265843271D02*
X337898684Y-265986128D01*
X338898685Y-264486128D02*
X339041542Y-264486128D01*
X339041542Y-264486128D02*
X339184399Y-264557557D01*
X339184399Y-264557557D02*
X339255828Y-264628985D01*
X339255828Y-264628985D02*
X339327256Y-264771842D01*
X339327256Y-264771842D02*
X339398685Y-265057557D01*
X339398685Y-265057557D02*
X339398685Y-265414700D01*
X339398685Y-265414700D02*
X339327256Y-265700414D01*
X339327256Y-265700414D02*
X339255828Y-265843271D01*
X339255828Y-265843271D02*
X339184399Y-265914700D01*
X339184399Y-265914700D02*
X339041542Y-265986128D01*
X339041542Y-265986128D02*
X338898685Y-265986128D01*
X338898685Y-265986128D02*
X338755828Y-265914700D01*
X338755828Y-265914700D02*
X338684399Y-265843271D01*
X338684399Y-265843271D02*
X338612970Y-265700414D01*
X338612970Y-265700414D02*
X338541542Y-265414700D01*
X338541542Y-265414700D02*
X338541542Y-265057557D01*
X338541542Y-265057557D02*
X338612970Y-264771842D01*
X338612970Y-264771842D02*
X338684399Y-264628985D01*
X338684399Y-264628985D02*
X338755828Y-264557557D01*
X338755828Y-264557557D02*
X338898685Y-264486128D01*
X340041541Y-265843271D02*
X340112970Y-265914700D01*
X340112970Y-265914700D02*
X340041541Y-265986128D01*
X340041541Y-265986128D02*
X339970113Y-265914700D01*
X339970113Y-265914700D02*
X340041541Y-265843271D01*
X340041541Y-265843271D02*
X340041541Y-265986128D01*
X340612970Y-264486128D02*
X341612970Y-264486128D01*
X341612970Y-264486128D02*
X340970113Y-265986128D01*
X342184398Y-265414700D02*
X343327256Y-265414700D01*
X343898684Y-264486128D02*
X344898684Y-264486128D01*
X344898684Y-264486128D02*
X344255827Y-265986128D01*
X345470112Y-265843271D02*
X345541541Y-265914700D01*
X345541541Y-265914700D02*
X345470112Y-265986128D01*
X345470112Y-265986128D02*
X345398684Y-265914700D01*
X345398684Y-265914700D02*
X345470112Y-265843271D01*
X345470112Y-265843271D02*
X345470112Y-265986128D01*
X346470113Y-264486128D02*
X346612970Y-264486128D01*
X346612970Y-264486128D02*
X346755827Y-264557557D01*
X346755827Y-264557557D02*
X346827256Y-264628985D01*
X346827256Y-264628985D02*
X346898684Y-264771842D01*
X346898684Y-264771842D02*
X346970113Y-265057557D01*
X346970113Y-265057557D02*
X346970113Y-265414700D01*
X346970113Y-265414700D02*
X346898684Y-265700414D01*
X346898684Y-265700414D02*
X346827256Y-265843271D01*
X346827256Y-265843271D02*
X346755827Y-265914700D01*
X346755827Y-265914700D02*
X346612970Y-265986128D01*
X346612970Y-265986128D02*
X346470113Y-265986128D01*
X346470113Y-265986128D02*
X346327256Y-265914700D01*
X346327256Y-265914700D02*
X346255827Y-265843271D01*
X346255827Y-265843271D02*
X346184398Y-265700414D01*
X346184398Y-265700414D02*
X346112970Y-265414700D01*
X346112970Y-265414700D02*
X346112970Y-265057557D01*
X346112970Y-265057557D02*
X346184398Y-264771842D01*
X346184398Y-264771842D02*
X346255827Y-264628985D01*
X346255827Y-264628985D02*
X346327256Y-264557557D01*
X346327256Y-264557557D02*
X346470113Y-264486128D01*
X347612969Y-265843271D02*
X347684398Y-265914700D01*
X347684398Y-265914700D02*
X347612969Y-265986128D01*
X347612969Y-265986128D02*
X347541541Y-265914700D01*
X347541541Y-265914700D02*
X347612969Y-265843271D01*
X347612969Y-265843271D02*
X347612969Y-265986128D01*
X348184398Y-264486128D02*
X349184398Y-264486128D01*
X349184398Y-264486128D02*
X348541541Y-265986128D01*
X349541541Y-265414700D02*
X349612969Y-265343271D01*
X349612969Y-265343271D02*
X349755826Y-265271842D01*
X349755826Y-265271842D02*
X350041541Y-265414700D01*
X350041541Y-265414700D02*
X350184398Y-265343271D01*
X350184398Y-265343271D02*
X350255826Y-265271842D01*
X351470113Y-264986128D02*
X351470113Y-265986128D01*
X350827255Y-264986128D02*
X350827255Y-265771842D01*
X350827255Y-265771842D02*
X350898684Y-265914700D01*
X350898684Y-265914700D02*
X351041541Y-265986128D01*
X351041541Y-265986128D02*
X351255827Y-265986128D01*
X351255827Y-265986128D02*
X351398684Y-265914700D01*
X351398684Y-265914700D02*
X351470113Y-265843271D01*
X352184398Y-265986128D02*
X352184398Y-264486128D01*
X352184398Y-265057557D02*
X352327256Y-264986128D01*
X352327256Y-264986128D02*
X352612970Y-264986128D01*
X352612970Y-264986128D02*
X352755827Y-265057557D01*
X352755827Y-265057557D02*
X352827256Y-265128985D01*
X352827256Y-265128985D02*
X352898684Y-265271842D01*
X352898684Y-265271842D02*
X352898684Y-265700414D01*
X352898684Y-265700414D02*
X352827256Y-265843271D01*
X352827256Y-265843271D02*
X352755827Y-265914700D01*
X352755827Y-265914700D02*
X352612970Y-265986128D01*
X352612970Y-265986128D02*
X352327256Y-265986128D01*
X352327256Y-265986128D02*
X352184398Y-265914700D01*
X354184399Y-264986128D02*
X354184399Y-265986128D01*
X353541541Y-264986128D02*
X353541541Y-265771842D01*
X353541541Y-265771842D02*
X353612970Y-265914700D01*
X353612970Y-265914700D02*
X353755827Y-265986128D01*
X353755827Y-265986128D02*
X353970113Y-265986128D01*
X353970113Y-265986128D02*
X354112970Y-265914700D01*
X354112970Y-265914700D02*
X354184399Y-265843271D01*
X354898684Y-264986128D02*
X354898684Y-265986128D01*
X354898684Y-265128985D02*
X354970113Y-265057557D01*
X354970113Y-265057557D02*
X355112970Y-264986128D01*
X355112970Y-264986128D02*
X355327256Y-264986128D01*
X355327256Y-264986128D02*
X355470113Y-265057557D01*
X355470113Y-265057557D02*
X355541542Y-265200414D01*
X355541542Y-265200414D02*
X355541542Y-265986128D01*
X356041542Y-264986128D02*
X356612970Y-264986128D01*
X356255827Y-264486128D02*
X356255827Y-265771842D01*
X356255827Y-265771842D02*
X356327256Y-265914700D01*
X356327256Y-265914700D02*
X356470113Y-265986128D01*
X356470113Y-265986128D02*
X356612970Y-265986128D01*
X357755828Y-264986128D02*
X357755828Y-265986128D01*
X357112970Y-264986128D02*
X357112970Y-265771842D01*
X357112970Y-265771842D02*
X357184399Y-265914700D01*
X357184399Y-265914700D02*
X357327256Y-265986128D01*
X357327256Y-265986128D02*
X357541542Y-265986128D01*
X357541542Y-265986128D02*
X357684399Y-265914700D01*
X357684399Y-265914700D02*
X357755828Y-265843271D01*
X358398685Y-264628985D02*
X358470113Y-264557557D01*
X358470113Y-264557557D02*
X358612971Y-264486128D01*
X358612971Y-264486128D02*
X358970113Y-264486128D01*
X358970113Y-264486128D02*
X359112971Y-264557557D01*
X359112971Y-264557557D02*
X359184399Y-264628985D01*
X359184399Y-264628985D02*
X359255828Y-264771842D01*
X359255828Y-264771842D02*
X359255828Y-264914700D01*
X359255828Y-264914700D02*
X359184399Y-265128985D01*
X359184399Y-265128985D02*
X358327256Y-265986128D01*
X358327256Y-265986128D02*
X359255828Y-265986128D01*
X359827256Y-264628985D02*
X359898684Y-264557557D01*
X359898684Y-264557557D02*
X360041542Y-264486128D01*
X360041542Y-264486128D02*
X360398684Y-264486128D01*
X360398684Y-264486128D02*
X360541542Y-264557557D01*
X360541542Y-264557557D02*
X360612970Y-264628985D01*
X360612970Y-264628985D02*
X360684399Y-264771842D01*
X360684399Y-264771842D02*
X360684399Y-264914700D01*
X360684399Y-264914700D02*
X360612970Y-265128985D01*
X360612970Y-265128985D02*
X359755827Y-265986128D01*
X359755827Y-265986128D02*
X360684399Y-265986128D01*
X361327255Y-265843271D02*
X361398684Y-265914700D01*
X361398684Y-265914700D02*
X361327255Y-265986128D01*
X361327255Y-265986128D02*
X361255827Y-265914700D01*
X361255827Y-265914700D02*
X361327255Y-265843271D01*
X361327255Y-265843271D02*
X361327255Y-265986128D01*
X362327256Y-264486128D02*
X362470113Y-264486128D01*
X362470113Y-264486128D02*
X362612970Y-264557557D01*
X362612970Y-264557557D02*
X362684399Y-264628985D01*
X362684399Y-264628985D02*
X362755827Y-264771842D01*
X362755827Y-264771842D02*
X362827256Y-265057557D01*
X362827256Y-265057557D02*
X362827256Y-265414700D01*
X362827256Y-265414700D02*
X362755827Y-265700414D01*
X362755827Y-265700414D02*
X362684399Y-265843271D01*
X362684399Y-265843271D02*
X362612970Y-265914700D01*
X362612970Y-265914700D02*
X362470113Y-265986128D01*
X362470113Y-265986128D02*
X362327256Y-265986128D01*
X362327256Y-265986128D02*
X362184399Y-265914700D01*
X362184399Y-265914700D02*
X362112970Y-265843271D01*
X362112970Y-265843271D02*
X362041541Y-265700414D01*
X362041541Y-265700414D02*
X361970113Y-265414700D01*
X361970113Y-265414700D02*
X361970113Y-265057557D01*
X361970113Y-265057557D02*
X362041541Y-264771842D01*
X362041541Y-264771842D02*
X362112970Y-264628985D01*
X362112970Y-264628985D02*
X362184399Y-264557557D01*
X362184399Y-264557557D02*
X362327256Y-264486128D01*
X364112970Y-264986128D02*
X364112970Y-265986128D01*
X363755827Y-264414700D02*
X363398684Y-265486128D01*
X363398684Y-265486128D02*
X364327255Y-265486128D01*
X364898683Y-265843271D02*
X364970112Y-265914700D01*
X364970112Y-265914700D02*
X364898683Y-265986128D01*
X364898683Y-265986128D02*
X364827255Y-265914700D01*
X364827255Y-265914700D02*
X364898683Y-265843271D01*
X364898683Y-265843271D02*
X364898683Y-265986128D01*
X366398684Y-265986128D02*
X365541541Y-265986128D01*
X365970112Y-265986128D02*
X365970112Y-264486128D01*
X365970112Y-264486128D02*
X365827255Y-264700414D01*
X365827255Y-264700414D02*
X365684398Y-264843271D01*
X365684398Y-264843271D02*
X365541541Y-264914700D01*
D10*
D11*
X311800000Y-260900000D02*
X419800000Y-260900000D01*
D10*
D12*
X399211653Y-263178328D02*
X398711653Y-262464042D01*
X398354510Y-263178328D02*
X398354510Y-261678328D01*
X398354510Y-261678328D02*
X398925939Y-261678328D01*
X398925939Y-261678328D02*
X399068796Y-261749757D01*
X399068796Y-261749757D02*
X399140225Y-261821185D01*
X399140225Y-261821185D02*
X399211653Y-261964042D01*
X399211653Y-261964042D02*
X399211653Y-262178328D01*
X399211653Y-262178328D02*
X399140225Y-262321185D01*
X399140225Y-262321185D02*
X399068796Y-262392614D01*
X399068796Y-262392614D02*
X398925939Y-262464042D01*
X398925939Y-262464042D02*
X398354510Y-262464042D01*
X400425939Y-263106900D02*
X400283082Y-263178328D01*
X400283082Y-263178328D02*
X399997368Y-263178328D01*
X399997368Y-263178328D02*
X399854510Y-263106900D01*
X399854510Y-263106900D02*
X399783082Y-262964042D01*
X399783082Y-262964042D02*
X399783082Y-262392614D01*
X399783082Y-262392614D02*
X399854510Y-262249757D01*
X399854510Y-262249757D02*
X399997368Y-262178328D01*
X399997368Y-262178328D02*
X400283082Y-262178328D01*
X400283082Y-262178328D02*
X400425939Y-262249757D01*
X400425939Y-262249757D02*
X400497368Y-262392614D01*
X400497368Y-262392614D02*
X400497368Y-262535471D01*
X400497368Y-262535471D02*
X399783082Y-262678328D01*
X400997367Y-262178328D02*
X401354510Y-263178328D01*
X401354510Y-263178328D02*
X401711653Y-262178328D01*
X402283081Y-263035471D02*
X402354510Y-263106900D01*
X402354510Y-263106900D02*
X402283081Y-263178328D01*
X402283081Y-263178328D02*
X402211653Y-263106900D01*
X402211653Y-263106900D02*
X402283081Y-263035471D01*
X402283081Y-263035471D02*
X402283081Y-263178328D01*
X402283081Y-262249757D02*
X402354510Y-262321185D01*
X402354510Y-262321185D02*
X402283081Y-262392614D01*
X402283081Y-262392614D02*
X402211653Y-262321185D01*
X402211653Y-262321185D02*
X402283081Y-262249757D01*
X402283081Y-262249757D02*
X402283081Y-262392614D01*
X404425939Y-261678328D02*
X404568796Y-261678328D01*
X404568796Y-261678328D02*
X404711653Y-261749757D01*
X404711653Y-261749757D02*
X404783082Y-261821185D01*
X404783082Y-261821185D02*
X404854510Y-261964042D01*
X404854510Y-261964042D02*
X404925939Y-262249757D01*
X404925939Y-262249757D02*
X404925939Y-262606900D01*
X404925939Y-262606900D02*
X404854510Y-262892614D01*
X404854510Y-262892614D02*
X404783082Y-263035471D01*
X404783082Y-263035471D02*
X404711653Y-263106900D01*
X404711653Y-263106900D02*
X404568796Y-263178328D01*
X404568796Y-263178328D02*
X404425939Y-263178328D01*
X404425939Y-263178328D02*
X404283082Y-263106900D01*
X404283082Y-263106900D02*
X404211653Y-263035471D01*
X404211653Y-263035471D02*
X404140224Y-262892614D01*
X404140224Y-262892614D02*
X404068796Y-262606900D01*
X404068796Y-262606900D02*
X404068796Y-262249757D01*
X404068796Y-262249757D02*
X404140224Y-261964042D01*
X404140224Y-261964042D02*
X404211653Y-261821185D01*
X404211653Y-261821185D02*
X404283082Y-261749757D01*
X404283082Y-261749757D02*
X404425939Y-261678328D01*
D10*
D11*
X313184398Y-263114700D02*
X313398684Y-263186128D01*
X313398684Y-263186128D02*
X313755826Y-263186128D01*
X313755826Y-263186128D02*
X313898684Y-263114700D01*
X313898684Y-263114700D02*
X313970112Y-263043271D01*
X313970112Y-263043271D02*
X314041541Y-262900414D01*
X314041541Y-262900414D02*
X314041541Y-262757557D01*
X314041541Y-262757557D02*
X313970112Y-262614700D01*
X313970112Y-262614700D02*
X313898684Y-262543271D01*
X313898684Y-262543271D02*
X313755826Y-262471842D01*
X313755826Y-262471842D02*
X313470112Y-262400414D01*
X313470112Y-262400414D02*
X313327255Y-262328985D01*
X313327255Y-262328985D02*
X313255826Y-262257557D01*
X313255826Y-262257557D02*
X313184398Y-262114700D01*
X313184398Y-262114700D02*
X313184398Y-261971842D01*
X313184398Y-261971842D02*
X313255826Y-261828985D01*
X313255826Y-261828985D02*
X313327255Y-261757557D01*
X313327255Y-261757557D02*
X313470112Y-261686128D01*
X313470112Y-261686128D02*
X313827255Y-261686128D01*
X313827255Y-261686128D02*
X314041541Y-261757557D01*
X314684397Y-263186128D02*
X314684397Y-262186128D01*
X314684397Y-261686128D02*
X314612969Y-261757557D01*
X314612969Y-261757557D02*
X314684397Y-261828985D01*
X314684397Y-261828985D02*
X314755826Y-261757557D01*
X314755826Y-261757557D02*
X314684397Y-261686128D01*
X314684397Y-261686128D02*
X314684397Y-261828985D01*
X315255826Y-262186128D02*
X316041541Y-262186128D01*
X316041541Y-262186128D02*
X315255826Y-263186128D01*
X315255826Y-263186128D02*
X316041541Y-263186128D01*
X317184398Y-263114700D02*
X317041541Y-263186128D01*
X317041541Y-263186128D02*
X316755827Y-263186128D01*
X316755827Y-263186128D02*
X316612969Y-263114700D01*
X316612969Y-263114700D02*
X316541541Y-262971842D01*
X316541541Y-262971842D02*
X316541541Y-262400414D01*
X316541541Y-262400414D02*
X316612969Y-262257557D01*
X316612969Y-262257557D02*
X316755827Y-262186128D01*
X316755827Y-262186128D02*
X317041541Y-262186128D01*
X317041541Y-262186128D02*
X317184398Y-262257557D01*
X317184398Y-262257557D02*
X317255827Y-262400414D01*
X317255827Y-262400414D02*
X317255827Y-262543271D01*
X317255827Y-262543271D02*
X316541541Y-262686128D01*
X317898683Y-263043271D02*
X317970112Y-263114700D01*
X317970112Y-263114700D02*
X317898683Y-263186128D01*
X317898683Y-263186128D02*
X317827255Y-263114700D01*
X317827255Y-263114700D02*
X317898683Y-263043271D01*
X317898683Y-263043271D02*
X317898683Y-263186128D01*
X317898683Y-262257557D02*
X317970112Y-262328985D01*
X317970112Y-262328985D02*
X317898683Y-262400414D01*
X317898683Y-262400414D02*
X317827255Y-262328985D01*
X317827255Y-262328985D02*
X317898683Y-262257557D01*
X317898683Y-262257557D02*
X317898683Y-262400414D01*
X319755826Y-261686128D02*
X319755826Y-262900414D01*
X319755826Y-262900414D02*
X319827255Y-263043271D01*
X319827255Y-263043271D02*
X319898684Y-263114700D01*
X319898684Y-263114700D02*
X320041541Y-263186128D01*
X320041541Y-263186128D02*
X320327255Y-263186128D01*
X320327255Y-263186128D02*
X320470112Y-263114700D01*
X320470112Y-263114700D02*
X320541541Y-263043271D01*
X320541541Y-263043271D02*
X320612969Y-262900414D01*
X320612969Y-262900414D02*
X320612969Y-261686128D01*
X321255827Y-263114700D02*
X321470113Y-263186128D01*
X321470113Y-263186128D02*
X321827255Y-263186128D01*
X321827255Y-263186128D02*
X321970113Y-263114700D01*
X321970113Y-263114700D02*
X322041541Y-263043271D01*
X322041541Y-263043271D02*
X322112970Y-262900414D01*
X322112970Y-262900414D02*
X322112970Y-262757557D01*
X322112970Y-262757557D02*
X322041541Y-262614700D01*
X322041541Y-262614700D02*
X321970113Y-262543271D01*
X321970113Y-262543271D02*
X321827255Y-262471842D01*
X321827255Y-262471842D02*
X321541541Y-262400414D01*
X321541541Y-262400414D02*
X321398684Y-262328985D01*
X321398684Y-262328985D02*
X321327255Y-262257557D01*
X321327255Y-262257557D02*
X321255827Y-262114700D01*
X321255827Y-262114700D02*
X321255827Y-261971842D01*
X321255827Y-261971842D02*
X321327255Y-261828985D01*
X321327255Y-261828985D02*
X321398684Y-261757557D01*
X321398684Y-261757557D02*
X321541541Y-261686128D01*
X321541541Y-261686128D02*
X321898684Y-261686128D01*
X321898684Y-261686128D02*
X322112970Y-261757557D01*
X323470112Y-263186128D02*
X322755826Y-263186128D01*
X322755826Y-263186128D02*
X322755826Y-261686128D01*
X324541541Y-263114700D02*
X324398684Y-263186128D01*
X324398684Y-263186128D02*
X324112970Y-263186128D01*
X324112970Y-263186128D02*
X323970112Y-263114700D01*
X323970112Y-263114700D02*
X323898684Y-262971842D01*
X323898684Y-262971842D02*
X323898684Y-262400414D01*
X323898684Y-262400414D02*
X323970112Y-262257557D01*
X323970112Y-262257557D02*
X324112970Y-262186128D01*
X324112970Y-262186128D02*
X324398684Y-262186128D01*
X324398684Y-262186128D02*
X324541541Y-262257557D01*
X324541541Y-262257557D02*
X324612970Y-262400414D01*
X324612970Y-262400414D02*
X324612970Y-262543271D01*
X324612970Y-262543271D02*
X323898684Y-262686128D01*
X325898684Y-263186128D02*
X325898684Y-261686128D01*
X325898684Y-263114700D02*
X325755826Y-263186128D01*
X325755826Y-263186128D02*
X325470112Y-263186128D01*
X325470112Y-263186128D02*
X325327255Y-263114700D01*
X325327255Y-263114700D02*
X325255826Y-263043271D01*
X325255826Y-263043271D02*
X325184398Y-262900414D01*
X325184398Y-262900414D02*
X325184398Y-262471842D01*
X325184398Y-262471842D02*
X325255826Y-262328985D01*
X325255826Y-262328985D02*
X325327255Y-262257557D01*
X325327255Y-262257557D02*
X325470112Y-262186128D01*
X325470112Y-262186128D02*
X325755826Y-262186128D01*
X325755826Y-262186128D02*
X325898684Y-262257557D01*
X327255827Y-262186128D02*
X327255827Y-263400414D01*
X327255827Y-263400414D02*
X327184398Y-263543271D01*
X327184398Y-263543271D02*
X327112969Y-263614700D01*
X327112969Y-263614700D02*
X326970112Y-263686128D01*
X326970112Y-263686128D02*
X326755827Y-263686128D01*
X326755827Y-263686128D02*
X326612969Y-263614700D01*
X327255827Y-263114700D02*
X327112969Y-263186128D01*
X327112969Y-263186128D02*
X326827255Y-263186128D01*
X326827255Y-263186128D02*
X326684398Y-263114700D01*
X326684398Y-263114700D02*
X326612969Y-263043271D01*
X326612969Y-263043271D02*
X326541541Y-262900414D01*
X326541541Y-262900414D02*
X326541541Y-262471842D01*
X326541541Y-262471842D02*
X326612969Y-262328985D01*
X326612969Y-262328985D02*
X326684398Y-262257557D01*
X326684398Y-262257557D02*
X326827255Y-262186128D01*
X326827255Y-262186128D02*
X327112969Y-262186128D01*
X327112969Y-262186128D02*
X327255827Y-262257557D01*
X328541541Y-263114700D02*
X328398684Y-263186128D01*
X328398684Y-263186128D02*
X328112970Y-263186128D01*
X328112970Y-263186128D02*
X327970112Y-263114700D01*
X327970112Y-263114700D02*
X327898684Y-262971842D01*
X327898684Y-262971842D02*
X327898684Y-262400414D01*
X327898684Y-262400414D02*
X327970112Y-262257557D01*
X327970112Y-262257557D02*
X328112970Y-262186128D01*
X328112970Y-262186128D02*
X328398684Y-262186128D01*
X328398684Y-262186128D02*
X328541541Y-262257557D01*
X328541541Y-262257557D02*
X328612970Y-262400414D01*
X328612970Y-262400414D02*
X328612970Y-262543271D01*
X328612970Y-262543271D02*
X327898684Y-262686128D01*
X329255826Y-263186128D02*
X329255826Y-262186128D01*
X329255826Y-262471842D02*
X329327255Y-262328985D01*
X329327255Y-262328985D02*
X329398684Y-262257557D01*
X329398684Y-262257557D02*
X329541541Y-262186128D01*
X329541541Y-262186128D02*
X329684398Y-262186128D01*
D10*
D11*
X398255826Y-265986128D02*
X398255826Y-264486128D01*
X399612970Y-265986128D02*
X399612970Y-264486128D01*
X399612970Y-265914700D02*
X399470112Y-265986128D01*
X399470112Y-265986128D02*
X399184398Y-265986128D01*
X399184398Y-265986128D02*
X399041541Y-265914700D01*
X399041541Y-265914700D02*
X398970112Y-265843271D01*
X398970112Y-265843271D02*
X398898684Y-265700414D01*
X398898684Y-265700414D02*
X398898684Y-265271842D01*
X398898684Y-265271842D02*
X398970112Y-265128985D01*
X398970112Y-265128985D02*
X399041541Y-265057557D01*
X399041541Y-265057557D02*
X399184398Y-264986128D01*
X399184398Y-264986128D02*
X399470112Y-264986128D01*
X399470112Y-264986128D02*
X399612970Y-265057557D01*
X400327255Y-265843271D02*
X400398684Y-265914700D01*
X400398684Y-265914700D02*
X400327255Y-265986128D01*
X400327255Y-265986128D02*
X400255827Y-265914700D01*
X400255827Y-265914700D02*
X400327255Y-265843271D01*
X400327255Y-265843271D02*
X400327255Y-265986128D01*
X400327255Y-265057557D02*
X400398684Y-265128985D01*
X400398684Y-265128985D02*
X400327255Y-265200414D01*
X400327255Y-265200414D02*
X400255827Y-265128985D01*
X400255827Y-265128985D02*
X400327255Y-265057557D01*
X400327255Y-265057557D02*
X400327255Y-265200414D01*
X402970113Y-265986128D02*
X402112970Y-265986128D01*
X402541541Y-265986128D02*
X402541541Y-264486128D01*
X402541541Y-264486128D02*
X402398684Y-264700414D01*
X402398684Y-264700414D02*
X402255827Y-264843271D01*
X402255827Y-264843271D02*
X402112970Y-264914700D01*
X404684398Y-264414700D02*
X403398684Y-266343271D01*
X405970113Y-265986128D02*
X405112970Y-265986128D01*
X405541541Y-265986128D02*
X405541541Y-264486128D01*
X405541541Y-264486128D02*
X405398684Y-264700414D01*
X405398684Y-264700414D02*
X405255827Y-264843271D01*
X405255827Y-264843271D02*
X405112970Y-264914700D01*
D10*
D11*
X311800000Y-256900000D02*
X419800000Y-256900000D01*
D10*
D13*
X313491728Y-257604438D02*
X314634585Y-257604438D01*
X313813157Y-259604438D02*
X314063157Y-257604438D01*
X315051252Y-259604438D02*
X315217919Y-258271104D01*
X315301252Y-257604438D02*
X315194109Y-257699676D01*
X315194109Y-257699676D02*
X315277443Y-257794914D01*
X315277443Y-257794914D02*
X315384586Y-257699676D01*
X315384586Y-257699676D02*
X315301252Y-257604438D01*
X315301252Y-257604438D02*
X315277443Y-257794914D01*
X315884586Y-258271104D02*
X316646490Y-258271104D01*
X316253633Y-257604438D02*
X316039348Y-259318723D01*
X316039348Y-259318723D02*
X316110776Y-259509200D01*
X316110776Y-259509200D02*
X316289348Y-259604438D01*
X316289348Y-259604438D02*
X316479824Y-259604438D01*
X317432205Y-259604438D02*
X317253633Y-259509200D01*
X317253633Y-259509200D02*
X317182205Y-259318723D01*
X317182205Y-259318723D02*
X317396490Y-257604438D01*
X318967919Y-259509200D02*
X318765538Y-259604438D01*
X318765538Y-259604438D02*
X318384585Y-259604438D01*
X318384585Y-259604438D02*
X318206014Y-259509200D01*
X318206014Y-259509200D02*
X318134585Y-259318723D01*
X318134585Y-259318723D02*
X318229824Y-258556819D01*
X318229824Y-258556819D02*
X318348871Y-258366342D01*
X318348871Y-258366342D02*
X318551252Y-258271104D01*
X318551252Y-258271104D02*
X318932204Y-258271104D01*
X318932204Y-258271104D02*
X319110776Y-258366342D01*
X319110776Y-258366342D02*
X319182204Y-258556819D01*
X319182204Y-258556819D02*
X319158395Y-258747295D01*
X319158395Y-258747295D02*
X318182204Y-258937771D01*
X319932205Y-259413961D02*
X320015538Y-259509200D01*
X320015538Y-259509200D02*
X319908395Y-259604438D01*
X319908395Y-259604438D02*
X319825062Y-259509200D01*
X319825062Y-259509200D02*
X319932205Y-259413961D01*
X319932205Y-259413961D02*
X319908395Y-259604438D01*
X320063157Y-258366342D02*
X320146490Y-258461580D01*
X320146490Y-258461580D02*
X320039348Y-258556819D01*
X320039348Y-258556819D02*
X319956014Y-258461580D01*
X319956014Y-258461580D02*
X320063157Y-258366342D01*
X320063157Y-258366342D02*
X320039348Y-258556819D01*
X322384586Y-259604438D02*
X322634586Y-257604438D01*
X322634586Y-257604438D02*
X323396491Y-257604438D01*
X323396491Y-257604438D02*
X323575062Y-257699676D01*
X323575062Y-257699676D02*
X323658396Y-257794914D01*
X323658396Y-257794914D02*
X323729824Y-257985390D01*
X323729824Y-257985390D02*
X323694110Y-258271104D01*
X323694110Y-258271104D02*
X323575062Y-258461580D01*
X323575062Y-258461580D02*
X323467920Y-258556819D01*
X323467920Y-258556819D02*
X323265539Y-258652057D01*
X323265539Y-258652057D02*
X322503634Y-258652057D01*
X325241729Y-259604438D02*
X325372681Y-258556819D01*
X325372681Y-258556819D02*
X325301253Y-258366342D01*
X325301253Y-258366342D02*
X325122681Y-258271104D01*
X325122681Y-258271104D02*
X324741729Y-258271104D01*
X324741729Y-258271104D02*
X324539348Y-258366342D01*
X325253634Y-259509200D02*
X325051253Y-259604438D01*
X325051253Y-259604438D02*
X324575062Y-259604438D01*
X324575062Y-259604438D02*
X324396491Y-259509200D01*
X324396491Y-259509200D02*
X324325062Y-259318723D01*
X324325062Y-259318723D02*
X324348872Y-259128247D01*
X324348872Y-259128247D02*
X324467920Y-258937771D01*
X324467920Y-258937771D02*
X324670301Y-258842533D01*
X324670301Y-258842533D02*
X325146491Y-258842533D01*
X325146491Y-258842533D02*
X325348872Y-258747295D01*
X327063158Y-259509200D02*
X326860777Y-259604438D01*
X326860777Y-259604438D02*
X326479825Y-259604438D01*
X326479825Y-259604438D02*
X326301253Y-259509200D01*
X326301253Y-259509200D02*
X326217920Y-259413961D01*
X326217920Y-259413961D02*
X326146491Y-259223485D01*
X326146491Y-259223485D02*
X326217920Y-258652057D01*
X326217920Y-258652057D02*
X326336967Y-258461580D01*
X326336967Y-258461580D02*
X326444110Y-258366342D01*
X326444110Y-258366342D02*
X326646491Y-258271104D01*
X326646491Y-258271104D02*
X327027444Y-258271104D01*
X327027444Y-258271104D02*
X327206015Y-258366342D01*
X327825063Y-259509200D02*
X328098872Y-259604438D01*
X328098872Y-259604438D02*
X328575063Y-259604438D01*
X328575063Y-259604438D02*
X328777444Y-259509200D01*
X328777444Y-259509200D02*
X328884587Y-259413961D01*
X328884587Y-259413961D02*
X329003634Y-259223485D01*
X329003634Y-259223485D02*
X329027444Y-259033009D01*
X329027444Y-259033009D02*
X328956015Y-258842533D01*
X328956015Y-258842533D02*
X328872682Y-258747295D01*
X328872682Y-258747295D02*
X328694111Y-258652057D01*
X328694111Y-258652057D02*
X328325063Y-258556819D01*
X328325063Y-258556819D02*
X328146491Y-258461580D01*
X328146491Y-258461580D02*
X328063158Y-258366342D01*
X328063158Y-258366342D02*
X327991730Y-258175866D01*
X327991730Y-258175866D02*
X328015539Y-257985390D01*
X328015539Y-257985390D02*
X328134587Y-257794914D01*
X328134587Y-257794914D02*
X328241730Y-257699676D01*
X328241730Y-257699676D02*
X328444111Y-257604438D01*
X328444111Y-257604438D02*
X328920301Y-257604438D01*
X328920301Y-257604438D02*
X329194111Y-257699676D01*
X330670301Y-259604438D02*
X330801253Y-258556819D01*
X330801253Y-258556819D02*
X330729825Y-258366342D01*
X330729825Y-258366342D02*
X330551253Y-258271104D01*
X330551253Y-258271104D02*
X330170301Y-258271104D01*
X330170301Y-258271104D02*
X329967920Y-258366342D01*
X330682206Y-259509200D02*
X330479825Y-259604438D01*
X330479825Y-259604438D02*
X330003634Y-259604438D01*
X330003634Y-259604438D02*
X329825063Y-259509200D01*
X329825063Y-259509200D02*
X329753634Y-259318723D01*
X329753634Y-259318723D02*
X329777444Y-259128247D01*
X329777444Y-259128247D02*
X329896492Y-258937771D01*
X329896492Y-258937771D02*
X330098873Y-258842533D01*
X330098873Y-258842533D02*
X330575063Y-258842533D01*
X330575063Y-258842533D02*
X330777444Y-258747295D01*
X331503635Y-258271104D02*
X332265539Y-258271104D01*
X331872682Y-257604438D02*
X331658397Y-259318723D01*
X331658397Y-259318723D02*
X331729825Y-259509200D01*
X331729825Y-259509200D02*
X331908397Y-259604438D01*
X331908397Y-259604438D02*
X332098873Y-259604438D01*
X334265540Y-259033009D02*
X335217921Y-259033009D01*
X334003635Y-259604438D02*
X334920302Y-257604438D01*
X334920302Y-257604438D02*
X335336968Y-259604438D01*
X336289350Y-259604438D02*
X336110778Y-259509200D01*
X336110778Y-259509200D02*
X336039350Y-259318723D01*
X336039350Y-259318723D02*
X336253635Y-257604438D01*
X337217921Y-258271104D02*
X336967921Y-260271104D01*
X337206016Y-258366342D02*
X337408397Y-258271104D01*
X337408397Y-258271104D02*
X337789349Y-258271104D01*
X337789349Y-258271104D02*
X337967921Y-258366342D01*
X337967921Y-258366342D02*
X338051254Y-258461580D01*
X338051254Y-258461580D02*
X338122683Y-258652057D01*
X338122683Y-258652057D02*
X338051254Y-259223485D01*
X338051254Y-259223485D02*
X337932207Y-259413961D01*
X337932207Y-259413961D02*
X337825064Y-259509200D01*
X337825064Y-259509200D02*
X337622683Y-259604438D01*
X337622683Y-259604438D02*
X337241730Y-259604438D01*
X337241730Y-259604438D02*
X337063159Y-259509200D01*
X338860778Y-259604438D02*
X339110778Y-257604438D01*
X339717921Y-259604438D02*
X339848873Y-258556819D01*
X339848873Y-258556819D02*
X339777445Y-258366342D01*
X339777445Y-258366342D02*
X339598873Y-258271104D01*
X339598873Y-258271104D02*
X339313159Y-258271104D01*
X339313159Y-258271104D02*
X339110778Y-258366342D01*
X339110778Y-258366342D02*
X339003635Y-258461580D01*
X341527445Y-259604438D02*
X341658397Y-258556819D01*
X341658397Y-258556819D02*
X341586969Y-258366342D01*
X341586969Y-258366342D02*
X341408397Y-258271104D01*
X341408397Y-258271104D02*
X341027445Y-258271104D01*
X341027445Y-258271104D02*
X340825064Y-258366342D01*
X341539350Y-259509200D02*
X341336969Y-259604438D01*
X341336969Y-259604438D02*
X340860778Y-259604438D01*
X340860778Y-259604438D02*
X340682207Y-259509200D01*
X340682207Y-259509200D02*
X340610778Y-259318723D01*
X340610778Y-259318723D02*
X340634588Y-259128247D01*
X340634588Y-259128247D02*
X340753636Y-258937771D01*
X340753636Y-258937771D02*
X340956017Y-258842533D01*
X340956017Y-258842533D02*
X341432207Y-258842533D01*
X341432207Y-258842533D02*
X341634588Y-258747295D01*
X344801255Y-258556819D02*
X345075065Y-258652057D01*
X345075065Y-258652057D02*
X345158398Y-258747295D01*
X345158398Y-258747295D02*
X345229827Y-258937771D01*
X345229827Y-258937771D02*
X345194112Y-259223485D01*
X345194112Y-259223485D02*
X345075065Y-259413961D01*
X345075065Y-259413961D02*
X344967922Y-259509200D01*
X344967922Y-259509200D02*
X344765541Y-259604438D01*
X344765541Y-259604438D02*
X344003636Y-259604438D01*
X344003636Y-259604438D02*
X344253636Y-257604438D01*
X344253636Y-257604438D02*
X344920303Y-257604438D01*
X344920303Y-257604438D02*
X345098874Y-257699676D01*
X345098874Y-257699676D02*
X345182208Y-257794914D01*
X345182208Y-257794914D02*
X345253636Y-257985390D01*
X345253636Y-257985390D02*
X345229827Y-258175866D01*
X345229827Y-258175866D02*
X345110779Y-258366342D01*
X345110779Y-258366342D02*
X345003636Y-258461580D01*
X345003636Y-258461580D02*
X344801255Y-258556819D01*
X344801255Y-258556819D02*
X344134589Y-258556819D01*
X346289351Y-259604438D02*
X346110779Y-259509200D01*
X346110779Y-259509200D02*
X346027446Y-259413961D01*
X346027446Y-259413961D02*
X345956017Y-259223485D01*
X345956017Y-259223485D02*
X346027446Y-258652057D01*
X346027446Y-258652057D02*
X346146493Y-258461580D01*
X346146493Y-258461580D02*
X346253636Y-258366342D01*
X346253636Y-258366342D02*
X346456017Y-258271104D01*
X346456017Y-258271104D02*
X346741731Y-258271104D01*
X346741731Y-258271104D02*
X346920303Y-258366342D01*
X346920303Y-258366342D02*
X347003636Y-258461580D01*
X347003636Y-258461580D02*
X347075065Y-258652057D01*
X347075065Y-258652057D02*
X347003636Y-259223485D01*
X347003636Y-259223485D02*
X346884589Y-259413961D01*
X346884589Y-259413961D02*
X346777446Y-259509200D01*
X346777446Y-259509200D02*
X346575065Y-259604438D01*
X346575065Y-259604438D02*
X346289351Y-259604438D01*
X348670303Y-259604438D02*
X348801255Y-258556819D01*
X348801255Y-258556819D02*
X348729827Y-258366342D01*
X348729827Y-258366342D02*
X348551255Y-258271104D01*
X348551255Y-258271104D02*
X348170303Y-258271104D01*
X348170303Y-258271104D02*
X347967922Y-258366342D01*
X348682208Y-259509200D02*
X348479827Y-259604438D01*
X348479827Y-259604438D02*
X348003636Y-259604438D01*
X348003636Y-259604438D02*
X347825065Y-259509200D01*
X347825065Y-259509200D02*
X347753636Y-259318723D01*
X347753636Y-259318723D02*
X347777446Y-259128247D01*
X347777446Y-259128247D02*
X347896494Y-258937771D01*
X347896494Y-258937771D02*
X348098875Y-258842533D01*
X348098875Y-258842533D02*
X348575065Y-258842533D01*
X348575065Y-258842533D02*
X348777446Y-258747295D01*
X349622684Y-259604438D02*
X349789351Y-258271104D01*
X349741732Y-258652057D02*
X349860779Y-258461580D01*
X349860779Y-258461580D02*
X349967922Y-258366342D01*
X349967922Y-258366342D02*
X350170303Y-258271104D01*
X350170303Y-258271104D02*
X350360779Y-258271104D01*
X351717922Y-259604438D02*
X351967922Y-257604438D01*
X351729827Y-259509200D02*
X351527446Y-259604438D01*
X351527446Y-259604438D02*
X351146494Y-259604438D01*
X351146494Y-259604438D02*
X350967922Y-259509200D01*
X350967922Y-259509200D02*
X350884589Y-259413961D01*
X350884589Y-259413961D02*
X350813160Y-259223485D01*
X350813160Y-259223485D02*
X350884589Y-258652057D01*
X350884589Y-258652057D02*
X351003636Y-258461580D01*
X351003636Y-258461580D02*
X351110779Y-258366342D01*
X351110779Y-258366342D02*
X351313160Y-258271104D01*
X351313160Y-258271104D02*
X351694113Y-258271104D01*
X351694113Y-258271104D02*
X351872684Y-258366342D01*
D10*
D11*
X313755826Y-255000414D02*
X313255826Y-255000414D01*
X313255826Y-255786128D02*
X313255826Y-254286128D01*
X313255826Y-254286128D02*
X313970112Y-254286128D01*
X314541540Y-255786128D02*
X314541540Y-254786128D01*
X314541540Y-254286128D02*
X314470112Y-254357557D01*
X314470112Y-254357557D02*
X314541540Y-254428985D01*
X314541540Y-254428985D02*
X314612969Y-254357557D01*
X314612969Y-254357557D02*
X314541540Y-254286128D01*
X314541540Y-254286128D02*
X314541540Y-254428985D01*
X315470112Y-255786128D02*
X315327255Y-255714700D01*
X315327255Y-255714700D02*
X315255826Y-255571842D01*
X315255826Y-255571842D02*
X315255826Y-254286128D01*
X316612969Y-255714700D02*
X316470112Y-255786128D01*
X316470112Y-255786128D02*
X316184398Y-255786128D01*
X316184398Y-255786128D02*
X316041540Y-255714700D01*
X316041540Y-255714700D02*
X315970112Y-255571842D01*
X315970112Y-255571842D02*
X315970112Y-255000414D01*
X315970112Y-255000414D02*
X316041540Y-254857557D01*
X316041540Y-254857557D02*
X316184398Y-254786128D01*
X316184398Y-254786128D02*
X316470112Y-254786128D01*
X316470112Y-254786128D02*
X316612969Y-254857557D01*
X316612969Y-254857557D02*
X316684398Y-255000414D01*
X316684398Y-255000414D02*
X316684398Y-255143271D01*
X316684398Y-255143271D02*
X315970112Y-255286128D01*
X317327254Y-255643271D02*
X317398683Y-255714700D01*
X317398683Y-255714700D02*
X317327254Y-255786128D01*
X317327254Y-255786128D02*
X317255826Y-255714700D01*
X317255826Y-255714700D02*
X317327254Y-255643271D01*
X317327254Y-255643271D02*
X317327254Y-255786128D01*
X317327254Y-254857557D02*
X317398683Y-254928985D01*
X317398683Y-254928985D02*
X317327254Y-255000414D01*
X317327254Y-255000414D02*
X317255826Y-254928985D01*
X317255826Y-254928985D02*
X317327254Y-254857557D01*
X317327254Y-254857557D02*
X317327254Y-255000414D01*
X319184397Y-255786128D02*
X319184397Y-254286128D01*
X319184397Y-254286128D02*
X319755826Y-254286128D01*
X319755826Y-254286128D02*
X319898683Y-254357557D01*
X319898683Y-254357557D02*
X319970112Y-254428985D01*
X319970112Y-254428985D02*
X320041540Y-254571842D01*
X320041540Y-254571842D02*
X320041540Y-254786128D01*
X320041540Y-254786128D02*
X319970112Y-254928985D01*
X319970112Y-254928985D02*
X319898683Y-255000414D01*
X319898683Y-255000414D02*
X319755826Y-255071842D01*
X319755826Y-255071842D02*
X319184397Y-255071842D01*
X321327255Y-255786128D02*
X321327255Y-255000414D01*
X321327255Y-255000414D02*
X321255826Y-254857557D01*
X321255826Y-254857557D02*
X321112969Y-254786128D01*
X321112969Y-254786128D02*
X320827255Y-254786128D01*
X320827255Y-254786128D02*
X320684397Y-254857557D01*
X321327255Y-255714700D02*
X321184397Y-255786128D01*
X321184397Y-255786128D02*
X320827255Y-255786128D01*
X320827255Y-255786128D02*
X320684397Y-255714700D01*
X320684397Y-255714700D02*
X320612969Y-255571842D01*
X320612969Y-255571842D02*
X320612969Y-255428985D01*
X320612969Y-255428985D02*
X320684397Y-255286128D01*
X320684397Y-255286128D02*
X320827255Y-255214700D01*
X320827255Y-255214700D02*
X321184397Y-255214700D01*
X321184397Y-255214700D02*
X321327255Y-255143271D01*
X322684398Y-255714700D02*
X322541540Y-255786128D01*
X322541540Y-255786128D02*
X322255826Y-255786128D01*
X322255826Y-255786128D02*
X322112969Y-255714700D01*
X322112969Y-255714700D02*
X322041540Y-255643271D01*
X322041540Y-255643271D02*
X321970112Y-255500414D01*
X321970112Y-255500414D02*
X321970112Y-255071842D01*
X321970112Y-255071842D02*
X322041540Y-254928985D01*
X322041540Y-254928985D02*
X322112969Y-254857557D01*
X322112969Y-254857557D02*
X322255826Y-254786128D01*
X322255826Y-254786128D02*
X322541540Y-254786128D01*
X322541540Y-254786128D02*
X322684398Y-254857557D01*
X323255826Y-255714700D02*
X323470112Y-255786128D01*
X323470112Y-255786128D02*
X323827254Y-255786128D01*
X323827254Y-255786128D02*
X323970112Y-255714700D01*
X323970112Y-255714700D02*
X324041540Y-255643271D01*
X324041540Y-255643271D02*
X324112969Y-255500414D01*
X324112969Y-255500414D02*
X324112969Y-255357557D01*
X324112969Y-255357557D02*
X324041540Y-255214700D01*
X324041540Y-255214700D02*
X323970112Y-255143271D01*
X323970112Y-255143271D02*
X323827254Y-255071842D01*
X323827254Y-255071842D02*
X323541540Y-255000414D01*
X323541540Y-255000414D02*
X323398683Y-254928985D01*
X323398683Y-254928985D02*
X323327254Y-254857557D01*
X323327254Y-254857557D02*
X323255826Y-254714700D01*
X323255826Y-254714700D02*
X323255826Y-254571842D01*
X323255826Y-254571842D02*
X323327254Y-254428985D01*
X323327254Y-254428985D02*
X323398683Y-254357557D01*
X323398683Y-254357557D02*
X323541540Y-254286128D01*
X323541540Y-254286128D02*
X323898683Y-254286128D01*
X323898683Y-254286128D02*
X324112969Y-254357557D01*
X325398683Y-255786128D02*
X325398683Y-255000414D01*
X325398683Y-255000414D02*
X325327254Y-254857557D01*
X325327254Y-254857557D02*
X325184397Y-254786128D01*
X325184397Y-254786128D02*
X324898683Y-254786128D01*
X324898683Y-254786128D02*
X324755825Y-254857557D01*
X325398683Y-255714700D02*
X325255825Y-255786128D01*
X325255825Y-255786128D02*
X324898683Y-255786128D01*
X324898683Y-255786128D02*
X324755825Y-255714700D01*
X324755825Y-255714700D02*
X324684397Y-255571842D01*
X324684397Y-255571842D02*
X324684397Y-255428985D01*
X324684397Y-255428985D02*
X324755825Y-255286128D01*
X324755825Y-255286128D02*
X324898683Y-255214700D01*
X324898683Y-255214700D02*
X325255825Y-255214700D01*
X325255825Y-255214700D02*
X325398683Y-255143271D01*
X325898683Y-254786128D02*
X326470111Y-254786128D01*
X326112968Y-254286128D02*
X326112968Y-255571842D01*
X326112968Y-255571842D02*
X326184397Y-255714700D01*
X326184397Y-255714700D02*
X326327254Y-255786128D01*
X326327254Y-255786128D02*
X326470111Y-255786128D01*
X326612969Y-255928985D02*
X327755826Y-255928985D01*
X328112968Y-255786128D02*
X328112968Y-254286128D01*
X328112968Y-254286128D02*
X328470111Y-254286128D01*
X328470111Y-254286128D02*
X328684397Y-254357557D01*
X328684397Y-254357557D02*
X328827254Y-254500414D01*
X328827254Y-254500414D02*
X328898683Y-254643271D01*
X328898683Y-254643271D02*
X328970111Y-254928985D01*
X328970111Y-254928985D02*
X328970111Y-255143271D01*
X328970111Y-255143271D02*
X328898683Y-255428985D01*
X328898683Y-255428985D02*
X328827254Y-255571842D01*
X328827254Y-255571842D02*
X328684397Y-255714700D01*
X328684397Y-255714700D02*
X328470111Y-255786128D01*
X328470111Y-255786128D02*
X328112968Y-255786128D01*
X330184397Y-255714700D02*
X330041540Y-255786128D01*
X330041540Y-255786128D02*
X329755826Y-255786128D01*
X329755826Y-255786128D02*
X329612968Y-255714700D01*
X329612968Y-255714700D02*
X329541540Y-255571842D01*
X329541540Y-255571842D02*
X329541540Y-255000414D01*
X329541540Y-255000414D02*
X329612968Y-254857557D01*
X329612968Y-254857557D02*
X329755826Y-254786128D01*
X329755826Y-254786128D02*
X330041540Y-254786128D01*
X330041540Y-254786128D02*
X330184397Y-254857557D01*
X330184397Y-254857557D02*
X330255826Y-255000414D01*
X330255826Y-255000414D02*
X330255826Y-255143271D01*
X330255826Y-255143271D02*
X329541540Y-255286128D01*
X330755825Y-254786128D02*
X331112968Y-255786128D01*
X331112968Y-255786128D02*
X331470111Y-254786128D01*
X331684397Y-255928985D02*
X332827254Y-255928985D01*
X334041539Y-255786128D02*
X333541539Y-255071842D01*
X333184396Y-255786128D02*
X333184396Y-254286128D01*
X333184396Y-254286128D02*
X333755825Y-254286128D01*
X333755825Y-254286128D02*
X333898682Y-254357557D01*
X333898682Y-254357557D02*
X333970111Y-254428985D01*
X333970111Y-254428985D02*
X334041539Y-254571842D01*
X334041539Y-254571842D02*
X334041539Y-254786128D01*
X334041539Y-254786128D02*
X333970111Y-254928985D01*
X333970111Y-254928985D02*
X333898682Y-255000414D01*
X333898682Y-255000414D02*
X333755825Y-255071842D01*
X333755825Y-255071842D02*
X333184396Y-255071842D01*
X335255825Y-255714700D02*
X335112968Y-255786128D01*
X335112968Y-255786128D02*
X334827254Y-255786128D01*
X334827254Y-255786128D02*
X334684396Y-255714700D01*
X334684396Y-255714700D02*
X334612968Y-255571842D01*
X334612968Y-255571842D02*
X334612968Y-255000414D01*
X334612968Y-255000414D02*
X334684396Y-254857557D01*
X334684396Y-254857557D02*
X334827254Y-254786128D01*
X334827254Y-254786128D02*
X335112968Y-254786128D01*
X335112968Y-254786128D02*
X335255825Y-254857557D01*
X335255825Y-254857557D02*
X335327254Y-255000414D01*
X335327254Y-255000414D02*
X335327254Y-255143271D01*
X335327254Y-255143271D02*
X334612968Y-255286128D01*
X335827253Y-254786128D02*
X336184396Y-255786128D01*
X336184396Y-255786128D02*
X336541539Y-254786128D01*
X337970110Y-255643271D02*
X337898682Y-255714700D01*
X337898682Y-255714700D02*
X337684396Y-255786128D01*
X337684396Y-255786128D02*
X337541539Y-255786128D01*
X337541539Y-255786128D02*
X337327253Y-255714700D01*
X337327253Y-255714700D02*
X337184396Y-255571842D01*
X337184396Y-255571842D02*
X337112967Y-255428985D01*
X337112967Y-255428985D02*
X337041539Y-255143271D01*
X337041539Y-255143271D02*
X337041539Y-254928985D01*
X337041539Y-254928985D02*
X337112967Y-254643271D01*
X337112967Y-254643271D02*
X337184396Y-254500414D01*
X337184396Y-254500414D02*
X337327253Y-254357557D01*
X337327253Y-254357557D02*
X337541539Y-254286128D01*
X337541539Y-254286128D02*
X337684396Y-254286128D01*
X337684396Y-254286128D02*
X337898682Y-254357557D01*
X337898682Y-254357557D02*
X337970110Y-254428985D01*
X338255825Y-255928985D02*
X339398682Y-255928985D01*
X339684396Y-254428985D02*
X339755824Y-254357557D01*
X339755824Y-254357557D02*
X339898682Y-254286128D01*
X339898682Y-254286128D02*
X340255824Y-254286128D01*
X340255824Y-254286128D02*
X340398682Y-254357557D01*
X340398682Y-254357557D02*
X340470110Y-254428985D01*
X340470110Y-254428985D02*
X340541539Y-254571842D01*
X340541539Y-254571842D02*
X340541539Y-254714700D01*
X340541539Y-254714700D02*
X340470110Y-254928985D01*
X340470110Y-254928985D02*
X339612967Y-255786128D01*
X339612967Y-255786128D02*
X340541539Y-255786128D01*
X341041538Y-254286128D02*
X341970110Y-254286128D01*
X341970110Y-254286128D02*
X341470110Y-254857557D01*
X341470110Y-254857557D02*
X341684395Y-254857557D01*
X341684395Y-254857557D02*
X341827253Y-254928985D01*
X341827253Y-254928985D02*
X341898681Y-255000414D01*
X341898681Y-255000414D02*
X341970110Y-255143271D01*
X341970110Y-255143271D02*
X341970110Y-255500414D01*
X341970110Y-255500414D02*
X341898681Y-255643271D01*
X341898681Y-255643271D02*
X341827253Y-255714700D01*
X341827253Y-255714700D02*
X341684395Y-255786128D01*
X341684395Y-255786128D02*
X341255824Y-255786128D01*
X341255824Y-255786128D02*
X341112967Y-255714700D01*
X341112967Y-255714700D02*
X341041538Y-255643271D01*
X343398681Y-255786128D02*
X342541538Y-255786128D01*
X342970109Y-255786128D02*
X342970109Y-254286128D01*
X342970109Y-254286128D02*
X342827252Y-254500414D01*
X342827252Y-254500414D02*
X342684395Y-254643271D01*
X342684395Y-254643271D02*
X342541538Y-254714700D01*
X344327252Y-254286128D02*
X344470109Y-254286128D01*
X344470109Y-254286128D02*
X344612966Y-254357557D01*
X344612966Y-254357557D02*
X344684395Y-254428985D01*
X344684395Y-254428985D02*
X344755823Y-254571842D01*
X344755823Y-254571842D02*
X344827252Y-254857557D01*
X344827252Y-254857557D02*
X344827252Y-255214700D01*
X344827252Y-255214700D02*
X344755823Y-255500414D01*
X344755823Y-255500414D02*
X344684395Y-255643271D01*
X344684395Y-255643271D02*
X344612966Y-255714700D01*
X344612966Y-255714700D02*
X344470109Y-255786128D01*
X344470109Y-255786128D02*
X344327252Y-255786128D01*
X344327252Y-255786128D02*
X344184395Y-255714700D01*
X344184395Y-255714700D02*
X344112966Y-255643271D01*
X344112966Y-255643271D02*
X344041537Y-255500414D01*
X344041537Y-255500414D02*
X343970109Y-255214700D01*
X343970109Y-255214700D02*
X343970109Y-254857557D01*
X343970109Y-254857557D02*
X344041537Y-254571842D01*
X344041537Y-254571842D02*
X344112966Y-254428985D01*
X344112966Y-254428985D02*
X344184395Y-254357557D01*
X344184395Y-254357557D02*
X344327252Y-254286128D01*
X346255823Y-255786128D02*
X345398680Y-255786128D01*
X345827251Y-255786128D02*
X345827251Y-254286128D01*
X345827251Y-254286128D02*
X345684394Y-254500414D01*
X345684394Y-254500414D02*
X345541537Y-254643271D01*
X345541537Y-254643271D02*
X345398680Y-254714700D01*
X347112965Y-254928985D02*
X346970108Y-254857557D01*
X346970108Y-254857557D02*
X346898679Y-254786128D01*
X346898679Y-254786128D02*
X346827251Y-254643271D01*
X346827251Y-254643271D02*
X346827251Y-254571842D01*
X346827251Y-254571842D02*
X346898679Y-254428985D01*
X346898679Y-254428985D02*
X346970108Y-254357557D01*
X346970108Y-254357557D02*
X347112965Y-254286128D01*
X347112965Y-254286128D02*
X347398679Y-254286128D01*
X347398679Y-254286128D02*
X347541537Y-254357557D01*
X347541537Y-254357557D02*
X347612965Y-254428985D01*
X347612965Y-254428985D02*
X347684394Y-254571842D01*
X347684394Y-254571842D02*
X347684394Y-254643271D01*
X347684394Y-254643271D02*
X347612965Y-254786128D01*
X347612965Y-254786128D02*
X347541537Y-254857557D01*
X347541537Y-254857557D02*
X347398679Y-254928985D01*
X347398679Y-254928985D02*
X347112965Y-254928985D01*
X347112965Y-254928985D02*
X346970108Y-255000414D01*
X346970108Y-255000414D02*
X346898679Y-255071842D01*
X346898679Y-255071842D02*
X346827251Y-255214700D01*
X346827251Y-255214700D02*
X346827251Y-255500414D01*
X346827251Y-255500414D02*
X346898679Y-255643271D01*
X346898679Y-255643271D02*
X346970108Y-255714700D01*
X346970108Y-255714700D02*
X347112965Y-255786128D01*
X347112965Y-255786128D02*
X347398679Y-255786128D01*
X347398679Y-255786128D02*
X347541537Y-255714700D01*
X347541537Y-255714700D02*
X347612965Y-255643271D01*
X347612965Y-255643271D02*
X347684394Y-255500414D01*
X347684394Y-255500414D02*
X347684394Y-255214700D01*
X347684394Y-255214700D02*
X347612965Y-255071842D01*
X347612965Y-255071842D02*
X347541537Y-255000414D01*
X347541537Y-255000414D02*
X347398679Y-254928985D01*
X348327250Y-255643271D02*
X348398679Y-255714700D01*
X348398679Y-255714700D02*
X348327250Y-255786128D01*
X348327250Y-255786128D02*
X348255822Y-255714700D01*
X348255822Y-255714700D02*
X348327250Y-255643271D01*
X348327250Y-255643271D02*
X348327250Y-255786128D01*
X349041536Y-255786128D02*
X349041536Y-254286128D01*
X349184394Y-255214700D02*
X349612965Y-255786128D01*
X349612965Y-254786128D02*
X349041536Y-255357557D01*
X350255822Y-255786128D02*
X350255822Y-254786128D01*
X350255822Y-254286128D02*
X350184394Y-254357557D01*
X350184394Y-254357557D02*
X350255822Y-254428985D01*
X350255822Y-254428985D02*
X350327251Y-254357557D01*
X350327251Y-254357557D02*
X350255822Y-254286128D01*
X350255822Y-254286128D02*
X350255822Y-254428985D01*
X351612966Y-255714700D02*
X351470108Y-255786128D01*
X351470108Y-255786128D02*
X351184394Y-255786128D01*
X351184394Y-255786128D02*
X351041537Y-255714700D01*
X351041537Y-255714700D02*
X350970108Y-255643271D01*
X350970108Y-255643271D02*
X350898680Y-255500414D01*
X350898680Y-255500414D02*
X350898680Y-255071842D01*
X350898680Y-255071842D02*
X350970108Y-254928985D01*
X350970108Y-254928985D02*
X351041537Y-254857557D01*
X351041537Y-254857557D02*
X351184394Y-254786128D01*
X351184394Y-254786128D02*
X351470108Y-254786128D01*
X351470108Y-254786128D02*
X351612966Y-254857557D01*
X352898680Y-255786128D02*
X352898680Y-255000414D01*
X352898680Y-255000414D02*
X352827251Y-254857557D01*
X352827251Y-254857557D02*
X352684394Y-254786128D01*
X352684394Y-254786128D02*
X352398680Y-254786128D01*
X352398680Y-254786128D02*
X352255822Y-254857557D01*
X352898680Y-255714700D02*
X352755822Y-255786128D01*
X352755822Y-255786128D02*
X352398680Y-255786128D01*
X352398680Y-255786128D02*
X352255822Y-255714700D01*
X352255822Y-255714700D02*
X352184394Y-255571842D01*
X352184394Y-255571842D02*
X352184394Y-255428985D01*
X352184394Y-255428985D02*
X352255822Y-255286128D01*
X352255822Y-255286128D02*
X352398680Y-255214700D01*
X352398680Y-255214700D02*
X352755822Y-255214700D01*
X352755822Y-255214700D02*
X352898680Y-255143271D01*
X354255823Y-255786128D02*
X354255823Y-254286128D01*
X354255823Y-255714700D02*
X354112965Y-255786128D01*
X354112965Y-255786128D02*
X353827251Y-255786128D01*
X353827251Y-255786128D02*
X353684394Y-255714700D01*
X353684394Y-255714700D02*
X353612965Y-255643271D01*
X353612965Y-255643271D02*
X353541537Y-255500414D01*
X353541537Y-255500414D02*
X353541537Y-255071842D01*
X353541537Y-255071842D02*
X353612965Y-254928985D01*
X353612965Y-254928985D02*
X353684394Y-254857557D01*
X353684394Y-254857557D02*
X353827251Y-254786128D01*
X353827251Y-254786128D02*
X354112965Y-254786128D01*
X354112965Y-254786128D02*
X354255823Y-254857557D01*
X354612966Y-255928985D02*
X355755823Y-255928985D01*
X356112965Y-254786128D02*
X356112965Y-256286128D01*
X356112965Y-254857557D02*
X356255823Y-254786128D01*
X356255823Y-254786128D02*
X356541537Y-254786128D01*
X356541537Y-254786128D02*
X356684394Y-254857557D01*
X356684394Y-254857557D02*
X356755823Y-254928985D01*
X356755823Y-254928985D02*
X356827251Y-255071842D01*
X356827251Y-255071842D02*
X356827251Y-255500414D01*
X356827251Y-255500414D02*
X356755823Y-255643271D01*
X356755823Y-255643271D02*
X356684394Y-255714700D01*
X356684394Y-255714700D02*
X356541537Y-255786128D01*
X356541537Y-255786128D02*
X356255823Y-255786128D01*
X356255823Y-255786128D02*
X356112965Y-255714700D01*
X358112966Y-255714700D02*
X357970108Y-255786128D01*
X357970108Y-255786128D02*
X357684394Y-255786128D01*
X357684394Y-255786128D02*
X357541537Y-255714700D01*
X357541537Y-255714700D02*
X357470108Y-255643271D01*
X357470108Y-255643271D02*
X357398680Y-255500414D01*
X357398680Y-255500414D02*
X357398680Y-255071842D01*
X357398680Y-255071842D02*
X357470108Y-254928985D01*
X357470108Y-254928985D02*
X357541537Y-254857557D01*
X357541537Y-254857557D02*
X357684394Y-254786128D01*
X357684394Y-254786128D02*
X357970108Y-254786128D01*
X357970108Y-254786128D02*
X358112966Y-254857557D01*
X358755822Y-255786128D02*
X358755822Y-254286128D01*
X358755822Y-254857557D02*
X358898680Y-254786128D01*
X358898680Y-254786128D02*
X359184394Y-254786128D01*
X359184394Y-254786128D02*
X359327251Y-254857557D01*
X359327251Y-254857557D02*
X359398680Y-254928985D01*
X359398680Y-254928985D02*
X359470108Y-255071842D01*
X359470108Y-255071842D02*
X359470108Y-255500414D01*
X359470108Y-255500414D02*
X359398680Y-255643271D01*
X359398680Y-255643271D02*
X359327251Y-255714700D01*
X359327251Y-255714700D02*
X359184394Y-255786128D01*
X359184394Y-255786128D02*
X358898680Y-255786128D01*
X358898680Y-255786128D02*
X358755822Y-255714700D01*
D10*
D11*
X311800000Y-250900000D02*
X419800000Y-250900000D01*
D10*
D11*
X313184398Y-253014700D02*
X313398684Y-253086128D01*
X313398684Y-253086128D02*
X313755826Y-253086128D01*
X313755826Y-253086128D02*
X313898684Y-253014700D01*
X313898684Y-253014700D02*
X313970112Y-252943271D01*
X313970112Y-252943271D02*
X314041541Y-252800414D01*
X314041541Y-252800414D02*
X314041541Y-252657557D01*
X314041541Y-252657557D02*
X313970112Y-252514700D01*
X313970112Y-252514700D02*
X313898684Y-252443271D01*
X313898684Y-252443271D02*
X313755826Y-252371842D01*
X313755826Y-252371842D02*
X313470112Y-252300414D01*
X313470112Y-252300414D02*
X313327255Y-252228985D01*
X313327255Y-252228985D02*
X313255826Y-252157557D01*
X313255826Y-252157557D02*
X313184398Y-252014700D01*
X313184398Y-252014700D02*
X313184398Y-251871842D01*
X313184398Y-251871842D02*
X313255826Y-251728985D01*
X313255826Y-251728985D02*
X313327255Y-251657557D01*
X313327255Y-251657557D02*
X313470112Y-251586128D01*
X313470112Y-251586128D02*
X313827255Y-251586128D01*
X313827255Y-251586128D02*
X314041541Y-251657557D01*
X314684397Y-253086128D02*
X314684397Y-251586128D01*
X315327255Y-253086128D02*
X315327255Y-252300414D01*
X315327255Y-252300414D02*
X315255826Y-252157557D01*
X315255826Y-252157557D02*
X315112969Y-252086128D01*
X315112969Y-252086128D02*
X314898683Y-252086128D01*
X314898683Y-252086128D02*
X314755826Y-252157557D01*
X314755826Y-252157557D02*
X314684397Y-252228985D01*
X316612969Y-253014700D02*
X316470112Y-253086128D01*
X316470112Y-253086128D02*
X316184398Y-253086128D01*
X316184398Y-253086128D02*
X316041540Y-253014700D01*
X316041540Y-253014700D02*
X315970112Y-252871842D01*
X315970112Y-252871842D02*
X315970112Y-252300414D01*
X315970112Y-252300414D02*
X316041540Y-252157557D01*
X316041540Y-252157557D02*
X316184398Y-252086128D01*
X316184398Y-252086128D02*
X316470112Y-252086128D01*
X316470112Y-252086128D02*
X316612969Y-252157557D01*
X316612969Y-252157557D02*
X316684398Y-252300414D01*
X316684398Y-252300414D02*
X316684398Y-252443271D01*
X316684398Y-252443271D02*
X315970112Y-252586128D01*
X317898683Y-253014700D02*
X317755826Y-253086128D01*
X317755826Y-253086128D02*
X317470112Y-253086128D01*
X317470112Y-253086128D02*
X317327254Y-253014700D01*
X317327254Y-253014700D02*
X317255826Y-252871842D01*
X317255826Y-252871842D02*
X317255826Y-252300414D01*
X317255826Y-252300414D02*
X317327254Y-252157557D01*
X317327254Y-252157557D02*
X317470112Y-252086128D01*
X317470112Y-252086128D02*
X317755826Y-252086128D01*
X317755826Y-252086128D02*
X317898683Y-252157557D01*
X317898683Y-252157557D02*
X317970112Y-252300414D01*
X317970112Y-252300414D02*
X317970112Y-252443271D01*
X317970112Y-252443271D02*
X317255826Y-252586128D01*
X318398683Y-252086128D02*
X318970111Y-252086128D01*
X318612968Y-251586128D02*
X318612968Y-252871842D01*
X318612968Y-252871842D02*
X318684397Y-253014700D01*
X318684397Y-253014700D02*
X318827254Y-253086128D01*
X318827254Y-253086128D02*
X318970111Y-253086128D01*
X319470111Y-252943271D02*
X319541540Y-253014700D01*
X319541540Y-253014700D02*
X319470111Y-253086128D01*
X319470111Y-253086128D02*
X319398683Y-253014700D01*
X319398683Y-253014700D02*
X319470111Y-252943271D01*
X319470111Y-252943271D02*
X319470111Y-253086128D01*
X319470111Y-252157557D02*
X319541540Y-252228985D01*
X319541540Y-252228985D02*
X319470111Y-252300414D01*
X319470111Y-252300414D02*
X319398683Y-252228985D01*
X319398683Y-252228985D02*
X319470111Y-252157557D01*
X319470111Y-252157557D02*
X319470111Y-252300414D01*
D10*
D12*
D10*
D11*
D10*
D11*
D10*
D11*
D10*
D11*
D10*
D11*
X331800000Y-260900000D02*
X331800000Y-263900000D01*
D10*
D11*
X395800000Y-260900000D02*
X395800000Y-267400000D01*
D14*
X150000000Y-66500000D02*
X158500000Y-58000000D01*
X158500000Y-150000000D02*
X150000000Y-141500000D01*
X158500000Y-150000000D02*
X233500000Y-150000000D01*
X233500000Y-150000000D02*
X242000000Y-141500000D01*
X242000000Y-141500000D02*
X242000000Y-66500000D01*
X150000000Y-66500000D02*
X150000000Y-141500000D01*
X242000000Y-66500000D02*
X233500000Y-58000000D01*
X158500000Y-58000000D02*
X233500000Y-58000000D01*
M02*
