%TF.GenerationSoftware,KiCad,Pcbnew,7.0.7-7.0.7~ubuntu22.04.1*%
%TF.CreationDate,2023-10-26T15:58:48-05:00*%
%TF.ProjectId,PacSat_Dev_RevC_231018,50616353-6174-45f4-9465-765f52657643,0*%
%TF.SameCoordinates,Original*%
%TF.FileFunction,Other,User*%
%FSLAX46Y46*%
G04 Gerber Fmt 4.6, Leading zero omitted, Abs format (unit mm)*
G04 Created by KiCad (PCBNEW 7.0.7-7.0.7~ubuntu22.04.1) date 2023-10-26 15:58:48*
%MOMM*%
%LPD*%
G01*
G04 APERTURE LIST*
%ADD10C,0.100000*%
%ADD11C,0.150000*%
%ADD12C,0.300000*%
%ADD13C,0.400000*%
%ADD14C,0.050000*%
%ADD15C,0.050800*%
G04 APERTURE END LIST*
D10*
D11*
X311800000Y-235400000D02*
X419800000Y-235400000D01*
X419800000Y-267400000D01*
X311800000Y-267400000D01*
X311800000Y-235400000D01*
D10*
D11*
X10000000Y-10000000D02*
X421800000Y-10000000D01*
X421800000Y-269400000D01*
X10000000Y-269400000D01*
X10000000Y-10000000D01*
D10*
D11*
X12000000Y-12000000D02*
X419800000Y-12000000D01*
X419800000Y-267400000D01*
X12000000Y-267400000D01*
X12000000Y-12000000D01*
D10*
D11*
X60000000Y-12000000D02*
X60000000Y-10000000D01*
D10*
D11*
X110000000Y-12000000D02*
X110000000Y-10000000D01*
D10*
D11*
X160000000Y-12000000D02*
X160000000Y-10000000D01*
D10*
D11*
X210000000Y-12000000D02*
X210000000Y-10000000D01*
D10*
D11*
X260000000Y-12000000D02*
X260000000Y-10000000D01*
D10*
D11*
X310000000Y-12000000D02*
X310000000Y-10000000D01*
D10*
D11*
X360000000Y-12000000D02*
X360000000Y-10000000D01*
D10*
D11*
X410000000Y-12000000D02*
X410000000Y-10000000D01*
D10*
D11*
X36089160Y-11593604D02*
X35346303Y-11593604D01*
X35717731Y-11593604D02*
X35717731Y-10293604D01*
X35717731Y-10293604D02*
X35593922Y-10479319D01*
X35593922Y-10479319D02*
X35470112Y-10603128D01*
X35470112Y-10603128D02*
X35346303Y-10665033D01*
D10*
D11*
X85346303Y-10417414D02*
X85408207Y-10355509D01*
X85408207Y-10355509D02*
X85532017Y-10293604D01*
X85532017Y-10293604D02*
X85841541Y-10293604D01*
X85841541Y-10293604D02*
X85965350Y-10355509D01*
X85965350Y-10355509D02*
X86027255Y-10417414D01*
X86027255Y-10417414D02*
X86089160Y-10541223D01*
X86089160Y-10541223D02*
X86089160Y-10665033D01*
X86089160Y-10665033D02*
X86027255Y-10850747D01*
X86027255Y-10850747D02*
X85284398Y-11593604D01*
X85284398Y-11593604D02*
X86089160Y-11593604D01*
D10*
D11*
X135284398Y-10293604D02*
X136089160Y-10293604D01*
X136089160Y-10293604D02*
X135655826Y-10788842D01*
X135655826Y-10788842D02*
X135841541Y-10788842D01*
X135841541Y-10788842D02*
X135965350Y-10850747D01*
X135965350Y-10850747D02*
X136027255Y-10912652D01*
X136027255Y-10912652D02*
X136089160Y-11036461D01*
X136089160Y-11036461D02*
X136089160Y-11345985D01*
X136089160Y-11345985D02*
X136027255Y-11469795D01*
X136027255Y-11469795D02*
X135965350Y-11531700D01*
X135965350Y-11531700D02*
X135841541Y-11593604D01*
X135841541Y-11593604D02*
X135470112Y-11593604D01*
X135470112Y-11593604D02*
X135346303Y-11531700D01*
X135346303Y-11531700D02*
X135284398Y-11469795D01*
D10*
D11*
X185965350Y-10726938D02*
X185965350Y-11593604D01*
X185655826Y-10231700D02*
X185346303Y-11160271D01*
X185346303Y-11160271D02*
X186151064Y-11160271D01*
D10*
D11*
X236027255Y-10293604D02*
X235408207Y-10293604D01*
X235408207Y-10293604D02*
X235346303Y-10912652D01*
X235346303Y-10912652D02*
X235408207Y-10850747D01*
X235408207Y-10850747D02*
X235532017Y-10788842D01*
X235532017Y-10788842D02*
X235841541Y-10788842D01*
X235841541Y-10788842D02*
X235965350Y-10850747D01*
X235965350Y-10850747D02*
X236027255Y-10912652D01*
X236027255Y-10912652D02*
X236089160Y-11036461D01*
X236089160Y-11036461D02*
X236089160Y-11345985D01*
X236089160Y-11345985D02*
X236027255Y-11469795D01*
X236027255Y-11469795D02*
X235965350Y-11531700D01*
X235965350Y-11531700D02*
X235841541Y-11593604D01*
X235841541Y-11593604D02*
X235532017Y-11593604D01*
X235532017Y-11593604D02*
X235408207Y-11531700D01*
X235408207Y-11531700D02*
X235346303Y-11469795D01*
D10*
D11*
X285965350Y-10293604D02*
X285717731Y-10293604D01*
X285717731Y-10293604D02*
X285593922Y-10355509D01*
X285593922Y-10355509D02*
X285532017Y-10417414D01*
X285532017Y-10417414D02*
X285408207Y-10603128D01*
X285408207Y-10603128D02*
X285346303Y-10850747D01*
X285346303Y-10850747D02*
X285346303Y-11345985D01*
X285346303Y-11345985D02*
X285408207Y-11469795D01*
X285408207Y-11469795D02*
X285470112Y-11531700D01*
X285470112Y-11531700D02*
X285593922Y-11593604D01*
X285593922Y-11593604D02*
X285841541Y-11593604D01*
X285841541Y-11593604D02*
X285965350Y-11531700D01*
X285965350Y-11531700D02*
X286027255Y-11469795D01*
X286027255Y-11469795D02*
X286089160Y-11345985D01*
X286089160Y-11345985D02*
X286089160Y-11036461D01*
X286089160Y-11036461D02*
X286027255Y-10912652D01*
X286027255Y-10912652D02*
X285965350Y-10850747D01*
X285965350Y-10850747D02*
X285841541Y-10788842D01*
X285841541Y-10788842D02*
X285593922Y-10788842D01*
X285593922Y-10788842D02*
X285470112Y-10850747D01*
X285470112Y-10850747D02*
X285408207Y-10912652D01*
X285408207Y-10912652D02*
X285346303Y-11036461D01*
D10*
D11*
X335284398Y-10293604D02*
X336151064Y-10293604D01*
X336151064Y-10293604D02*
X335593922Y-11593604D01*
D10*
D11*
X385593922Y-10850747D02*
X385470112Y-10788842D01*
X385470112Y-10788842D02*
X385408207Y-10726938D01*
X385408207Y-10726938D02*
X385346303Y-10603128D01*
X385346303Y-10603128D02*
X385346303Y-10541223D01*
X385346303Y-10541223D02*
X385408207Y-10417414D01*
X385408207Y-10417414D02*
X385470112Y-10355509D01*
X385470112Y-10355509D02*
X385593922Y-10293604D01*
X385593922Y-10293604D02*
X385841541Y-10293604D01*
X385841541Y-10293604D02*
X385965350Y-10355509D01*
X385965350Y-10355509D02*
X386027255Y-10417414D01*
X386027255Y-10417414D02*
X386089160Y-10541223D01*
X386089160Y-10541223D02*
X386089160Y-10603128D01*
X386089160Y-10603128D02*
X386027255Y-10726938D01*
X386027255Y-10726938D02*
X385965350Y-10788842D01*
X385965350Y-10788842D02*
X385841541Y-10850747D01*
X385841541Y-10850747D02*
X385593922Y-10850747D01*
X385593922Y-10850747D02*
X385470112Y-10912652D01*
X385470112Y-10912652D02*
X385408207Y-10974557D01*
X385408207Y-10974557D02*
X385346303Y-11098366D01*
X385346303Y-11098366D02*
X385346303Y-11345985D01*
X385346303Y-11345985D02*
X385408207Y-11469795D01*
X385408207Y-11469795D02*
X385470112Y-11531700D01*
X385470112Y-11531700D02*
X385593922Y-11593604D01*
X385593922Y-11593604D02*
X385841541Y-11593604D01*
X385841541Y-11593604D02*
X385965350Y-11531700D01*
X385965350Y-11531700D02*
X386027255Y-11469795D01*
X386027255Y-11469795D02*
X386089160Y-11345985D01*
X386089160Y-11345985D02*
X386089160Y-11098366D01*
X386089160Y-11098366D02*
X386027255Y-10974557D01*
X386027255Y-10974557D02*
X385965350Y-10912652D01*
X385965350Y-10912652D02*
X385841541Y-10850747D01*
D10*
D11*
X60000000Y-267400000D02*
X60000000Y-269400000D01*
D10*
D11*
X110000000Y-267400000D02*
X110000000Y-269400000D01*
D10*
D11*
X160000000Y-267400000D02*
X160000000Y-269400000D01*
D10*
D11*
X210000000Y-267400000D02*
X210000000Y-269400000D01*
D10*
D11*
X260000000Y-267400000D02*
X260000000Y-269400000D01*
D10*
D11*
X310000000Y-267400000D02*
X310000000Y-269400000D01*
D10*
D11*
X360000000Y-267400000D02*
X360000000Y-269400000D01*
D10*
D11*
X410000000Y-267400000D02*
X410000000Y-269400000D01*
D10*
D11*
X36089160Y-268993604D02*
X35346303Y-268993604D01*
X35717731Y-268993604D02*
X35717731Y-267693604D01*
X35717731Y-267693604D02*
X35593922Y-267879319D01*
X35593922Y-267879319D02*
X35470112Y-268003128D01*
X35470112Y-268003128D02*
X35346303Y-268065033D01*
D10*
D11*
X85346303Y-267817414D02*
X85408207Y-267755509D01*
X85408207Y-267755509D02*
X85532017Y-267693604D01*
X85532017Y-267693604D02*
X85841541Y-267693604D01*
X85841541Y-267693604D02*
X85965350Y-267755509D01*
X85965350Y-267755509D02*
X86027255Y-267817414D01*
X86027255Y-267817414D02*
X86089160Y-267941223D01*
X86089160Y-267941223D02*
X86089160Y-268065033D01*
X86089160Y-268065033D02*
X86027255Y-268250747D01*
X86027255Y-268250747D02*
X85284398Y-268993604D01*
X85284398Y-268993604D02*
X86089160Y-268993604D01*
D10*
D11*
X135284398Y-267693604D02*
X136089160Y-267693604D01*
X136089160Y-267693604D02*
X135655826Y-268188842D01*
X135655826Y-268188842D02*
X135841541Y-268188842D01*
X135841541Y-268188842D02*
X135965350Y-268250747D01*
X135965350Y-268250747D02*
X136027255Y-268312652D01*
X136027255Y-268312652D02*
X136089160Y-268436461D01*
X136089160Y-268436461D02*
X136089160Y-268745985D01*
X136089160Y-268745985D02*
X136027255Y-268869795D01*
X136027255Y-268869795D02*
X135965350Y-268931700D01*
X135965350Y-268931700D02*
X135841541Y-268993604D01*
X135841541Y-268993604D02*
X135470112Y-268993604D01*
X135470112Y-268993604D02*
X135346303Y-268931700D01*
X135346303Y-268931700D02*
X135284398Y-268869795D01*
D10*
D11*
X185965350Y-268126938D02*
X185965350Y-268993604D01*
X185655826Y-267631700D02*
X185346303Y-268560271D01*
X185346303Y-268560271D02*
X186151064Y-268560271D01*
D10*
D11*
X236027255Y-267693604D02*
X235408207Y-267693604D01*
X235408207Y-267693604D02*
X235346303Y-268312652D01*
X235346303Y-268312652D02*
X235408207Y-268250747D01*
X235408207Y-268250747D02*
X235532017Y-268188842D01*
X235532017Y-268188842D02*
X235841541Y-268188842D01*
X235841541Y-268188842D02*
X235965350Y-268250747D01*
X235965350Y-268250747D02*
X236027255Y-268312652D01*
X236027255Y-268312652D02*
X236089160Y-268436461D01*
X236089160Y-268436461D02*
X236089160Y-268745985D01*
X236089160Y-268745985D02*
X236027255Y-268869795D01*
X236027255Y-268869795D02*
X235965350Y-268931700D01*
X235965350Y-268931700D02*
X235841541Y-268993604D01*
X235841541Y-268993604D02*
X235532017Y-268993604D01*
X235532017Y-268993604D02*
X235408207Y-268931700D01*
X235408207Y-268931700D02*
X235346303Y-268869795D01*
D10*
D11*
X285965350Y-267693604D02*
X285717731Y-267693604D01*
X285717731Y-267693604D02*
X285593922Y-267755509D01*
X285593922Y-267755509D02*
X285532017Y-267817414D01*
X285532017Y-267817414D02*
X285408207Y-268003128D01*
X285408207Y-268003128D02*
X285346303Y-268250747D01*
X285346303Y-268250747D02*
X285346303Y-268745985D01*
X285346303Y-268745985D02*
X285408207Y-268869795D01*
X285408207Y-268869795D02*
X285470112Y-268931700D01*
X285470112Y-268931700D02*
X285593922Y-268993604D01*
X285593922Y-268993604D02*
X285841541Y-268993604D01*
X285841541Y-268993604D02*
X285965350Y-268931700D01*
X285965350Y-268931700D02*
X286027255Y-268869795D01*
X286027255Y-268869795D02*
X286089160Y-268745985D01*
X286089160Y-268745985D02*
X286089160Y-268436461D01*
X286089160Y-268436461D02*
X286027255Y-268312652D01*
X286027255Y-268312652D02*
X285965350Y-268250747D01*
X285965350Y-268250747D02*
X285841541Y-268188842D01*
X285841541Y-268188842D02*
X285593922Y-268188842D01*
X285593922Y-268188842D02*
X285470112Y-268250747D01*
X285470112Y-268250747D02*
X285408207Y-268312652D01*
X285408207Y-268312652D02*
X285346303Y-268436461D01*
D10*
D11*
X335284398Y-267693604D02*
X336151064Y-267693604D01*
X336151064Y-267693604D02*
X335593922Y-268993604D01*
D10*
D11*
X385593922Y-268250747D02*
X385470112Y-268188842D01*
X385470112Y-268188842D02*
X385408207Y-268126938D01*
X385408207Y-268126938D02*
X385346303Y-268003128D01*
X385346303Y-268003128D02*
X385346303Y-267941223D01*
X385346303Y-267941223D02*
X385408207Y-267817414D01*
X385408207Y-267817414D02*
X385470112Y-267755509D01*
X385470112Y-267755509D02*
X385593922Y-267693604D01*
X385593922Y-267693604D02*
X385841541Y-267693604D01*
X385841541Y-267693604D02*
X385965350Y-267755509D01*
X385965350Y-267755509D02*
X386027255Y-267817414D01*
X386027255Y-267817414D02*
X386089160Y-267941223D01*
X386089160Y-267941223D02*
X386089160Y-268003128D01*
X386089160Y-268003128D02*
X386027255Y-268126938D01*
X386027255Y-268126938D02*
X385965350Y-268188842D01*
X385965350Y-268188842D02*
X385841541Y-268250747D01*
X385841541Y-268250747D02*
X385593922Y-268250747D01*
X385593922Y-268250747D02*
X385470112Y-268312652D01*
X385470112Y-268312652D02*
X385408207Y-268374557D01*
X385408207Y-268374557D02*
X385346303Y-268498366D01*
X385346303Y-268498366D02*
X385346303Y-268745985D01*
X385346303Y-268745985D02*
X385408207Y-268869795D01*
X385408207Y-268869795D02*
X385470112Y-268931700D01*
X385470112Y-268931700D02*
X385593922Y-268993604D01*
X385593922Y-268993604D02*
X385841541Y-268993604D01*
X385841541Y-268993604D02*
X385965350Y-268931700D01*
X385965350Y-268931700D02*
X386027255Y-268869795D01*
X386027255Y-268869795D02*
X386089160Y-268745985D01*
X386089160Y-268745985D02*
X386089160Y-268498366D01*
X386089160Y-268498366D02*
X386027255Y-268374557D01*
X386027255Y-268374557D02*
X385965350Y-268312652D01*
X385965350Y-268312652D02*
X385841541Y-268250747D01*
D10*
D11*
X10000000Y-60000000D02*
X12000000Y-60000000D01*
D10*
D11*
X10000000Y-110000000D02*
X12000000Y-110000000D01*
D10*
D11*
X10000000Y-160000000D02*
X12000000Y-160000000D01*
D10*
D11*
X10000000Y-210000000D02*
X12000000Y-210000000D01*
D10*
D11*
X10000000Y-260000000D02*
X12000000Y-260000000D01*
D10*
D11*
X10690476Y-35222176D02*
X11309523Y-35222176D01*
X10566666Y-35593604D02*
X10999999Y-34293604D01*
X10999999Y-34293604D02*
X11433333Y-35593604D01*
D10*
D11*
X11092857Y-84912652D02*
X11278571Y-84974557D01*
X11278571Y-84974557D02*
X11340476Y-85036461D01*
X11340476Y-85036461D02*
X11402380Y-85160271D01*
X11402380Y-85160271D02*
X11402380Y-85345985D01*
X11402380Y-85345985D02*
X11340476Y-85469795D01*
X11340476Y-85469795D02*
X11278571Y-85531700D01*
X11278571Y-85531700D02*
X11154761Y-85593604D01*
X11154761Y-85593604D02*
X10659523Y-85593604D01*
X10659523Y-85593604D02*
X10659523Y-84293604D01*
X10659523Y-84293604D02*
X11092857Y-84293604D01*
X11092857Y-84293604D02*
X11216666Y-84355509D01*
X11216666Y-84355509D02*
X11278571Y-84417414D01*
X11278571Y-84417414D02*
X11340476Y-84541223D01*
X11340476Y-84541223D02*
X11340476Y-84665033D01*
X11340476Y-84665033D02*
X11278571Y-84788842D01*
X11278571Y-84788842D02*
X11216666Y-84850747D01*
X11216666Y-84850747D02*
X11092857Y-84912652D01*
X11092857Y-84912652D02*
X10659523Y-84912652D01*
D10*
D11*
X11402380Y-135469795D02*
X11340476Y-135531700D01*
X11340476Y-135531700D02*
X11154761Y-135593604D01*
X11154761Y-135593604D02*
X11030952Y-135593604D01*
X11030952Y-135593604D02*
X10845238Y-135531700D01*
X10845238Y-135531700D02*
X10721428Y-135407890D01*
X10721428Y-135407890D02*
X10659523Y-135284080D01*
X10659523Y-135284080D02*
X10597619Y-135036461D01*
X10597619Y-135036461D02*
X10597619Y-134850747D01*
X10597619Y-134850747D02*
X10659523Y-134603128D01*
X10659523Y-134603128D02*
X10721428Y-134479319D01*
X10721428Y-134479319D02*
X10845238Y-134355509D01*
X10845238Y-134355509D02*
X11030952Y-134293604D01*
X11030952Y-134293604D02*
X11154761Y-134293604D01*
X11154761Y-134293604D02*
X11340476Y-134355509D01*
X11340476Y-134355509D02*
X11402380Y-134417414D01*
D10*
D11*
X10659523Y-185593604D02*
X10659523Y-184293604D01*
X10659523Y-184293604D02*
X10969047Y-184293604D01*
X10969047Y-184293604D02*
X11154761Y-184355509D01*
X11154761Y-184355509D02*
X11278571Y-184479319D01*
X11278571Y-184479319D02*
X11340476Y-184603128D01*
X11340476Y-184603128D02*
X11402380Y-184850747D01*
X11402380Y-184850747D02*
X11402380Y-185036461D01*
X11402380Y-185036461D02*
X11340476Y-185284080D01*
X11340476Y-185284080D02*
X11278571Y-185407890D01*
X11278571Y-185407890D02*
X11154761Y-185531700D01*
X11154761Y-185531700D02*
X10969047Y-185593604D01*
X10969047Y-185593604D02*
X10659523Y-185593604D01*
D10*
D11*
X10721428Y-234912652D02*
X11154762Y-234912652D01*
X11340476Y-235593604D02*
X10721428Y-235593604D01*
X10721428Y-235593604D02*
X10721428Y-234293604D01*
X10721428Y-234293604D02*
X11340476Y-234293604D01*
D10*
D11*
X421800000Y-60000000D02*
X419800000Y-60000000D01*
D10*
D11*
X421800000Y-110000000D02*
X419800000Y-110000000D01*
D10*
D11*
X421800000Y-160000000D02*
X419800000Y-160000000D01*
D10*
D11*
X421800000Y-210000000D02*
X419800000Y-210000000D01*
D10*
D11*
X421800000Y-260000000D02*
X419800000Y-260000000D01*
D10*
D11*
X420490476Y-35222176D02*
X421109523Y-35222176D01*
X420366666Y-35593604D02*
X420799999Y-34293604D01*
X420799999Y-34293604D02*
X421233333Y-35593604D01*
D10*
D11*
X420892857Y-84912652D02*
X421078571Y-84974557D01*
X421078571Y-84974557D02*
X421140476Y-85036461D01*
X421140476Y-85036461D02*
X421202380Y-85160271D01*
X421202380Y-85160271D02*
X421202380Y-85345985D01*
X421202380Y-85345985D02*
X421140476Y-85469795D01*
X421140476Y-85469795D02*
X421078571Y-85531700D01*
X421078571Y-85531700D02*
X420954761Y-85593604D01*
X420954761Y-85593604D02*
X420459523Y-85593604D01*
X420459523Y-85593604D02*
X420459523Y-84293604D01*
X420459523Y-84293604D02*
X420892857Y-84293604D01*
X420892857Y-84293604D02*
X421016666Y-84355509D01*
X421016666Y-84355509D02*
X421078571Y-84417414D01*
X421078571Y-84417414D02*
X421140476Y-84541223D01*
X421140476Y-84541223D02*
X421140476Y-84665033D01*
X421140476Y-84665033D02*
X421078571Y-84788842D01*
X421078571Y-84788842D02*
X421016666Y-84850747D01*
X421016666Y-84850747D02*
X420892857Y-84912652D01*
X420892857Y-84912652D02*
X420459523Y-84912652D01*
D10*
D11*
X421202380Y-135469795D02*
X421140476Y-135531700D01*
X421140476Y-135531700D02*
X420954761Y-135593604D01*
X420954761Y-135593604D02*
X420830952Y-135593604D01*
X420830952Y-135593604D02*
X420645238Y-135531700D01*
X420645238Y-135531700D02*
X420521428Y-135407890D01*
X420521428Y-135407890D02*
X420459523Y-135284080D01*
X420459523Y-135284080D02*
X420397619Y-135036461D01*
X420397619Y-135036461D02*
X420397619Y-134850747D01*
X420397619Y-134850747D02*
X420459523Y-134603128D01*
X420459523Y-134603128D02*
X420521428Y-134479319D01*
X420521428Y-134479319D02*
X420645238Y-134355509D01*
X420645238Y-134355509D02*
X420830952Y-134293604D01*
X420830952Y-134293604D02*
X420954761Y-134293604D01*
X420954761Y-134293604D02*
X421140476Y-134355509D01*
X421140476Y-134355509D02*
X421202380Y-134417414D01*
D10*
D11*
X420459523Y-185593604D02*
X420459523Y-184293604D01*
X420459523Y-184293604D02*
X420769047Y-184293604D01*
X420769047Y-184293604D02*
X420954761Y-184355509D01*
X420954761Y-184355509D02*
X421078571Y-184479319D01*
X421078571Y-184479319D02*
X421140476Y-184603128D01*
X421140476Y-184603128D02*
X421202380Y-184850747D01*
X421202380Y-184850747D02*
X421202380Y-185036461D01*
X421202380Y-185036461D02*
X421140476Y-185284080D01*
X421140476Y-185284080D02*
X421078571Y-185407890D01*
X421078571Y-185407890D02*
X420954761Y-185531700D01*
X420954761Y-185531700D02*
X420769047Y-185593604D01*
X420769047Y-185593604D02*
X420459523Y-185593604D01*
D10*
D11*
X420521428Y-234912652D02*
X420954762Y-234912652D01*
X421140476Y-235593604D02*
X420521428Y-235593604D01*
X420521428Y-235593604D02*
X420521428Y-234293604D01*
X420521428Y-234293604D02*
X421140476Y-234293604D01*
D10*
D11*
X335255826Y-263186128D02*
X335255826Y-261686128D01*
X335255826Y-261686128D02*
X335612969Y-261686128D01*
X335612969Y-261686128D02*
X335827255Y-261757557D01*
X335827255Y-261757557D02*
X335970112Y-261900414D01*
X335970112Y-261900414D02*
X336041541Y-262043271D01*
X336041541Y-262043271D02*
X336112969Y-262328985D01*
X336112969Y-262328985D02*
X336112969Y-262543271D01*
X336112969Y-262543271D02*
X336041541Y-262828985D01*
X336041541Y-262828985D02*
X335970112Y-262971842D01*
X335970112Y-262971842D02*
X335827255Y-263114700D01*
X335827255Y-263114700D02*
X335612969Y-263186128D01*
X335612969Y-263186128D02*
X335255826Y-263186128D01*
X337398684Y-263186128D02*
X337398684Y-262400414D01*
X337398684Y-262400414D02*
X337327255Y-262257557D01*
X337327255Y-262257557D02*
X337184398Y-262186128D01*
X337184398Y-262186128D02*
X336898684Y-262186128D01*
X336898684Y-262186128D02*
X336755826Y-262257557D01*
X337398684Y-263114700D02*
X337255826Y-263186128D01*
X337255826Y-263186128D02*
X336898684Y-263186128D01*
X336898684Y-263186128D02*
X336755826Y-263114700D01*
X336755826Y-263114700D02*
X336684398Y-262971842D01*
X336684398Y-262971842D02*
X336684398Y-262828985D01*
X336684398Y-262828985D02*
X336755826Y-262686128D01*
X336755826Y-262686128D02*
X336898684Y-262614700D01*
X336898684Y-262614700D02*
X337255826Y-262614700D01*
X337255826Y-262614700D02*
X337398684Y-262543271D01*
X337898684Y-262186128D02*
X338470112Y-262186128D01*
X338112969Y-261686128D02*
X338112969Y-262971842D01*
X338112969Y-262971842D02*
X338184398Y-263114700D01*
X338184398Y-263114700D02*
X338327255Y-263186128D01*
X338327255Y-263186128D02*
X338470112Y-263186128D01*
X339541541Y-263114700D02*
X339398684Y-263186128D01*
X339398684Y-263186128D02*
X339112970Y-263186128D01*
X339112970Y-263186128D02*
X338970112Y-263114700D01*
X338970112Y-263114700D02*
X338898684Y-262971842D01*
X338898684Y-262971842D02*
X338898684Y-262400414D01*
X338898684Y-262400414D02*
X338970112Y-262257557D01*
X338970112Y-262257557D02*
X339112970Y-262186128D01*
X339112970Y-262186128D02*
X339398684Y-262186128D01*
X339398684Y-262186128D02*
X339541541Y-262257557D01*
X339541541Y-262257557D02*
X339612970Y-262400414D01*
X339612970Y-262400414D02*
X339612970Y-262543271D01*
X339612970Y-262543271D02*
X338898684Y-262686128D01*
X340255826Y-263043271D02*
X340327255Y-263114700D01*
X340327255Y-263114700D02*
X340255826Y-263186128D01*
X340255826Y-263186128D02*
X340184398Y-263114700D01*
X340184398Y-263114700D02*
X340255826Y-263043271D01*
X340255826Y-263043271D02*
X340255826Y-263186128D01*
X340255826Y-262257557D02*
X340327255Y-262328985D01*
X340327255Y-262328985D02*
X340255826Y-262400414D01*
X340255826Y-262400414D02*
X340184398Y-262328985D01*
X340184398Y-262328985D02*
X340255826Y-262257557D01*
X340255826Y-262257557D02*
X340255826Y-262400414D01*
D10*
D11*
X311800000Y-263900000D02*
X419800000Y-263900000D01*
D10*
D11*
X313255826Y-265986128D02*
X313255826Y-264486128D01*
X314112969Y-265986128D02*
X313470112Y-265128985D01*
X314112969Y-264486128D02*
X313255826Y-265343271D01*
X314755826Y-265986128D02*
X314755826Y-264986128D01*
X314755826Y-264486128D02*
X314684398Y-264557557D01*
X314684398Y-264557557D02*
X314755826Y-264628985D01*
X314755826Y-264628985D02*
X314827255Y-264557557D01*
X314827255Y-264557557D02*
X314755826Y-264486128D01*
X314755826Y-264486128D02*
X314755826Y-264628985D01*
X316327255Y-265843271D02*
X316255827Y-265914700D01*
X316255827Y-265914700D02*
X316041541Y-265986128D01*
X316041541Y-265986128D02*
X315898684Y-265986128D01*
X315898684Y-265986128D02*
X315684398Y-265914700D01*
X315684398Y-265914700D02*
X315541541Y-265771842D01*
X315541541Y-265771842D02*
X315470112Y-265628985D01*
X315470112Y-265628985D02*
X315398684Y-265343271D01*
X315398684Y-265343271D02*
X315398684Y-265128985D01*
X315398684Y-265128985D02*
X315470112Y-264843271D01*
X315470112Y-264843271D02*
X315541541Y-264700414D01*
X315541541Y-264700414D02*
X315684398Y-264557557D01*
X315684398Y-264557557D02*
X315898684Y-264486128D01*
X315898684Y-264486128D02*
X316041541Y-264486128D01*
X316041541Y-264486128D02*
X316255827Y-264557557D01*
X316255827Y-264557557D02*
X316327255Y-264628985D01*
X317612970Y-265986128D02*
X317612970Y-265200414D01*
X317612970Y-265200414D02*
X317541541Y-265057557D01*
X317541541Y-265057557D02*
X317398684Y-264986128D01*
X317398684Y-264986128D02*
X317112970Y-264986128D01*
X317112970Y-264986128D02*
X316970112Y-265057557D01*
X317612970Y-265914700D02*
X317470112Y-265986128D01*
X317470112Y-265986128D02*
X317112970Y-265986128D01*
X317112970Y-265986128D02*
X316970112Y-265914700D01*
X316970112Y-265914700D02*
X316898684Y-265771842D01*
X316898684Y-265771842D02*
X316898684Y-265628985D01*
X316898684Y-265628985D02*
X316970112Y-265486128D01*
X316970112Y-265486128D02*
X317112970Y-265414700D01*
X317112970Y-265414700D02*
X317470112Y-265414700D01*
X317470112Y-265414700D02*
X317612970Y-265343271D01*
X318970113Y-265986128D02*
X318970113Y-264486128D01*
X318970113Y-265914700D02*
X318827255Y-265986128D01*
X318827255Y-265986128D02*
X318541541Y-265986128D01*
X318541541Y-265986128D02*
X318398684Y-265914700D01*
X318398684Y-265914700D02*
X318327255Y-265843271D01*
X318327255Y-265843271D02*
X318255827Y-265700414D01*
X318255827Y-265700414D02*
X318255827Y-265271842D01*
X318255827Y-265271842D02*
X318327255Y-265128985D01*
X318327255Y-265128985D02*
X318398684Y-265057557D01*
X318398684Y-265057557D02*
X318541541Y-264986128D01*
X318541541Y-264986128D02*
X318827255Y-264986128D01*
X318827255Y-264986128D02*
X318970113Y-265057557D01*
X320827255Y-265200414D02*
X321327255Y-265200414D01*
X321541541Y-265986128D02*
X320827255Y-265986128D01*
X320827255Y-265986128D02*
X320827255Y-264486128D01*
X320827255Y-264486128D02*
X321541541Y-264486128D01*
X322184398Y-265843271D02*
X322255827Y-265914700D01*
X322255827Y-265914700D02*
X322184398Y-265986128D01*
X322184398Y-265986128D02*
X322112970Y-265914700D01*
X322112970Y-265914700D02*
X322184398Y-265843271D01*
X322184398Y-265843271D02*
X322184398Y-265986128D01*
X322898684Y-265986128D02*
X322898684Y-264486128D01*
X322898684Y-264486128D02*
X323255827Y-264486128D01*
X323255827Y-264486128D02*
X323470113Y-264557557D01*
X323470113Y-264557557D02*
X323612970Y-264700414D01*
X323612970Y-264700414D02*
X323684399Y-264843271D01*
X323684399Y-264843271D02*
X323755827Y-265128985D01*
X323755827Y-265128985D02*
X323755827Y-265343271D01*
X323755827Y-265343271D02*
X323684399Y-265628985D01*
X323684399Y-265628985D02*
X323612970Y-265771842D01*
X323612970Y-265771842D02*
X323470113Y-265914700D01*
X323470113Y-265914700D02*
X323255827Y-265986128D01*
X323255827Y-265986128D02*
X322898684Y-265986128D01*
X324398684Y-265843271D02*
X324470113Y-265914700D01*
X324470113Y-265914700D02*
X324398684Y-265986128D01*
X324398684Y-265986128D02*
X324327256Y-265914700D01*
X324327256Y-265914700D02*
X324398684Y-265843271D01*
X324398684Y-265843271D02*
X324398684Y-265986128D01*
X325041542Y-265557557D02*
X325755828Y-265557557D01*
X324898685Y-265986128D02*
X325398685Y-264486128D01*
X325398685Y-264486128D02*
X325898685Y-265986128D01*
X326398684Y-265843271D02*
X326470113Y-265914700D01*
X326470113Y-265914700D02*
X326398684Y-265986128D01*
X326398684Y-265986128D02*
X326327256Y-265914700D01*
X326327256Y-265914700D02*
X326398684Y-265843271D01*
X326398684Y-265843271D02*
X326398684Y-265986128D01*
X329398684Y-265986128D02*
X329398684Y-264486128D01*
X329541542Y-265414700D02*
X329970113Y-265986128D01*
X329970113Y-264986128D02*
X329398684Y-265557557D01*
X330612970Y-265986128D02*
X330612970Y-264986128D01*
X330612970Y-264486128D02*
X330541542Y-264557557D01*
X330541542Y-264557557D02*
X330612970Y-264628985D01*
X330612970Y-264628985D02*
X330684399Y-264557557D01*
X330684399Y-264557557D02*
X330612970Y-264486128D01*
X330612970Y-264486128D02*
X330612970Y-264628985D01*
X331970114Y-265914700D02*
X331827256Y-265986128D01*
X331827256Y-265986128D02*
X331541542Y-265986128D01*
X331541542Y-265986128D02*
X331398685Y-265914700D01*
X331398685Y-265914700D02*
X331327256Y-265843271D01*
X331327256Y-265843271D02*
X331255828Y-265700414D01*
X331255828Y-265700414D02*
X331255828Y-265271842D01*
X331255828Y-265271842D02*
X331327256Y-265128985D01*
X331327256Y-265128985D02*
X331398685Y-265057557D01*
X331398685Y-265057557D02*
X331541542Y-264986128D01*
X331541542Y-264986128D02*
X331827256Y-264986128D01*
X331827256Y-264986128D02*
X331970114Y-265057557D01*
X333255828Y-265986128D02*
X333255828Y-265200414D01*
X333255828Y-265200414D02*
X333184399Y-265057557D01*
X333184399Y-265057557D02*
X333041542Y-264986128D01*
X333041542Y-264986128D02*
X332755828Y-264986128D01*
X332755828Y-264986128D02*
X332612970Y-265057557D01*
X333255828Y-265914700D02*
X333112970Y-265986128D01*
X333112970Y-265986128D02*
X332755828Y-265986128D01*
X332755828Y-265986128D02*
X332612970Y-265914700D01*
X332612970Y-265914700D02*
X332541542Y-265771842D01*
X332541542Y-265771842D02*
X332541542Y-265628985D01*
X332541542Y-265628985D02*
X332612970Y-265486128D01*
X332612970Y-265486128D02*
X332755828Y-265414700D01*
X332755828Y-265414700D02*
X333112970Y-265414700D01*
X333112970Y-265414700D02*
X333255828Y-265343271D01*
X334612971Y-265986128D02*
X334612971Y-264486128D01*
X334612971Y-265914700D02*
X334470113Y-265986128D01*
X334470113Y-265986128D02*
X334184399Y-265986128D01*
X334184399Y-265986128D02*
X334041542Y-265914700D01*
X334041542Y-265914700D02*
X333970113Y-265843271D01*
X333970113Y-265843271D02*
X333898685Y-265700414D01*
X333898685Y-265700414D02*
X333898685Y-265271842D01*
X333898685Y-265271842D02*
X333970113Y-265128985D01*
X333970113Y-265128985D02*
X334041542Y-265057557D01*
X334041542Y-265057557D02*
X334184399Y-264986128D01*
X334184399Y-264986128D02*
X334470113Y-264986128D01*
X334470113Y-264986128D02*
X334612971Y-265057557D01*
X336327256Y-264486128D02*
X337327256Y-264486128D01*
X337327256Y-264486128D02*
X336684399Y-265986128D01*
X337898684Y-265843271D02*
X337970113Y-265914700D01*
X337970113Y-265914700D02*
X337898684Y-265986128D01*
X337898684Y-265986128D02*
X337827256Y-265914700D01*
X337827256Y-265914700D02*
X337898684Y-265843271D01*
X337898684Y-265843271D02*
X337898684Y-265986128D01*
X338898685Y-264486128D02*
X339041542Y-264486128D01*
X339041542Y-264486128D02*
X339184399Y-264557557D01*
X339184399Y-264557557D02*
X339255828Y-264628985D01*
X339255828Y-264628985D02*
X339327256Y-264771842D01*
X339327256Y-264771842D02*
X339398685Y-265057557D01*
X339398685Y-265057557D02*
X339398685Y-265414700D01*
X339398685Y-265414700D02*
X339327256Y-265700414D01*
X339327256Y-265700414D02*
X339255828Y-265843271D01*
X339255828Y-265843271D02*
X339184399Y-265914700D01*
X339184399Y-265914700D02*
X339041542Y-265986128D01*
X339041542Y-265986128D02*
X338898685Y-265986128D01*
X338898685Y-265986128D02*
X338755828Y-265914700D01*
X338755828Y-265914700D02*
X338684399Y-265843271D01*
X338684399Y-265843271D02*
X338612970Y-265700414D01*
X338612970Y-265700414D02*
X338541542Y-265414700D01*
X338541542Y-265414700D02*
X338541542Y-265057557D01*
X338541542Y-265057557D02*
X338612970Y-264771842D01*
X338612970Y-264771842D02*
X338684399Y-264628985D01*
X338684399Y-264628985D02*
X338755828Y-264557557D01*
X338755828Y-264557557D02*
X338898685Y-264486128D01*
X340041541Y-265843271D02*
X340112970Y-265914700D01*
X340112970Y-265914700D02*
X340041541Y-265986128D01*
X340041541Y-265986128D02*
X339970113Y-265914700D01*
X339970113Y-265914700D02*
X340041541Y-265843271D01*
X340041541Y-265843271D02*
X340041541Y-265986128D01*
X340612970Y-264486128D02*
X341612970Y-264486128D01*
X341612970Y-264486128D02*
X340970113Y-265986128D01*
X342184398Y-265414700D02*
X343327256Y-265414700D01*
X343898684Y-264486128D02*
X344898684Y-264486128D01*
X344898684Y-264486128D02*
X344255827Y-265986128D01*
X345470112Y-265843271D02*
X345541541Y-265914700D01*
X345541541Y-265914700D02*
X345470112Y-265986128D01*
X345470112Y-265986128D02*
X345398684Y-265914700D01*
X345398684Y-265914700D02*
X345470112Y-265843271D01*
X345470112Y-265843271D02*
X345470112Y-265986128D01*
X346470113Y-264486128D02*
X346612970Y-264486128D01*
X346612970Y-264486128D02*
X346755827Y-264557557D01*
X346755827Y-264557557D02*
X346827256Y-264628985D01*
X346827256Y-264628985D02*
X346898684Y-264771842D01*
X346898684Y-264771842D02*
X346970113Y-265057557D01*
X346970113Y-265057557D02*
X346970113Y-265414700D01*
X346970113Y-265414700D02*
X346898684Y-265700414D01*
X346898684Y-265700414D02*
X346827256Y-265843271D01*
X346827256Y-265843271D02*
X346755827Y-265914700D01*
X346755827Y-265914700D02*
X346612970Y-265986128D01*
X346612970Y-265986128D02*
X346470113Y-265986128D01*
X346470113Y-265986128D02*
X346327256Y-265914700D01*
X346327256Y-265914700D02*
X346255827Y-265843271D01*
X346255827Y-265843271D02*
X346184398Y-265700414D01*
X346184398Y-265700414D02*
X346112970Y-265414700D01*
X346112970Y-265414700D02*
X346112970Y-265057557D01*
X346112970Y-265057557D02*
X346184398Y-264771842D01*
X346184398Y-264771842D02*
X346255827Y-264628985D01*
X346255827Y-264628985D02*
X346327256Y-264557557D01*
X346327256Y-264557557D02*
X346470113Y-264486128D01*
X347612969Y-265843271D02*
X347684398Y-265914700D01*
X347684398Y-265914700D02*
X347612969Y-265986128D01*
X347612969Y-265986128D02*
X347541541Y-265914700D01*
X347541541Y-265914700D02*
X347612969Y-265843271D01*
X347612969Y-265843271D02*
X347612969Y-265986128D01*
X348184398Y-264486128D02*
X349184398Y-264486128D01*
X349184398Y-264486128D02*
X348541541Y-265986128D01*
X349541541Y-265414700D02*
X349612969Y-265343271D01*
X349612969Y-265343271D02*
X349755826Y-265271842D01*
X349755826Y-265271842D02*
X350041541Y-265414700D01*
X350041541Y-265414700D02*
X350184398Y-265343271D01*
X350184398Y-265343271D02*
X350255826Y-265271842D01*
X351470113Y-264986128D02*
X351470113Y-265986128D01*
X350827255Y-264986128D02*
X350827255Y-265771842D01*
X350827255Y-265771842D02*
X350898684Y-265914700D01*
X350898684Y-265914700D02*
X351041541Y-265986128D01*
X351041541Y-265986128D02*
X351255827Y-265986128D01*
X351255827Y-265986128D02*
X351398684Y-265914700D01*
X351398684Y-265914700D02*
X351470113Y-265843271D01*
X352184398Y-265986128D02*
X352184398Y-264486128D01*
X352184398Y-265057557D02*
X352327256Y-264986128D01*
X352327256Y-264986128D02*
X352612970Y-264986128D01*
X352612970Y-264986128D02*
X352755827Y-265057557D01*
X352755827Y-265057557D02*
X352827256Y-265128985D01*
X352827256Y-265128985D02*
X352898684Y-265271842D01*
X352898684Y-265271842D02*
X352898684Y-265700414D01*
X352898684Y-265700414D02*
X352827256Y-265843271D01*
X352827256Y-265843271D02*
X352755827Y-265914700D01*
X352755827Y-265914700D02*
X352612970Y-265986128D01*
X352612970Y-265986128D02*
X352327256Y-265986128D01*
X352327256Y-265986128D02*
X352184398Y-265914700D01*
X354184399Y-264986128D02*
X354184399Y-265986128D01*
X353541541Y-264986128D02*
X353541541Y-265771842D01*
X353541541Y-265771842D02*
X353612970Y-265914700D01*
X353612970Y-265914700D02*
X353755827Y-265986128D01*
X353755827Y-265986128D02*
X353970113Y-265986128D01*
X353970113Y-265986128D02*
X354112970Y-265914700D01*
X354112970Y-265914700D02*
X354184399Y-265843271D01*
X354898684Y-264986128D02*
X354898684Y-265986128D01*
X354898684Y-265128985D02*
X354970113Y-265057557D01*
X354970113Y-265057557D02*
X355112970Y-264986128D01*
X355112970Y-264986128D02*
X355327256Y-264986128D01*
X355327256Y-264986128D02*
X355470113Y-265057557D01*
X355470113Y-265057557D02*
X355541542Y-265200414D01*
X355541542Y-265200414D02*
X355541542Y-265986128D01*
X356041542Y-264986128D02*
X356612970Y-264986128D01*
X356255827Y-264486128D02*
X356255827Y-265771842D01*
X356255827Y-265771842D02*
X356327256Y-265914700D01*
X356327256Y-265914700D02*
X356470113Y-265986128D01*
X356470113Y-265986128D02*
X356612970Y-265986128D01*
X357755828Y-264986128D02*
X357755828Y-265986128D01*
X357112970Y-264986128D02*
X357112970Y-265771842D01*
X357112970Y-265771842D02*
X357184399Y-265914700D01*
X357184399Y-265914700D02*
X357327256Y-265986128D01*
X357327256Y-265986128D02*
X357541542Y-265986128D01*
X357541542Y-265986128D02*
X357684399Y-265914700D01*
X357684399Y-265914700D02*
X357755828Y-265843271D01*
X358398685Y-264628985D02*
X358470113Y-264557557D01*
X358470113Y-264557557D02*
X358612971Y-264486128D01*
X358612971Y-264486128D02*
X358970113Y-264486128D01*
X358970113Y-264486128D02*
X359112971Y-264557557D01*
X359112971Y-264557557D02*
X359184399Y-264628985D01*
X359184399Y-264628985D02*
X359255828Y-264771842D01*
X359255828Y-264771842D02*
X359255828Y-264914700D01*
X359255828Y-264914700D02*
X359184399Y-265128985D01*
X359184399Y-265128985D02*
X358327256Y-265986128D01*
X358327256Y-265986128D02*
X359255828Y-265986128D01*
X359827256Y-264628985D02*
X359898684Y-264557557D01*
X359898684Y-264557557D02*
X360041542Y-264486128D01*
X360041542Y-264486128D02*
X360398684Y-264486128D01*
X360398684Y-264486128D02*
X360541542Y-264557557D01*
X360541542Y-264557557D02*
X360612970Y-264628985D01*
X360612970Y-264628985D02*
X360684399Y-264771842D01*
X360684399Y-264771842D02*
X360684399Y-264914700D01*
X360684399Y-264914700D02*
X360612970Y-265128985D01*
X360612970Y-265128985D02*
X359755827Y-265986128D01*
X359755827Y-265986128D02*
X360684399Y-265986128D01*
X361327255Y-265843271D02*
X361398684Y-265914700D01*
X361398684Y-265914700D02*
X361327255Y-265986128D01*
X361327255Y-265986128D02*
X361255827Y-265914700D01*
X361255827Y-265914700D02*
X361327255Y-265843271D01*
X361327255Y-265843271D02*
X361327255Y-265986128D01*
X362327256Y-264486128D02*
X362470113Y-264486128D01*
X362470113Y-264486128D02*
X362612970Y-264557557D01*
X362612970Y-264557557D02*
X362684399Y-264628985D01*
X362684399Y-264628985D02*
X362755827Y-264771842D01*
X362755827Y-264771842D02*
X362827256Y-265057557D01*
X362827256Y-265057557D02*
X362827256Y-265414700D01*
X362827256Y-265414700D02*
X362755827Y-265700414D01*
X362755827Y-265700414D02*
X362684399Y-265843271D01*
X362684399Y-265843271D02*
X362612970Y-265914700D01*
X362612970Y-265914700D02*
X362470113Y-265986128D01*
X362470113Y-265986128D02*
X362327256Y-265986128D01*
X362327256Y-265986128D02*
X362184399Y-265914700D01*
X362184399Y-265914700D02*
X362112970Y-265843271D01*
X362112970Y-265843271D02*
X362041541Y-265700414D01*
X362041541Y-265700414D02*
X361970113Y-265414700D01*
X361970113Y-265414700D02*
X361970113Y-265057557D01*
X361970113Y-265057557D02*
X362041541Y-264771842D01*
X362041541Y-264771842D02*
X362112970Y-264628985D01*
X362112970Y-264628985D02*
X362184399Y-264557557D01*
X362184399Y-264557557D02*
X362327256Y-264486128D01*
X364112970Y-264986128D02*
X364112970Y-265986128D01*
X363755827Y-264414700D02*
X363398684Y-265486128D01*
X363398684Y-265486128D02*
X364327255Y-265486128D01*
X364898683Y-265843271D02*
X364970112Y-265914700D01*
X364970112Y-265914700D02*
X364898683Y-265986128D01*
X364898683Y-265986128D02*
X364827255Y-265914700D01*
X364827255Y-265914700D02*
X364898683Y-265843271D01*
X364898683Y-265843271D02*
X364898683Y-265986128D01*
X366398684Y-265986128D02*
X365541541Y-265986128D01*
X365970112Y-265986128D02*
X365970112Y-264486128D01*
X365970112Y-264486128D02*
X365827255Y-264700414D01*
X365827255Y-264700414D02*
X365684398Y-264843271D01*
X365684398Y-264843271D02*
X365541541Y-264914700D01*
D10*
D11*
X311800000Y-260900000D02*
X419800000Y-260900000D01*
D10*
D12*
X399211653Y-263178328D02*
X398711653Y-262464042D01*
X398354510Y-263178328D02*
X398354510Y-261678328D01*
X398354510Y-261678328D02*
X398925939Y-261678328D01*
X398925939Y-261678328D02*
X399068796Y-261749757D01*
X399068796Y-261749757D02*
X399140225Y-261821185D01*
X399140225Y-261821185D02*
X399211653Y-261964042D01*
X399211653Y-261964042D02*
X399211653Y-262178328D01*
X399211653Y-262178328D02*
X399140225Y-262321185D01*
X399140225Y-262321185D02*
X399068796Y-262392614D01*
X399068796Y-262392614D02*
X398925939Y-262464042D01*
X398925939Y-262464042D02*
X398354510Y-262464042D01*
X400425939Y-263106900D02*
X400283082Y-263178328D01*
X400283082Y-263178328D02*
X399997368Y-263178328D01*
X399997368Y-263178328D02*
X399854510Y-263106900D01*
X399854510Y-263106900D02*
X399783082Y-262964042D01*
X399783082Y-262964042D02*
X399783082Y-262392614D01*
X399783082Y-262392614D02*
X399854510Y-262249757D01*
X399854510Y-262249757D02*
X399997368Y-262178328D01*
X399997368Y-262178328D02*
X400283082Y-262178328D01*
X400283082Y-262178328D02*
X400425939Y-262249757D01*
X400425939Y-262249757D02*
X400497368Y-262392614D01*
X400497368Y-262392614D02*
X400497368Y-262535471D01*
X400497368Y-262535471D02*
X399783082Y-262678328D01*
X400997367Y-262178328D02*
X401354510Y-263178328D01*
X401354510Y-263178328D02*
X401711653Y-262178328D01*
X402283081Y-263035471D02*
X402354510Y-263106900D01*
X402354510Y-263106900D02*
X402283081Y-263178328D01*
X402283081Y-263178328D02*
X402211653Y-263106900D01*
X402211653Y-263106900D02*
X402283081Y-263035471D01*
X402283081Y-263035471D02*
X402283081Y-263178328D01*
X402283081Y-262249757D02*
X402354510Y-262321185D01*
X402354510Y-262321185D02*
X402283081Y-262392614D01*
X402283081Y-262392614D02*
X402211653Y-262321185D01*
X402211653Y-262321185D02*
X402283081Y-262249757D01*
X402283081Y-262249757D02*
X402283081Y-262392614D01*
X404425939Y-261678328D02*
X404568796Y-261678328D01*
X404568796Y-261678328D02*
X404711653Y-261749757D01*
X404711653Y-261749757D02*
X404783082Y-261821185D01*
X404783082Y-261821185D02*
X404854510Y-261964042D01*
X404854510Y-261964042D02*
X404925939Y-262249757D01*
X404925939Y-262249757D02*
X404925939Y-262606900D01*
X404925939Y-262606900D02*
X404854510Y-262892614D01*
X404854510Y-262892614D02*
X404783082Y-263035471D01*
X404783082Y-263035471D02*
X404711653Y-263106900D01*
X404711653Y-263106900D02*
X404568796Y-263178328D01*
X404568796Y-263178328D02*
X404425939Y-263178328D01*
X404425939Y-263178328D02*
X404283082Y-263106900D01*
X404283082Y-263106900D02*
X404211653Y-263035471D01*
X404211653Y-263035471D02*
X404140224Y-262892614D01*
X404140224Y-262892614D02*
X404068796Y-262606900D01*
X404068796Y-262606900D02*
X404068796Y-262249757D01*
X404068796Y-262249757D02*
X404140224Y-261964042D01*
X404140224Y-261964042D02*
X404211653Y-261821185D01*
X404211653Y-261821185D02*
X404283082Y-261749757D01*
X404283082Y-261749757D02*
X404425939Y-261678328D01*
D10*
D11*
X313184398Y-263114700D02*
X313398684Y-263186128D01*
X313398684Y-263186128D02*
X313755826Y-263186128D01*
X313755826Y-263186128D02*
X313898684Y-263114700D01*
X313898684Y-263114700D02*
X313970112Y-263043271D01*
X313970112Y-263043271D02*
X314041541Y-262900414D01*
X314041541Y-262900414D02*
X314041541Y-262757557D01*
X314041541Y-262757557D02*
X313970112Y-262614700D01*
X313970112Y-262614700D02*
X313898684Y-262543271D01*
X313898684Y-262543271D02*
X313755826Y-262471842D01*
X313755826Y-262471842D02*
X313470112Y-262400414D01*
X313470112Y-262400414D02*
X313327255Y-262328985D01*
X313327255Y-262328985D02*
X313255826Y-262257557D01*
X313255826Y-262257557D02*
X313184398Y-262114700D01*
X313184398Y-262114700D02*
X313184398Y-261971842D01*
X313184398Y-261971842D02*
X313255826Y-261828985D01*
X313255826Y-261828985D02*
X313327255Y-261757557D01*
X313327255Y-261757557D02*
X313470112Y-261686128D01*
X313470112Y-261686128D02*
X313827255Y-261686128D01*
X313827255Y-261686128D02*
X314041541Y-261757557D01*
X314684397Y-263186128D02*
X314684397Y-262186128D01*
X314684397Y-261686128D02*
X314612969Y-261757557D01*
X314612969Y-261757557D02*
X314684397Y-261828985D01*
X314684397Y-261828985D02*
X314755826Y-261757557D01*
X314755826Y-261757557D02*
X314684397Y-261686128D01*
X314684397Y-261686128D02*
X314684397Y-261828985D01*
X315255826Y-262186128D02*
X316041541Y-262186128D01*
X316041541Y-262186128D02*
X315255826Y-263186128D01*
X315255826Y-263186128D02*
X316041541Y-263186128D01*
X317184398Y-263114700D02*
X317041541Y-263186128D01*
X317041541Y-263186128D02*
X316755827Y-263186128D01*
X316755827Y-263186128D02*
X316612969Y-263114700D01*
X316612969Y-263114700D02*
X316541541Y-262971842D01*
X316541541Y-262971842D02*
X316541541Y-262400414D01*
X316541541Y-262400414D02*
X316612969Y-262257557D01*
X316612969Y-262257557D02*
X316755827Y-262186128D01*
X316755827Y-262186128D02*
X317041541Y-262186128D01*
X317041541Y-262186128D02*
X317184398Y-262257557D01*
X317184398Y-262257557D02*
X317255827Y-262400414D01*
X317255827Y-262400414D02*
X317255827Y-262543271D01*
X317255827Y-262543271D02*
X316541541Y-262686128D01*
X317898683Y-263043271D02*
X317970112Y-263114700D01*
X317970112Y-263114700D02*
X317898683Y-263186128D01*
X317898683Y-263186128D02*
X317827255Y-263114700D01*
X317827255Y-263114700D02*
X317898683Y-263043271D01*
X317898683Y-263043271D02*
X317898683Y-263186128D01*
X317898683Y-262257557D02*
X317970112Y-262328985D01*
X317970112Y-262328985D02*
X317898683Y-262400414D01*
X317898683Y-262400414D02*
X317827255Y-262328985D01*
X317827255Y-262328985D02*
X317898683Y-262257557D01*
X317898683Y-262257557D02*
X317898683Y-262400414D01*
X319755826Y-261686128D02*
X319755826Y-262900414D01*
X319755826Y-262900414D02*
X319827255Y-263043271D01*
X319827255Y-263043271D02*
X319898684Y-263114700D01*
X319898684Y-263114700D02*
X320041541Y-263186128D01*
X320041541Y-263186128D02*
X320327255Y-263186128D01*
X320327255Y-263186128D02*
X320470112Y-263114700D01*
X320470112Y-263114700D02*
X320541541Y-263043271D01*
X320541541Y-263043271D02*
X320612969Y-262900414D01*
X320612969Y-262900414D02*
X320612969Y-261686128D01*
X321255827Y-263114700D02*
X321470113Y-263186128D01*
X321470113Y-263186128D02*
X321827255Y-263186128D01*
X321827255Y-263186128D02*
X321970113Y-263114700D01*
X321970113Y-263114700D02*
X322041541Y-263043271D01*
X322041541Y-263043271D02*
X322112970Y-262900414D01*
X322112970Y-262900414D02*
X322112970Y-262757557D01*
X322112970Y-262757557D02*
X322041541Y-262614700D01*
X322041541Y-262614700D02*
X321970113Y-262543271D01*
X321970113Y-262543271D02*
X321827255Y-262471842D01*
X321827255Y-262471842D02*
X321541541Y-262400414D01*
X321541541Y-262400414D02*
X321398684Y-262328985D01*
X321398684Y-262328985D02*
X321327255Y-262257557D01*
X321327255Y-262257557D02*
X321255827Y-262114700D01*
X321255827Y-262114700D02*
X321255827Y-261971842D01*
X321255827Y-261971842D02*
X321327255Y-261828985D01*
X321327255Y-261828985D02*
X321398684Y-261757557D01*
X321398684Y-261757557D02*
X321541541Y-261686128D01*
X321541541Y-261686128D02*
X321898684Y-261686128D01*
X321898684Y-261686128D02*
X322112970Y-261757557D01*
X323470112Y-263186128D02*
X322755826Y-263186128D01*
X322755826Y-263186128D02*
X322755826Y-261686128D01*
X324541541Y-263114700D02*
X324398684Y-263186128D01*
X324398684Y-263186128D02*
X324112970Y-263186128D01*
X324112970Y-263186128D02*
X323970112Y-263114700D01*
X323970112Y-263114700D02*
X323898684Y-262971842D01*
X323898684Y-262971842D02*
X323898684Y-262400414D01*
X323898684Y-262400414D02*
X323970112Y-262257557D01*
X323970112Y-262257557D02*
X324112970Y-262186128D01*
X324112970Y-262186128D02*
X324398684Y-262186128D01*
X324398684Y-262186128D02*
X324541541Y-262257557D01*
X324541541Y-262257557D02*
X324612970Y-262400414D01*
X324612970Y-262400414D02*
X324612970Y-262543271D01*
X324612970Y-262543271D02*
X323898684Y-262686128D01*
X325898684Y-263186128D02*
X325898684Y-261686128D01*
X325898684Y-263114700D02*
X325755826Y-263186128D01*
X325755826Y-263186128D02*
X325470112Y-263186128D01*
X325470112Y-263186128D02*
X325327255Y-263114700D01*
X325327255Y-263114700D02*
X325255826Y-263043271D01*
X325255826Y-263043271D02*
X325184398Y-262900414D01*
X325184398Y-262900414D02*
X325184398Y-262471842D01*
X325184398Y-262471842D02*
X325255826Y-262328985D01*
X325255826Y-262328985D02*
X325327255Y-262257557D01*
X325327255Y-262257557D02*
X325470112Y-262186128D01*
X325470112Y-262186128D02*
X325755826Y-262186128D01*
X325755826Y-262186128D02*
X325898684Y-262257557D01*
X327255827Y-262186128D02*
X327255827Y-263400414D01*
X327255827Y-263400414D02*
X327184398Y-263543271D01*
X327184398Y-263543271D02*
X327112969Y-263614700D01*
X327112969Y-263614700D02*
X326970112Y-263686128D01*
X326970112Y-263686128D02*
X326755827Y-263686128D01*
X326755827Y-263686128D02*
X326612969Y-263614700D01*
X327255827Y-263114700D02*
X327112969Y-263186128D01*
X327112969Y-263186128D02*
X326827255Y-263186128D01*
X326827255Y-263186128D02*
X326684398Y-263114700D01*
X326684398Y-263114700D02*
X326612969Y-263043271D01*
X326612969Y-263043271D02*
X326541541Y-262900414D01*
X326541541Y-262900414D02*
X326541541Y-262471842D01*
X326541541Y-262471842D02*
X326612969Y-262328985D01*
X326612969Y-262328985D02*
X326684398Y-262257557D01*
X326684398Y-262257557D02*
X326827255Y-262186128D01*
X326827255Y-262186128D02*
X327112969Y-262186128D01*
X327112969Y-262186128D02*
X327255827Y-262257557D01*
X328541541Y-263114700D02*
X328398684Y-263186128D01*
X328398684Y-263186128D02*
X328112970Y-263186128D01*
X328112970Y-263186128D02*
X327970112Y-263114700D01*
X327970112Y-263114700D02*
X327898684Y-262971842D01*
X327898684Y-262971842D02*
X327898684Y-262400414D01*
X327898684Y-262400414D02*
X327970112Y-262257557D01*
X327970112Y-262257557D02*
X328112970Y-262186128D01*
X328112970Y-262186128D02*
X328398684Y-262186128D01*
X328398684Y-262186128D02*
X328541541Y-262257557D01*
X328541541Y-262257557D02*
X328612970Y-262400414D01*
X328612970Y-262400414D02*
X328612970Y-262543271D01*
X328612970Y-262543271D02*
X327898684Y-262686128D01*
X329255826Y-263186128D02*
X329255826Y-262186128D01*
X329255826Y-262471842D02*
X329327255Y-262328985D01*
X329327255Y-262328985D02*
X329398684Y-262257557D01*
X329398684Y-262257557D02*
X329541541Y-262186128D01*
X329541541Y-262186128D02*
X329684398Y-262186128D01*
D10*
D11*
X398255826Y-265986128D02*
X398255826Y-264486128D01*
X399612970Y-265986128D02*
X399612970Y-264486128D01*
X399612970Y-265914700D02*
X399470112Y-265986128D01*
X399470112Y-265986128D02*
X399184398Y-265986128D01*
X399184398Y-265986128D02*
X399041541Y-265914700D01*
X399041541Y-265914700D02*
X398970112Y-265843271D01*
X398970112Y-265843271D02*
X398898684Y-265700414D01*
X398898684Y-265700414D02*
X398898684Y-265271842D01*
X398898684Y-265271842D02*
X398970112Y-265128985D01*
X398970112Y-265128985D02*
X399041541Y-265057557D01*
X399041541Y-265057557D02*
X399184398Y-264986128D01*
X399184398Y-264986128D02*
X399470112Y-264986128D01*
X399470112Y-264986128D02*
X399612970Y-265057557D01*
X400327255Y-265843271D02*
X400398684Y-265914700D01*
X400398684Y-265914700D02*
X400327255Y-265986128D01*
X400327255Y-265986128D02*
X400255827Y-265914700D01*
X400255827Y-265914700D02*
X400327255Y-265843271D01*
X400327255Y-265843271D02*
X400327255Y-265986128D01*
X400327255Y-265057557D02*
X400398684Y-265128985D01*
X400398684Y-265128985D02*
X400327255Y-265200414D01*
X400327255Y-265200414D02*
X400255827Y-265128985D01*
X400255827Y-265128985D02*
X400327255Y-265057557D01*
X400327255Y-265057557D02*
X400327255Y-265200414D01*
X402970113Y-265986128D02*
X402112970Y-265986128D01*
X402541541Y-265986128D02*
X402541541Y-264486128D01*
X402541541Y-264486128D02*
X402398684Y-264700414D01*
X402398684Y-264700414D02*
X402255827Y-264843271D01*
X402255827Y-264843271D02*
X402112970Y-264914700D01*
X404684398Y-264414700D02*
X403398684Y-266343271D01*
X405970113Y-265986128D02*
X405112970Y-265986128D01*
X405541541Y-265986128D02*
X405541541Y-264486128D01*
X405541541Y-264486128D02*
X405398684Y-264700414D01*
X405398684Y-264700414D02*
X405255827Y-264843271D01*
X405255827Y-264843271D02*
X405112970Y-264914700D01*
D10*
D11*
X311800000Y-256900000D02*
X419800000Y-256900000D01*
D10*
D13*
X313491728Y-257604438D02*
X314634585Y-257604438D01*
X313813157Y-259604438D02*
X314063157Y-257604438D01*
X315051252Y-259604438D02*
X315217919Y-258271104D01*
X315301252Y-257604438D02*
X315194109Y-257699676D01*
X315194109Y-257699676D02*
X315277443Y-257794914D01*
X315277443Y-257794914D02*
X315384586Y-257699676D01*
X315384586Y-257699676D02*
X315301252Y-257604438D01*
X315301252Y-257604438D02*
X315277443Y-257794914D01*
X315884586Y-258271104D02*
X316646490Y-258271104D01*
X316253633Y-257604438D02*
X316039348Y-259318723D01*
X316039348Y-259318723D02*
X316110776Y-259509200D01*
X316110776Y-259509200D02*
X316289348Y-259604438D01*
X316289348Y-259604438D02*
X316479824Y-259604438D01*
X317432205Y-259604438D02*
X317253633Y-259509200D01*
X317253633Y-259509200D02*
X317182205Y-259318723D01*
X317182205Y-259318723D02*
X317396490Y-257604438D01*
X318967919Y-259509200D02*
X318765538Y-259604438D01*
X318765538Y-259604438D02*
X318384585Y-259604438D01*
X318384585Y-259604438D02*
X318206014Y-259509200D01*
X318206014Y-259509200D02*
X318134585Y-259318723D01*
X318134585Y-259318723D02*
X318229824Y-258556819D01*
X318229824Y-258556819D02*
X318348871Y-258366342D01*
X318348871Y-258366342D02*
X318551252Y-258271104D01*
X318551252Y-258271104D02*
X318932204Y-258271104D01*
X318932204Y-258271104D02*
X319110776Y-258366342D01*
X319110776Y-258366342D02*
X319182204Y-258556819D01*
X319182204Y-258556819D02*
X319158395Y-258747295D01*
X319158395Y-258747295D02*
X318182204Y-258937771D01*
X319932205Y-259413961D02*
X320015538Y-259509200D01*
X320015538Y-259509200D02*
X319908395Y-259604438D01*
X319908395Y-259604438D02*
X319825062Y-259509200D01*
X319825062Y-259509200D02*
X319932205Y-259413961D01*
X319932205Y-259413961D02*
X319908395Y-259604438D01*
X320063157Y-258366342D02*
X320146490Y-258461580D01*
X320146490Y-258461580D02*
X320039348Y-258556819D01*
X320039348Y-258556819D02*
X319956014Y-258461580D01*
X319956014Y-258461580D02*
X320063157Y-258366342D01*
X320063157Y-258366342D02*
X320039348Y-258556819D01*
X322384586Y-259604438D02*
X322634586Y-257604438D01*
X322634586Y-257604438D02*
X323396491Y-257604438D01*
X323396491Y-257604438D02*
X323575062Y-257699676D01*
X323575062Y-257699676D02*
X323658396Y-257794914D01*
X323658396Y-257794914D02*
X323729824Y-257985390D01*
X323729824Y-257985390D02*
X323694110Y-258271104D01*
X323694110Y-258271104D02*
X323575062Y-258461580D01*
X323575062Y-258461580D02*
X323467920Y-258556819D01*
X323467920Y-258556819D02*
X323265539Y-258652057D01*
X323265539Y-258652057D02*
X322503634Y-258652057D01*
X325241729Y-259604438D02*
X325372681Y-258556819D01*
X325372681Y-258556819D02*
X325301253Y-258366342D01*
X325301253Y-258366342D02*
X325122681Y-258271104D01*
X325122681Y-258271104D02*
X324741729Y-258271104D01*
X324741729Y-258271104D02*
X324539348Y-258366342D01*
X325253634Y-259509200D02*
X325051253Y-259604438D01*
X325051253Y-259604438D02*
X324575062Y-259604438D01*
X324575062Y-259604438D02*
X324396491Y-259509200D01*
X324396491Y-259509200D02*
X324325062Y-259318723D01*
X324325062Y-259318723D02*
X324348872Y-259128247D01*
X324348872Y-259128247D02*
X324467920Y-258937771D01*
X324467920Y-258937771D02*
X324670301Y-258842533D01*
X324670301Y-258842533D02*
X325146491Y-258842533D01*
X325146491Y-258842533D02*
X325348872Y-258747295D01*
X327063158Y-259509200D02*
X326860777Y-259604438D01*
X326860777Y-259604438D02*
X326479825Y-259604438D01*
X326479825Y-259604438D02*
X326301253Y-259509200D01*
X326301253Y-259509200D02*
X326217920Y-259413961D01*
X326217920Y-259413961D02*
X326146491Y-259223485D01*
X326146491Y-259223485D02*
X326217920Y-258652057D01*
X326217920Y-258652057D02*
X326336967Y-258461580D01*
X326336967Y-258461580D02*
X326444110Y-258366342D01*
X326444110Y-258366342D02*
X326646491Y-258271104D01*
X326646491Y-258271104D02*
X327027444Y-258271104D01*
X327027444Y-258271104D02*
X327206015Y-258366342D01*
X327825063Y-259509200D02*
X328098872Y-259604438D01*
X328098872Y-259604438D02*
X328575063Y-259604438D01*
X328575063Y-259604438D02*
X328777444Y-259509200D01*
X328777444Y-259509200D02*
X328884587Y-259413961D01*
X328884587Y-259413961D02*
X329003634Y-259223485D01*
X329003634Y-259223485D02*
X329027444Y-259033009D01*
X329027444Y-259033009D02*
X328956015Y-258842533D01*
X328956015Y-258842533D02*
X328872682Y-258747295D01*
X328872682Y-258747295D02*
X328694111Y-258652057D01*
X328694111Y-258652057D02*
X328325063Y-258556819D01*
X328325063Y-258556819D02*
X328146491Y-258461580D01*
X328146491Y-258461580D02*
X328063158Y-258366342D01*
X328063158Y-258366342D02*
X327991730Y-258175866D01*
X327991730Y-258175866D02*
X328015539Y-257985390D01*
X328015539Y-257985390D02*
X328134587Y-257794914D01*
X328134587Y-257794914D02*
X328241730Y-257699676D01*
X328241730Y-257699676D02*
X328444111Y-257604438D01*
X328444111Y-257604438D02*
X328920301Y-257604438D01*
X328920301Y-257604438D02*
X329194111Y-257699676D01*
X330670301Y-259604438D02*
X330801253Y-258556819D01*
X330801253Y-258556819D02*
X330729825Y-258366342D01*
X330729825Y-258366342D02*
X330551253Y-258271104D01*
X330551253Y-258271104D02*
X330170301Y-258271104D01*
X330170301Y-258271104D02*
X329967920Y-258366342D01*
X330682206Y-259509200D02*
X330479825Y-259604438D01*
X330479825Y-259604438D02*
X330003634Y-259604438D01*
X330003634Y-259604438D02*
X329825063Y-259509200D01*
X329825063Y-259509200D02*
X329753634Y-259318723D01*
X329753634Y-259318723D02*
X329777444Y-259128247D01*
X329777444Y-259128247D02*
X329896492Y-258937771D01*
X329896492Y-258937771D02*
X330098873Y-258842533D01*
X330098873Y-258842533D02*
X330575063Y-258842533D01*
X330575063Y-258842533D02*
X330777444Y-258747295D01*
X331503635Y-258271104D02*
X332265539Y-258271104D01*
X331872682Y-257604438D02*
X331658397Y-259318723D01*
X331658397Y-259318723D02*
X331729825Y-259509200D01*
X331729825Y-259509200D02*
X331908397Y-259604438D01*
X331908397Y-259604438D02*
X332098873Y-259604438D01*
X334265540Y-259033009D02*
X335217921Y-259033009D01*
X334003635Y-259604438D02*
X334920302Y-257604438D01*
X334920302Y-257604438D02*
X335336968Y-259604438D01*
X336289350Y-259604438D02*
X336110778Y-259509200D01*
X336110778Y-259509200D02*
X336039350Y-259318723D01*
X336039350Y-259318723D02*
X336253635Y-257604438D01*
X337217921Y-258271104D02*
X336967921Y-260271104D01*
X337206016Y-258366342D02*
X337408397Y-258271104D01*
X337408397Y-258271104D02*
X337789349Y-258271104D01*
X337789349Y-258271104D02*
X337967921Y-258366342D01*
X337967921Y-258366342D02*
X338051254Y-258461580D01*
X338051254Y-258461580D02*
X338122683Y-258652057D01*
X338122683Y-258652057D02*
X338051254Y-259223485D01*
X338051254Y-259223485D02*
X337932207Y-259413961D01*
X337932207Y-259413961D02*
X337825064Y-259509200D01*
X337825064Y-259509200D02*
X337622683Y-259604438D01*
X337622683Y-259604438D02*
X337241730Y-259604438D01*
X337241730Y-259604438D02*
X337063159Y-259509200D01*
X338860778Y-259604438D02*
X339110778Y-257604438D01*
X339717921Y-259604438D02*
X339848873Y-258556819D01*
X339848873Y-258556819D02*
X339777445Y-258366342D01*
X339777445Y-258366342D02*
X339598873Y-258271104D01*
X339598873Y-258271104D02*
X339313159Y-258271104D01*
X339313159Y-258271104D02*
X339110778Y-258366342D01*
X339110778Y-258366342D02*
X339003635Y-258461580D01*
X341527445Y-259604438D02*
X341658397Y-258556819D01*
X341658397Y-258556819D02*
X341586969Y-258366342D01*
X341586969Y-258366342D02*
X341408397Y-258271104D01*
X341408397Y-258271104D02*
X341027445Y-258271104D01*
X341027445Y-258271104D02*
X340825064Y-258366342D01*
X341539350Y-259509200D02*
X341336969Y-259604438D01*
X341336969Y-259604438D02*
X340860778Y-259604438D01*
X340860778Y-259604438D02*
X340682207Y-259509200D01*
X340682207Y-259509200D02*
X340610778Y-259318723D01*
X340610778Y-259318723D02*
X340634588Y-259128247D01*
X340634588Y-259128247D02*
X340753636Y-258937771D01*
X340753636Y-258937771D02*
X340956017Y-258842533D01*
X340956017Y-258842533D02*
X341432207Y-258842533D01*
X341432207Y-258842533D02*
X341634588Y-258747295D01*
X344801255Y-258556819D02*
X345075065Y-258652057D01*
X345075065Y-258652057D02*
X345158398Y-258747295D01*
X345158398Y-258747295D02*
X345229827Y-258937771D01*
X345229827Y-258937771D02*
X345194112Y-259223485D01*
X345194112Y-259223485D02*
X345075065Y-259413961D01*
X345075065Y-259413961D02*
X344967922Y-259509200D01*
X344967922Y-259509200D02*
X344765541Y-259604438D01*
X344765541Y-259604438D02*
X344003636Y-259604438D01*
X344003636Y-259604438D02*
X344253636Y-257604438D01*
X344253636Y-257604438D02*
X344920303Y-257604438D01*
X344920303Y-257604438D02*
X345098874Y-257699676D01*
X345098874Y-257699676D02*
X345182208Y-257794914D01*
X345182208Y-257794914D02*
X345253636Y-257985390D01*
X345253636Y-257985390D02*
X345229827Y-258175866D01*
X345229827Y-258175866D02*
X345110779Y-258366342D01*
X345110779Y-258366342D02*
X345003636Y-258461580D01*
X345003636Y-258461580D02*
X344801255Y-258556819D01*
X344801255Y-258556819D02*
X344134589Y-258556819D01*
X346289351Y-259604438D02*
X346110779Y-259509200D01*
X346110779Y-259509200D02*
X346027446Y-259413961D01*
X346027446Y-259413961D02*
X345956017Y-259223485D01*
X345956017Y-259223485D02*
X346027446Y-258652057D01*
X346027446Y-258652057D02*
X346146493Y-258461580D01*
X346146493Y-258461580D02*
X346253636Y-258366342D01*
X346253636Y-258366342D02*
X346456017Y-258271104D01*
X346456017Y-258271104D02*
X346741731Y-258271104D01*
X346741731Y-258271104D02*
X346920303Y-258366342D01*
X346920303Y-258366342D02*
X347003636Y-258461580D01*
X347003636Y-258461580D02*
X347075065Y-258652057D01*
X347075065Y-258652057D02*
X347003636Y-259223485D01*
X347003636Y-259223485D02*
X346884589Y-259413961D01*
X346884589Y-259413961D02*
X346777446Y-259509200D01*
X346777446Y-259509200D02*
X346575065Y-259604438D01*
X346575065Y-259604438D02*
X346289351Y-259604438D01*
X348670303Y-259604438D02*
X348801255Y-258556819D01*
X348801255Y-258556819D02*
X348729827Y-258366342D01*
X348729827Y-258366342D02*
X348551255Y-258271104D01*
X348551255Y-258271104D02*
X348170303Y-258271104D01*
X348170303Y-258271104D02*
X347967922Y-258366342D01*
X348682208Y-259509200D02*
X348479827Y-259604438D01*
X348479827Y-259604438D02*
X348003636Y-259604438D01*
X348003636Y-259604438D02*
X347825065Y-259509200D01*
X347825065Y-259509200D02*
X347753636Y-259318723D01*
X347753636Y-259318723D02*
X347777446Y-259128247D01*
X347777446Y-259128247D02*
X347896494Y-258937771D01*
X347896494Y-258937771D02*
X348098875Y-258842533D01*
X348098875Y-258842533D02*
X348575065Y-258842533D01*
X348575065Y-258842533D02*
X348777446Y-258747295D01*
X349622684Y-259604438D02*
X349789351Y-258271104D01*
X349741732Y-258652057D02*
X349860779Y-258461580D01*
X349860779Y-258461580D02*
X349967922Y-258366342D01*
X349967922Y-258366342D02*
X350170303Y-258271104D01*
X350170303Y-258271104D02*
X350360779Y-258271104D01*
X351717922Y-259604438D02*
X351967922Y-257604438D01*
X351729827Y-259509200D02*
X351527446Y-259604438D01*
X351527446Y-259604438D02*
X351146494Y-259604438D01*
X351146494Y-259604438D02*
X350967922Y-259509200D01*
X350967922Y-259509200D02*
X350884589Y-259413961D01*
X350884589Y-259413961D02*
X350813160Y-259223485D01*
X350813160Y-259223485D02*
X350884589Y-258652057D01*
X350884589Y-258652057D02*
X351003636Y-258461580D01*
X351003636Y-258461580D02*
X351110779Y-258366342D01*
X351110779Y-258366342D02*
X351313160Y-258271104D01*
X351313160Y-258271104D02*
X351694113Y-258271104D01*
X351694113Y-258271104D02*
X351872684Y-258366342D01*
D10*
D11*
X313755826Y-255000414D02*
X313255826Y-255000414D01*
X313255826Y-255786128D02*
X313255826Y-254286128D01*
X313255826Y-254286128D02*
X313970112Y-254286128D01*
X314541540Y-255786128D02*
X314541540Y-254786128D01*
X314541540Y-254286128D02*
X314470112Y-254357557D01*
X314470112Y-254357557D02*
X314541540Y-254428985D01*
X314541540Y-254428985D02*
X314612969Y-254357557D01*
X314612969Y-254357557D02*
X314541540Y-254286128D01*
X314541540Y-254286128D02*
X314541540Y-254428985D01*
X315470112Y-255786128D02*
X315327255Y-255714700D01*
X315327255Y-255714700D02*
X315255826Y-255571842D01*
X315255826Y-255571842D02*
X315255826Y-254286128D01*
X316612969Y-255714700D02*
X316470112Y-255786128D01*
X316470112Y-255786128D02*
X316184398Y-255786128D01*
X316184398Y-255786128D02*
X316041540Y-255714700D01*
X316041540Y-255714700D02*
X315970112Y-255571842D01*
X315970112Y-255571842D02*
X315970112Y-255000414D01*
X315970112Y-255000414D02*
X316041540Y-254857557D01*
X316041540Y-254857557D02*
X316184398Y-254786128D01*
X316184398Y-254786128D02*
X316470112Y-254786128D01*
X316470112Y-254786128D02*
X316612969Y-254857557D01*
X316612969Y-254857557D02*
X316684398Y-255000414D01*
X316684398Y-255000414D02*
X316684398Y-255143271D01*
X316684398Y-255143271D02*
X315970112Y-255286128D01*
X317327254Y-255643271D02*
X317398683Y-255714700D01*
X317398683Y-255714700D02*
X317327254Y-255786128D01*
X317327254Y-255786128D02*
X317255826Y-255714700D01*
X317255826Y-255714700D02*
X317327254Y-255643271D01*
X317327254Y-255643271D02*
X317327254Y-255786128D01*
X317327254Y-254857557D02*
X317398683Y-254928985D01*
X317398683Y-254928985D02*
X317327254Y-255000414D01*
X317327254Y-255000414D02*
X317255826Y-254928985D01*
X317255826Y-254928985D02*
X317327254Y-254857557D01*
X317327254Y-254857557D02*
X317327254Y-255000414D01*
X319184397Y-255786128D02*
X319184397Y-254286128D01*
X319184397Y-254286128D02*
X319755826Y-254286128D01*
X319755826Y-254286128D02*
X319898683Y-254357557D01*
X319898683Y-254357557D02*
X319970112Y-254428985D01*
X319970112Y-254428985D02*
X320041540Y-254571842D01*
X320041540Y-254571842D02*
X320041540Y-254786128D01*
X320041540Y-254786128D02*
X319970112Y-254928985D01*
X319970112Y-254928985D02*
X319898683Y-255000414D01*
X319898683Y-255000414D02*
X319755826Y-255071842D01*
X319755826Y-255071842D02*
X319184397Y-255071842D01*
X321327255Y-255786128D02*
X321327255Y-255000414D01*
X321327255Y-255000414D02*
X321255826Y-254857557D01*
X321255826Y-254857557D02*
X321112969Y-254786128D01*
X321112969Y-254786128D02*
X320827255Y-254786128D01*
X320827255Y-254786128D02*
X320684397Y-254857557D01*
X321327255Y-255714700D02*
X321184397Y-255786128D01*
X321184397Y-255786128D02*
X320827255Y-255786128D01*
X320827255Y-255786128D02*
X320684397Y-255714700D01*
X320684397Y-255714700D02*
X320612969Y-255571842D01*
X320612969Y-255571842D02*
X320612969Y-255428985D01*
X320612969Y-255428985D02*
X320684397Y-255286128D01*
X320684397Y-255286128D02*
X320827255Y-255214700D01*
X320827255Y-255214700D02*
X321184397Y-255214700D01*
X321184397Y-255214700D02*
X321327255Y-255143271D01*
X322684398Y-255714700D02*
X322541540Y-255786128D01*
X322541540Y-255786128D02*
X322255826Y-255786128D01*
X322255826Y-255786128D02*
X322112969Y-255714700D01*
X322112969Y-255714700D02*
X322041540Y-255643271D01*
X322041540Y-255643271D02*
X321970112Y-255500414D01*
X321970112Y-255500414D02*
X321970112Y-255071842D01*
X321970112Y-255071842D02*
X322041540Y-254928985D01*
X322041540Y-254928985D02*
X322112969Y-254857557D01*
X322112969Y-254857557D02*
X322255826Y-254786128D01*
X322255826Y-254786128D02*
X322541540Y-254786128D01*
X322541540Y-254786128D02*
X322684398Y-254857557D01*
X323255826Y-255714700D02*
X323470112Y-255786128D01*
X323470112Y-255786128D02*
X323827254Y-255786128D01*
X323827254Y-255786128D02*
X323970112Y-255714700D01*
X323970112Y-255714700D02*
X324041540Y-255643271D01*
X324041540Y-255643271D02*
X324112969Y-255500414D01*
X324112969Y-255500414D02*
X324112969Y-255357557D01*
X324112969Y-255357557D02*
X324041540Y-255214700D01*
X324041540Y-255214700D02*
X323970112Y-255143271D01*
X323970112Y-255143271D02*
X323827254Y-255071842D01*
X323827254Y-255071842D02*
X323541540Y-255000414D01*
X323541540Y-255000414D02*
X323398683Y-254928985D01*
X323398683Y-254928985D02*
X323327254Y-254857557D01*
X323327254Y-254857557D02*
X323255826Y-254714700D01*
X323255826Y-254714700D02*
X323255826Y-254571842D01*
X323255826Y-254571842D02*
X323327254Y-254428985D01*
X323327254Y-254428985D02*
X323398683Y-254357557D01*
X323398683Y-254357557D02*
X323541540Y-254286128D01*
X323541540Y-254286128D02*
X323898683Y-254286128D01*
X323898683Y-254286128D02*
X324112969Y-254357557D01*
X325398683Y-255786128D02*
X325398683Y-255000414D01*
X325398683Y-255000414D02*
X325327254Y-254857557D01*
X325327254Y-254857557D02*
X325184397Y-254786128D01*
X325184397Y-254786128D02*
X324898683Y-254786128D01*
X324898683Y-254786128D02*
X324755825Y-254857557D01*
X325398683Y-255714700D02*
X325255825Y-255786128D01*
X325255825Y-255786128D02*
X324898683Y-255786128D01*
X324898683Y-255786128D02*
X324755825Y-255714700D01*
X324755825Y-255714700D02*
X324684397Y-255571842D01*
X324684397Y-255571842D02*
X324684397Y-255428985D01*
X324684397Y-255428985D02*
X324755825Y-255286128D01*
X324755825Y-255286128D02*
X324898683Y-255214700D01*
X324898683Y-255214700D02*
X325255825Y-255214700D01*
X325255825Y-255214700D02*
X325398683Y-255143271D01*
X325898683Y-254786128D02*
X326470111Y-254786128D01*
X326112968Y-254286128D02*
X326112968Y-255571842D01*
X326112968Y-255571842D02*
X326184397Y-255714700D01*
X326184397Y-255714700D02*
X326327254Y-255786128D01*
X326327254Y-255786128D02*
X326470111Y-255786128D01*
X326612969Y-255928985D02*
X327755826Y-255928985D01*
X328112968Y-255786128D02*
X328112968Y-254286128D01*
X328112968Y-254286128D02*
X328470111Y-254286128D01*
X328470111Y-254286128D02*
X328684397Y-254357557D01*
X328684397Y-254357557D02*
X328827254Y-254500414D01*
X328827254Y-254500414D02*
X328898683Y-254643271D01*
X328898683Y-254643271D02*
X328970111Y-254928985D01*
X328970111Y-254928985D02*
X328970111Y-255143271D01*
X328970111Y-255143271D02*
X328898683Y-255428985D01*
X328898683Y-255428985D02*
X328827254Y-255571842D01*
X328827254Y-255571842D02*
X328684397Y-255714700D01*
X328684397Y-255714700D02*
X328470111Y-255786128D01*
X328470111Y-255786128D02*
X328112968Y-255786128D01*
X330184397Y-255714700D02*
X330041540Y-255786128D01*
X330041540Y-255786128D02*
X329755826Y-255786128D01*
X329755826Y-255786128D02*
X329612968Y-255714700D01*
X329612968Y-255714700D02*
X329541540Y-255571842D01*
X329541540Y-255571842D02*
X329541540Y-255000414D01*
X329541540Y-255000414D02*
X329612968Y-254857557D01*
X329612968Y-254857557D02*
X329755826Y-254786128D01*
X329755826Y-254786128D02*
X330041540Y-254786128D01*
X330041540Y-254786128D02*
X330184397Y-254857557D01*
X330184397Y-254857557D02*
X330255826Y-255000414D01*
X330255826Y-255000414D02*
X330255826Y-255143271D01*
X330255826Y-255143271D02*
X329541540Y-255286128D01*
X330755825Y-254786128D02*
X331112968Y-255786128D01*
X331112968Y-255786128D02*
X331470111Y-254786128D01*
X331684397Y-255928985D02*
X332827254Y-255928985D01*
X334041539Y-255786128D02*
X333541539Y-255071842D01*
X333184396Y-255786128D02*
X333184396Y-254286128D01*
X333184396Y-254286128D02*
X333755825Y-254286128D01*
X333755825Y-254286128D02*
X333898682Y-254357557D01*
X333898682Y-254357557D02*
X333970111Y-254428985D01*
X333970111Y-254428985D02*
X334041539Y-254571842D01*
X334041539Y-254571842D02*
X334041539Y-254786128D01*
X334041539Y-254786128D02*
X333970111Y-254928985D01*
X333970111Y-254928985D02*
X333898682Y-255000414D01*
X333898682Y-255000414D02*
X333755825Y-255071842D01*
X333755825Y-255071842D02*
X333184396Y-255071842D01*
X335255825Y-255714700D02*
X335112968Y-255786128D01*
X335112968Y-255786128D02*
X334827254Y-255786128D01*
X334827254Y-255786128D02*
X334684396Y-255714700D01*
X334684396Y-255714700D02*
X334612968Y-255571842D01*
X334612968Y-255571842D02*
X334612968Y-255000414D01*
X334612968Y-255000414D02*
X334684396Y-254857557D01*
X334684396Y-254857557D02*
X334827254Y-254786128D01*
X334827254Y-254786128D02*
X335112968Y-254786128D01*
X335112968Y-254786128D02*
X335255825Y-254857557D01*
X335255825Y-254857557D02*
X335327254Y-255000414D01*
X335327254Y-255000414D02*
X335327254Y-255143271D01*
X335327254Y-255143271D02*
X334612968Y-255286128D01*
X335827253Y-254786128D02*
X336184396Y-255786128D01*
X336184396Y-255786128D02*
X336541539Y-254786128D01*
X337970110Y-255643271D02*
X337898682Y-255714700D01*
X337898682Y-255714700D02*
X337684396Y-255786128D01*
X337684396Y-255786128D02*
X337541539Y-255786128D01*
X337541539Y-255786128D02*
X337327253Y-255714700D01*
X337327253Y-255714700D02*
X337184396Y-255571842D01*
X337184396Y-255571842D02*
X337112967Y-255428985D01*
X337112967Y-255428985D02*
X337041539Y-255143271D01*
X337041539Y-255143271D02*
X337041539Y-254928985D01*
X337041539Y-254928985D02*
X337112967Y-254643271D01*
X337112967Y-254643271D02*
X337184396Y-254500414D01*
X337184396Y-254500414D02*
X337327253Y-254357557D01*
X337327253Y-254357557D02*
X337541539Y-254286128D01*
X337541539Y-254286128D02*
X337684396Y-254286128D01*
X337684396Y-254286128D02*
X337898682Y-254357557D01*
X337898682Y-254357557D02*
X337970110Y-254428985D01*
X338255825Y-255928985D02*
X339398682Y-255928985D01*
X339684396Y-254428985D02*
X339755824Y-254357557D01*
X339755824Y-254357557D02*
X339898682Y-254286128D01*
X339898682Y-254286128D02*
X340255824Y-254286128D01*
X340255824Y-254286128D02*
X340398682Y-254357557D01*
X340398682Y-254357557D02*
X340470110Y-254428985D01*
X340470110Y-254428985D02*
X340541539Y-254571842D01*
X340541539Y-254571842D02*
X340541539Y-254714700D01*
X340541539Y-254714700D02*
X340470110Y-254928985D01*
X340470110Y-254928985D02*
X339612967Y-255786128D01*
X339612967Y-255786128D02*
X340541539Y-255786128D01*
X341041538Y-254286128D02*
X341970110Y-254286128D01*
X341970110Y-254286128D02*
X341470110Y-254857557D01*
X341470110Y-254857557D02*
X341684395Y-254857557D01*
X341684395Y-254857557D02*
X341827253Y-254928985D01*
X341827253Y-254928985D02*
X341898681Y-255000414D01*
X341898681Y-255000414D02*
X341970110Y-255143271D01*
X341970110Y-255143271D02*
X341970110Y-255500414D01*
X341970110Y-255500414D02*
X341898681Y-255643271D01*
X341898681Y-255643271D02*
X341827253Y-255714700D01*
X341827253Y-255714700D02*
X341684395Y-255786128D01*
X341684395Y-255786128D02*
X341255824Y-255786128D01*
X341255824Y-255786128D02*
X341112967Y-255714700D01*
X341112967Y-255714700D02*
X341041538Y-255643271D01*
X343398681Y-255786128D02*
X342541538Y-255786128D01*
X342970109Y-255786128D02*
X342970109Y-254286128D01*
X342970109Y-254286128D02*
X342827252Y-254500414D01*
X342827252Y-254500414D02*
X342684395Y-254643271D01*
X342684395Y-254643271D02*
X342541538Y-254714700D01*
X344327252Y-254286128D02*
X344470109Y-254286128D01*
X344470109Y-254286128D02*
X344612966Y-254357557D01*
X344612966Y-254357557D02*
X344684395Y-254428985D01*
X344684395Y-254428985D02*
X344755823Y-254571842D01*
X344755823Y-254571842D02*
X344827252Y-254857557D01*
X344827252Y-254857557D02*
X344827252Y-255214700D01*
X344827252Y-255214700D02*
X344755823Y-255500414D01*
X344755823Y-255500414D02*
X344684395Y-255643271D01*
X344684395Y-255643271D02*
X344612966Y-255714700D01*
X344612966Y-255714700D02*
X344470109Y-255786128D01*
X344470109Y-255786128D02*
X344327252Y-255786128D01*
X344327252Y-255786128D02*
X344184395Y-255714700D01*
X344184395Y-255714700D02*
X344112966Y-255643271D01*
X344112966Y-255643271D02*
X344041537Y-255500414D01*
X344041537Y-255500414D02*
X343970109Y-255214700D01*
X343970109Y-255214700D02*
X343970109Y-254857557D01*
X343970109Y-254857557D02*
X344041537Y-254571842D01*
X344041537Y-254571842D02*
X344112966Y-254428985D01*
X344112966Y-254428985D02*
X344184395Y-254357557D01*
X344184395Y-254357557D02*
X344327252Y-254286128D01*
X346255823Y-255786128D02*
X345398680Y-255786128D01*
X345827251Y-255786128D02*
X345827251Y-254286128D01*
X345827251Y-254286128D02*
X345684394Y-254500414D01*
X345684394Y-254500414D02*
X345541537Y-254643271D01*
X345541537Y-254643271D02*
X345398680Y-254714700D01*
X347112965Y-254928985D02*
X346970108Y-254857557D01*
X346970108Y-254857557D02*
X346898679Y-254786128D01*
X346898679Y-254786128D02*
X346827251Y-254643271D01*
X346827251Y-254643271D02*
X346827251Y-254571842D01*
X346827251Y-254571842D02*
X346898679Y-254428985D01*
X346898679Y-254428985D02*
X346970108Y-254357557D01*
X346970108Y-254357557D02*
X347112965Y-254286128D01*
X347112965Y-254286128D02*
X347398679Y-254286128D01*
X347398679Y-254286128D02*
X347541537Y-254357557D01*
X347541537Y-254357557D02*
X347612965Y-254428985D01*
X347612965Y-254428985D02*
X347684394Y-254571842D01*
X347684394Y-254571842D02*
X347684394Y-254643271D01*
X347684394Y-254643271D02*
X347612965Y-254786128D01*
X347612965Y-254786128D02*
X347541537Y-254857557D01*
X347541537Y-254857557D02*
X347398679Y-254928985D01*
X347398679Y-254928985D02*
X347112965Y-254928985D01*
X347112965Y-254928985D02*
X346970108Y-255000414D01*
X346970108Y-255000414D02*
X346898679Y-255071842D01*
X346898679Y-255071842D02*
X346827251Y-255214700D01*
X346827251Y-255214700D02*
X346827251Y-255500414D01*
X346827251Y-255500414D02*
X346898679Y-255643271D01*
X346898679Y-255643271D02*
X346970108Y-255714700D01*
X346970108Y-255714700D02*
X347112965Y-255786128D01*
X347112965Y-255786128D02*
X347398679Y-255786128D01*
X347398679Y-255786128D02*
X347541537Y-255714700D01*
X347541537Y-255714700D02*
X347612965Y-255643271D01*
X347612965Y-255643271D02*
X347684394Y-255500414D01*
X347684394Y-255500414D02*
X347684394Y-255214700D01*
X347684394Y-255214700D02*
X347612965Y-255071842D01*
X347612965Y-255071842D02*
X347541537Y-255000414D01*
X347541537Y-255000414D02*
X347398679Y-254928985D01*
X348327250Y-255643271D02*
X348398679Y-255714700D01*
X348398679Y-255714700D02*
X348327250Y-255786128D01*
X348327250Y-255786128D02*
X348255822Y-255714700D01*
X348255822Y-255714700D02*
X348327250Y-255643271D01*
X348327250Y-255643271D02*
X348327250Y-255786128D01*
X349041536Y-255786128D02*
X349041536Y-254286128D01*
X349184394Y-255214700D02*
X349612965Y-255786128D01*
X349612965Y-254786128D02*
X349041536Y-255357557D01*
X350255822Y-255786128D02*
X350255822Y-254786128D01*
X350255822Y-254286128D02*
X350184394Y-254357557D01*
X350184394Y-254357557D02*
X350255822Y-254428985D01*
X350255822Y-254428985D02*
X350327251Y-254357557D01*
X350327251Y-254357557D02*
X350255822Y-254286128D01*
X350255822Y-254286128D02*
X350255822Y-254428985D01*
X351612966Y-255714700D02*
X351470108Y-255786128D01*
X351470108Y-255786128D02*
X351184394Y-255786128D01*
X351184394Y-255786128D02*
X351041537Y-255714700D01*
X351041537Y-255714700D02*
X350970108Y-255643271D01*
X350970108Y-255643271D02*
X350898680Y-255500414D01*
X350898680Y-255500414D02*
X350898680Y-255071842D01*
X350898680Y-255071842D02*
X350970108Y-254928985D01*
X350970108Y-254928985D02*
X351041537Y-254857557D01*
X351041537Y-254857557D02*
X351184394Y-254786128D01*
X351184394Y-254786128D02*
X351470108Y-254786128D01*
X351470108Y-254786128D02*
X351612966Y-254857557D01*
X352898680Y-255786128D02*
X352898680Y-255000414D01*
X352898680Y-255000414D02*
X352827251Y-254857557D01*
X352827251Y-254857557D02*
X352684394Y-254786128D01*
X352684394Y-254786128D02*
X352398680Y-254786128D01*
X352398680Y-254786128D02*
X352255822Y-254857557D01*
X352898680Y-255714700D02*
X352755822Y-255786128D01*
X352755822Y-255786128D02*
X352398680Y-255786128D01*
X352398680Y-255786128D02*
X352255822Y-255714700D01*
X352255822Y-255714700D02*
X352184394Y-255571842D01*
X352184394Y-255571842D02*
X352184394Y-255428985D01*
X352184394Y-255428985D02*
X352255822Y-255286128D01*
X352255822Y-255286128D02*
X352398680Y-255214700D01*
X352398680Y-255214700D02*
X352755822Y-255214700D01*
X352755822Y-255214700D02*
X352898680Y-255143271D01*
X354255823Y-255786128D02*
X354255823Y-254286128D01*
X354255823Y-255714700D02*
X354112965Y-255786128D01*
X354112965Y-255786128D02*
X353827251Y-255786128D01*
X353827251Y-255786128D02*
X353684394Y-255714700D01*
X353684394Y-255714700D02*
X353612965Y-255643271D01*
X353612965Y-255643271D02*
X353541537Y-255500414D01*
X353541537Y-255500414D02*
X353541537Y-255071842D01*
X353541537Y-255071842D02*
X353612965Y-254928985D01*
X353612965Y-254928985D02*
X353684394Y-254857557D01*
X353684394Y-254857557D02*
X353827251Y-254786128D01*
X353827251Y-254786128D02*
X354112965Y-254786128D01*
X354112965Y-254786128D02*
X354255823Y-254857557D01*
X354612966Y-255928985D02*
X355755823Y-255928985D01*
X356112965Y-254786128D02*
X356112965Y-256286128D01*
X356112965Y-254857557D02*
X356255823Y-254786128D01*
X356255823Y-254786128D02*
X356541537Y-254786128D01*
X356541537Y-254786128D02*
X356684394Y-254857557D01*
X356684394Y-254857557D02*
X356755823Y-254928985D01*
X356755823Y-254928985D02*
X356827251Y-255071842D01*
X356827251Y-255071842D02*
X356827251Y-255500414D01*
X356827251Y-255500414D02*
X356755823Y-255643271D01*
X356755823Y-255643271D02*
X356684394Y-255714700D01*
X356684394Y-255714700D02*
X356541537Y-255786128D01*
X356541537Y-255786128D02*
X356255823Y-255786128D01*
X356255823Y-255786128D02*
X356112965Y-255714700D01*
X358112966Y-255714700D02*
X357970108Y-255786128D01*
X357970108Y-255786128D02*
X357684394Y-255786128D01*
X357684394Y-255786128D02*
X357541537Y-255714700D01*
X357541537Y-255714700D02*
X357470108Y-255643271D01*
X357470108Y-255643271D02*
X357398680Y-255500414D01*
X357398680Y-255500414D02*
X357398680Y-255071842D01*
X357398680Y-255071842D02*
X357470108Y-254928985D01*
X357470108Y-254928985D02*
X357541537Y-254857557D01*
X357541537Y-254857557D02*
X357684394Y-254786128D01*
X357684394Y-254786128D02*
X357970108Y-254786128D01*
X357970108Y-254786128D02*
X358112966Y-254857557D01*
X358755822Y-255786128D02*
X358755822Y-254286128D01*
X358755822Y-254857557D02*
X358898680Y-254786128D01*
X358898680Y-254786128D02*
X359184394Y-254786128D01*
X359184394Y-254786128D02*
X359327251Y-254857557D01*
X359327251Y-254857557D02*
X359398680Y-254928985D01*
X359398680Y-254928985D02*
X359470108Y-255071842D01*
X359470108Y-255071842D02*
X359470108Y-255500414D01*
X359470108Y-255500414D02*
X359398680Y-255643271D01*
X359398680Y-255643271D02*
X359327251Y-255714700D01*
X359327251Y-255714700D02*
X359184394Y-255786128D01*
X359184394Y-255786128D02*
X358898680Y-255786128D01*
X358898680Y-255786128D02*
X358755822Y-255714700D01*
D10*
D11*
X311800000Y-250900000D02*
X419800000Y-250900000D01*
D10*
D11*
X313184398Y-253014700D02*
X313398684Y-253086128D01*
X313398684Y-253086128D02*
X313755826Y-253086128D01*
X313755826Y-253086128D02*
X313898684Y-253014700D01*
X313898684Y-253014700D02*
X313970112Y-252943271D01*
X313970112Y-252943271D02*
X314041541Y-252800414D01*
X314041541Y-252800414D02*
X314041541Y-252657557D01*
X314041541Y-252657557D02*
X313970112Y-252514700D01*
X313970112Y-252514700D02*
X313898684Y-252443271D01*
X313898684Y-252443271D02*
X313755826Y-252371842D01*
X313755826Y-252371842D02*
X313470112Y-252300414D01*
X313470112Y-252300414D02*
X313327255Y-252228985D01*
X313327255Y-252228985D02*
X313255826Y-252157557D01*
X313255826Y-252157557D02*
X313184398Y-252014700D01*
X313184398Y-252014700D02*
X313184398Y-251871842D01*
X313184398Y-251871842D02*
X313255826Y-251728985D01*
X313255826Y-251728985D02*
X313327255Y-251657557D01*
X313327255Y-251657557D02*
X313470112Y-251586128D01*
X313470112Y-251586128D02*
X313827255Y-251586128D01*
X313827255Y-251586128D02*
X314041541Y-251657557D01*
X314684397Y-253086128D02*
X314684397Y-251586128D01*
X315327255Y-253086128D02*
X315327255Y-252300414D01*
X315327255Y-252300414D02*
X315255826Y-252157557D01*
X315255826Y-252157557D02*
X315112969Y-252086128D01*
X315112969Y-252086128D02*
X314898683Y-252086128D01*
X314898683Y-252086128D02*
X314755826Y-252157557D01*
X314755826Y-252157557D02*
X314684397Y-252228985D01*
X316612969Y-253014700D02*
X316470112Y-253086128D01*
X316470112Y-253086128D02*
X316184398Y-253086128D01*
X316184398Y-253086128D02*
X316041540Y-253014700D01*
X316041540Y-253014700D02*
X315970112Y-252871842D01*
X315970112Y-252871842D02*
X315970112Y-252300414D01*
X315970112Y-252300414D02*
X316041540Y-252157557D01*
X316041540Y-252157557D02*
X316184398Y-252086128D01*
X316184398Y-252086128D02*
X316470112Y-252086128D01*
X316470112Y-252086128D02*
X316612969Y-252157557D01*
X316612969Y-252157557D02*
X316684398Y-252300414D01*
X316684398Y-252300414D02*
X316684398Y-252443271D01*
X316684398Y-252443271D02*
X315970112Y-252586128D01*
X317898683Y-253014700D02*
X317755826Y-253086128D01*
X317755826Y-253086128D02*
X317470112Y-253086128D01*
X317470112Y-253086128D02*
X317327254Y-253014700D01*
X317327254Y-253014700D02*
X317255826Y-252871842D01*
X317255826Y-252871842D02*
X317255826Y-252300414D01*
X317255826Y-252300414D02*
X317327254Y-252157557D01*
X317327254Y-252157557D02*
X317470112Y-252086128D01*
X317470112Y-252086128D02*
X317755826Y-252086128D01*
X317755826Y-252086128D02*
X317898683Y-252157557D01*
X317898683Y-252157557D02*
X317970112Y-252300414D01*
X317970112Y-252300414D02*
X317970112Y-252443271D01*
X317970112Y-252443271D02*
X317255826Y-252586128D01*
X318398683Y-252086128D02*
X318970111Y-252086128D01*
X318612968Y-251586128D02*
X318612968Y-252871842D01*
X318612968Y-252871842D02*
X318684397Y-253014700D01*
X318684397Y-253014700D02*
X318827254Y-253086128D01*
X318827254Y-253086128D02*
X318970111Y-253086128D01*
X319470111Y-252943271D02*
X319541540Y-253014700D01*
X319541540Y-253014700D02*
X319470111Y-253086128D01*
X319470111Y-253086128D02*
X319398683Y-253014700D01*
X319398683Y-253014700D02*
X319470111Y-252943271D01*
X319470111Y-252943271D02*
X319470111Y-253086128D01*
X319470111Y-252157557D02*
X319541540Y-252228985D01*
X319541540Y-252228985D02*
X319470111Y-252300414D01*
X319470111Y-252300414D02*
X319398683Y-252228985D01*
X319398683Y-252228985D02*
X319470111Y-252157557D01*
X319470111Y-252157557D02*
X319470111Y-252300414D01*
D10*
D12*
D10*
D11*
D10*
D11*
D10*
D11*
D10*
D11*
D10*
D11*
X331800000Y-260900000D02*
X331800000Y-263900000D01*
D10*
D11*
X395800000Y-260900000D02*
X395800000Y-267400000D01*
D14*
%TO.C,C2*%
X203041500Y-80580500D02*
X203041500Y-77280500D01*
X204501500Y-80580500D02*
X203041500Y-80580500D01*
X203041500Y-77280500D02*
X204501500Y-77280500D01*
X204501500Y-77280500D02*
X204501500Y-80580500D01*
%TO.C,C3*%
X185198000Y-76580000D02*
X185198000Y-73280000D01*
X186658000Y-76580000D02*
X185198000Y-76580000D01*
X185198000Y-73280000D02*
X186658000Y-73280000D01*
X186658000Y-73280000D02*
X186658000Y-76580000D01*
%TO.C,C4*%
X179323000Y-96234000D02*
X176023000Y-96234000D01*
X179323000Y-94774000D02*
X179323000Y-96234000D01*
X176023000Y-96234000D02*
X176023000Y-94774000D01*
X176023000Y-94774000D02*
X179323000Y-94774000D01*
%TO.C,C5*%
X196691000Y-99950000D02*
X196691000Y-103250000D01*
X195231000Y-99950000D02*
X196691000Y-99950000D01*
X196691000Y-103250000D02*
X195231000Y-103250000D01*
X195231000Y-103250000D02*
X195231000Y-99950000D01*
%TO.C,C6*%
X191179200Y-99924600D02*
X191179200Y-103224600D01*
X189719200Y-99924600D02*
X191179200Y-99924600D01*
X191179200Y-103224600D02*
X189719200Y-103224600D01*
X189719200Y-103224600D02*
X189719200Y-99924600D01*
%TO.C,C7*%
X179323000Y-82746600D02*
X176023000Y-82746600D01*
X179323000Y-81286600D02*
X179323000Y-82746600D01*
X176023000Y-82746600D02*
X176023000Y-81286600D01*
X176023000Y-81286600D02*
X179323000Y-81286600D01*
%TO.C,C8*%
X179323000Y-86836000D02*
X176023000Y-86836000D01*
X179323000Y-85376000D02*
X179323000Y-86836000D01*
X176023000Y-86836000D02*
X176023000Y-85376000D01*
X176023000Y-85376000D02*
X179323000Y-85376000D01*
%TO.C,C9*%
X179373800Y-89757000D02*
X176073800Y-89757000D01*
X179373800Y-88297000D02*
X179373800Y-89757000D01*
X176073800Y-89757000D02*
X176073800Y-88297000D01*
X176073800Y-88297000D02*
X179373800Y-88297000D01*
%TO.C,D2*%
X186722000Y-76580000D02*
X186722000Y-73280000D01*
X188182000Y-76580000D02*
X186722000Y-76580000D01*
X186722000Y-73280000D02*
X188182000Y-73280000D01*
X188182000Y-73280000D02*
X188182000Y-76580000D01*
%TO.C,D3*%
X188322200Y-76580000D02*
X188322200Y-73280000D01*
X189782200Y-76580000D02*
X188322200Y-76580000D01*
X188322200Y-73280000D02*
X189782200Y-73280000D01*
X189782200Y-73280000D02*
X189782200Y-76580000D01*
%TO.C,U2*%
X202558000Y-76715000D02*
X179458000Y-76715000D01*
X202558000Y-76715000D02*
X202558000Y-99815000D01*
X179458000Y-76715000D02*
X179458000Y-99815000D01*
X202558000Y-99815000D02*
X179458000Y-99815000D01*
%TO.C,C98*%
X166969000Y-98328000D02*
X166969000Y-102088000D01*
X165009000Y-98328000D02*
X166969000Y-98328000D01*
X166969000Y-102088000D02*
X165009000Y-102088000D01*
X165009000Y-102088000D02*
X165009000Y-98328000D01*
%TO.C,C99*%
X167904000Y-105620000D02*
X167904000Y-109380000D01*
X165944000Y-105620000D02*
X167904000Y-105620000D01*
X167904000Y-109380000D02*
X165944000Y-109380000D01*
X165944000Y-109380000D02*
X165944000Y-105620000D01*
%TO.C,R402*%
X238136973Y-72415075D02*
X238136973Y-69115075D01*
X239596973Y-72415075D02*
X238136973Y-72415075D01*
X238136973Y-69115075D02*
X239596973Y-69115075D01*
X239596973Y-69115075D02*
X239596973Y-72415075D01*
%TO.C,C702*%
X189116500Y-139898000D02*
X192416500Y-139898000D01*
X189116500Y-141358000D02*
X189116500Y-139898000D01*
X192416500Y-139898000D02*
X192416500Y-141358000D01*
X192416500Y-141358000D02*
X189116500Y-141358000D01*
%TO.C,C709*%
X180016400Y-141224100D02*
X180016400Y-137924100D01*
X181476400Y-141224100D02*
X180016400Y-141224100D01*
X180016400Y-137924100D02*
X181476400Y-137924100D01*
X181476400Y-137924100D02*
X181476400Y-141224100D01*
%TO.C,L505*%
X235986400Y-135627400D02*
X238511400Y-135627400D01*
X235986400Y-137727400D02*
X235986400Y-135627400D01*
X238511400Y-135627400D02*
X238511400Y-137727400D01*
X238511400Y-137727400D02*
X235986400Y-137727400D01*
%TO.C,C502*%
X234198700Y-131594473D02*
X230898700Y-131594473D01*
X234198700Y-130134473D02*
X234198700Y-131594473D01*
X230898700Y-131594473D02*
X230898700Y-130134473D01*
X230898700Y-130134473D02*
X234198700Y-130134473D01*
%TO.C,H20*%
X228264052Y-63300000D02*
G75*
G03*
X228264052Y-63300000I-850452J0D01*
G01*
%TO.C,C711*%
X178238400Y-131572100D02*
X178238400Y-128272100D01*
X179698400Y-131572100D02*
X178238400Y-131572100D01*
X178238400Y-128272100D02*
X179698400Y-128272100D01*
X179698400Y-128272100D02*
X179698400Y-131572100D01*
%TO.C,R92*%
X179160754Y-109064546D02*
X175860754Y-109064546D01*
X179160754Y-107604546D02*
X179160754Y-109064546D01*
X175860754Y-109064546D02*
X175860754Y-107604546D01*
X175860754Y-107604546D02*
X179160754Y-107604546D01*
%TO.C,R109*%
X170206400Y-102114600D02*
X173506400Y-102114600D01*
X170206400Y-103574600D02*
X170206400Y-102114600D01*
X173506400Y-102114600D02*
X173506400Y-103574600D01*
X173506400Y-103574600D02*
X170206400Y-103574600D01*
%TO.C,C202*%
X236212000Y-112244300D02*
X236212000Y-115544300D01*
X234752000Y-112244300D02*
X236212000Y-112244300D01*
X236212000Y-115544300D02*
X234752000Y-115544300D01*
X234752000Y-115544300D02*
X234752000Y-112244300D01*
%TO.C,C162*%
X212605000Y-130811000D02*
X212605000Y-134111000D01*
X211145000Y-130811000D02*
X212605000Y-130811000D01*
X212605000Y-134111000D02*
X211145000Y-134111000D01*
X211145000Y-134111000D02*
X211145000Y-130811000D01*
%TO.C,C91*%
X161065000Y-89897000D02*
X161065000Y-97657000D01*
X155165000Y-89897000D02*
X161065000Y-89897000D01*
X161065000Y-97657000D02*
X155165000Y-97657000D01*
X155165000Y-97657000D02*
X155165000Y-89897000D01*
%TO.C,Q701*%
X176238400Y-132070100D02*
X181238400Y-132070100D01*
X176238400Y-132070100D02*
X176238400Y-137170100D01*
X181238400Y-137170100D02*
X181238400Y-132070100D01*
X181238400Y-137170100D02*
X176238400Y-137170100D01*
%TO.C,C713*%
X175190400Y-131826100D02*
X175190400Y-128526100D01*
X176650400Y-131826100D02*
X175190400Y-131826100D01*
X175190400Y-128526100D02*
X176650400Y-128526100D01*
X176650400Y-128526100D02*
X176650400Y-131826100D01*
%TO.C,REF\u002A\u002A*%
X191042800Y-147878800D02*
G75*
G03*
X191042800Y-147878800I-1000000J0D01*
G01*
D10*
%TO.C,U77*%
X168317000Y-78907000D02*
X161817000Y-78907000D01*
X161817000Y-78907000D02*
X161817000Y-83907000D01*
X168317000Y-83907000D02*
X168317000Y-78907000D01*
X161817000Y-83907000D02*
X168317000Y-83907000D01*
D14*
%TO.C,C651*%
X208408000Y-97695000D02*
X211708000Y-97695000D01*
X208408000Y-99155000D02*
X208408000Y-97695000D01*
X211708000Y-97695000D02*
X211708000Y-99155000D01*
X211708000Y-99155000D02*
X208408000Y-99155000D01*
%TO.C,R93*%
X167112000Y-98012000D02*
X163812000Y-98012000D01*
X167112000Y-96552000D02*
X167112000Y-98012000D01*
X163812000Y-98012000D02*
X163812000Y-96552000D01*
X163812000Y-96552000D02*
X167112000Y-96552000D01*
%TO.C,TP2*%
X153847800Y-98607400D02*
X150241000Y-98602800D01*
X153847800Y-95148400D02*
X153847800Y-98607400D01*
X150241000Y-98602800D02*
X150241000Y-95148400D01*
X150241000Y-95148400D02*
X153847800Y-95148400D01*
%TO.C,C206*%
X228244000Y-110497300D02*
X231544000Y-110497300D01*
X228244000Y-111957300D02*
X228244000Y-110497300D01*
X231544000Y-110497300D02*
X231544000Y-111957300D01*
X231544000Y-111957300D02*
X228244000Y-111957300D01*
%TO.C,R8*%
X181972200Y-75650000D02*
X181972200Y-72350000D01*
X183432200Y-75650000D02*
X181972200Y-75650000D01*
X181972200Y-72350000D02*
X183432200Y-72350000D01*
X183432200Y-72350000D02*
X183432200Y-75650000D01*
%TO.C,C203*%
X232783000Y-112117300D02*
X232783000Y-115417300D01*
X231323000Y-112117300D02*
X232783000Y-112117300D01*
X232783000Y-115417300D02*
X231323000Y-115417300D01*
X231323000Y-115417300D02*
X231323000Y-112117300D01*
%TO.C,H15*%
X181876252Y-146380200D02*
G75*
G03*
X181876252Y-146380200I-850452J0D01*
G01*
%TO.C,D5*%
X166058600Y-143079200D02*
X166058600Y-146379200D01*
X164598600Y-143079200D02*
X166058600Y-143079200D01*
X166058600Y-146379200D02*
X164598600Y-146379200D01*
X164598600Y-146379200D02*
X164598600Y-143079200D01*
%TO.C,C652*%
X212726000Y-88551000D02*
X216026000Y-88551000D01*
X212726000Y-90011000D02*
X212726000Y-88551000D01*
X216026000Y-88551000D02*
X216026000Y-90011000D01*
X216026000Y-90011000D02*
X212726000Y-90011000D01*
%TO.C,R601*%
X181243489Y-117474000D02*
X181243489Y-114174000D01*
X182703489Y-117474000D02*
X181243489Y-117474000D01*
X181243489Y-114174000D02*
X182703489Y-114174000D01*
X182703489Y-114174000D02*
X182703489Y-117474000D01*
%TO.C,C403*%
X228420973Y-77370075D02*
X228420973Y-80670075D01*
X226960973Y-77370075D02*
X228420973Y-77370075D01*
X228420973Y-80670075D02*
X226960973Y-80670075D01*
X226960973Y-80670075D02*
X226960973Y-77370075D01*
%TO.C,C401*%
X225024973Y-81170000D02*
X228324973Y-81170000D01*
X225024973Y-82630000D02*
X225024973Y-81170000D01*
X228324973Y-81170000D02*
X228324973Y-82630000D01*
X228324973Y-82630000D02*
X225024973Y-82630000D01*
D10*
%TO.C,U26*%
X205442000Y-86147500D02*
X208642000Y-86147500D01*
X205442000Y-86147500D02*
X205442000Y-82347500D01*
X208642000Y-86147500D02*
X208642000Y-82347500D01*
X205442000Y-82347500D02*
X208642000Y-82347500D01*
D14*
%TO.C,C302*%
X236037000Y-94082600D02*
X236037000Y-97382600D01*
X234577000Y-94082600D02*
X236037000Y-94082600D01*
X236037000Y-97382600D02*
X234577000Y-97382600D01*
X234577000Y-97382600D02*
X234577000Y-94082600D01*
%TO.C,U28*%
X207927900Y-71656000D02*
X207927900Y-75133200D01*
X207927900Y-75133200D02*
X211712500Y-75133200D01*
X211712500Y-71656000D02*
X207927900Y-71656000D01*
X211712500Y-75133200D02*
X211712500Y-71656000D01*
%TO.C,R107*%
X175538400Y-99256600D02*
X172238400Y-99256600D01*
X175538400Y-97796600D02*
X175538400Y-99256600D01*
X172238400Y-99256600D02*
X172238400Y-97796600D01*
X172238400Y-97796600D02*
X175538400Y-97796600D01*
%TO.C,R98*%
X171531000Y-109511000D02*
X174831000Y-109511000D01*
X171531000Y-110971000D02*
X171531000Y-109511000D01*
X174831000Y-109511000D02*
X174831000Y-110971000D01*
X174831000Y-110971000D02*
X171531000Y-110971000D01*
%TO.C,R30*%
X171224300Y-77832200D02*
X174524300Y-77832200D01*
X171224300Y-79292200D02*
X171224300Y-77832200D01*
X174524300Y-77832200D02*
X174524300Y-79292200D01*
X174524300Y-79292200D02*
X171224300Y-79292200D01*
%TO.C,C506*%
X233770000Y-128814000D02*
X233770000Y-125514000D01*
X235230000Y-128814000D02*
X233770000Y-128814000D01*
X233770000Y-125514000D02*
X235230000Y-125514000D01*
X235230000Y-125514000D02*
X235230000Y-128814000D01*
%TO.C,H104*%
X237121252Y-143510000D02*
G75*
G03*
X237121252Y-143510000I-1612452J0D01*
G01*
%TO.C,P651*%
X169435600Y-60090600D02*
X222535604Y-60090600D01*
X169435600Y-68890600D02*
X169435600Y-60090600D01*
X222535604Y-60090600D02*
X222535604Y-68890600D01*
X222535604Y-68890600D02*
X169435600Y-68890600D01*
%TO.C,H13*%
X206285652Y-148717000D02*
G75*
G03*
X206285652Y-148717000I-850452J0D01*
G01*
%TO.C,L403*%
X228682488Y-79547940D02*
X231207488Y-79547940D01*
X228682488Y-81647940D02*
X228682488Y-79547940D01*
X231207488Y-79547940D02*
X231207488Y-81647940D01*
X231207488Y-81647940D02*
X228682488Y-81647940D01*
%TO.C,R90*%
X175505500Y-106021000D02*
X178805500Y-106021000D01*
X175505500Y-107481000D02*
X175505500Y-106021000D01*
X178805500Y-106021000D02*
X178805500Y-107481000D01*
X178805500Y-107481000D02*
X175505500Y-107481000D01*
%TO.C,C405*%
X225532973Y-70035075D02*
X228832973Y-70035075D01*
X225532973Y-71495075D02*
X225532973Y-70035075D01*
X228832973Y-70035075D02*
X228832973Y-71495075D01*
X228832973Y-71495075D02*
X225532973Y-71495075D01*
D10*
%TO.C,U87*%
X155253000Y-107468500D02*
X158453000Y-107468500D01*
X155253000Y-107468500D02*
X155253000Y-103668500D01*
X158453000Y-107468500D02*
X158453000Y-103668500D01*
X155253000Y-103668500D02*
X158453000Y-103668500D01*
D14*
%TO.C,C152*%
X204977000Y-147415000D02*
X201677000Y-147415000D01*
X204977000Y-145955000D02*
X204977000Y-147415000D01*
X201677000Y-147415000D02*
X201677000Y-145955000D01*
X201677000Y-145955000D02*
X204977000Y-145955000D01*
%TO.C,C204*%
X238054000Y-114401300D02*
X238054000Y-111101300D01*
X239514000Y-114401300D02*
X238054000Y-114401300D01*
X238054000Y-111101300D02*
X239514000Y-111101300D01*
X239514000Y-111101300D02*
X239514000Y-114401300D01*
%TO.C,C413*%
X233030473Y-72415075D02*
X233030473Y-69115075D01*
X234490473Y-72415075D02*
X233030473Y-72415075D01*
X233030473Y-69115075D02*
X234490473Y-69115075D01*
X234490473Y-69115075D02*
X234490473Y-72415075D01*
%TO.C,L703*%
X192328500Y-134756000D02*
X190728500Y-134756000D01*
X192328500Y-134756000D02*
X192328500Y-137356000D01*
X190728500Y-134756000D02*
X190728500Y-137356000D01*
X192328500Y-137356000D02*
X190728500Y-137356000D01*
%TO.C,C89*%
X158210000Y-107650500D02*
X158210000Y-110950500D01*
X156750000Y-107650500D02*
X158210000Y-107650500D01*
X158210000Y-110950500D02*
X156750000Y-110950500D01*
X156750000Y-110950500D02*
X156750000Y-107650500D01*
%TO.C,L401*%
X226530000Y-77850000D02*
X226530000Y-81150000D01*
X225070000Y-77850000D02*
X226530000Y-77850000D01*
X226530000Y-81150000D02*
X225070000Y-81150000D01*
X225070000Y-81150000D02*
X225070000Y-77850000D01*
%TO.C,C77*%
X170332354Y-78879653D02*
X170332354Y-82179653D01*
X168872354Y-78879653D02*
X170332354Y-78879653D01*
X170332354Y-82179653D02*
X168872354Y-82179653D01*
X168872354Y-82179653D02*
X168872354Y-78879653D01*
%TO.C,R201*%
X237863000Y-112244300D02*
X237863000Y-115544300D01*
X236403000Y-112244300D02*
X237863000Y-112244300D01*
X237863000Y-115544300D02*
X236403000Y-115544300D01*
X236403000Y-115544300D02*
X236403000Y-112244300D01*
%TO.C,L708*%
X173020900Y-134460100D02*
X175545900Y-134460100D01*
X173020900Y-136560100D02*
X173020900Y-134460100D01*
X175545900Y-134460100D02*
X175545900Y-136560100D01*
X175545900Y-136560100D02*
X173020900Y-136560100D01*
%TO.C,U705*%
X165440900Y-137132600D02*
X165440900Y-117832600D01*
X165440900Y-137132600D02*
X151220900Y-137132600D01*
X151220900Y-117832600D02*
X165440900Y-117832600D01*
X151220900Y-117832600D02*
X151220900Y-137132600D01*
%TO.C,H10*%
X212356252Y-148615400D02*
G75*
G03*
X212356252Y-148615400I-850452J0D01*
G01*
%TO.C,R108*%
X172238400Y-96018600D02*
X175538400Y-96018600D01*
X172238400Y-97478600D02*
X172238400Y-96018600D01*
X175538400Y-96018600D02*
X175538400Y-97478600D01*
X175538400Y-97478600D02*
X172238400Y-97478600D01*
%TO.C,C603*%
X185206000Y-109760000D02*
X188506000Y-109760000D01*
X185206000Y-111220000D02*
X185206000Y-109760000D01*
X188506000Y-109760000D02*
X188506000Y-111220000D01*
X188506000Y-111220000D02*
X185206000Y-111220000D01*
%TO.C,L702*%
X189491500Y-141610000D02*
X192016500Y-141610000D01*
X189491500Y-143710000D02*
X189491500Y-141610000D01*
X192016500Y-141610000D02*
X192016500Y-143710000D01*
X192016500Y-143710000D02*
X189491500Y-143710000D01*
%TO.C,H103*%
X237121252Y-64490600D02*
G75*
G03*
X237121252Y-64490600I-1612452J0D01*
G01*
%TO.C,L706*%
X182529400Y-131734100D02*
X180004400Y-131734100D01*
X182529400Y-129634100D02*
X182529400Y-131734100D01*
X180004400Y-131734100D02*
X180004400Y-129634100D01*
X180004400Y-129634100D02*
X182529400Y-129634100D01*
%TO.C,R401*%
X235487029Y-79043912D02*
X235487029Y-82343912D01*
X234027029Y-79043912D02*
X235487029Y-79043912D01*
X235487029Y-82343912D02*
X234027029Y-82343912D01*
X234027029Y-82343912D02*
X234027029Y-79043912D01*
%TO.C,C29*%
X215162400Y-75253600D02*
X211862400Y-75253600D01*
X215162400Y-73793600D02*
X215162400Y-75253600D01*
X211862400Y-75253600D02*
X211862400Y-73793600D01*
X211862400Y-73793600D02*
X215162400Y-73793600D01*
%TO.C,C76*%
X170372268Y-72792776D02*
X170372268Y-76092776D01*
X168912268Y-72792776D02*
X170372268Y-72792776D01*
X170372268Y-76092776D02*
X168912268Y-76092776D01*
X168912268Y-76092776D02*
X168912268Y-72792776D01*
%TO.C,H11*%
X212356252Y-146075400D02*
G75*
G03*
X212356252Y-146075400I-850452J0D01*
G01*
%TO.C,C606*%
X216280000Y-128492000D02*
X212980000Y-128492000D01*
X216280000Y-127032000D02*
X216280000Y-128492000D01*
X212980000Y-128492000D02*
X212980000Y-127032000D01*
X212980000Y-127032000D02*
X216280000Y-127032000D01*
%TO.C,C154*%
X204250000Y-140030000D02*
X200950000Y-140030000D01*
X204250000Y-138570000D02*
X204250000Y-140030000D01*
X200950000Y-140030000D02*
X200950000Y-138570000D01*
X200950000Y-138570000D02*
X204250000Y-138570000D01*
%TO.C,L504*%
X230910808Y-133318333D02*
X233435808Y-133318333D01*
X230910808Y-135418333D02*
X230910808Y-133318333D01*
X233435808Y-133318333D02*
X233435808Y-135418333D01*
X233435808Y-135418333D02*
X230910808Y-135418333D01*
%TO.C,L501*%
X228239400Y-129658400D02*
X230764400Y-129658400D01*
X228239400Y-131758400D02*
X228239400Y-129658400D01*
X230764400Y-129658400D02*
X230764400Y-131758400D01*
X230764400Y-131758400D02*
X228239400Y-131758400D01*
%TO.C,L153*%
X204973000Y-140555000D02*
X207498000Y-140555000D01*
X204973000Y-142655000D02*
X204973000Y-140555000D01*
X207498000Y-140555000D02*
X207498000Y-142655000D01*
X207498000Y-142655000D02*
X204973000Y-142655000D01*
%TO.C,R99*%
X172942000Y-116714000D02*
X172942000Y-120014000D01*
X171482000Y-116714000D02*
X172942000Y-116714000D01*
X172942000Y-120014000D02*
X171482000Y-120014000D01*
X171482000Y-120014000D02*
X171482000Y-116714000D01*
%TO.C,C79*%
X179843526Y-72523365D02*
X179843526Y-75823365D01*
X178383526Y-72523365D02*
X179843526Y-72523365D01*
X179843526Y-75823365D02*
X178383526Y-75823365D01*
X178383526Y-75823365D02*
X178383526Y-72523365D01*
%TO.C,U91*%
X167309500Y-94598000D02*
X172109500Y-94598000D01*
X167309500Y-98198000D02*
X167309500Y-94598000D01*
X172109500Y-94598000D02*
X172109500Y-98198000D01*
X172109500Y-98198000D02*
X167309500Y-98198000D01*
%TO.C,R702*%
X181794400Y-135382100D02*
X181794400Y-132082100D01*
X183254400Y-135382100D02*
X181794400Y-135382100D01*
X181794400Y-132082100D02*
X183254400Y-132082100D01*
X183254400Y-132082100D02*
X183254400Y-135382100D01*
%TO.C,C705*%
X190780400Y-132086600D02*
X194080400Y-132086600D01*
X190780400Y-133546600D02*
X190780400Y-132086600D01*
X194080400Y-132086600D02*
X194080400Y-133546600D01*
X194080400Y-133546600D02*
X190780400Y-133546600D01*
%TO.C,C714*%
X176714400Y-141224100D02*
X176714400Y-137924100D01*
X178174400Y-141224100D02*
X176714400Y-141224100D01*
X176714400Y-137924100D02*
X178174400Y-137924100D01*
X178174400Y-137924100D02*
X178174400Y-141224100D01*
%TO.C,R203*%
X231544000Y-108528300D02*
X228244000Y-108528300D01*
X231544000Y-107068300D02*
X231544000Y-108528300D01*
X228244000Y-108528300D02*
X228244000Y-107068300D01*
X228244000Y-107068300D02*
X231544000Y-107068300D01*
%TO.C,C97*%
X165126500Y-96368000D02*
X165126500Y-92608000D01*
X167086500Y-96368000D02*
X165126500Y-96368000D01*
X165126500Y-92608000D02*
X167086500Y-92608000D01*
X167086500Y-92608000D02*
X167086500Y-96368000D01*
%TO.C,T601*%
X209933000Y-115693000D02*
X201293000Y-115693000D01*
X201293000Y-107573000D02*
X201293000Y-115693000D01*
X209933000Y-107573000D02*
X209933000Y-115693000D01*
X209933000Y-107573000D02*
X201293000Y-107573000D01*
%TO.C,C160*%
X214344000Y-140717000D02*
X214344000Y-144017000D01*
X212884000Y-140717000D02*
X214344000Y-140717000D01*
X214344000Y-144017000D02*
X212884000Y-144017000D01*
X212884000Y-144017000D02*
X212884000Y-140717000D01*
%TO.C,L87*%
X155289000Y-103434000D02*
X155289000Y-98534000D01*
X158449000Y-103434000D02*
X155289000Y-103434000D01*
X155289000Y-98534000D02*
X158449000Y-98534000D01*
X158449000Y-98534000D02*
X158449000Y-103434000D01*
%TO.C,C157*%
X211112000Y-137763000D02*
X207812000Y-137763000D01*
X211112000Y-136303000D02*
X211112000Y-137763000D01*
X207812000Y-137763000D02*
X207812000Y-136303000D01*
X207812000Y-136303000D02*
X211112000Y-136303000D01*
%TO.C,C408*%
X233700847Y-79639306D02*
X233700847Y-82939306D01*
X232240847Y-79639306D02*
X233700847Y-79639306D01*
X233700847Y-82939306D02*
X232240847Y-82939306D01*
X232240847Y-82939306D02*
X232240847Y-79639306D01*
%TO.C,H18*%
X226164052Y-63300000D02*
G75*
G03*
X226164052Y-63300000I-850452J0D01*
G01*
%TO.C,L709*%
X171568400Y-139237100D02*
X171568400Y-136712100D01*
X173668400Y-139237100D02*
X171568400Y-139237100D01*
X171568400Y-136712100D02*
X173668400Y-136712100D01*
X173668400Y-136712100D02*
X173668400Y-139237100D01*
%TO.C,C30*%
X211414000Y-71453000D02*
X208114000Y-71453000D01*
X211414000Y-69993000D02*
X211414000Y-71453000D01*
X208114000Y-71453000D02*
X208114000Y-69993000D01*
X208114000Y-69993000D02*
X211414000Y-69993000D01*
%TO.C,H21*%
X228264052Y-65840000D02*
G75*
G03*
X228264052Y-65840000I-850452J0D01*
G01*
%TO.C,L151*%
X202052000Y-143730000D02*
X204577000Y-143730000D01*
X202052000Y-145830000D02*
X202052000Y-143730000D01*
X204577000Y-143730000D02*
X204577000Y-145830000D01*
X204577000Y-145830000D02*
X202052000Y-145830000D01*
%TO.C,R202*%
X231544000Y-110306300D02*
X228244000Y-110306300D01*
X231544000Y-108846300D02*
X231544000Y-110306300D01*
X228244000Y-110306300D02*
X228244000Y-108846300D01*
X228244000Y-108846300D02*
X231544000Y-108846300D01*
%TO.C,L502*%
X228299684Y-131873840D02*
X230824684Y-131873840D01*
X228299684Y-133973840D02*
X228299684Y-131873840D01*
X230824684Y-131873840D02*
X230824684Y-133973840D01*
X230824684Y-133973840D02*
X228299684Y-133973840D01*
%TO.C,R29*%
X211862400Y-72117200D02*
X215162400Y-72117200D01*
X211862400Y-73577200D02*
X211862400Y-72117200D01*
X215162400Y-72117200D02*
X215162400Y-73577200D01*
X215162400Y-73577200D02*
X211862400Y-73577200D01*
%TO.C,U92*%
X167192000Y-98469000D02*
X171992000Y-98469000D01*
X167192000Y-102069000D02*
X167192000Y-98469000D01*
X171992000Y-98469000D02*
X171992000Y-102069000D01*
X171992000Y-102069000D02*
X167192000Y-102069000D01*
%TO.C,R652*%
X209297000Y-94393000D02*
X212597000Y-94393000D01*
X209297000Y-95853000D02*
X209297000Y-94393000D01*
X212597000Y-94393000D02*
X212597000Y-95853000D01*
X212597000Y-95853000D02*
X209297000Y-95853000D01*
%TO.C,R301*%
X236324000Y-95764600D02*
X239624000Y-95764600D01*
X236324000Y-97224600D02*
X236324000Y-95764600D01*
X239624000Y-95764600D02*
X239624000Y-97224600D01*
X239624000Y-97224600D02*
X236324000Y-97224600D01*
%TO.C,C411*%
X233652500Y-74136000D02*
X230352500Y-74136000D01*
X233652500Y-72676000D02*
X233652500Y-74136000D01*
X230352500Y-74136000D02*
X230352500Y-72676000D01*
X230352500Y-72676000D02*
X233652500Y-72676000D01*
%TO.C,R31*%
X171224300Y-79610200D02*
X174524300Y-79610200D01*
X171224300Y-81070200D02*
X171224300Y-79610200D01*
X174524300Y-79610200D02*
X174524300Y-81070200D01*
X174524300Y-81070200D02*
X171224300Y-81070200D01*
%TO.C,C301*%
X234435400Y-94082600D02*
X234435400Y-97382600D01*
X232975400Y-94082600D02*
X234435400Y-94082600D01*
X234435400Y-97382600D02*
X232975400Y-97382600D01*
X232975400Y-97382600D02*
X232975400Y-94082600D01*
%TO.C,C701*%
X188956500Y-140348500D02*
X188956500Y-143648500D01*
X187496500Y-140348500D02*
X188956500Y-140348500D01*
X188956500Y-143648500D02*
X187496500Y-143648500D01*
X187496500Y-143648500D02*
X187496500Y-140348500D01*
%TO.C,R91*%
X179464000Y-102274000D02*
X176164000Y-102274000D01*
X179464000Y-100814000D02*
X179464000Y-102274000D01*
X176164000Y-102274000D02*
X176164000Y-100814000D01*
X176164000Y-100814000D02*
X179464000Y-100814000D01*
%TO.C,C412*%
X237043172Y-79449863D02*
X237043172Y-82749863D01*
X235583172Y-79449863D02*
X237043172Y-79449863D01*
X237043172Y-82749863D02*
X235583172Y-82749863D01*
X235583172Y-82749863D02*
X235583172Y-79449863D01*
%TO.C,R13*%
X176023000Y-83852000D02*
X179323000Y-83852000D01*
X176023000Y-85312000D02*
X176023000Y-83852000D01*
X179323000Y-83852000D02*
X179323000Y-85312000D01*
X179323000Y-85312000D02*
X176023000Y-85312000D01*
%TO.C,R113*%
X158262500Y-112430000D02*
X154962500Y-112430000D01*
X158262500Y-110970000D02*
X158262500Y-112430000D01*
X154962500Y-112430000D02*
X154962500Y-110970000D01*
X154962500Y-110970000D02*
X158262500Y-110970000D01*
%TO.C,C712*%
X172490400Y-133700100D02*
X169190400Y-133700100D01*
X172490400Y-132240100D02*
X172490400Y-133700100D01*
X169190400Y-133700100D02*
X169190400Y-132240100D01*
X169190400Y-132240100D02*
X172490400Y-132240100D01*
D10*
%TO.C,U76*%
X168317000Y-72807000D02*
X161817000Y-72807000D01*
X161817000Y-72807000D02*
X161817000Y-77807000D01*
X168317000Y-77807000D02*
X168317000Y-72807000D01*
X161817000Y-77807000D02*
X168317000Y-77807000D01*
D14*
%TO.C,C159*%
X210985000Y-133826000D02*
X207685000Y-133826000D01*
X210985000Y-132366000D02*
X210985000Y-133826000D01*
X207685000Y-133826000D02*
X207685000Y-132366000D01*
X207685000Y-132366000D02*
X210985000Y-132366000D01*
%TO.C,L154*%
X204350000Y-136270000D02*
X207650000Y-136270000D01*
X204350000Y-137730000D02*
X204350000Y-136270000D01*
X207650000Y-136270000D02*
X207650000Y-137730000D01*
X207650000Y-137730000D02*
X204350000Y-137730000D01*
%TO.C,C503*%
X234198700Y-133164371D02*
X230898700Y-133164371D01*
X234198700Y-131704371D02*
X234198700Y-133164371D01*
X230898700Y-133164371D02*
X230898700Y-131704371D01*
X230898700Y-131704371D02*
X234198700Y-131704371D01*
%TO.C,C706*%
X186970400Y-132086600D02*
X190270400Y-132086600D01*
X186970400Y-133546600D02*
X186970400Y-132086600D01*
X190270400Y-132086600D02*
X190270400Y-133546600D01*
X190270400Y-133546600D02*
X186970400Y-133546600D01*
%TO.C,D27*%
X216717000Y-73662500D02*
X216717000Y-76622500D01*
X215257000Y-73662500D02*
X216717000Y-73662500D01*
X216717000Y-76622500D02*
X215257000Y-76622500D01*
X215257000Y-76622500D02*
X215257000Y-73662500D01*
%TO.C,C653*%
X212726000Y-90248500D02*
X216026000Y-90248500D01*
X212726000Y-91708500D02*
X212726000Y-90248500D01*
X216026000Y-90248500D02*
X216026000Y-91708500D01*
X216026000Y-91708500D02*
X212726000Y-91708500D01*
%TO.C,Y602*%
X209634600Y-92333400D02*
X209634600Y-89073400D01*
X209634600Y-92333400D02*
X206874600Y-92333400D01*
X209634600Y-89073400D02*
X206874600Y-89073400D01*
X206874600Y-92333400D02*
X206874600Y-89073400D01*
%TO.C,C122*%
X175785098Y-101297884D02*
X172025098Y-101297884D01*
X175785098Y-99337884D02*
X175785098Y-101297884D01*
X172025098Y-101297884D02*
X172025098Y-99337884D01*
X172025098Y-99337884D02*
X175785098Y-99337884D01*
%TO.C,C703*%
X192416500Y-139580000D02*
X189116500Y-139580000D01*
X192416500Y-138120000D02*
X192416500Y-139580000D01*
X189116500Y-139580000D02*
X189116500Y-138120000D01*
X189116500Y-138120000D02*
X192416500Y-138120000D01*
%TO.C,C406*%
X228385430Y-81758046D02*
X231685430Y-81758046D01*
X228385430Y-83218046D02*
X228385430Y-81758046D01*
X231685430Y-81758046D02*
X231685430Y-83218046D01*
X231685430Y-83218046D02*
X228385430Y-83218046D01*
%TO.C,C92*%
X152750000Y-104080000D02*
X152750000Y-99120000D01*
X155050000Y-104080000D02*
X152750000Y-104080000D01*
X152750000Y-99120000D02*
X155050000Y-99120000D01*
X155050000Y-99120000D02*
X155050000Y-104080000D01*
%TO.C,C163*%
X216352000Y-134136731D02*
X216352000Y-130836731D01*
X217812000Y-134136731D02*
X216352000Y-134136731D01*
X216352000Y-130836731D02*
X217812000Y-130836731D01*
X217812000Y-130836731D02*
X217812000Y-134136731D01*
%TO.C,H102*%
X158127252Y-143510000D02*
G75*
G03*
X158127252Y-143510000I-1612452J0D01*
G01*
%TO.C,H17*%
X165950452Y-64770000D02*
G75*
G03*
X165950452Y-64770000I-850452J0D01*
G01*
D15*
%TO.C,U156*%
X211621000Y-134493000D02*
X211621000Y-140335000D01*
X211621000Y-140335000D02*
X217463000Y-140335000D01*
X217463000Y-134493000D02*
X211621000Y-134493000D01*
X217463000Y-140335000D02*
X217463000Y-134493000D01*
D14*
%TO.C,L601*%
X187838000Y-115223000D02*
X185313000Y-115223000D01*
X187838000Y-113123000D02*
X187838000Y-115223000D01*
X185313000Y-115223000D02*
X185313000Y-113123000D01*
X185313000Y-113123000D02*
X187838000Y-113123000D01*
%TO.C,JP86*%
X182550000Y-100150000D02*
X180050000Y-100150000D01*
X182550000Y-100150000D02*
X182550000Y-103450000D01*
X180050000Y-103450000D02*
X180050000Y-100150000D01*
X180050000Y-103450000D02*
X182550000Y-103450000D01*
%TO.C,C507*%
X236881000Y-125350000D02*
X236881000Y-128650000D01*
X235421000Y-125350000D02*
X236881000Y-125350000D01*
X236881000Y-128650000D02*
X235421000Y-128650000D01*
X235421000Y-128650000D02*
X235421000Y-125350000D01*
%TO.C,R701*%
X181794400Y-139088600D02*
X181794400Y-135788600D01*
X183254400Y-139088600D02*
X181794400Y-139088600D01*
X181794400Y-135788600D02*
X183254400Y-135788600D01*
X183254400Y-135788600D02*
X183254400Y-139088600D01*
%TO.C,U93*%
X168000000Y-105700000D02*
X172800000Y-105700000D01*
X168000000Y-109300000D02*
X168000000Y-105700000D01*
X172800000Y-105700000D02*
X172800000Y-109300000D01*
X172800000Y-109300000D02*
X168000000Y-109300000D01*
%TO.C,C123*%
X172849000Y-108867000D02*
X172849000Y-105107000D01*
X174809000Y-108867000D02*
X172849000Y-108867000D01*
X172849000Y-105107000D02*
X174809000Y-105107000D01*
X174809000Y-105107000D02*
X174809000Y-108867000D01*
%TO.C,R96*%
X167998500Y-116750000D02*
X171298500Y-116750000D01*
X167998500Y-118210000D02*
X167998500Y-116750000D01*
X171298500Y-116750000D02*
X171298500Y-118210000D01*
X171298500Y-118210000D02*
X167998500Y-118210000D01*
D10*
%TO.C,U29*%
X220761000Y-134195000D02*
X217561000Y-134195000D01*
X220761000Y-134195000D02*
X220761000Y-137995000D01*
X217561000Y-134195000D02*
X217561000Y-137995000D01*
X220761000Y-137995000D02*
X217561000Y-137995000D01*
D14*
%TO.C,U652*%
X209073000Y-86438000D02*
X214573000Y-86438000D01*
X214573000Y-86438000D02*
X214573000Y-78638000D01*
X209073000Y-78638000D02*
X209073000Y-86438000D01*
X214573000Y-78638000D02*
X209073000Y-78638000D01*
%TO.C,C100*%
X168366000Y-112933000D02*
X168366000Y-116693000D01*
X166406000Y-112933000D02*
X168366000Y-112933000D01*
X168366000Y-116693000D02*
X166406000Y-116693000D01*
X166406000Y-116693000D02*
X166406000Y-112933000D01*
%TO.C,C78*%
X170285526Y-84347488D02*
X170285526Y-87647488D01*
X168825526Y-84347488D02*
X170285526Y-84347488D01*
X170285526Y-87647488D02*
X168825526Y-87647488D01*
X168825526Y-87647488D02*
X168825526Y-84347488D01*
%TO.C,C201*%
X234511600Y-112243600D02*
X234511600Y-115543600D01*
X233051600Y-112243600D02*
X234511600Y-112243600D01*
X234511600Y-115543600D02*
X233051600Y-115543600D01*
X233051600Y-115543600D02*
X233051600Y-112243600D01*
%TO.C,FB651*%
X206661000Y-97789000D02*
X206661000Y-94489000D01*
X208121000Y-97789000D02*
X206661000Y-97789000D01*
X206661000Y-94489000D02*
X208121000Y-94489000D01*
X208121000Y-94489000D02*
X208121000Y-97789000D01*
%TO.C,C303*%
X232640000Y-94082600D02*
X232640000Y-97382600D01*
X231180000Y-94082600D02*
X232640000Y-94082600D01*
X232640000Y-97382600D02*
X231180000Y-97382600D01*
X231180000Y-97382600D02*
X231180000Y-94082600D01*
%TO.C,C414*%
X234681473Y-72415075D02*
X234681473Y-69115075D01*
X236141473Y-72415075D02*
X234681473Y-72415075D01*
X234681473Y-69115075D02*
X236141473Y-69115075D01*
X236141473Y-69115075D02*
X236141473Y-72415075D01*
%TO.C,C155*%
X204050000Y-137730000D02*
X200750000Y-137730000D01*
X204050000Y-136270000D02*
X204050000Y-137730000D01*
X200750000Y-137730000D02*
X200750000Y-136270000D01*
X200750000Y-136270000D02*
X204050000Y-136270000D01*
%TO.C,D4*%
X183597800Y-74650000D02*
X183597800Y-71350000D01*
X185057800Y-74650000D02*
X183597800Y-74650000D01*
X183597800Y-71350000D02*
X185057800Y-71350000D01*
X185057800Y-71350000D02*
X185057800Y-74650000D01*
%TO.C,FB652*%
X211021896Y-91894048D02*
X211021896Y-88594048D01*
X212481896Y-91894048D02*
X211021896Y-91894048D01*
X211021896Y-88594048D02*
X212481896Y-88594048D01*
X212481896Y-88594048D02*
X212481896Y-91894048D01*
%TO.C,L156*%
X208275000Y-139666000D02*
X210800000Y-139666000D01*
X208275000Y-141766000D02*
X208275000Y-139666000D01*
X210800000Y-139666000D02*
X210800000Y-141766000D01*
X210800000Y-141766000D02*
X208275000Y-141766000D01*
%TO.C,R110*%
X169698400Y-111258600D02*
X172998400Y-111258600D01*
X169698400Y-112718600D02*
X169698400Y-111258600D01*
X172998400Y-111258600D02*
X172998400Y-112718600D01*
X172998400Y-112718600D02*
X169698400Y-112718600D01*
%TO.C,U701*%
X170719541Y-143510400D02*
G75*
G03*
X170719541Y-143510400I-336341J0D01*
G01*
%TO.C,C28*%
X205392000Y-80726000D02*
X208692000Y-80726000D01*
X205392000Y-82186000D02*
X205392000Y-80726000D01*
X208692000Y-80726000D02*
X208692000Y-82186000D01*
X208692000Y-82186000D02*
X205392000Y-82186000D01*
%TO.C,C207*%
X232308000Y-104427800D02*
X235608000Y-104427800D01*
X232308000Y-105887800D02*
X232308000Y-104427800D01*
X235608000Y-104427800D02*
X235608000Y-105887800D01*
X235608000Y-105887800D02*
X232308000Y-105887800D01*
%TO.C,L704*%
X186515000Y-137077000D02*
X186515000Y-134552000D01*
X188615000Y-137077000D02*
X186515000Y-137077000D01*
X186515000Y-134552000D02*
X188615000Y-134552000D01*
X188615000Y-134552000D02*
X188615000Y-137077000D01*
%TO.C,R11*%
X176023000Y-93250000D02*
X179323000Y-93250000D01*
X176023000Y-94710000D02*
X176023000Y-93250000D01*
X179323000Y-93250000D02*
X179323000Y-94710000D01*
X179323000Y-94710000D02*
X176023000Y-94710000D01*
%TO.C,C151*%
X201390000Y-144019000D02*
X201390000Y-147319000D01*
X199930000Y-144019000D02*
X201390000Y-144019000D01*
X201390000Y-147319000D02*
X199930000Y-147319000D01*
X199930000Y-147319000D02*
X199930000Y-144019000D01*
%TO.C,C88*%
X155673000Y-80541500D02*
X155673000Y-72781500D01*
X161573000Y-80541500D02*
X155673000Y-80541500D01*
X155673000Y-72781500D02*
X161573000Y-72781500D01*
X161573000Y-72781500D02*
X161573000Y-80541500D01*
%TO.C,R12*%
X176023000Y-91726000D02*
X179323000Y-91726000D01*
X176023000Y-93186000D02*
X176023000Y-91726000D01*
X179323000Y-91726000D02*
X179323000Y-93186000D01*
X179323000Y-93186000D02*
X176023000Y-93186000D01*
%TO.C,C708*%
X183572400Y-131418600D02*
X183572400Y-128118600D01*
X185032400Y-131418600D02*
X183572400Y-131418600D01*
X183572400Y-128118600D02*
X185032400Y-128118600D01*
X185032400Y-128118600D02*
X185032400Y-131418600D01*
%TO.C,R95*%
X167975000Y-109511000D02*
X171275000Y-109511000D01*
X167975000Y-110971000D02*
X167975000Y-109511000D01*
X171275000Y-109511000D02*
X171275000Y-110971000D01*
X171275000Y-110971000D02*
X167975000Y-110971000D01*
%TO.C,Y26*%
X207683000Y-70755000D02*
X192583000Y-70755000D01*
X192583000Y-70755000D02*
X192583000Y-75355000D01*
X207683000Y-75355000D02*
X207683000Y-70755000D01*
X192583000Y-75355000D02*
X207683000Y-75355000D01*
%TO.C,H101*%
X158127252Y-64490600D02*
G75*
G03*
X158127252Y-64490600I-1612452J0D01*
G01*
%TO.C,U90*%
X174920000Y-102345000D02*
X174920000Y-105945000D01*
X174920000Y-102345000D02*
X179680000Y-102345000D01*
X179680000Y-105945000D02*
X174920000Y-105945000D01*
X179680000Y-105945000D02*
X179680000Y-102345000D01*
D11*
%TO.C,J2*%
X217551000Y-94996000D02*
X217551000Y-88646000D01*
X223647000Y-94996000D02*
X217551000Y-94996000D01*
X217551000Y-88646000D02*
X223647000Y-88646000D01*
X223647000Y-88646000D02*
X223647000Y-94996000D01*
D14*
%TO.C,R100*%
X168520500Y-92940000D02*
X171820500Y-92940000D01*
X168520500Y-94400000D02*
X168520500Y-92940000D01*
X171820500Y-92940000D02*
X171820500Y-94400000D01*
X171820500Y-94400000D02*
X168520500Y-94400000D01*
%TO.C,R9*%
X188093600Y-103224600D02*
X188093600Y-99924600D01*
X189553600Y-103224600D02*
X188093600Y-103224600D01*
X188093600Y-99924600D02*
X189553600Y-99924600D01*
X189553600Y-99924600D02*
X189553600Y-103224600D01*
%TO.C,C710*%
X183193472Y-129467163D02*
X179893472Y-129467163D01*
X183193472Y-128007163D02*
X183193472Y-129467163D01*
X179893472Y-129467163D02*
X179893472Y-128007163D01*
X179893472Y-128007163D02*
X183193472Y-128007163D01*
%TO.C,L503*%
X233424637Y-129992766D02*
X230899637Y-129992766D01*
X233424637Y-127892766D02*
X233424637Y-129992766D01*
X230899637Y-129992766D02*
X230899637Y-127892766D01*
X230899637Y-127892766D02*
X233424637Y-127892766D01*
%TO.C,H14*%
X178447252Y-146380200D02*
G75*
G03*
X178447252Y-146380200I-850452J0D01*
G01*
%TO.C,R403*%
X236459473Y-72415075D02*
X236459473Y-69115075D01*
X237919473Y-72415075D02*
X236459473Y-72415075D01*
X236459473Y-69115075D02*
X237919473Y-69115075D01*
X237919473Y-69115075D02*
X237919473Y-72415075D01*
%TO.C,L406*%
X231265329Y-77397653D02*
X233790329Y-77397653D01*
X231265329Y-79497653D02*
X231265329Y-77397653D01*
X233790329Y-77397653D02*
X233790329Y-79497653D01*
X233790329Y-79497653D02*
X231265329Y-79497653D01*
%TO.C,C707*%
X183572400Y-139038600D02*
X183572400Y-135738600D01*
X185032400Y-139038600D02*
X183572400Y-139038600D01*
X183572400Y-135738600D02*
X185032400Y-135738600D01*
X185032400Y-135738600D02*
X185032400Y-139038600D01*
%TO.C,C94*%
X164494000Y-98562500D02*
X164494000Y-106322500D01*
X158594000Y-98562500D02*
X164494000Y-98562500D01*
X164494000Y-106322500D02*
X158594000Y-106322500D01*
X158594000Y-106322500D02*
X158594000Y-98562500D01*
%TO.C,L158*%
X214459000Y-140936000D02*
X216984000Y-140936000D01*
X214459000Y-143036000D02*
X214459000Y-140936000D01*
X216984000Y-140936000D02*
X216984000Y-143036000D01*
X216984000Y-143036000D02*
X214459000Y-143036000D01*
%TO.C,C153*%
X202025000Y-140209000D02*
X202025000Y-143509000D01*
X200565000Y-140209000D02*
X202025000Y-140209000D01*
X202025000Y-143509000D02*
X200565000Y-143509000D01*
X200565000Y-143509000D02*
X200565000Y-140209000D01*
%TO.C,C96*%
X179150000Y-110630000D02*
X175850000Y-110630000D01*
X179150000Y-109170000D02*
X179150000Y-110630000D01*
X175850000Y-110630000D02*
X175850000Y-109170000D01*
X175850000Y-109170000D02*
X179150000Y-109170000D01*
%TO.C,L152*%
X203234000Y-133697000D02*
X205759000Y-133697000D01*
X203234000Y-135797000D02*
X203234000Y-133697000D01*
X205759000Y-133697000D02*
X205759000Y-135797000D01*
X205759000Y-135797000D02*
X203234000Y-135797000D01*
%TO.C,C158*%
X211112000Y-139541000D02*
X207812000Y-139541000D01*
X211112000Y-138081000D02*
X211112000Y-139541000D01*
X207812000Y-139541000D02*
X207812000Y-138081000D01*
X207812000Y-138081000D02*
X211112000Y-138081000D01*
%TO.C,L701*%
X186164500Y-138558000D02*
X186164500Y-140158000D01*
X186164500Y-138558000D02*
X188764500Y-138558000D01*
X186164500Y-140158000D02*
X188764500Y-140158000D01*
X188764500Y-138558000D02*
X188764500Y-140158000D01*
%TO.C,C409*%
X233638968Y-75678612D02*
X230338968Y-75678612D01*
X233638968Y-74218612D02*
X233638968Y-75678612D01*
X230338968Y-75678612D02*
X230338968Y-74218612D01*
X230338968Y-74218612D02*
X233638968Y-74218612D01*
%TO.C,L301*%
X237813000Y-92816600D02*
X237813000Y-90291600D01*
X239913000Y-92816600D02*
X237813000Y-92816600D01*
X237813000Y-90291600D02*
X239913000Y-90291600D01*
X239913000Y-90291600D02*
X239913000Y-92816600D01*
%TO.C,C717*%
X169450000Y-139064000D02*
X169450000Y-135764000D01*
X170910000Y-139064000D02*
X169450000Y-139064000D01*
X169450000Y-135764000D02*
X170910000Y-135764000D01*
X170910000Y-135764000D02*
X170910000Y-139064000D01*
D10*
%TO.C,U30*%
X175138000Y-77749600D02*
X175138000Y-80949600D01*
X175138000Y-77749600D02*
X178938000Y-77749600D01*
X175138000Y-80949600D02*
X178938000Y-80949600D01*
X178938000Y-77749600D02*
X178938000Y-80949600D01*
D14*
%TO.C,R14*%
X164034200Y-139909800D02*
X167334200Y-139909800D01*
X164034200Y-141369800D02*
X164034200Y-139909800D01*
X167334200Y-139909800D02*
X167334200Y-141369800D01*
X167334200Y-141369800D02*
X164034200Y-141369800D01*
%TO.C,PS602*%
X210362800Y-101574600D02*
X210362800Y-112776000D01*
X210362800Y-101574600D02*
X221437200Y-101600000D01*
X221437200Y-112776000D02*
X210362800Y-112776000D01*
X221437200Y-112776000D02*
X221437200Y-101600000D01*
%TO.C,L86*%
X164775000Y-91317000D02*
X164775000Y-96217000D01*
X161615000Y-91317000D02*
X164775000Y-91317000D01*
X164775000Y-96217000D02*
X161615000Y-96217000D01*
X161615000Y-96217000D02*
X161615000Y-91317000D01*
%TO.C,R10*%
X185553600Y-103250000D02*
X185553600Y-99950000D01*
X187013600Y-103250000D02*
X185553600Y-103250000D01*
X185553600Y-99950000D02*
X187013600Y-99950000D01*
X187013600Y-99950000D02*
X187013600Y-103250000D01*
%TO.C,R502*%
X238723000Y-128560000D02*
X238723000Y-125260000D01*
X240183000Y-128560000D02*
X238723000Y-128560000D01*
X238723000Y-125260000D02*
X240183000Y-125260000D01*
X240183000Y-125260000D02*
X240183000Y-128560000D01*
D15*
%TO.C,U405*%
X233895473Y-72497075D02*
X233895473Y-78339075D01*
X233895473Y-78339075D02*
X239737473Y-78339075D01*
X239737473Y-72497075D02*
X233895473Y-72497075D01*
X239737473Y-78339075D02*
X239737473Y-72497075D01*
D14*
%TO.C,L155*%
X204350000Y-138589000D02*
X207650000Y-138589000D01*
X204350000Y-140049000D02*
X204350000Y-138589000D01*
X207650000Y-138589000D02*
X207650000Y-140049000D01*
X207650000Y-140049000D02*
X204350000Y-140049000D01*
D15*
%TO.C,U305*%
X231775000Y-93761600D02*
X237617000Y-93761600D01*
X237617000Y-93761600D02*
X237617000Y-87919600D01*
X231775000Y-87919600D02*
X231775000Y-93761600D01*
X237617000Y-87919600D02*
X231775000Y-87919600D01*
D14*
%TO.C,C161*%
X207685000Y-130715000D02*
X210985000Y-130715000D01*
X207685000Y-132175000D02*
X207685000Y-130715000D01*
X210985000Y-130715000D02*
X210985000Y-132175000D01*
X210985000Y-132175000D02*
X207685000Y-132175000D01*
%TO.C,H19*%
X226164052Y-65840000D02*
G75*
G03*
X226164052Y-65840000I-850452J0D01*
G01*
%TO.C,C654*%
X212726000Y-91899500D02*
X216026000Y-91899500D01*
X212726000Y-93359500D02*
X212726000Y-91899500D01*
X216026000Y-91899500D02*
X216026000Y-93359500D01*
X216026000Y-93359500D02*
X212726000Y-93359500D01*
%TO.C,REF\u002A\u002A*%
X233000000Y-60600000D02*
G75*
G03*
X233000000Y-60600000I-1000000J0D01*
G01*
%TO.C,L705*%
X186593400Y-134020100D02*
X184068400Y-134020100D01*
X186593400Y-131920100D02*
X186593400Y-134020100D01*
X184068400Y-134020100D02*
X184068400Y-131920100D01*
X184068400Y-131920100D02*
X186593400Y-131920100D01*
%TO.C,C156*%
X204731000Y-140209000D02*
X204731000Y-143509000D01*
X203271000Y-140209000D02*
X204731000Y-140209000D01*
X204731000Y-143509000D02*
X203271000Y-143509000D01*
X203271000Y-143509000D02*
X203271000Y-140209000D01*
%TO.C,C505*%
X235359940Y-134889797D02*
X235359940Y-138189797D01*
X233899940Y-134889797D02*
X235359940Y-134889797D01*
X235359940Y-138189797D02*
X233899940Y-138189797D01*
X233899940Y-138189797D02*
X233899940Y-134889797D01*
%TO.C,L404*%
X227659473Y-73525075D02*
X230184473Y-73525075D01*
X227659473Y-75625075D02*
X227659473Y-73525075D01*
X230184473Y-73525075D02*
X230184473Y-75625075D01*
X230184473Y-75625075D02*
X227659473Y-75625075D01*
%TO.C,C402*%
X226642973Y-74474475D02*
X226642973Y-77774475D01*
X225182973Y-74474475D02*
X226642973Y-74474475D01*
X226642973Y-77774475D02*
X225182973Y-77774475D01*
X225182973Y-77774475D02*
X225182973Y-74474475D01*
%TO.C,H12*%
X203745652Y-148717000D02*
G75*
G03*
X203745652Y-148717000I-850452J0D01*
G01*
%TO.C,L405*%
X228663002Y-77346065D02*
X231188002Y-77346065D01*
X228663002Y-79446065D02*
X228663002Y-77346065D01*
X231188002Y-77346065D02*
X231188002Y-79446065D01*
X231188002Y-79446065D02*
X228663002Y-79446065D01*
%TO.C,REF\u002A\u002A*%
X159216600Y-71323200D02*
G75*
G03*
X159216600Y-71323200I-1000000J0D01*
G01*
%TO.C,R651*%
X208408000Y-96044000D02*
X211708000Y-96044000D01*
X208408000Y-97504000D02*
X208408000Y-96044000D01*
X211708000Y-96044000D02*
X211708000Y-97504000D01*
X211708000Y-97504000D02*
X208408000Y-97504000D01*
%TO.C,C716*%
X171984400Y-139452600D02*
X175284400Y-139452600D01*
X171984400Y-140912600D02*
X171984400Y-139452600D01*
X175284400Y-139452600D02*
X175284400Y-140912600D01*
X175284400Y-140912600D02*
X171984400Y-140912600D01*
%TO.C,C404*%
X230076473Y-77210075D02*
X226776473Y-77210075D01*
X230076473Y-75750075D02*
X230076473Y-77210075D01*
X226776473Y-77210075D02*
X226776473Y-75750075D01*
X226776473Y-75750075D02*
X230076473Y-75750075D01*
%TO.C,C31*%
X220852000Y-139545000D02*
X217552000Y-139545000D01*
X220852000Y-138085000D02*
X220852000Y-139545000D01*
X217552000Y-139545000D02*
X217552000Y-138085000D01*
X217552000Y-138085000D02*
X220852000Y-138085000D01*
%TO.C,C205*%
X231005000Y-112117300D02*
X231005000Y-115417300D01*
X229545000Y-112117300D02*
X231005000Y-112117300D01*
X231005000Y-115417300D02*
X229545000Y-115417300D01*
X229545000Y-115417300D02*
X229545000Y-112117300D01*
%TO.C,L707*%
X175570900Y-134020100D02*
X173045900Y-134020100D01*
X175570900Y-131920100D02*
X175570900Y-134020100D01*
X173045900Y-134020100D02*
X173045900Y-131920100D01*
X173045900Y-131920100D02*
X175570900Y-131920100D01*
%TO.C,C27*%
X206021500Y-75597000D02*
X209321500Y-75597000D01*
X206021500Y-77057000D02*
X206021500Y-75597000D01*
X209321500Y-75597000D02*
X209321500Y-77057000D01*
X209321500Y-77057000D02*
X206021500Y-77057000D01*
D10*
%TO.C,U78*%
X168350000Y-84368000D02*
X161850000Y-84368000D01*
X161850000Y-84368000D02*
X161850000Y-89368000D01*
X168350000Y-89368000D02*
X168350000Y-84368000D01*
X161850000Y-89368000D02*
X168350000Y-89368000D01*
D14*
%TO.C,R86*%
X155162000Y-104221500D02*
X155162000Y-107521500D01*
X153702000Y-104221500D02*
X155162000Y-104221500D01*
X155162000Y-107521500D02*
X153702000Y-107521500D01*
X153702000Y-107521500D02*
X153702000Y-104221500D01*
%TO.C,C501*%
X228161600Y-130164322D02*
X228161600Y-133464322D01*
X226701600Y-130164322D02*
X228161600Y-130164322D01*
X228161600Y-133464322D02*
X226701600Y-133464322D01*
X226701600Y-133464322D02*
X226701600Y-130164322D01*
%TO.C,D26*%
X216717000Y-70513000D02*
X216717000Y-73473000D01*
X215257000Y-70513000D02*
X216717000Y-70513000D01*
X216717000Y-73473000D02*
X215257000Y-73473000D01*
X215257000Y-73473000D02*
X215257000Y-70513000D01*
%TO.C,L201*%
X237837000Y-110749000D02*
X237837000Y-108224000D01*
X239937000Y-110749000D02*
X237837000Y-110749000D01*
X237837000Y-108224000D02*
X239937000Y-108224000D01*
X239937000Y-108224000D02*
X239937000Y-110749000D01*
%TO.C,C504*%
X233652500Y-127222000D02*
X230352500Y-127222000D01*
X233652500Y-125762000D02*
X233652500Y-127222000D01*
X230352500Y-127222000D02*
X230352500Y-125762000D01*
X230352500Y-125762000D02*
X233652500Y-125762000D01*
%TO.C,R302*%
X230243344Y-90366476D02*
X230243344Y-87066476D01*
X231703344Y-90366476D02*
X230243344Y-90366476D01*
X230243344Y-87066476D02*
X231703344Y-87066476D01*
X231703344Y-87066476D02*
X231703344Y-90366476D01*
%TO.C,R303*%
X228748960Y-91560679D02*
X228748960Y-88260679D01*
X230208960Y-91560679D02*
X228748960Y-91560679D01*
X228748960Y-88260679D02*
X230208960Y-88260679D01*
X230208960Y-88260679D02*
X230208960Y-91560679D01*
%TO.C,R152*%
X214567335Y-134173294D02*
X214567335Y-130873294D01*
X216027335Y-134173294D02*
X214567335Y-134173294D01*
X214567335Y-130873294D02*
X216027335Y-130873294D01*
X216027335Y-130873294D02*
X216027335Y-134173294D01*
%TO.C,L408*%
X237155473Y-81477075D02*
X237155473Y-78952075D01*
X239255473Y-81477075D02*
X237155473Y-81477075D01*
X237155473Y-78952075D02*
X239255473Y-78952075D01*
X239255473Y-78952075D02*
X239255473Y-81477075D01*
D15*
%TO.C,U505*%
X234291000Y-129008000D02*
X234291000Y-134850000D01*
X234291000Y-134850000D02*
X240133000Y-134850000D01*
X240133000Y-129008000D02*
X234291000Y-129008000D01*
X240133000Y-134850000D02*
X240133000Y-129008000D01*
D14*
%TO.C,R603*%
X188506000Y-112871000D02*
X185206000Y-112871000D01*
X188506000Y-111411000D02*
X188506000Y-112871000D01*
X185206000Y-112871000D02*
X185206000Y-111411000D01*
X185206000Y-111411000D02*
X188506000Y-111411000D01*
%TO.C,PS601*%
X210362800Y-113766600D02*
X210362800Y-124968000D01*
X210362800Y-113766600D02*
X221437200Y-113792000D01*
X221437200Y-124968000D02*
X210362800Y-124968000D01*
X221437200Y-124968000D02*
X221437200Y-113792000D01*
%TO.C,H16*%
X165950452Y-62230000D02*
G75*
G03*
X165950452Y-62230000I-850452J0D01*
G01*
%TO.C,U94*%
X168462000Y-112947000D02*
X173262000Y-112947000D01*
X168462000Y-116547000D02*
X168462000Y-112947000D01*
X173262000Y-112947000D02*
X173262000Y-116547000D01*
X173262000Y-116547000D02*
X168462000Y-116547000D01*
%TO.C,L710*%
X193350000Y-138680000D02*
X193350000Y-136920000D01*
X194050000Y-138680000D02*
X193350000Y-138680000D01*
X193350000Y-136920000D02*
X194050000Y-136920000D01*
X194050000Y-136920000D02*
X194050000Y-138680000D01*
%TO.C,C304*%
X236602000Y-94113600D02*
X239902000Y-94113600D01*
X236602000Y-95573600D02*
X236602000Y-94113600D01*
X239902000Y-94113600D02*
X239902000Y-95573600D01*
X239902000Y-95573600D02*
X236602000Y-95573600D01*
%TO.C,R94*%
X166498000Y-102272000D02*
X169798000Y-102272000D01*
X166498000Y-103732000D02*
X166498000Y-102272000D01*
X169798000Y-102272000D02*
X169798000Y-103732000D01*
X169798000Y-103732000D02*
X166498000Y-103732000D01*
%TO.C,R151*%
X212566000Y-140717000D02*
X212566000Y-144017000D01*
X211106000Y-140717000D02*
X212566000Y-140717000D01*
X212566000Y-144017000D02*
X211106000Y-144017000D01*
X211106000Y-144017000D02*
X211106000Y-140717000D01*
%TO.C,L157*%
X208441000Y-134078000D02*
X210966000Y-134078000D01*
X208441000Y-136178000D02*
X208441000Y-134078000D01*
X210966000Y-134078000D02*
X210966000Y-136178000D01*
X210966000Y-136178000D02*
X208441000Y-136178000D01*
%TO.C,R97*%
X169450000Y-103923000D02*
X172750000Y-103923000D01*
X169450000Y-105383000D02*
X169450000Y-103923000D01*
X172750000Y-103923000D02*
X172750000Y-105383000D01*
X172750000Y-105383000D02*
X169450000Y-105383000D01*
%TO.C,C101*%
X173391000Y-116566000D02*
X173391000Y-112806000D01*
X175351000Y-116566000D02*
X173391000Y-116566000D01*
X173391000Y-112806000D02*
X175351000Y-112806000D01*
X175351000Y-112806000D02*
X175351000Y-116566000D01*
%TO.C,C306*%
X229648000Y-95096600D02*
X229648000Y-91796600D01*
X231108000Y-95096600D02*
X229648000Y-95096600D01*
X229648000Y-91796600D02*
X231108000Y-91796600D01*
X231108000Y-91796600D02*
X231108000Y-95096600D01*
%TO.C,C407*%
X232921789Y-72579857D02*
X229621789Y-72579857D01*
X232921789Y-71119857D02*
X232921789Y-72579857D01*
X229621789Y-72579857D02*
X229621789Y-71119857D01*
X229621789Y-71119857D02*
X232921789Y-71119857D01*
%TO.C,R28*%
X211850000Y-70270000D02*
X215150000Y-70270000D01*
X211850000Y-71730000D02*
X211850000Y-70270000D01*
X215150000Y-70270000D02*
X215150000Y-71730000D01*
X215150000Y-71730000D02*
X211850000Y-71730000D01*
%TO.C,FB701*%
X185039900Y-140812100D02*
X181739900Y-140812100D01*
X185039900Y-139352100D02*
X185039900Y-140812100D01*
X181739900Y-140812100D02*
X181739900Y-139352100D01*
X181739900Y-139352100D02*
X185039900Y-139352100D01*
%TO.C,C715*%
X172592000Y-135604000D02*
X169292000Y-135604000D01*
X172592000Y-134144000D02*
X172592000Y-135604000D01*
X169292000Y-135604000D02*
X169292000Y-134144000D01*
X169292000Y-134144000D02*
X172592000Y-134144000D01*
%TO.C,FB702*%
X172586400Y-128780100D02*
X172586400Y-132080100D01*
X171126400Y-128780100D02*
X172586400Y-128780100D01*
X172586400Y-132080100D02*
X171126400Y-132080100D01*
X171126400Y-132080100D02*
X171126400Y-128780100D01*
%TO.C,C704*%
X189020500Y-137960000D02*
X189020500Y-134660000D01*
X190480500Y-137960000D02*
X189020500Y-137960000D01*
X189020500Y-134660000D02*
X190480500Y-134660000D01*
X190480500Y-134660000D02*
X190480500Y-137960000D01*
%TO.C,R7*%
X189922400Y-76580000D02*
X189922400Y-73280000D01*
X191382400Y-76580000D02*
X189922400Y-76580000D01*
X189922400Y-73280000D02*
X191382400Y-73280000D01*
X191382400Y-73280000D02*
X191382400Y-76580000D01*
%TO.C,C86*%
X156686000Y-107650500D02*
X156686000Y-110950500D01*
X155226000Y-107650500D02*
X156686000Y-107650500D01*
X156686000Y-110950500D02*
X155226000Y-110950500D01*
X155226000Y-110950500D02*
X155226000Y-107650500D01*
D15*
%TO.C,U205*%
X231902000Y-111928300D02*
X237744000Y-111928300D01*
X237744000Y-111928300D02*
X237744000Y-106086300D01*
X231902000Y-106086300D02*
X231902000Y-111928300D01*
X237744000Y-106086300D02*
X231902000Y-106086300D01*
D14*
%TO.C,TP1*%
X150202000Y-108148600D02*
X153808800Y-108153200D01*
X150202000Y-111607600D02*
X150202000Y-108148600D01*
X153808800Y-108153200D02*
X153808800Y-111607600D01*
X153808800Y-111607600D02*
X150202000Y-111607600D01*
%TO.C,L402*%
X225370973Y-74326075D02*
X225370973Y-71801075D01*
X227470973Y-74326075D02*
X225370973Y-74326075D01*
X225370973Y-71801075D02*
X227470973Y-71801075D01*
X227470973Y-71801075D02*
X227470973Y-74326075D01*
%TO.C,R153*%
X212899500Y-133984000D02*
X212899500Y-130684000D01*
X214359500Y-133984000D02*
X212899500Y-133984000D01*
X212899500Y-130684000D02*
X214359500Y-130684000D01*
X214359500Y-130684000D02*
X214359500Y-133984000D01*
%TO.C,U604*%
X188602000Y-109862000D02*
X188602000Y-120262000D01*
X188602000Y-109862000D02*
X199002000Y-109862000D01*
X199002000Y-120262000D02*
X188602000Y-120262000D01*
X199002000Y-120262000D02*
X199002000Y-109862000D01*
%TO.C,R503*%
X236998000Y-128499500D02*
X236998000Y-125199500D01*
X238458000Y-128499500D02*
X236998000Y-128499500D01*
X236998000Y-125199500D02*
X238458000Y-125199500D01*
X238458000Y-125199500D02*
X238458000Y-128499500D01*
%TO.C,L407*%
X230019963Y-68965323D02*
X232544963Y-68965323D01*
X230019963Y-71065323D02*
X230019963Y-68965323D01*
X232544963Y-68965323D02*
X232544963Y-71065323D01*
X232544963Y-71065323D02*
X230019963Y-71065323D01*
D10*
%TO.C,U79*%
X177908000Y-72557000D02*
X171408000Y-72557000D01*
X171408000Y-72557000D02*
X171408000Y-77557000D01*
X177908000Y-77557000D02*
X177908000Y-72557000D01*
X171408000Y-77557000D02*
X177908000Y-77557000D01*
D14*
%TO.C,C305*%
X231108000Y-95352600D02*
X231108000Y-98652600D01*
X229648000Y-95352600D02*
X231108000Y-95352600D01*
X231108000Y-98652600D02*
X229648000Y-98652600D01*
X229648000Y-98652600D02*
X229648000Y-95352600D01*
%TO.C,Y601*%
X210947000Y-94030800D02*
X205562200Y-94030800D01*
X210947000Y-87350600D02*
X210947000Y-94030800D01*
X205562200Y-94030800D02*
X205562200Y-87350600D01*
X205562200Y-87350600D02*
X210947000Y-87350600D01*
%TO.C,R501*%
X233806000Y-137636000D02*
X230506000Y-137636000D01*
X233806000Y-136176000D02*
X233806000Y-137636000D01*
X230506000Y-137636000D02*
X230506000Y-136176000D01*
X230506000Y-136176000D02*
X233806000Y-136176000D01*
%TO.C,C410*%
X233632473Y-77210075D02*
X230332473Y-77210075D01*
X233632473Y-75750075D02*
X233632473Y-77210075D01*
X230332473Y-77210075D02*
X230332473Y-75750075D01*
X230332473Y-75750075D02*
X233632473Y-75750075D01*
%TO.C,U86*%
X161069000Y-81076000D02*
X155669000Y-81076000D01*
X161069000Y-81076000D02*
X161069000Y-89076000D01*
X155669000Y-81076000D02*
X155669000Y-89076000D01*
X161069000Y-89076000D02*
X155669000Y-89076000D01*
%TO.C,J801*%
X217148000Y-149501000D02*
X230898000Y-149501000D01*
X230898000Y-149501000D02*
X230898000Y-143351000D01*
X217148000Y-143351000D02*
X217148000Y-149501000D01*
X230898000Y-143351000D02*
X217148000Y-143351000D01*
%TO.C,C121*%
X172248000Y-95860000D02*
X172248000Y-92100000D01*
X174208000Y-95860000D02*
X172248000Y-95860000D01*
X172248000Y-92100000D02*
X174208000Y-92100000D01*
X174208000Y-92100000D02*
X174208000Y-95860000D01*
%TO.C,L602*%
X185161000Y-117822000D02*
X187686000Y-117822000D01*
X185161000Y-119922000D02*
X185161000Y-117822000D01*
X187686000Y-117822000D02*
X187686000Y-119922000D01*
X187686000Y-119922000D02*
X185161000Y-119922000D01*
%TO.C,R6*%
X189991000Y-73120000D02*
X186691000Y-73120000D01*
X189991000Y-71660000D02*
X189991000Y-73120000D01*
X186691000Y-73120000D02*
X186691000Y-71660000D01*
X186691000Y-71660000D02*
X189991000Y-71660000D01*
%TO.C,C601*%
X182912000Y-117474000D02*
X182912000Y-114174000D01*
X184372000Y-117474000D02*
X182912000Y-117474000D01*
X182912000Y-114174000D02*
X184372000Y-114174000D01*
X184372000Y-114174000D02*
X184372000Y-117474000D01*
%TD*%
M02*
