%TF.GenerationSoftware,KiCad,Pcbnew,7.0.9-7.0.9~ubuntu22.04.1*%
%TF.CreationDate,2023-12-17T15:48:16-06:00*%
%TF.ProjectId,PacSat_JTAG_Interface,50616353-6174-45f4-9a54-41475f496e74,rev?*%
%TF.SameCoordinates,Original*%
%TF.FileFunction,Drillmap*%
%TF.FilePolarity,Positive*%
%FSLAX45Y45*%
G04 Gerber Fmt 4.5, Leading zero omitted, Abs format (unit mm)*
G04 Created by KiCad (PCBNEW 7.0.9-7.0.9~ubuntu22.04.1) date 2023-12-17 15:48:16*
%MOMM*%
%LPD*%
G01*
G04 APERTURE LIST*
%ADD10C,0.100000*%
%ADD11C,0.200000*%
%ADD12C,0.320000*%
G04 APERTURE END LIST*
D10*
X11176000Y-6858000D02*
X8382000Y-6858000D01*
X8371205Y-9842500D02*
X11170349Y-9847898D01*
X8371205Y-9842500D02*
X8382000Y-6858000D01*
X11176000Y-6858000D02*
X11170349Y-9847898D01*
D11*
D10*
X8605205Y-8395023D02*
X8645205Y-8435023D01*
X8645205Y-8395023D02*
X8605205Y-8435023D01*
X9684705Y-7569523D02*
X9724705Y-7609523D01*
X9724705Y-7569523D02*
X9684705Y-7609523D01*
X9726355Y-8014023D02*
X9766355Y-8054023D01*
X9766355Y-8014023D02*
X9726355Y-8054023D01*
X8848205Y-8161952D02*
G75*
G03*
X8848205Y-8161952I-32500J0D01*
G01*
X8848205Y-8288952D02*
G75*
G03*
X8848205Y-8288952I-32500J0D01*
G01*
X8848205Y-8415952D02*
G75*
G03*
X8848205Y-8415952I-32500J0D01*
G01*
X8848205Y-8542952D02*
G75*
G03*
X8848205Y-8542952I-32500J0D01*
G01*
X8848205Y-8669952D02*
G75*
G03*
X8848205Y-8669952I-32500J0D01*
G01*
X9165705Y-8161023D02*
G75*
G03*
X9165705Y-8161023I-32500J0D01*
G01*
X9165705Y-8288023D02*
G75*
G03*
X9165705Y-8288023I-32500J0D01*
G01*
X9165705Y-8415023D02*
G75*
G03*
X9165705Y-8415023I-32500J0D01*
G01*
X9165705Y-8542023D02*
G75*
G03*
X9165705Y-8542023I-32500J0D01*
G01*
X9165705Y-8669023D02*
G75*
G03*
X9165705Y-8669023I-32500J0D01*
G01*
X9292705Y-8161023D02*
G75*
G03*
X9292705Y-8161023I-32500J0D01*
G01*
X9292705Y-8288023D02*
G75*
G03*
X9292705Y-8288023I-32500J0D01*
G01*
X9292705Y-8415023D02*
G75*
G03*
X9292705Y-8415023I-32500J0D01*
G01*
X9292705Y-8542023D02*
G75*
G03*
X9292705Y-8542023I-32500J0D01*
G01*
X9292705Y-8669023D02*
G75*
G03*
X9292705Y-8669023I-32500J0D01*
G01*
X9610205Y-8162023D02*
G75*
G03*
X9610205Y-8162023I-32500J0D01*
G01*
X9610205Y-8289023D02*
G75*
G03*
X9610205Y-8289023I-32500J0D01*
G01*
X9610205Y-8416023D02*
G75*
G03*
X9610205Y-8416023I-32500J0D01*
G01*
X9610205Y-8543023D02*
G75*
G03*
X9610205Y-8543023I-32500J0D01*
G01*
X9610205Y-8670023D02*
G75*
G03*
X9610205Y-8670023I-32500J0D01*
G01*
X9991205Y-7780023D02*
G75*
G03*
X9991205Y-7780023I-32500J0D01*
G01*
X9991205Y-7907023D02*
G75*
G03*
X9991205Y-7907023I-32500J0D01*
G01*
X9991205Y-8034023D02*
G75*
G03*
X9991205Y-8034023I-32500J0D01*
G01*
X9991205Y-8161023D02*
G75*
G03*
X9991205Y-8161023I-32500J0D01*
G01*
X9991205Y-8288023D02*
G75*
G03*
X9991205Y-8288023I-32500J0D01*
G01*
X9991205Y-8415023D02*
G75*
G03*
X9991205Y-8415023I-32500J0D01*
G01*
X9991205Y-8542023D02*
G75*
G03*
X9991205Y-8542023I-32500J0D01*
G01*
X9991205Y-8669023D02*
G75*
G03*
X9991205Y-8669023I-32500J0D01*
G01*
X9991205Y-8796023D02*
G75*
G03*
X9991205Y-8796023I-32500J0D01*
G01*
X9991205Y-8923023D02*
G75*
G03*
X9991205Y-8923023I-32500J0D01*
G01*
X10372205Y-7780023D02*
G75*
G03*
X10372205Y-7780023I-32500J0D01*
G01*
X10372205Y-7907023D02*
G75*
G03*
X10372205Y-7907023I-32500J0D01*
G01*
X10372205Y-8034023D02*
G75*
G03*
X10372205Y-8034023I-32500J0D01*
G01*
X10372205Y-8161023D02*
G75*
G03*
X10372205Y-8161023I-32500J0D01*
G01*
X10372205Y-8288023D02*
G75*
G03*
X10372205Y-8288023I-32500J0D01*
G01*
X10372205Y-8415023D02*
G75*
G03*
X10372205Y-8415023I-32500J0D01*
G01*
X10372205Y-8542023D02*
G75*
G03*
X10372205Y-8542023I-32500J0D01*
G01*
X10372205Y-8669023D02*
G75*
G03*
X10372205Y-8669023I-32500J0D01*
G01*
X10372205Y-8796023D02*
G75*
G03*
X10372205Y-8796023I-32500J0D01*
G01*
X10372205Y-8923023D02*
G75*
G03*
X10372205Y-8923023I-32500J0D01*
G01*
X10499205Y-7780023D02*
G75*
G03*
X10499205Y-7780023I-32500J0D01*
G01*
X10499205Y-7907023D02*
G75*
G03*
X10499205Y-7907023I-32500J0D01*
G01*
X10499205Y-8034023D02*
G75*
G03*
X10499205Y-8034023I-32500J0D01*
G01*
X10499205Y-8161023D02*
G75*
G03*
X10499205Y-8161023I-32500J0D01*
G01*
X10499205Y-8288023D02*
G75*
G03*
X10499205Y-8288023I-32500J0D01*
G01*
X10499205Y-8415023D02*
G75*
G03*
X10499205Y-8415023I-32500J0D01*
G01*
X10499205Y-8542023D02*
G75*
G03*
X10499205Y-8542023I-32500J0D01*
G01*
X10499205Y-8669023D02*
G75*
G03*
X10499205Y-8669023I-32500J0D01*
G01*
X10499205Y-8796023D02*
G75*
G03*
X10499205Y-8796023I-32500J0D01*
G01*
X10499205Y-8923023D02*
G75*
G03*
X10499205Y-8923023I-32500J0D01*
G01*
X10880205Y-7780023D02*
G75*
G03*
X10880205Y-7780023I-32500J0D01*
G01*
X10880205Y-7907023D02*
G75*
G03*
X10880205Y-7907023I-32500J0D01*
G01*
X10880205Y-8034023D02*
G75*
G03*
X10880205Y-8034023I-32500J0D01*
G01*
X10880205Y-8161023D02*
G75*
G03*
X10880205Y-8161023I-32500J0D01*
G01*
X10880205Y-8288023D02*
G75*
G03*
X10880205Y-8288023I-32500J0D01*
G01*
X10880205Y-8415023D02*
G75*
G03*
X10880205Y-8415023I-32500J0D01*
G01*
X10880205Y-8542023D02*
G75*
G03*
X10880205Y-8542023I-32500J0D01*
G01*
X10880205Y-8669023D02*
G75*
G03*
X10880205Y-8669023I-32500J0D01*
G01*
X10880205Y-8796023D02*
G75*
G03*
X10880205Y-8796023I-32500J0D01*
G01*
X10880205Y-8923023D02*
G75*
G03*
X10880205Y-8923023I-32500J0D01*
G01*
D12*
X8752205Y-7048523D02*
X8752205Y-7368523D01*
X8592205Y-7208523D02*
X8912205Y-7208523D01*
X8752205Y-9334523D02*
X8752205Y-9654523D01*
X8592205Y-9494523D02*
X8912205Y-9494523D01*
X10784205Y-7048523D02*
X10784205Y-7368523D01*
X10624205Y-7208523D02*
X10944205Y-7208523D01*
X10784205Y-9334523D02*
X10784205Y-9654523D01*
X10624205Y-9494523D02*
X10944205Y-9494523D01*
D11*
X8626982Y-10164381D02*
X8626982Y-9964381D01*
X8626982Y-9964381D02*
X8674601Y-9964381D01*
X8674601Y-9964381D02*
X8703172Y-9973905D01*
X8703172Y-9973905D02*
X8722220Y-9992953D01*
X8722220Y-9992953D02*
X8731744Y-10012000D01*
X8731744Y-10012000D02*
X8741268Y-10050096D01*
X8741268Y-10050096D02*
X8741268Y-10078667D01*
X8741268Y-10078667D02*
X8731744Y-10116762D01*
X8731744Y-10116762D02*
X8722220Y-10135810D01*
X8722220Y-10135810D02*
X8703172Y-10154858D01*
X8703172Y-10154858D02*
X8674601Y-10164381D01*
X8674601Y-10164381D02*
X8626982Y-10164381D01*
X8826982Y-10164381D02*
X8826982Y-10031048D01*
X8826982Y-10069143D02*
X8836506Y-10050096D01*
X8836506Y-10050096D02*
X8846029Y-10040572D01*
X8846029Y-10040572D02*
X8865077Y-10031048D01*
X8865077Y-10031048D02*
X8884125Y-10031048D01*
X8950791Y-10164381D02*
X8950791Y-10031048D01*
X8950791Y-9964381D02*
X8941268Y-9973905D01*
X8941268Y-9973905D02*
X8950791Y-9983429D01*
X8950791Y-9983429D02*
X8960315Y-9973905D01*
X8960315Y-9973905D02*
X8950791Y-9964381D01*
X8950791Y-9964381D02*
X8950791Y-9983429D01*
X9074601Y-10164381D02*
X9055553Y-10154858D01*
X9055553Y-10154858D02*
X9046029Y-10135810D01*
X9046029Y-10135810D02*
X9046029Y-9964381D01*
X9179363Y-10164381D02*
X9160315Y-10154858D01*
X9160315Y-10154858D02*
X9150791Y-10135810D01*
X9150791Y-10135810D02*
X9150791Y-9964381D01*
X9407934Y-10164381D02*
X9407934Y-9964381D01*
X9407934Y-9964381D02*
X9474601Y-10107238D01*
X9474601Y-10107238D02*
X9541268Y-9964381D01*
X9541268Y-9964381D02*
X9541268Y-10164381D01*
X9722220Y-10164381D02*
X9722220Y-10059619D01*
X9722220Y-10059619D02*
X9712696Y-10040572D01*
X9712696Y-10040572D02*
X9693649Y-10031048D01*
X9693649Y-10031048D02*
X9655553Y-10031048D01*
X9655553Y-10031048D02*
X9636506Y-10040572D01*
X9722220Y-10154858D02*
X9703172Y-10164381D01*
X9703172Y-10164381D02*
X9655553Y-10164381D01*
X9655553Y-10164381D02*
X9636506Y-10154858D01*
X9636506Y-10154858D02*
X9626982Y-10135810D01*
X9626982Y-10135810D02*
X9626982Y-10116762D01*
X9626982Y-10116762D02*
X9636506Y-10097715D01*
X9636506Y-10097715D02*
X9655553Y-10088191D01*
X9655553Y-10088191D02*
X9703172Y-10088191D01*
X9703172Y-10088191D02*
X9722220Y-10078667D01*
X9817458Y-10031048D02*
X9817458Y-10231048D01*
X9817458Y-10040572D02*
X9836506Y-10031048D01*
X9836506Y-10031048D02*
X9874601Y-10031048D01*
X9874601Y-10031048D02*
X9893649Y-10040572D01*
X9893649Y-10040572D02*
X9903172Y-10050096D01*
X9903172Y-10050096D02*
X9912696Y-10069143D01*
X9912696Y-10069143D02*
X9912696Y-10126286D01*
X9912696Y-10126286D02*
X9903172Y-10145334D01*
X9903172Y-10145334D02*
X9893649Y-10154858D01*
X9893649Y-10154858D02*
X9874601Y-10164381D01*
X9874601Y-10164381D02*
X9836506Y-10164381D01*
X9836506Y-10164381D02*
X9817458Y-10154858D01*
X9998410Y-10145334D02*
X10007934Y-10154858D01*
X10007934Y-10154858D02*
X9998410Y-10164381D01*
X9998410Y-10164381D02*
X9988887Y-10154858D01*
X9988887Y-10154858D02*
X9998410Y-10145334D01*
X9998410Y-10145334D02*
X9998410Y-10164381D01*
X9998410Y-10040572D02*
X10007934Y-10050096D01*
X10007934Y-10050096D02*
X9998410Y-10059619D01*
X9998410Y-10059619D02*
X9988887Y-10050096D01*
X9988887Y-10050096D02*
X9998410Y-10040572D01*
X9998410Y-10040572D02*
X9998410Y-10059619D01*
D10*
X8326205Y-10472898D02*
X8366205Y-10512898D01*
X8366205Y-10472898D02*
X8326205Y-10512898D01*
D11*
X8665077Y-10384381D02*
X8684125Y-10384381D01*
X8684125Y-10384381D02*
X8703172Y-10393905D01*
X8703172Y-10393905D02*
X8712696Y-10403429D01*
X8712696Y-10403429D02*
X8722220Y-10422477D01*
X8722220Y-10422477D02*
X8731744Y-10460572D01*
X8731744Y-10460572D02*
X8731744Y-10508191D01*
X8731744Y-10508191D02*
X8722220Y-10546286D01*
X8722220Y-10546286D02*
X8712696Y-10565334D01*
X8712696Y-10565334D02*
X8703172Y-10574858D01*
X8703172Y-10574858D02*
X8684125Y-10584381D01*
X8684125Y-10584381D02*
X8665077Y-10584381D01*
X8665077Y-10584381D02*
X8646029Y-10574858D01*
X8646029Y-10574858D02*
X8636506Y-10565334D01*
X8636506Y-10565334D02*
X8626982Y-10546286D01*
X8626982Y-10546286D02*
X8617458Y-10508191D01*
X8617458Y-10508191D02*
X8617458Y-10460572D01*
X8617458Y-10460572D02*
X8626982Y-10422477D01*
X8626982Y-10422477D02*
X8636506Y-10403429D01*
X8636506Y-10403429D02*
X8646029Y-10393905D01*
X8646029Y-10393905D02*
X8665077Y-10384381D01*
X8817458Y-10565334D02*
X8826982Y-10574858D01*
X8826982Y-10574858D02*
X8817458Y-10584381D01*
X8817458Y-10584381D02*
X8807934Y-10574858D01*
X8807934Y-10574858D02*
X8817458Y-10565334D01*
X8817458Y-10565334D02*
X8817458Y-10584381D01*
X8998410Y-10451048D02*
X8998410Y-10584381D01*
X8950791Y-10374858D02*
X8903172Y-10517715D01*
X8903172Y-10517715D02*
X9026982Y-10517715D01*
X9141268Y-10384381D02*
X9160315Y-10384381D01*
X9160315Y-10384381D02*
X9179363Y-10393905D01*
X9179363Y-10393905D02*
X9188887Y-10403429D01*
X9188887Y-10403429D02*
X9198410Y-10422477D01*
X9198410Y-10422477D02*
X9207934Y-10460572D01*
X9207934Y-10460572D02*
X9207934Y-10508191D01*
X9207934Y-10508191D02*
X9198410Y-10546286D01*
X9198410Y-10546286D02*
X9188887Y-10565334D01*
X9188887Y-10565334D02*
X9179363Y-10574858D01*
X9179363Y-10574858D02*
X9160315Y-10584381D01*
X9160315Y-10584381D02*
X9141268Y-10584381D01*
X9141268Y-10584381D02*
X9122220Y-10574858D01*
X9122220Y-10574858D02*
X9112696Y-10565334D01*
X9112696Y-10565334D02*
X9103172Y-10546286D01*
X9103172Y-10546286D02*
X9093649Y-10508191D01*
X9093649Y-10508191D02*
X9093649Y-10460572D01*
X9093649Y-10460572D02*
X9103172Y-10422477D01*
X9103172Y-10422477D02*
X9112696Y-10403429D01*
X9112696Y-10403429D02*
X9122220Y-10393905D01*
X9122220Y-10393905D02*
X9141268Y-10384381D01*
X9331744Y-10384381D02*
X9350791Y-10384381D01*
X9350791Y-10384381D02*
X9369839Y-10393905D01*
X9369839Y-10393905D02*
X9379363Y-10403429D01*
X9379363Y-10403429D02*
X9388887Y-10422477D01*
X9388887Y-10422477D02*
X9398410Y-10460572D01*
X9398410Y-10460572D02*
X9398410Y-10508191D01*
X9398410Y-10508191D02*
X9388887Y-10546286D01*
X9388887Y-10546286D02*
X9379363Y-10565334D01*
X9379363Y-10565334D02*
X9369839Y-10574858D01*
X9369839Y-10574858D02*
X9350791Y-10584381D01*
X9350791Y-10584381D02*
X9331744Y-10584381D01*
X9331744Y-10584381D02*
X9312696Y-10574858D01*
X9312696Y-10574858D02*
X9303172Y-10565334D01*
X9303172Y-10565334D02*
X9293649Y-10546286D01*
X9293649Y-10546286D02*
X9284125Y-10508191D01*
X9284125Y-10508191D02*
X9284125Y-10460572D01*
X9284125Y-10460572D02*
X9293649Y-10422477D01*
X9293649Y-10422477D02*
X9303172Y-10403429D01*
X9303172Y-10403429D02*
X9312696Y-10393905D01*
X9312696Y-10393905D02*
X9331744Y-10384381D01*
X9484125Y-10584381D02*
X9484125Y-10451048D01*
X9484125Y-10470096D02*
X9493649Y-10460572D01*
X9493649Y-10460572D02*
X9512696Y-10451048D01*
X9512696Y-10451048D02*
X9541268Y-10451048D01*
X9541268Y-10451048D02*
X9560315Y-10460572D01*
X9560315Y-10460572D02*
X9569839Y-10479619D01*
X9569839Y-10479619D02*
X9569839Y-10584381D01*
X9569839Y-10479619D02*
X9579363Y-10460572D01*
X9579363Y-10460572D02*
X9598410Y-10451048D01*
X9598410Y-10451048D02*
X9626982Y-10451048D01*
X9626982Y-10451048D02*
X9646030Y-10460572D01*
X9646030Y-10460572D02*
X9655553Y-10479619D01*
X9655553Y-10479619D02*
X9655553Y-10584381D01*
X9750791Y-10584381D02*
X9750791Y-10451048D01*
X9750791Y-10470096D02*
X9760315Y-10460572D01*
X9760315Y-10460572D02*
X9779363Y-10451048D01*
X9779363Y-10451048D02*
X9807934Y-10451048D01*
X9807934Y-10451048D02*
X9826982Y-10460572D01*
X9826982Y-10460572D02*
X9836506Y-10479619D01*
X9836506Y-10479619D02*
X9836506Y-10584381D01*
X9836506Y-10479619D02*
X9846030Y-10460572D01*
X9846030Y-10460572D02*
X9865077Y-10451048D01*
X9865077Y-10451048D02*
X9893649Y-10451048D01*
X9893649Y-10451048D02*
X9912696Y-10460572D01*
X9912696Y-10460572D02*
X9922220Y-10479619D01*
X9922220Y-10479619D02*
X9922220Y-10584381D01*
X10312696Y-10374858D02*
X10141268Y-10632000D01*
X10569839Y-10384381D02*
X10588887Y-10384381D01*
X10588887Y-10384381D02*
X10607934Y-10393905D01*
X10607934Y-10393905D02*
X10617458Y-10403429D01*
X10617458Y-10403429D02*
X10626982Y-10422477D01*
X10626982Y-10422477D02*
X10636506Y-10460572D01*
X10636506Y-10460572D02*
X10636506Y-10508191D01*
X10636506Y-10508191D02*
X10626982Y-10546286D01*
X10626982Y-10546286D02*
X10617458Y-10565334D01*
X10617458Y-10565334D02*
X10607934Y-10574858D01*
X10607934Y-10574858D02*
X10588887Y-10584381D01*
X10588887Y-10584381D02*
X10569839Y-10584381D01*
X10569839Y-10584381D02*
X10550792Y-10574858D01*
X10550792Y-10574858D02*
X10541268Y-10565334D01*
X10541268Y-10565334D02*
X10531744Y-10546286D01*
X10531744Y-10546286D02*
X10522220Y-10508191D01*
X10522220Y-10508191D02*
X10522220Y-10460572D01*
X10522220Y-10460572D02*
X10531744Y-10422477D01*
X10531744Y-10422477D02*
X10541268Y-10403429D01*
X10541268Y-10403429D02*
X10550792Y-10393905D01*
X10550792Y-10393905D02*
X10569839Y-10384381D01*
X10722220Y-10565334D02*
X10731744Y-10574858D01*
X10731744Y-10574858D02*
X10722220Y-10584381D01*
X10722220Y-10584381D02*
X10712696Y-10574858D01*
X10712696Y-10574858D02*
X10722220Y-10565334D01*
X10722220Y-10565334D02*
X10722220Y-10584381D01*
X10855553Y-10384381D02*
X10874601Y-10384381D01*
X10874601Y-10384381D02*
X10893649Y-10393905D01*
X10893649Y-10393905D02*
X10903173Y-10403429D01*
X10903173Y-10403429D02*
X10912696Y-10422477D01*
X10912696Y-10422477D02*
X10922220Y-10460572D01*
X10922220Y-10460572D02*
X10922220Y-10508191D01*
X10922220Y-10508191D02*
X10912696Y-10546286D01*
X10912696Y-10546286D02*
X10903173Y-10565334D01*
X10903173Y-10565334D02*
X10893649Y-10574858D01*
X10893649Y-10574858D02*
X10874601Y-10584381D01*
X10874601Y-10584381D02*
X10855553Y-10584381D01*
X10855553Y-10584381D02*
X10836506Y-10574858D01*
X10836506Y-10574858D02*
X10826982Y-10565334D01*
X10826982Y-10565334D02*
X10817458Y-10546286D01*
X10817458Y-10546286D02*
X10807934Y-10508191D01*
X10807934Y-10508191D02*
X10807934Y-10460572D01*
X10807934Y-10460572D02*
X10817458Y-10422477D01*
X10817458Y-10422477D02*
X10826982Y-10403429D01*
X10826982Y-10403429D02*
X10836506Y-10393905D01*
X10836506Y-10393905D02*
X10855553Y-10384381D01*
X11112696Y-10584381D02*
X10998411Y-10584381D01*
X11055553Y-10584381D02*
X11055553Y-10384381D01*
X11055553Y-10384381D02*
X11036506Y-10412953D01*
X11036506Y-10412953D02*
X11017458Y-10432000D01*
X11017458Y-10432000D02*
X10998411Y-10441524D01*
X11293649Y-10384381D02*
X11198411Y-10384381D01*
X11198411Y-10384381D02*
X11188887Y-10479619D01*
X11188887Y-10479619D02*
X11198411Y-10470096D01*
X11198411Y-10470096D02*
X11217458Y-10460572D01*
X11217458Y-10460572D02*
X11265077Y-10460572D01*
X11265077Y-10460572D02*
X11284125Y-10470096D01*
X11284125Y-10470096D02*
X11293649Y-10479619D01*
X11293649Y-10479619D02*
X11303172Y-10498667D01*
X11303172Y-10498667D02*
X11303172Y-10546286D01*
X11303172Y-10546286D02*
X11293649Y-10565334D01*
X11293649Y-10565334D02*
X11284125Y-10574858D01*
X11284125Y-10574858D02*
X11265077Y-10584381D01*
X11265077Y-10584381D02*
X11217458Y-10584381D01*
X11217458Y-10584381D02*
X11198411Y-10574858D01*
X11198411Y-10574858D02*
X11188887Y-10565334D01*
X11369839Y-10384381D02*
X11503172Y-10384381D01*
X11503172Y-10384381D02*
X11417458Y-10584381D01*
X11569839Y-10384381D02*
X11569839Y-10422477D01*
X11646030Y-10384381D02*
X11646030Y-10422477D01*
X11941268Y-10660572D02*
X11931744Y-10651048D01*
X11931744Y-10651048D02*
X11912696Y-10622477D01*
X11912696Y-10622477D02*
X11903173Y-10603429D01*
X11903173Y-10603429D02*
X11893649Y-10574858D01*
X11893649Y-10574858D02*
X11884125Y-10527238D01*
X11884125Y-10527238D02*
X11884125Y-10489143D01*
X11884125Y-10489143D02*
X11893649Y-10441524D01*
X11893649Y-10441524D02*
X11903173Y-10412953D01*
X11903173Y-10412953D02*
X11912696Y-10393905D01*
X11912696Y-10393905D02*
X11931744Y-10365334D01*
X11931744Y-10365334D02*
X11941268Y-10355810D01*
X11998411Y-10384381D02*
X12122220Y-10384381D01*
X12122220Y-10384381D02*
X12055553Y-10460572D01*
X12055553Y-10460572D02*
X12084125Y-10460572D01*
X12084125Y-10460572D02*
X12103173Y-10470096D01*
X12103173Y-10470096D02*
X12112696Y-10479619D01*
X12112696Y-10479619D02*
X12122220Y-10498667D01*
X12122220Y-10498667D02*
X12122220Y-10546286D01*
X12122220Y-10546286D02*
X12112696Y-10565334D01*
X12112696Y-10565334D02*
X12103173Y-10574858D01*
X12103173Y-10574858D02*
X12084125Y-10584381D01*
X12084125Y-10584381D02*
X12026982Y-10584381D01*
X12026982Y-10584381D02*
X12007934Y-10574858D01*
X12007934Y-10574858D02*
X11998411Y-10565334D01*
X12360315Y-10584381D02*
X12360315Y-10384381D01*
X12446030Y-10584381D02*
X12446030Y-10479619D01*
X12446030Y-10479619D02*
X12436506Y-10460572D01*
X12436506Y-10460572D02*
X12417458Y-10451048D01*
X12417458Y-10451048D02*
X12388887Y-10451048D01*
X12388887Y-10451048D02*
X12369839Y-10460572D01*
X12369839Y-10460572D02*
X12360315Y-10470096D01*
X12569839Y-10584381D02*
X12550792Y-10574858D01*
X12550792Y-10574858D02*
X12541268Y-10565334D01*
X12541268Y-10565334D02*
X12531744Y-10546286D01*
X12531744Y-10546286D02*
X12531744Y-10489143D01*
X12531744Y-10489143D02*
X12541268Y-10470096D01*
X12541268Y-10470096D02*
X12550792Y-10460572D01*
X12550792Y-10460572D02*
X12569839Y-10451048D01*
X12569839Y-10451048D02*
X12598411Y-10451048D01*
X12598411Y-10451048D02*
X12617458Y-10460572D01*
X12617458Y-10460572D02*
X12626982Y-10470096D01*
X12626982Y-10470096D02*
X12636506Y-10489143D01*
X12636506Y-10489143D02*
X12636506Y-10546286D01*
X12636506Y-10546286D02*
X12626982Y-10565334D01*
X12626982Y-10565334D02*
X12617458Y-10574858D01*
X12617458Y-10574858D02*
X12598411Y-10584381D01*
X12598411Y-10584381D02*
X12569839Y-10584381D01*
X12750792Y-10584381D02*
X12731744Y-10574858D01*
X12731744Y-10574858D02*
X12722220Y-10555810D01*
X12722220Y-10555810D02*
X12722220Y-10384381D01*
X12903173Y-10574858D02*
X12884125Y-10584381D01*
X12884125Y-10584381D02*
X12846030Y-10584381D01*
X12846030Y-10584381D02*
X12826982Y-10574858D01*
X12826982Y-10574858D02*
X12817458Y-10555810D01*
X12817458Y-10555810D02*
X12817458Y-10479619D01*
X12817458Y-10479619D02*
X12826982Y-10460572D01*
X12826982Y-10460572D02*
X12846030Y-10451048D01*
X12846030Y-10451048D02*
X12884125Y-10451048D01*
X12884125Y-10451048D02*
X12903173Y-10460572D01*
X12903173Y-10460572D02*
X12912696Y-10479619D01*
X12912696Y-10479619D02*
X12912696Y-10498667D01*
X12912696Y-10498667D02*
X12817458Y-10517715D01*
X12988887Y-10574858D02*
X13007935Y-10584381D01*
X13007935Y-10584381D02*
X13046030Y-10584381D01*
X13046030Y-10584381D02*
X13065077Y-10574858D01*
X13065077Y-10574858D02*
X13074601Y-10555810D01*
X13074601Y-10555810D02*
X13074601Y-10546286D01*
X13074601Y-10546286D02*
X13065077Y-10527238D01*
X13065077Y-10527238D02*
X13046030Y-10517715D01*
X13046030Y-10517715D02*
X13017458Y-10517715D01*
X13017458Y-10517715D02*
X12998411Y-10508191D01*
X12998411Y-10508191D02*
X12988887Y-10489143D01*
X12988887Y-10489143D02*
X12988887Y-10479619D01*
X12988887Y-10479619D02*
X12998411Y-10460572D01*
X12998411Y-10460572D02*
X13017458Y-10451048D01*
X13017458Y-10451048D02*
X13046030Y-10451048D01*
X13046030Y-10451048D02*
X13065077Y-10460572D01*
X13141268Y-10660572D02*
X13150792Y-10651048D01*
X13150792Y-10651048D02*
X13169839Y-10622477D01*
X13169839Y-10622477D02*
X13179363Y-10603429D01*
X13179363Y-10603429D02*
X13188887Y-10574858D01*
X13188887Y-10574858D02*
X13198411Y-10527238D01*
X13198411Y-10527238D02*
X13198411Y-10489143D01*
X13198411Y-10489143D02*
X13188887Y-10441524D01*
X13188887Y-10441524D02*
X13179363Y-10412953D01*
X13179363Y-10412953D02*
X13169839Y-10393905D01*
X13169839Y-10393905D02*
X13150792Y-10365334D01*
X13150792Y-10365334D02*
X13141268Y-10355810D01*
D10*
X8366205Y-10756898D02*
G75*
G03*
X8366205Y-10756898I-32500J0D01*
G01*
D11*
X8665077Y-10648381D02*
X8684125Y-10648381D01*
X8684125Y-10648381D02*
X8703172Y-10657905D01*
X8703172Y-10657905D02*
X8712696Y-10667429D01*
X8712696Y-10667429D02*
X8722220Y-10686477D01*
X8722220Y-10686477D02*
X8731744Y-10724572D01*
X8731744Y-10724572D02*
X8731744Y-10772191D01*
X8731744Y-10772191D02*
X8722220Y-10810286D01*
X8722220Y-10810286D02*
X8712696Y-10829334D01*
X8712696Y-10829334D02*
X8703172Y-10838858D01*
X8703172Y-10838858D02*
X8684125Y-10848381D01*
X8684125Y-10848381D02*
X8665077Y-10848381D01*
X8665077Y-10848381D02*
X8646029Y-10838858D01*
X8646029Y-10838858D02*
X8636506Y-10829334D01*
X8636506Y-10829334D02*
X8626982Y-10810286D01*
X8626982Y-10810286D02*
X8617458Y-10772191D01*
X8617458Y-10772191D02*
X8617458Y-10724572D01*
X8617458Y-10724572D02*
X8626982Y-10686477D01*
X8626982Y-10686477D02*
X8636506Y-10667429D01*
X8636506Y-10667429D02*
X8646029Y-10657905D01*
X8646029Y-10657905D02*
X8665077Y-10648381D01*
X8817458Y-10829334D02*
X8826982Y-10838858D01*
X8826982Y-10838858D02*
X8817458Y-10848381D01*
X8817458Y-10848381D02*
X8807934Y-10838858D01*
X8807934Y-10838858D02*
X8817458Y-10829334D01*
X8817458Y-10829334D02*
X8817458Y-10848381D01*
X8998410Y-10648381D02*
X8960315Y-10648381D01*
X8960315Y-10648381D02*
X8941268Y-10657905D01*
X8941268Y-10657905D02*
X8931744Y-10667429D01*
X8931744Y-10667429D02*
X8912696Y-10696000D01*
X8912696Y-10696000D02*
X8903172Y-10734096D01*
X8903172Y-10734096D02*
X8903172Y-10810286D01*
X8903172Y-10810286D02*
X8912696Y-10829334D01*
X8912696Y-10829334D02*
X8922220Y-10838858D01*
X8922220Y-10838858D02*
X8941268Y-10848381D01*
X8941268Y-10848381D02*
X8979363Y-10848381D01*
X8979363Y-10848381D02*
X8998410Y-10838858D01*
X8998410Y-10838858D02*
X9007934Y-10829334D01*
X9007934Y-10829334D02*
X9017458Y-10810286D01*
X9017458Y-10810286D02*
X9017458Y-10762667D01*
X9017458Y-10762667D02*
X9007934Y-10743619D01*
X9007934Y-10743619D02*
X8998410Y-10734096D01*
X8998410Y-10734096D02*
X8979363Y-10724572D01*
X8979363Y-10724572D02*
X8941268Y-10724572D01*
X8941268Y-10724572D02*
X8922220Y-10734096D01*
X8922220Y-10734096D02*
X8912696Y-10743619D01*
X8912696Y-10743619D02*
X8903172Y-10762667D01*
X9198410Y-10648381D02*
X9103172Y-10648381D01*
X9103172Y-10648381D02*
X9093649Y-10743619D01*
X9093649Y-10743619D02*
X9103172Y-10734096D01*
X9103172Y-10734096D02*
X9122220Y-10724572D01*
X9122220Y-10724572D02*
X9169839Y-10724572D01*
X9169839Y-10724572D02*
X9188887Y-10734096D01*
X9188887Y-10734096D02*
X9198410Y-10743619D01*
X9198410Y-10743619D02*
X9207934Y-10762667D01*
X9207934Y-10762667D02*
X9207934Y-10810286D01*
X9207934Y-10810286D02*
X9198410Y-10829334D01*
X9198410Y-10829334D02*
X9188887Y-10838858D01*
X9188887Y-10838858D02*
X9169839Y-10848381D01*
X9169839Y-10848381D02*
X9122220Y-10848381D01*
X9122220Y-10848381D02*
X9103172Y-10838858D01*
X9103172Y-10838858D02*
X9093649Y-10829334D01*
X9331744Y-10648381D02*
X9350791Y-10648381D01*
X9350791Y-10648381D02*
X9369839Y-10657905D01*
X9369839Y-10657905D02*
X9379363Y-10667429D01*
X9379363Y-10667429D02*
X9388887Y-10686477D01*
X9388887Y-10686477D02*
X9398410Y-10724572D01*
X9398410Y-10724572D02*
X9398410Y-10772191D01*
X9398410Y-10772191D02*
X9388887Y-10810286D01*
X9388887Y-10810286D02*
X9379363Y-10829334D01*
X9379363Y-10829334D02*
X9369839Y-10838858D01*
X9369839Y-10838858D02*
X9350791Y-10848381D01*
X9350791Y-10848381D02*
X9331744Y-10848381D01*
X9331744Y-10848381D02*
X9312696Y-10838858D01*
X9312696Y-10838858D02*
X9303172Y-10829334D01*
X9303172Y-10829334D02*
X9293649Y-10810286D01*
X9293649Y-10810286D02*
X9284125Y-10772191D01*
X9284125Y-10772191D02*
X9284125Y-10724572D01*
X9284125Y-10724572D02*
X9293649Y-10686477D01*
X9293649Y-10686477D02*
X9303172Y-10667429D01*
X9303172Y-10667429D02*
X9312696Y-10657905D01*
X9312696Y-10657905D02*
X9331744Y-10648381D01*
X9484125Y-10848381D02*
X9484125Y-10715048D01*
X9484125Y-10734096D02*
X9493649Y-10724572D01*
X9493649Y-10724572D02*
X9512696Y-10715048D01*
X9512696Y-10715048D02*
X9541268Y-10715048D01*
X9541268Y-10715048D02*
X9560315Y-10724572D01*
X9560315Y-10724572D02*
X9569839Y-10743619D01*
X9569839Y-10743619D02*
X9569839Y-10848381D01*
X9569839Y-10743619D02*
X9579363Y-10724572D01*
X9579363Y-10724572D02*
X9598410Y-10715048D01*
X9598410Y-10715048D02*
X9626982Y-10715048D01*
X9626982Y-10715048D02*
X9646030Y-10724572D01*
X9646030Y-10724572D02*
X9655553Y-10743619D01*
X9655553Y-10743619D02*
X9655553Y-10848381D01*
X9750791Y-10848381D02*
X9750791Y-10715048D01*
X9750791Y-10734096D02*
X9760315Y-10724572D01*
X9760315Y-10724572D02*
X9779363Y-10715048D01*
X9779363Y-10715048D02*
X9807934Y-10715048D01*
X9807934Y-10715048D02*
X9826982Y-10724572D01*
X9826982Y-10724572D02*
X9836506Y-10743619D01*
X9836506Y-10743619D02*
X9836506Y-10848381D01*
X9836506Y-10743619D02*
X9846030Y-10724572D01*
X9846030Y-10724572D02*
X9865077Y-10715048D01*
X9865077Y-10715048D02*
X9893649Y-10715048D01*
X9893649Y-10715048D02*
X9912696Y-10724572D01*
X9912696Y-10724572D02*
X9922220Y-10743619D01*
X9922220Y-10743619D02*
X9922220Y-10848381D01*
X10312696Y-10638858D02*
X10141268Y-10896000D01*
X10569839Y-10648381D02*
X10588887Y-10648381D01*
X10588887Y-10648381D02*
X10607934Y-10657905D01*
X10607934Y-10657905D02*
X10617458Y-10667429D01*
X10617458Y-10667429D02*
X10626982Y-10686477D01*
X10626982Y-10686477D02*
X10636506Y-10724572D01*
X10636506Y-10724572D02*
X10636506Y-10772191D01*
X10636506Y-10772191D02*
X10626982Y-10810286D01*
X10626982Y-10810286D02*
X10617458Y-10829334D01*
X10617458Y-10829334D02*
X10607934Y-10838858D01*
X10607934Y-10838858D02*
X10588887Y-10848381D01*
X10588887Y-10848381D02*
X10569839Y-10848381D01*
X10569839Y-10848381D02*
X10550792Y-10838858D01*
X10550792Y-10838858D02*
X10541268Y-10829334D01*
X10541268Y-10829334D02*
X10531744Y-10810286D01*
X10531744Y-10810286D02*
X10522220Y-10772191D01*
X10522220Y-10772191D02*
X10522220Y-10724572D01*
X10522220Y-10724572D02*
X10531744Y-10686477D01*
X10531744Y-10686477D02*
X10541268Y-10667429D01*
X10541268Y-10667429D02*
X10550792Y-10657905D01*
X10550792Y-10657905D02*
X10569839Y-10648381D01*
X10722220Y-10829334D02*
X10731744Y-10838858D01*
X10731744Y-10838858D02*
X10722220Y-10848381D01*
X10722220Y-10848381D02*
X10712696Y-10838858D01*
X10712696Y-10838858D02*
X10722220Y-10829334D01*
X10722220Y-10829334D02*
X10722220Y-10848381D01*
X10855553Y-10648381D02*
X10874601Y-10648381D01*
X10874601Y-10648381D02*
X10893649Y-10657905D01*
X10893649Y-10657905D02*
X10903173Y-10667429D01*
X10903173Y-10667429D02*
X10912696Y-10686477D01*
X10912696Y-10686477D02*
X10922220Y-10724572D01*
X10922220Y-10724572D02*
X10922220Y-10772191D01*
X10922220Y-10772191D02*
X10912696Y-10810286D01*
X10912696Y-10810286D02*
X10903173Y-10829334D01*
X10903173Y-10829334D02*
X10893649Y-10838858D01*
X10893649Y-10838858D02*
X10874601Y-10848381D01*
X10874601Y-10848381D02*
X10855553Y-10848381D01*
X10855553Y-10848381D02*
X10836506Y-10838858D01*
X10836506Y-10838858D02*
X10826982Y-10829334D01*
X10826982Y-10829334D02*
X10817458Y-10810286D01*
X10817458Y-10810286D02*
X10807934Y-10772191D01*
X10807934Y-10772191D02*
X10807934Y-10724572D01*
X10807934Y-10724572D02*
X10817458Y-10686477D01*
X10817458Y-10686477D02*
X10826982Y-10667429D01*
X10826982Y-10667429D02*
X10836506Y-10657905D01*
X10836506Y-10657905D02*
X10855553Y-10648381D01*
X10998411Y-10667429D02*
X11007934Y-10657905D01*
X11007934Y-10657905D02*
X11026982Y-10648381D01*
X11026982Y-10648381D02*
X11074601Y-10648381D01*
X11074601Y-10648381D02*
X11093649Y-10657905D01*
X11093649Y-10657905D02*
X11103173Y-10667429D01*
X11103173Y-10667429D02*
X11112696Y-10686477D01*
X11112696Y-10686477D02*
X11112696Y-10705524D01*
X11112696Y-10705524D02*
X11103173Y-10734096D01*
X11103173Y-10734096D02*
X10988887Y-10848381D01*
X10988887Y-10848381D02*
X11112696Y-10848381D01*
X11293649Y-10648381D02*
X11198411Y-10648381D01*
X11198411Y-10648381D02*
X11188887Y-10743619D01*
X11188887Y-10743619D02*
X11198411Y-10734096D01*
X11198411Y-10734096D02*
X11217458Y-10724572D01*
X11217458Y-10724572D02*
X11265077Y-10724572D01*
X11265077Y-10724572D02*
X11284125Y-10734096D01*
X11284125Y-10734096D02*
X11293649Y-10743619D01*
X11293649Y-10743619D02*
X11303172Y-10762667D01*
X11303172Y-10762667D02*
X11303172Y-10810286D01*
X11303172Y-10810286D02*
X11293649Y-10829334D01*
X11293649Y-10829334D02*
X11284125Y-10838858D01*
X11284125Y-10838858D02*
X11265077Y-10848381D01*
X11265077Y-10848381D02*
X11217458Y-10848381D01*
X11217458Y-10848381D02*
X11198411Y-10838858D01*
X11198411Y-10838858D02*
X11188887Y-10829334D01*
X11474601Y-10648381D02*
X11436506Y-10648381D01*
X11436506Y-10648381D02*
X11417458Y-10657905D01*
X11417458Y-10657905D02*
X11407934Y-10667429D01*
X11407934Y-10667429D02*
X11388887Y-10696000D01*
X11388887Y-10696000D02*
X11379363Y-10734096D01*
X11379363Y-10734096D02*
X11379363Y-10810286D01*
X11379363Y-10810286D02*
X11388887Y-10829334D01*
X11388887Y-10829334D02*
X11398411Y-10838858D01*
X11398411Y-10838858D02*
X11417458Y-10848381D01*
X11417458Y-10848381D02*
X11455553Y-10848381D01*
X11455553Y-10848381D02*
X11474601Y-10838858D01*
X11474601Y-10838858D02*
X11484125Y-10829334D01*
X11484125Y-10829334D02*
X11493649Y-10810286D01*
X11493649Y-10810286D02*
X11493649Y-10762667D01*
X11493649Y-10762667D02*
X11484125Y-10743619D01*
X11484125Y-10743619D02*
X11474601Y-10734096D01*
X11474601Y-10734096D02*
X11455553Y-10724572D01*
X11455553Y-10724572D02*
X11417458Y-10724572D01*
X11417458Y-10724572D02*
X11398411Y-10734096D01*
X11398411Y-10734096D02*
X11388887Y-10743619D01*
X11388887Y-10743619D02*
X11379363Y-10762667D01*
X11569839Y-10648381D02*
X11569839Y-10686477D01*
X11646030Y-10648381D02*
X11646030Y-10686477D01*
X11941268Y-10924572D02*
X11931744Y-10915048D01*
X11931744Y-10915048D02*
X11912696Y-10886477D01*
X11912696Y-10886477D02*
X11903173Y-10867429D01*
X11903173Y-10867429D02*
X11893649Y-10838858D01*
X11893649Y-10838858D02*
X11884125Y-10791238D01*
X11884125Y-10791238D02*
X11884125Y-10753143D01*
X11884125Y-10753143D02*
X11893649Y-10705524D01*
X11893649Y-10705524D02*
X11903173Y-10676953D01*
X11903173Y-10676953D02*
X11912696Y-10657905D01*
X11912696Y-10657905D02*
X11931744Y-10629334D01*
X11931744Y-10629334D02*
X11941268Y-10619810D01*
X12103173Y-10648381D02*
X12065077Y-10648381D01*
X12065077Y-10648381D02*
X12046030Y-10657905D01*
X12046030Y-10657905D02*
X12036506Y-10667429D01*
X12036506Y-10667429D02*
X12017458Y-10696000D01*
X12017458Y-10696000D02*
X12007934Y-10734096D01*
X12007934Y-10734096D02*
X12007934Y-10810286D01*
X12007934Y-10810286D02*
X12017458Y-10829334D01*
X12017458Y-10829334D02*
X12026982Y-10838858D01*
X12026982Y-10838858D02*
X12046030Y-10848381D01*
X12046030Y-10848381D02*
X12084125Y-10848381D01*
X12084125Y-10848381D02*
X12103173Y-10838858D01*
X12103173Y-10838858D02*
X12112696Y-10829334D01*
X12112696Y-10829334D02*
X12122220Y-10810286D01*
X12122220Y-10810286D02*
X12122220Y-10762667D01*
X12122220Y-10762667D02*
X12112696Y-10743619D01*
X12112696Y-10743619D02*
X12103173Y-10734096D01*
X12103173Y-10734096D02*
X12084125Y-10724572D01*
X12084125Y-10724572D02*
X12046030Y-10724572D01*
X12046030Y-10724572D02*
X12026982Y-10734096D01*
X12026982Y-10734096D02*
X12017458Y-10743619D01*
X12017458Y-10743619D02*
X12007934Y-10762667D01*
X12246030Y-10648381D02*
X12265077Y-10648381D01*
X12265077Y-10648381D02*
X12284125Y-10657905D01*
X12284125Y-10657905D02*
X12293649Y-10667429D01*
X12293649Y-10667429D02*
X12303173Y-10686477D01*
X12303173Y-10686477D02*
X12312696Y-10724572D01*
X12312696Y-10724572D02*
X12312696Y-10772191D01*
X12312696Y-10772191D02*
X12303173Y-10810286D01*
X12303173Y-10810286D02*
X12293649Y-10829334D01*
X12293649Y-10829334D02*
X12284125Y-10838858D01*
X12284125Y-10838858D02*
X12265077Y-10848381D01*
X12265077Y-10848381D02*
X12246030Y-10848381D01*
X12246030Y-10848381D02*
X12226982Y-10838858D01*
X12226982Y-10838858D02*
X12217458Y-10829334D01*
X12217458Y-10829334D02*
X12207934Y-10810286D01*
X12207934Y-10810286D02*
X12198411Y-10772191D01*
X12198411Y-10772191D02*
X12198411Y-10724572D01*
X12198411Y-10724572D02*
X12207934Y-10686477D01*
X12207934Y-10686477D02*
X12217458Y-10667429D01*
X12217458Y-10667429D02*
X12226982Y-10657905D01*
X12226982Y-10657905D02*
X12246030Y-10648381D01*
X12550792Y-10848381D02*
X12550792Y-10648381D01*
X12636506Y-10848381D02*
X12636506Y-10743619D01*
X12636506Y-10743619D02*
X12626982Y-10724572D01*
X12626982Y-10724572D02*
X12607935Y-10715048D01*
X12607935Y-10715048D02*
X12579363Y-10715048D01*
X12579363Y-10715048D02*
X12560315Y-10724572D01*
X12560315Y-10724572D02*
X12550792Y-10734096D01*
X12760315Y-10848381D02*
X12741268Y-10838858D01*
X12741268Y-10838858D02*
X12731744Y-10829334D01*
X12731744Y-10829334D02*
X12722220Y-10810286D01*
X12722220Y-10810286D02*
X12722220Y-10753143D01*
X12722220Y-10753143D02*
X12731744Y-10734096D01*
X12731744Y-10734096D02*
X12741268Y-10724572D01*
X12741268Y-10724572D02*
X12760315Y-10715048D01*
X12760315Y-10715048D02*
X12788887Y-10715048D01*
X12788887Y-10715048D02*
X12807935Y-10724572D01*
X12807935Y-10724572D02*
X12817458Y-10734096D01*
X12817458Y-10734096D02*
X12826982Y-10753143D01*
X12826982Y-10753143D02*
X12826982Y-10810286D01*
X12826982Y-10810286D02*
X12817458Y-10829334D01*
X12817458Y-10829334D02*
X12807935Y-10838858D01*
X12807935Y-10838858D02*
X12788887Y-10848381D01*
X12788887Y-10848381D02*
X12760315Y-10848381D01*
X12941268Y-10848381D02*
X12922220Y-10838858D01*
X12922220Y-10838858D02*
X12912696Y-10819810D01*
X12912696Y-10819810D02*
X12912696Y-10648381D01*
X13093649Y-10838858D02*
X13074601Y-10848381D01*
X13074601Y-10848381D02*
X13036506Y-10848381D01*
X13036506Y-10848381D02*
X13017458Y-10838858D01*
X13017458Y-10838858D02*
X13007935Y-10819810D01*
X13007935Y-10819810D02*
X13007935Y-10743619D01*
X13007935Y-10743619D02*
X13017458Y-10724572D01*
X13017458Y-10724572D02*
X13036506Y-10715048D01*
X13036506Y-10715048D02*
X13074601Y-10715048D01*
X13074601Y-10715048D02*
X13093649Y-10724572D01*
X13093649Y-10724572D02*
X13103173Y-10743619D01*
X13103173Y-10743619D02*
X13103173Y-10762667D01*
X13103173Y-10762667D02*
X13007935Y-10781715D01*
X13179363Y-10838858D02*
X13198411Y-10848381D01*
X13198411Y-10848381D02*
X13236506Y-10848381D01*
X13236506Y-10848381D02*
X13255554Y-10838858D01*
X13255554Y-10838858D02*
X13265077Y-10819810D01*
X13265077Y-10819810D02*
X13265077Y-10810286D01*
X13265077Y-10810286D02*
X13255554Y-10791238D01*
X13255554Y-10791238D02*
X13236506Y-10781715D01*
X13236506Y-10781715D02*
X13207935Y-10781715D01*
X13207935Y-10781715D02*
X13188887Y-10772191D01*
X13188887Y-10772191D02*
X13179363Y-10753143D01*
X13179363Y-10753143D02*
X13179363Y-10743619D01*
X13179363Y-10743619D02*
X13188887Y-10724572D01*
X13188887Y-10724572D02*
X13207935Y-10715048D01*
X13207935Y-10715048D02*
X13236506Y-10715048D01*
X13236506Y-10715048D02*
X13255554Y-10724572D01*
X13331744Y-10924572D02*
X13341268Y-10915048D01*
X13341268Y-10915048D02*
X13360316Y-10886477D01*
X13360316Y-10886477D02*
X13369839Y-10867429D01*
X13369839Y-10867429D02*
X13379363Y-10838858D01*
X13379363Y-10838858D02*
X13388887Y-10791238D01*
X13388887Y-10791238D02*
X13388887Y-10753143D01*
X13388887Y-10753143D02*
X13379363Y-10705524D01*
X13379363Y-10705524D02*
X13369839Y-10676953D01*
X13369839Y-10676953D02*
X13360316Y-10657905D01*
X13360316Y-10657905D02*
X13341268Y-10629334D01*
X13341268Y-10629334D02*
X13331744Y-10619810D01*
X8266205Y-10920898D02*
X8266205Y-11120898D01*
X8166205Y-11020898D02*
X8366205Y-11020898D01*
X8607934Y-10912381D02*
X8731744Y-10912381D01*
X8731744Y-10912381D02*
X8665077Y-10988572D01*
X8665077Y-10988572D02*
X8693649Y-10988572D01*
X8693649Y-10988572D02*
X8712696Y-10998096D01*
X8712696Y-10998096D02*
X8722220Y-11007619D01*
X8722220Y-11007619D02*
X8731744Y-11026667D01*
X8731744Y-11026667D02*
X8731744Y-11074286D01*
X8731744Y-11074286D02*
X8722220Y-11093334D01*
X8722220Y-11093334D02*
X8712696Y-11102858D01*
X8712696Y-11102858D02*
X8693649Y-11112381D01*
X8693649Y-11112381D02*
X8636506Y-11112381D01*
X8636506Y-11112381D02*
X8617458Y-11102858D01*
X8617458Y-11102858D02*
X8607934Y-11093334D01*
X8817458Y-11093334D02*
X8826982Y-11102858D01*
X8826982Y-11102858D02*
X8817458Y-11112381D01*
X8817458Y-11112381D02*
X8807934Y-11102858D01*
X8807934Y-11102858D02*
X8817458Y-11093334D01*
X8817458Y-11093334D02*
X8817458Y-11112381D01*
X8903172Y-10931429D02*
X8912696Y-10921905D01*
X8912696Y-10921905D02*
X8931744Y-10912381D01*
X8931744Y-10912381D02*
X8979363Y-10912381D01*
X8979363Y-10912381D02*
X8998410Y-10921905D01*
X8998410Y-10921905D02*
X9007934Y-10931429D01*
X9007934Y-10931429D02*
X9017458Y-10950477D01*
X9017458Y-10950477D02*
X9017458Y-10969524D01*
X9017458Y-10969524D02*
X9007934Y-10998096D01*
X9007934Y-10998096D02*
X8893649Y-11112381D01*
X8893649Y-11112381D02*
X9017458Y-11112381D01*
X9141268Y-10912381D02*
X9160315Y-10912381D01*
X9160315Y-10912381D02*
X9179363Y-10921905D01*
X9179363Y-10921905D02*
X9188887Y-10931429D01*
X9188887Y-10931429D02*
X9198410Y-10950477D01*
X9198410Y-10950477D02*
X9207934Y-10988572D01*
X9207934Y-10988572D02*
X9207934Y-11036191D01*
X9207934Y-11036191D02*
X9198410Y-11074286D01*
X9198410Y-11074286D02*
X9188887Y-11093334D01*
X9188887Y-11093334D02*
X9179363Y-11102858D01*
X9179363Y-11102858D02*
X9160315Y-11112381D01*
X9160315Y-11112381D02*
X9141268Y-11112381D01*
X9141268Y-11112381D02*
X9122220Y-11102858D01*
X9122220Y-11102858D02*
X9112696Y-11093334D01*
X9112696Y-11093334D02*
X9103172Y-11074286D01*
X9103172Y-11074286D02*
X9093649Y-11036191D01*
X9093649Y-11036191D02*
X9093649Y-10988572D01*
X9093649Y-10988572D02*
X9103172Y-10950477D01*
X9103172Y-10950477D02*
X9112696Y-10931429D01*
X9112696Y-10931429D02*
X9122220Y-10921905D01*
X9122220Y-10921905D02*
X9141268Y-10912381D01*
X9331744Y-10912381D02*
X9350791Y-10912381D01*
X9350791Y-10912381D02*
X9369839Y-10921905D01*
X9369839Y-10921905D02*
X9379363Y-10931429D01*
X9379363Y-10931429D02*
X9388887Y-10950477D01*
X9388887Y-10950477D02*
X9398410Y-10988572D01*
X9398410Y-10988572D02*
X9398410Y-11036191D01*
X9398410Y-11036191D02*
X9388887Y-11074286D01*
X9388887Y-11074286D02*
X9379363Y-11093334D01*
X9379363Y-11093334D02*
X9369839Y-11102858D01*
X9369839Y-11102858D02*
X9350791Y-11112381D01*
X9350791Y-11112381D02*
X9331744Y-11112381D01*
X9331744Y-11112381D02*
X9312696Y-11102858D01*
X9312696Y-11102858D02*
X9303172Y-11093334D01*
X9303172Y-11093334D02*
X9293649Y-11074286D01*
X9293649Y-11074286D02*
X9284125Y-11036191D01*
X9284125Y-11036191D02*
X9284125Y-10988572D01*
X9284125Y-10988572D02*
X9293649Y-10950477D01*
X9293649Y-10950477D02*
X9303172Y-10931429D01*
X9303172Y-10931429D02*
X9312696Y-10921905D01*
X9312696Y-10921905D02*
X9331744Y-10912381D01*
X9484125Y-11112381D02*
X9484125Y-10979048D01*
X9484125Y-10998096D02*
X9493649Y-10988572D01*
X9493649Y-10988572D02*
X9512696Y-10979048D01*
X9512696Y-10979048D02*
X9541268Y-10979048D01*
X9541268Y-10979048D02*
X9560315Y-10988572D01*
X9560315Y-10988572D02*
X9569839Y-11007619D01*
X9569839Y-11007619D02*
X9569839Y-11112381D01*
X9569839Y-11007619D02*
X9579363Y-10988572D01*
X9579363Y-10988572D02*
X9598410Y-10979048D01*
X9598410Y-10979048D02*
X9626982Y-10979048D01*
X9626982Y-10979048D02*
X9646030Y-10988572D01*
X9646030Y-10988572D02*
X9655553Y-11007619D01*
X9655553Y-11007619D02*
X9655553Y-11112381D01*
X9750791Y-11112381D02*
X9750791Y-10979048D01*
X9750791Y-10998096D02*
X9760315Y-10988572D01*
X9760315Y-10988572D02*
X9779363Y-10979048D01*
X9779363Y-10979048D02*
X9807934Y-10979048D01*
X9807934Y-10979048D02*
X9826982Y-10988572D01*
X9826982Y-10988572D02*
X9836506Y-11007619D01*
X9836506Y-11007619D02*
X9836506Y-11112381D01*
X9836506Y-11007619D02*
X9846030Y-10988572D01*
X9846030Y-10988572D02*
X9865077Y-10979048D01*
X9865077Y-10979048D02*
X9893649Y-10979048D01*
X9893649Y-10979048D02*
X9912696Y-10988572D01*
X9912696Y-10988572D02*
X9922220Y-11007619D01*
X9922220Y-11007619D02*
X9922220Y-11112381D01*
X10312696Y-10902858D02*
X10141268Y-11160000D01*
X10569839Y-10912381D02*
X10588887Y-10912381D01*
X10588887Y-10912381D02*
X10607934Y-10921905D01*
X10607934Y-10921905D02*
X10617458Y-10931429D01*
X10617458Y-10931429D02*
X10626982Y-10950477D01*
X10626982Y-10950477D02*
X10636506Y-10988572D01*
X10636506Y-10988572D02*
X10636506Y-11036191D01*
X10636506Y-11036191D02*
X10626982Y-11074286D01*
X10626982Y-11074286D02*
X10617458Y-11093334D01*
X10617458Y-11093334D02*
X10607934Y-11102858D01*
X10607934Y-11102858D02*
X10588887Y-11112381D01*
X10588887Y-11112381D02*
X10569839Y-11112381D01*
X10569839Y-11112381D02*
X10550792Y-11102858D01*
X10550792Y-11102858D02*
X10541268Y-11093334D01*
X10541268Y-11093334D02*
X10531744Y-11074286D01*
X10531744Y-11074286D02*
X10522220Y-11036191D01*
X10522220Y-11036191D02*
X10522220Y-10988572D01*
X10522220Y-10988572D02*
X10531744Y-10950477D01*
X10531744Y-10950477D02*
X10541268Y-10931429D01*
X10541268Y-10931429D02*
X10550792Y-10921905D01*
X10550792Y-10921905D02*
X10569839Y-10912381D01*
X10722220Y-11093334D02*
X10731744Y-11102858D01*
X10731744Y-11102858D02*
X10722220Y-11112381D01*
X10722220Y-11112381D02*
X10712696Y-11102858D01*
X10712696Y-11102858D02*
X10722220Y-11093334D01*
X10722220Y-11093334D02*
X10722220Y-11112381D01*
X10922220Y-11112381D02*
X10807934Y-11112381D01*
X10865077Y-11112381D02*
X10865077Y-10912381D01*
X10865077Y-10912381D02*
X10846030Y-10940953D01*
X10846030Y-10940953D02*
X10826982Y-10960000D01*
X10826982Y-10960000D02*
X10807934Y-10969524D01*
X10998411Y-10931429D02*
X11007934Y-10921905D01*
X11007934Y-10921905D02*
X11026982Y-10912381D01*
X11026982Y-10912381D02*
X11074601Y-10912381D01*
X11074601Y-10912381D02*
X11093649Y-10921905D01*
X11093649Y-10921905D02*
X11103173Y-10931429D01*
X11103173Y-10931429D02*
X11112696Y-10950477D01*
X11112696Y-10950477D02*
X11112696Y-10969524D01*
X11112696Y-10969524D02*
X11103173Y-10998096D01*
X11103173Y-10998096D02*
X10988887Y-11112381D01*
X10988887Y-11112381D02*
X11112696Y-11112381D01*
X11284125Y-10912381D02*
X11246030Y-10912381D01*
X11246030Y-10912381D02*
X11226982Y-10921905D01*
X11226982Y-10921905D02*
X11217458Y-10931429D01*
X11217458Y-10931429D02*
X11198411Y-10960000D01*
X11198411Y-10960000D02*
X11188887Y-10998096D01*
X11188887Y-10998096D02*
X11188887Y-11074286D01*
X11188887Y-11074286D02*
X11198411Y-11093334D01*
X11198411Y-11093334D02*
X11207934Y-11102858D01*
X11207934Y-11102858D02*
X11226982Y-11112381D01*
X11226982Y-11112381D02*
X11265077Y-11112381D01*
X11265077Y-11112381D02*
X11284125Y-11102858D01*
X11284125Y-11102858D02*
X11293649Y-11093334D01*
X11293649Y-11093334D02*
X11303172Y-11074286D01*
X11303172Y-11074286D02*
X11303172Y-11026667D01*
X11303172Y-11026667D02*
X11293649Y-11007619D01*
X11293649Y-11007619D02*
X11284125Y-10998096D01*
X11284125Y-10998096D02*
X11265077Y-10988572D01*
X11265077Y-10988572D02*
X11226982Y-10988572D01*
X11226982Y-10988572D02*
X11207934Y-10998096D01*
X11207934Y-10998096D02*
X11198411Y-11007619D01*
X11198411Y-11007619D02*
X11188887Y-11026667D01*
X11426982Y-10912381D02*
X11446030Y-10912381D01*
X11446030Y-10912381D02*
X11465077Y-10921905D01*
X11465077Y-10921905D02*
X11474601Y-10931429D01*
X11474601Y-10931429D02*
X11484125Y-10950477D01*
X11484125Y-10950477D02*
X11493649Y-10988572D01*
X11493649Y-10988572D02*
X11493649Y-11036191D01*
X11493649Y-11036191D02*
X11484125Y-11074286D01*
X11484125Y-11074286D02*
X11474601Y-11093334D01*
X11474601Y-11093334D02*
X11465077Y-11102858D01*
X11465077Y-11102858D02*
X11446030Y-11112381D01*
X11446030Y-11112381D02*
X11426982Y-11112381D01*
X11426982Y-11112381D02*
X11407934Y-11102858D01*
X11407934Y-11102858D02*
X11398411Y-11093334D01*
X11398411Y-11093334D02*
X11388887Y-11074286D01*
X11388887Y-11074286D02*
X11379363Y-11036191D01*
X11379363Y-11036191D02*
X11379363Y-10988572D01*
X11379363Y-10988572D02*
X11388887Y-10950477D01*
X11388887Y-10950477D02*
X11398411Y-10931429D01*
X11398411Y-10931429D02*
X11407934Y-10921905D01*
X11407934Y-10921905D02*
X11426982Y-10912381D01*
X11569839Y-10912381D02*
X11569839Y-10950477D01*
X11646030Y-10912381D02*
X11646030Y-10950477D01*
X11941268Y-11188572D02*
X11931744Y-11179048D01*
X11931744Y-11179048D02*
X11912696Y-11150477D01*
X11912696Y-11150477D02*
X11903173Y-11131429D01*
X11903173Y-11131429D02*
X11893649Y-11102858D01*
X11893649Y-11102858D02*
X11884125Y-11055238D01*
X11884125Y-11055238D02*
X11884125Y-11017143D01*
X11884125Y-11017143D02*
X11893649Y-10969524D01*
X11893649Y-10969524D02*
X11903173Y-10940953D01*
X11903173Y-10940953D02*
X11912696Y-10921905D01*
X11912696Y-10921905D02*
X11931744Y-10893334D01*
X11931744Y-10893334D02*
X11941268Y-10883810D01*
X12103173Y-10979048D02*
X12103173Y-11112381D01*
X12055553Y-10902858D02*
X12007934Y-11045715D01*
X12007934Y-11045715D02*
X12131744Y-11045715D01*
X12360315Y-11112381D02*
X12360315Y-10912381D01*
X12446030Y-11112381D02*
X12446030Y-11007619D01*
X12446030Y-11007619D02*
X12436506Y-10988572D01*
X12436506Y-10988572D02*
X12417458Y-10979048D01*
X12417458Y-10979048D02*
X12388887Y-10979048D01*
X12388887Y-10979048D02*
X12369839Y-10988572D01*
X12369839Y-10988572D02*
X12360315Y-10998096D01*
X12569839Y-11112381D02*
X12550792Y-11102858D01*
X12550792Y-11102858D02*
X12541268Y-11093334D01*
X12541268Y-11093334D02*
X12531744Y-11074286D01*
X12531744Y-11074286D02*
X12531744Y-11017143D01*
X12531744Y-11017143D02*
X12541268Y-10998096D01*
X12541268Y-10998096D02*
X12550792Y-10988572D01*
X12550792Y-10988572D02*
X12569839Y-10979048D01*
X12569839Y-10979048D02*
X12598411Y-10979048D01*
X12598411Y-10979048D02*
X12617458Y-10988572D01*
X12617458Y-10988572D02*
X12626982Y-10998096D01*
X12626982Y-10998096D02*
X12636506Y-11017143D01*
X12636506Y-11017143D02*
X12636506Y-11074286D01*
X12636506Y-11074286D02*
X12626982Y-11093334D01*
X12626982Y-11093334D02*
X12617458Y-11102858D01*
X12617458Y-11102858D02*
X12598411Y-11112381D01*
X12598411Y-11112381D02*
X12569839Y-11112381D01*
X12750792Y-11112381D02*
X12731744Y-11102858D01*
X12731744Y-11102858D02*
X12722220Y-11083810D01*
X12722220Y-11083810D02*
X12722220Y-10912381D01*
X12903173Y-11102858D02*
X12884125Y-11112381D01*
X12884125Y-11112381D02*
X12846030Y-11112381D01*
X12846030Y-11112381D02*
X12826982Y-11102858D01*
X12826982Y-11102858D02*
X12817458Y-11083810D01*
X12817458Y-11083810D02*
X12817458Y-11007619D01*
X12817458Y-11007619D02*
X12826982Y-10988572D01*
X12826982Y-10988572D02*
X12846030Y-10979048D01*
X12846030Y-10979048D02*
X12884125Y-10979048D01*
X12884125Y-10979048D02*
X12903173Y-10988572D01*
X12903173Y-10988572D02*
X12912696Y-11007619D01*
X12912696Y-11007619D02*
X12912696Y-11026667D01*
X12912696Y-11026667D02*
X12817458Y-11045715D01*
X12988887Y-11102858D02*
X13007935Y-11112381D01*
X13007935Y-11112381D02*
X13046030Y-11112381D01*
X13046030Y-11112381D02*
X13065077Y-11102858D01*
X13065077Y-11102858D02*
X13074601Y-11083810D01*
X13074601Y-11083810D02*
X13074601Y-11074286D01*
X13074601Y-11074286D02*
X13065077Y-11055238D01*
X13065077Y-11055238D02*
X13046030Y-11045715D01*
X13046030Y-11045715D02*
X13017458Y-11045715D01*
X13017458Y-11045715D02*
X12998411Y-11036191D01*
X12998411Y-11036191D02*
X12988887Y-11017143D01*
X12988887Y-11017143D02*
X12988887Y-11007619D01*
X12988887Y-11007619D02*
X12998411Y-10988572D01*
X12998411Y-10988572D02*
X13017458Y-10979048D01*
X13017458Y-10979048D02*
X13046030Y-10979048D01*
X13046030Y-10979048D02*
X13065077Y-10988572D01*
X13141268Y-11188572D02*
X13150792Y-11179048D01*
X13150792Y-11179048D02*
X13169839Y-11150477D01*
X13169839Y-11150477D02*
X13179363Y-11131429D01*
X13179363Y-11131429D02*
X13188887Y-11102858D01*
X13188887Y-11102858D02*
X13198411Y-11055238D01*
X13198411Y-11055238D02*
X13198411Y-11017143D01*
X13198411Y-11017143D02*
X13188887Y-10969524D01*
X13188887Y-10969524D02*
X13179363Y-10940953D01*
X13179363Y-10940953D02*
X13169839Y-10921905D01*
X13169839Y-10921905D02*
X13150792Y-10893334D01*
X13150792Y-10893334D02*
X13141268Y-10883810D01*
M02*
